<?xml version="1.0" encoding="UTF-8" standalone="no"?>
<!-- Created with Inkscape (http://www.inkscape.org/) -->

<svg
   xmlns:dc="http://purl.org/dc/elements/1.1/"
   xmlns:cc="http://creativecommons.org/ns#"
   xmlns:rdf="http://www.w3.org/1999/02/22-rdf-syntax-ns#"
   xmlns:svg="http://www.w3.org/2000/svg"
   xmlns="http://www.w3.org/2000/svg"
   version="1.1"
   width="625"
   height="279.85001"
   id="svg2"
   xml:space="preserve"><metadata
     id="metadata8"><rdf:RDF><cc:Work
         rdf:about=""><dc:format>image/svg+xml</dc:format><dc:type
           rdf:resource="http://purl.org/dc/dcmitype/StillImage" /><dc:title></dc:title></cc:Work></rdf:RDF></metadata><defs
     id="defs6" /><g
     transform="matrix(1.25,0,0,-1.25,0,279.85)"
     id="g10"><g
       transform="scale(0.1,0.1)"
       id="g12"><g
         transform="scale(10,10)"
         id="g14"><text
           transform="matrix(1,0,0,-1,141.496,15.1895)"
           id="text16"><tspan
             x="0 18.800303 28.929552 40.490955 47.729855 54.96875 62.207649 75.227249 85.356499 96.9179 109.9375 122.9571 134.51851 141.7574 148.99631 163.47409 170.713 183.73259 196.7522 203.99109"
             y="0"
             id="tspan18"
             style="font-size:26.03919983px;font-variant:normal;font-weight:normal;writing-mode:lr-tb;fill:#000000;fill-opacity:1;fill-rule:nonzero;stroke:none;font-family:Times;-inkscape-font-specification:Times-Roman">Oscilloscope::Plugin</tspan></text>
</g><g
         id="g20"><path
           d="m 1304.25,0 2391.5,0 0,433.988 -2391.5,0 0,-433.988 z"
           id="path22"
           style="fill:none;stroke:#000000;stroke-width:21.69939995;stroke-linecap:butt;stroke-linejoin:miter;stroke-miterlimit:10;stroke-opacity:1;stroke-dasharray:none" /></g><g
         transform="scale(10,10)"
         id="g24"><text
           transform="matrix(1,0,0,-1,43.6199,101.987)"
           id="text26"><tspan
             x="0 14.477796 21.716692 34.736294 47.755894 54.994789 68.014389 75.253288 82.492188 101.29249 114.31209 121.55099 133.1124 144.6738"
             y="0"
             id="tspan28"
             style="font-size:26.03919983px;font-variant:normal;font-weight:normal;writing-mode:lr-tb;fill:#000000;fill-opacity:1;fill-rule:nonzero;stroke:none;font-family:Times;-inkscape-font-specification:Times-Roman">Plugin::Object</tspan></text>
</g><g
         id="g30"><path
           d="m 0,867.977 2391.5,0 0,433.983 -2391.5,0 0,-433.983 z"
           id="path32"
           style="fill:none;stroke:#000000;stroke-width:21.69939995;stroke-linecap:butt;stroke-linejoin:miter;stroke-miterlimit:10;stroke-opacity:1;stroke-dasharray:none" /></g><g
         transform="scale(10,10)"
         id="g34"><text
           transform="matrix(1,0,0,-1,319.676,101.987)"
           id="text36"><tspan
             x="0 17.368147 33.278099 40.516994 47.755894 63.665844 76.685448 85.356499 96.9179 108.47931"
             y="0"
             id="tspan38"
             style="font-size:26.03919983px;font-variant:normal;font-weight:normal;writing-mode:lr-tb;fill:#000000;fill-opacity:1;fill-rule:nonzero;stroke:none;font-family:Times;-inkscape-font-specification:Times-Roman">RT::Thread</tspan></text>
</g><g
         id="g40"><path
           d="m 2608.5,867.977 2391.5,0 0,433.983 -2391.5,0 0,-433.983 z"
           id="path42"
           style="fill:none;stroke:#000000;stroke-width:21.69939995;stroke-linecap:butt;stroke-linejoin:miter;stroke-miterlimit:10;stroke-opacity:1;stroke-dasharray:none" /></g><g
         transform="scale(10,10)"
         id="g44"><text
           transform="matrix(1,0,0,-1,35.6652,188.784)"
           id="text46"><tspan
             x="0 14.477796 26.0392 33.278099 40.516994 47.755894 60.775494 73.79509 83.924339 91.163239 98.402138 117.20244 130.22205 137.46094 149.02234 160.58374"
             y="0"
             id="tspan48"
             style="font-size:26.03919983px;font-variant:normal;font-weight:normal;writing-mode:lr-tb;fill:#000000;fill-opacity:1;fill-rule:nonzero;stroke:none;font-family:Times;-inkscape-font-specification:Times-Roman">Settings::Object</tspan></text>
</g><g
         id="g50"><path
           d="m 0,1735.95 2391.5,0 0,433.99 -2391.5,0 0,-433.99 z"
           id="path52"
           style="fill:none;stroke:#000000;stroke-width:21.69939995;stroke-linecap:butt;stroke-linejoin:miter;stroke-miterlimit:10;stroke-opacity:1;stroke-dasharray:54.2484;stroke-dashoffset:0" /></g><g
         transform="scale(10,10)"
         id="g54"><text
           transform="matrix(1,0,0,-1,271.7,188.784)"
           id="text56"><tspan
             x="0 17.368147 33.278099 40.516994 47.755894 63.665844 70.904739 81.033989 88.272888 102.959 109.4688 125.37875 131.88855 146.57466 153.81355 161.05244 179.85275 192.87236 205.89195"
             y="0"
             id="tspan58"
             style="font-size:26.03919983px;font-variant:normal;font-weight:normal;writing-mode:lr-tb;fill:#000000;fill-opacity:1;fill-rule:nonzero;stroke:none;font-family:Times;-inkscape-font-specification:Times-Roman">RT::List&lt; T &gt;::Node</tspan></text>
</g><g
         id="g60"><path
           d="m 2608.5,1735.95 2391.5,0 0,433.99 -2391.5,0 0,-433.99 z"
           id="path62"
           style="fill:none;stroke:#000000;stroke-width:21.69939995;stroke-linecap:butt;stroke-linejoin:miter;stroke-miterlimit:10;stroke-opacity:1;stroke-dasharray:none" /></g><g
         id="g64"><path
           d="m 2500,433.988 0,216.993"
           id="path66"
           style="fill:none;stroke:#000000;stroke-width:10.84969997;stroke-linecap:butt;stroke-linejoin:miter;stroke-miterlimit:10;stroke-opacity:1;stroke-dasharray:none" /></g><g
         id="g68"><path
           d="m 1195.75,650.981 2608.5,0"
           id="path70"
           style="fill:none;stroke:#000000;stroke-width:10.84969997;stroke-linecap:butt;stroke-linejoin:miter;stroke-miterlimit:10;stroke-opacity:1;stroke-dasharray:none" /></g><g
         id="g72"><path
           d="m 1195.75,650.981 0,216.996"
           id="path74"
           style="fill:none;stroke:#000000;stroke-width:10.84969997;stroke-linecap:butt;stroke-linejoin:miter;stroke-miterlimit:10;stroke-opacity:1;stroke-dasharray:none" /></g><path
         d="m 1195.75,867.977 32.55,-86.801 -65.1,0 32.55,86.801"
         id="path76"
         style="fill:#000000;fill-opacity:1;fill-rule:evenodd;stroke:none" /><g
         id="g78"><path
           d="m 1195.75,1301.96 0,217"
           id="path80"
           style="fill:none;stroke:#000000;stroke-width:10.84969997;stroke-linecap:butt;stroke-linejoin:miter;stroke-miterlimit:10;stroke-opacity:1;stroke-dasharray:none" /></g><g
         id="g82"><path
           d="m 3804.25,650.981 0,216.996"
           id="path84"
           style="fill:none;stroke:#000000;stroke-width:10.84969997;stroke-linecap:butt;stroke-linejoin:miter;stroke-miterlimit:10;stroke-opacity:1;stroke-dasharray:none" /></g><path
         d="m 3804.25,867.977 32.55,-86.801 -65.1,0 32.55,86.801"
         id="path86"
         style="fill:#000000;fill-opacity:1;fill-rule:evenodd;stroke:none" /><g
         id="g88"><path
           d="m 3804.25,1301.96 0,217"
           id="path90"
           style="fill:none;stroke:#000000;stroke-width:10.84969997;stroke-linecap:butt;stroke-linejoin:miter;stroke-miterlimit:10;stroke-opacity:1;stroke-dasharray:none" /></g><g
         id="g92"><path
           d="m 1195.75,1518.96 0,216.99"
           id="path94"
           style="fill:none;stroke:#000000;stroke-width:10.84969997;stroke-linecap:butt;stroke-linejoin:miter;stroke-miterlimit:10;stroke-opacity:1;stroke-dasharray:none" /></g><path
         d="m 1195.75,1735.95 32.55,-86.8 -65.1,0 32.55,86.8"
         id="path96"
         style="fill:#000000;fill-opacity:1;fill-rule:evenodd;stroke:none" /><g
         id="g98"><path
           d="m 3804.25,1518.96 0,216.99"
           id="path100"
           style="fill:none;stroke:#000000;stroke-width:10.84969997;stroke-linecap:butt;stroke-linejoin:miter;stroke-miterlimit:10;stroke-opacity:1;stroke-dasharray:none" /></g><path
         d="m 3804.25,1735.95 32.55,-86.8 -65.1,0 32.55,86.8"
         id="path102"
         style="fill:#000000;fill-opacity:1;fill-rule:evenodd;stroke:none" /></g></g></svg>