<?xml version="1.0" encoding="UTF-8" standalone="no"?>
<!-- Created with Inkscape (http://www.inkscape.org/) -->

<svg
   xmlns:dc="http://purl.org/dc/elements/1.1/"
   xmlns:cc="http://creativecommons.org/ns#"
   xmlns:rdf="http://www.w3.org/1999/02/22-rdf-syntax-ns#"
   xmlns:svg="http://www.w3.org/2000/svg"
   xmlns="http://www.w3.org/2000/svg"
   version="1.1"
   width="625"
   height="229.77499"
   id="svg2"
   xml:space="preserve"><metadata
     id="metadata8"><rdf:RDF><cc:Work
         rdf:about=""><dc:format>image/svg+xml</dc:format><dc:type
           rdf:resource="http://purl.org/dc/dcmitype/StillImage" /><dc:title></dc:title></cc:Work></rdf:RDF></metadata><defs
     id="defs6" /><g
     transform="matrix(1.25,0,0,-1.25,0,229.775)"
     id="g10"><g
       transform="scale(0.1,0.1)"
       id="g12"><g
         transform="scale(10,10)"
         id="g14"><text
           transform="matrix(1,0,0,-1,231.624,7.14883)"
           id="text16"><tspan
             x="0 8.8480377 14.289213 20.416664 24.497545 30.624994"
             y="0"
             id="tspan18"
             style="font-size:12.25489998px;font-variant:normal;font-weight:normal;writing-mode:lr-tb;fill:#000000;fill-opacity:1;fill-rule:nonzero;stroke:none;font-family:Times;-inkscape-font-specification:Times-Roman">Neuron</tspan></text>
</g><g
         id="g20"><path
           d="m 1935.09,0 1129.82,0 0,204.25 -1129.82,0 0,-204.25 z"
           id="path22"
           style="fill:none;stroke:#000000;stroke-width:10.21240044;stroke-linecap:butt;stroke-linejoin:miter;stroke-miterlimit:10;stroke-opacity:1;stroke-dasharray:none" /></g><g
         transform="scale(10,10)"
         id="g24"><text
           transform="matrix(1,0,0,-1,204.738,47.9984)"
           id="text26"><tspan
             x="0 8.8480377 14.289213 18.370094 23.81127 29.938721 33.345581 36.752445 45.600483 54.448521 58.529404 69.424011 75.55146 81.678909 87.120087"
             y="0"
             id="tspan28"
             style="font-size:12.25489998px;font-variant:normal;font-weight:normal;writing-mode:lr-tb;fill:#000000;fill-opacity:1;fill-rule:nonzero;stroke:none;font-family:Times;-inkscape-font-specification:Times-Roman">DefaultGUIModel</tspan></text>
</g><g
         id="g30"><path
           d="m 1935.09,408.496 1129.82,0 0,204.25 -1129.82,0 0,-204.25 z"
           id="path32"
           style="fill:none;stroke:#000000;stroke-width:10.21240044;stroke-linecap:butt;stroke-linejoin:miter;stroke-miterlimit:10;stroke-opacity:1;stroke-dasharray:none" /></g><g
         transform="scale(10,10)"
         id="g34"><text
           transform="matrix(1,0,0,-1,36.6199,88.848)"
           id="text36"><tspan
             x="0 8.1740179 15.661762 19.068624 22.475487 29.96323 36.090679 40.171562 45.61274 51.053913"
             y="0"
             id="tspan38"
             style="font-size:12.25489998px;font-variant:normal;font-weight:normal;writing-mode:lr-tb;fill:#000000;fill-opacity:1;fill-rule:nonzero;stroke:none;font-family:Times;-inkscape-font-specification:Times-Roman">RT::Thread</tspan></text>
</g><g
         id="g40"><path
           d="m 87.1914,816.992 1129.8086,0 0,204.248 -1129.8086,0 0,-204.248 z"
           id="path42"
           style="fill:none;stroke:#000000;stroke-width:10.21240044;stroke-linecap:butt;stroke-linejoin:miter;stroke-miterlimit:10;stroke-opacity:1;stroke-dasharray:none" /></g><g
         transform="scale(10,10)"
         id="g44"><text
           transform="matrix(1,0,0,-1,152.657,88.848)"
           id="text46"><tspan
             x="0 6.8137245 10.220587 16.348036 22.475487 25.882349 32.0098 35.41666 38.823524 47.671562 53.799011 57.205872 62.647049 68.088226"
             y="0"
             id="tspan48"
             style="font-size:12.25489998px;font-variant:normal;font-weight:normal;writing-mode:lr-tb;fill:#000000;fill-opacity:1;fill-rule:nonzero;stroke:none;font-family:Times;-inkscape-font-specification:Times-Roman">Plugin::Object</tspan></text>
</g><g
         id="g50"><path
           d="m 1319.13,816.992 1129.81,0 0,204.248 -1129.81,0 0,-204.248 z"
           id="path52"
           style="fill:none;stroke:#000000;stroke-width:10.21240044;stroke-linecap:butt;stroke-linejoin:miter;stroke-miterlimit:10;stroke-opacity:1;stroke-dasharray:none" /></g><g
         transform="scale(10,10)"
         id="g54"><text
           transform="matrix(1,0,0,-1,260.214,88.848)"
           id="text56"><tspan
             x="0 11.568625 17.696075 21.776957 27.904408 32.671562 38.799015 44.240189 49.681366 55.12254 58.529404 61.936264 66.017143 72.1446 76.911751 80.318611 85.759789 91.887238 97.328415"
             y="0"
             id="tspan58"
             style="font-size:12.25489998px;font-variant:normal;font-weight:normal;writing-mode:lr-tb;fill:#000000;fill-opacity:1;fill-rule:nonzero;stroke:none;font-family:Times;-inkscape-font-specification:Times-Roman">Workspace::Instance</tspan></text>
</g><g
         id="g60"><path
           d="m 2551.06,816.992 1129.81,0 0,204.248 -1129.81,0 0,-204.248 z"
           id="path62"
           style="fill:none;stroke:#000000;stroke-width:10.21240044;stroke-linecap:butt;stroke-linejoin:miter;stroke-miterlimit:10;stroke-opacity:1;stroke-dasharray:none" /></g><g
         transform="scale(10,10)"
         id="g64"><text
           transform="matrix(1,0,0,-1,397.353,88.848)"
           id="text66"><tspan
             x="0 7.4877439 13.615194 19.05637 25.183819 28.590681 31.997543 35.404408 44.252445 49.693619 55.821068 61.948521 65.355385 70.796555"
             y="0"
             id="tspan68"
             style="font-size:12.25489998px;font-variant:normal;font-weight:normal;writing-mode:lr-tb;fill:#000000;fill-opacity:1;fill-rule:nonzero;stroke:none;font-family:Times;-inkscape-font-specification:Times-Roman">Event::Handler</tspan></text>
</g><g
         id="g70"><path
           d="m 3783,816.992 1129.81,0 0,204.248 -1129.81,0 0,-204.248 z"
           id="path72"
           style="fill:none;stroke:#000000;stroke-width:10.21240044;stroke-linecap:butt;stroke-linejoin:miter;stroke-miterlimit:10;stroke-opacity:1;stroke-dasharray:none" /></g><g
         transform="scale(10,10)"
         id="g74"><text
           transform="matrix(1,0,0,-1,14.0414,129.698)"
           id="text76"><tspan
             x="0 8.1740179 15.661762 19.068624 22.475487 29.96323 33.370094 38.137249 41.544109 48.455875 51.5196 59.007343 62.071068 68.982834 72.389694 75.796555 84.644592 90.772041 96.899498"
             y="0"
             id="tspan78"
             style="font-size:12.25489998px;font-variant:normal;font-weight:normal;writing-mode:lr-tb;fill:#000000;fill-opacity:1;fill-rule:nonzero;stroke:none;font-family:Times;-inkscape-font-specification:Times-Roman">RT::List&lt; T &gt;::Node</tspan></text>
</g><g
         id="g80"><path
           d="m 87.1914,1225.49 1129.8086,0 0,204.25 -1129.8086,0 0,-204.25 z"
           id="path82"
           style="fill:none;stroke:#000000;stroke-width:10.21240044;stroke-linecap:butt;stroke-linejoin:miter;stroke-miterlimit:10;stroke-opacity:1;stroke-dasharray:none" /></g><g
         transform="scale(10,10)"
         id="g84"><text
           transform="matrix(1,0,0,-1,148.913,129.698)"
           id="text86"><tspan
             x="0 6.8137245 12.2549 15.661762 19.068624 22.475487 28.602936 34.730385 39.497543 42.904404 46.311268 55.159306 61.286755 64.693619 70.134796 75.575966"
             y="0"
             id="tspan88"
             style="font-size:12.25489998px;font-variant:normal;font-weight:normal;writing-mode:lr-tb;fill:#000000;fill-opacity:1;fill-rule:nonzero;stroke:none;font-family:Times;-inkscape-font-specification:Times-Roman">Settings::Object</tspan></text>
</g><g
         id="g90"><path
           d="m 1319.13,1225.49 1129.81,0 0,204.25 -1129.81,0 0,-204.25 z"
           id="path92"
           style="fill:none;stroke:#000000;stroke-width:10.21240044;stroke-linecap:butt;stroke-linejoin:miter;stroke-miterlimit:10;stroke-opacity:1;stroke-dasharray:25.531;stroke-dashoffset:0" /></g><g
         transform="scale(10,10)"
         id="g94"><text
           transform="matrix(1,0,0,-1,287.088,129.698)"
           id="text96"><tspan
             x="0 4.0808816 12.92892 16.335781 19.742643 27.916662 31.323524 37.450974 42.892151"
             y="0"
             id="tspan98"
             style="font-size:12.25489998px;font-variant:normal;font-weight:normal;writing-mode:lr-tb;fill:#000000;fill-opacity:1;fill-rule:nonzero;stroke:none;font-family:Times;-inkscape-font-specification:Times-Roman">IO::Block</tspan></text>
</g><g
         id="g100"><path
           d="m 2551.06,1225.49 1129.81,0 0,204.25 -1129.81,0 0,-204.25 z"
           id="path102"
           style="fill:none;stroke:#000000;stroke-width:10.21240044;stroke-linecap:butt;stroke-linejoin:miter;stroke-miterlimit:10;stroke-opacity:1;stroke-dasharray:none" /></g><g
         transform="scale(10,10)"
         id="g104"><text
           transform="matrix(1,0,0,-1,272.107,170.547)"
           id="text106"><tspan
             x="0 6.8137245 12.2549 15.661762 19.068624 22.475487 28.602936 34.730385 39.497543 42.904404 46.311268 55.159306 61.286755 64.693619 70.134796 75.575966"
             y="0"
             id="tspan108"
             style="font-size:12.25489998px;font-variant:normal;font-weight:normal;writing-mode:lr-tb;fill:#000000;fill-opacity:1;fill-rule:nonzero;stroke:none;font-family:Times;-inkscape-font-specification:Times-Roman">Settings::Object</tspan></text>
</g><g
         id="g110"><path
           d="m 2551.06,1633.99 1129.81,0 0,204.24 -1129.81,0 0,-204.24 z"
           id="path112"
           style="fill:none;stroke:#000000;stroke-width:10.21240044;stroke-linecap:butt;stroke-linejoin:miter;stroke-miterlimit:10;stroke-opacity:1;stroke-dasharray:25.531;stroke-dashoffset:0" /></g><g
         id="g114"><path
           d="m 2500,204.25 0,102.121"
           id="path116"
           style="fill:none;stroke:#000000;stroke-width:5.10621023;stroke-linecap:butt;stroke-linejoin:miter;stroke-miterlimit:10;stroke-opacity:1;stroke-dasharray:none" /></g><g
         id="g118"><path
           d="m 2500,306.371 0,102.125"
           id="path120"
           style="fill:none;stroke:#000000;stroke-width:5.10621023;stroke-linecap:butt;stroke-linejoin:miter;stroke-miterlimit:10;stroke-opacity:1;stroke-dasharray:none" /></g><path
         d="m 2500,408.496 15.32,-40.848 -30.64,0 15.32,40.848"
         id="path122"
         style="fill:#000000;fill-opacity:1;fill-rule:evenodd;stroke:none" /><g
         id="g124"><path
           d="m 2500,612.746 0,102.125"
           id="path126"
           style="fill:none;stroke:#000000;stroke-width:5.10621023;stroke-linecap:butt;stroke-linejoin:miter;stroke-miterlimit:10;stroke-opacity:1;stroke-dasharray:none" /></g><g
         id="g128"><path
           d="m 652.098,714.871 3695.802,0"
           id="path130"
           style="fill:none;stroke:#000000;stroke-width:5.10621023;stroke-linecap:butt;stroke-linejoin:miter;stroke-miterlimit:10;stroke-opacity:1;stroke-dasharray:none" /></g><g
         id="g132"><path
           d="m 652.098,714.871 0,102.121"
           id="path134"
           style="fill:none;stroke:#000000;stroke-width:5.10621023;stroke-linecap:butt;stroke-linejoin:miter;stroke-miterlimit:10;stroke-opacity:1;stroke-dasharray:none" /></g><path
         d="m 652.098,816.992 15.32,-40.847 -30.641,0 15.321,40.847"
         id="path136"
         style="fill:#000000;fill-opacity:1;fill-rule:evenodd;stroke:none" /><g
         id="g138"><path
           d="m 652.098,1021.24 0,102.13"
           id="path140"
           style="fill:none;stroke:#000000;stroke-width:5.10621023;stroke-linecap:butt;stroke-linejoin:miter;stroke-miterlimit:10;stroke-opacity:1;stroke-dasharray:none" /></g><g
         id="g142"><path
           d="m 1884.03,714.871 0,102.121"
           id="path144"
           style="fill:none;stroke:#000000;stroke-width:5.10621023;stroke-linecap:butt;stroke-linejoin:miter;stroke-miterlimit:10;stroke-opacity:1;stroke-dasharray:none" /></g><path
         d="m 1884.03,816.992 15.32,-40.847 -30.64,0 15.32,40.847"
         id="path146"
         style="fill:#000000;fill-opacity:1;fill-rule:evenodd;stroke:none" /><g
         id="g148"><path
           d="m 1884.03,1021.24 0,102.13"
           id="path150"
           style="fill:none;stroke:#000000;stroke-width:5.10621023;stroke-linecap:butt;stroke-linejoin:miter;stroke-miterlimit:10;stroke-opacity:1;stroke-dasharray:none" /></g><g
         id="g152"><path
           d="m 3115.97,714.871 0,102.121"
           id="path154"
           style="fill:none;stroke:#000000;stroke-width:5.10621023;stroke-linecap:butt;stroke-linejoin:miter;stroke-miterlimit:10;stroke-opacity:1;stroke-dasharray:none" /></g><path
         d="m 3115.97,816.992 15.32,-40.847 -30.64,0 15.32,40.847"
         id="path156"
         style="fill:#000000;fill-opacity:1;fill-rule:evenodd;stroke:none" /><g
         id="g158"><path
           d="m 3115.97,1021.24 0,102.13"
           id="path160"
           style="fill:none;stroke:#000000;stroke-width:5.10621023;stroke-linecap:butt;stroke-linejoin:miter;stroke-miterlimit:10;stroke-opacity:1;stroke-dasharray:none" /></g><g
         id="g162"><path
           d="m 4347.9,714.871 0,102.121"
           id="path164"
           style="fill:none;stroke:#000000;stroke-width:5.10621023;stroke-linecap:butt;stroke-linejoin:miter;stroke-miterlimit:10;stroke-opacity:1;stroke-dasharray:none" /></g><path
         d="m 4347.9,816.992 15.32,-40.847 -30.64,0 15.32,40.847"
         id="path166"
         style="fill:#000000;fill-opacity:1;fill-rule:evenodd;stroke:none" /><g
         id="g168"><path
           d="m 652.098,1123.37 0,102.12"
           id="path170"
           style="fill:none;stroke:#000000;stroke-width:5.10621023;stroke-linecap:butt;stroke-linejoin:miter;stroke-miterlimit:10;stroke-opacity:1;stroke-dasharray:none" /></g><path
         d="m 652.098,1225.49 15.32,-40.85 -30.641,0 15.321,40.85"
         id="path172"
         style="fill:#000000;fill-opacity:1;fill-rule:evenodd;stroke:none" /><g
         id="g174"><path
           d="m 1884.03,1123.37 0,102.12"
           id="path176"
           style="fill:none;stroke:#000000;stroke-width:5.10621023;stroke-linecap:butt;stroke-linejoin:miter;stroke-miterlimit:10;stroke-opacity:1;stroke-dasharray:none" /></g><path
         d="m 1884.03,1225.49 15.32,-40.85 -30.64,0 15.32,40.85"
         id="path178"
         style="fill:#000000;fill-opacity:1;fill-rule:evenodd;stroke:none" /><g
         id="g180"><path
           d="m 3115.97,1123.37 0,102.12"
           id="path182"
           style="fill:none;stroke:#000000;stroke-width:5.10621023;stroke-linecap:butt;stroke-linejoin:miter;stroke-miterlimit:10;stroke-opacity:1;stroke-dasharray:none" /></g><path
         d="m 3115.97,1225.49 15.32,-40.85 -30.64,0 15.32,40.85"
         id="path184"
         style="fill:#000000;fill-opacity:1;fill-rule:evenodd;stroke:none" /><g
         id="g186"><path
           d="m 3115.97,1429.74 0,102.12"
           id="path188"
           style="fill:none;stroke:#000000;stroke-width:5.10621023;stroke-linecap:butt;stroke-linejoin:miter;stroke-miterlimit:10;stroke-opacity:1;stroke-dasharray:none" /></g><g
         id="g190"><path
           d="m 3115.97,1531.86 0,102.13"
           id="path192"
           style="fill:none;stroke:#000000;stroke-width:5.10621023;stroke-linecap:butt;stroke-linejoin:miter;stroke-miterlimit:10;stroke-opacity:1;stroke-dasharray:none" /></g><path
         d="m 3115.97,1633.99 15.32,-40.85 -30.64,0 15.32,40.85"
         id="path194"
         style="fill:#000000;fill-opacity:1;fill-rule:evenodd;stroke:none" /></g></g></svg>