<?xml version="1.0" encoding="UTF-8" standalone="no"?>
<!-- Created with Inkscape (http://www.inkscape.org/) -->

<svg
   xmlns:dc="http://purl.org/dc/elements/1.1/"
   xmlns:cc="http://creativecommons.org/ns#"
   xmlns:rdf="http://www.w3.org/1999/02/22-rdf-syntax-ns#"
   xmlns:svg="http://www.w3.org/2000/svg"
   xmlns="http://www.w3.org/2000/svg"
   version="1.1"
   width="625"
   height="190.83749"
   id="svg2"
   xml:space="preserve"><metadata
     id="metadata8"><rdf:RDF><cc:Work
         rdf:about=""><dc:format>image/svg+xml</dc:format><dc:type
           rdf:resource="http://purl.org/dc/dcmitype/StillImage" /><dc:title></dc:title></cc:Work></rdf:RDF></metadata><defs
     id="defs6" /><g
     transform="matrix(1.25,0,0,-1.25,0,190.8375)"
     id="g10"><g
       transform="scale(0.1,0.1)"
       id="g12"><g
         transform="scale(10,10)"
         id="g14"><text
           transform="matrix(1,0,0,-1,182.032,9.98203)"
           id="text16"><tspan
             x="0 12.354792 19.01132 26.609005 31.366112 36.123222 40.880329 49.436279 56.092808 63.690491 72.246445 80.802391 88.400078 93.157181 97.914291 107.4285 115.02619 123.58214 131.17982"
             y="0"
             id="tspan18"
             style="font-size:17.11190033px;font-variant:normal;font-weight:normal;writing-mode:lr-tb;fill:#000000;fill-opacity:1;fill-rule:nonzero;stroke:none;font-family:Times;-inkscape-font-specification:Times-Roman">Oscilloscope::Panel</tspan></text>
</g><g
         id="g20"><path
           d="m 1714.2,0 1571.6,0 0,285.199 -1571.6,0 0,-285.199 z"
           id="path22"
           style="fill:none;stroke:#000000;stroke-width:14.26000023;stroke-linecap:butt;stroke-linejoin:miter;stroke-miterlimit:10;stroke-opacity:1;stroke-dasharray:none" /></g><g
         transform="scale(10,10)"
         id="g24"><text
           transform="matrix(1,0,0,-1,57.6695,67.0219)"
           id="text26"><tspan
             x="0 9.5142164 17.1119 25.66785 34.223801"
             y="0"
             id="tspan28"
             style="font-size:17.11190033px;font-variant:normal;font-weight:normal;writing-mode:lr-tb;fill:#000000;fill-opacity:1;fill-rule:nonzero;stroke:none;font-family:Times;-inkscape-font-specification:Times-Roman">Scope</tspan></text>
</g><g
         id="g30"><path
           d="m 0,570.398 1571.6,0 0,285.2 -1571.6,0 0,-285.2 z"
           id="path32"
           style="fill:none;stroke:#000000;stroke-width:14.26000023;stroke-linecap:butt;stroke-linejoin:miter;stroke-miterlimit:10;stroke-opacity:1;stroke-dasharray:none" /></g><g
         transform="scale(10,10)"
         id="g34"><text
           transform="matrix(1,0,0,-1,210.079,67.0219)"
           id="text36"><tspan
             x="0 11.413637 21.869009 26.626116 31.383224 41.838596 50.394547 56.092808 63.690491 71.288177"
             y="0"
             id="tspan38"
             style="font-size:17.11190033px;font-variant:normal;font-weight:normal;writing-mode:lr-tb;fill:#000000;fill-opacity:1;fill-rule:nonzero;stroke:none;font-family:Times;-inkscape-font-specification:Times-Roman">RT::Thread</tspan></text>
</g><g
         id="g40"><path
           d="m 1714.2,570.398 1571.6,0 0,285.2 -1571.6,0 0,-285.2 z"
           id="path42"
           style="fill:none;stroke:#000000;stroke-width:14.26000023;stroke-linecap:butt;stroke-linejoin:miter;stroke-miterlimit:10;stroke-opacity:1;stroke-dasharray:none" /></g><g
         transform="scale(10,10)"
         id="g44"><text
           transform="matrix(1,0,0,-1,366.278,67.0219)"
           id="text46"><tspan
             x="0 9.5142164 17.1119 21.869009 26.626116 31.383224 39.939175 48.495125 55.151653 59.90876 64.665871 77.02066 85.576614 90.333717 97.931404 105.52909"
             y="0"
             id="tspan48"
             style="font-size:17.11190033px;font-variant:normal;font-weight:normal;writing-mode:lr-tb;fill:#000000;fill-opacity:1;fill-rule:nonzero;stroke:none;font-family:Times;-inkscape-font-specification:Times-Roman">Settings::Object</tspan></text>
</g><g
         id="g50"><path
           d="m 3428.4,570.398 1571.6,0 0,285.2 -1571.6,0 0,-285.2 z"
           id="path52"
           style="fill:none;stroke:#000000;stroke-width:14.26000023;stroke-linecap:butt;stroke-linejoin:miter;stroke-miterlimit:10;stroke-opacity:1;stroke-dasharray:35.6499;stroke-dashoffset:0" /></g><g
         transform="scale(10,10)"
         id="g54"><text
           transform="matrix(1,0,0,-1,178.551,124.062)"
           id="text56"><tspan
             x="0 11.413637 21.869009 26.626116 31.383224 41.838596 46.595703 53.252232 58.009342 67.660454 71.938431 82.393799 86.671776 96.322884 101.07999 105.8371 118.19189 126.74784 135.30379"
             y="0"
             id="tspan58"
             style="font-size:17.11190033px;font-variant:normal;font-weight:normal;writing-mode:lr-tb;fill:#000000;fill-opacity:1;fill-rule:nonzero;stroke:none;font-family:Times;-inkscape-font-specification:Times-Roman">RT::List&lt; T &gt;::Node</tspan></text>
</g><g
         id="g60"><path
           d="m 1714.2,1140.8 1571.6,0 0,285.2 -1571.6,0 0,-285.2 z"
           id="path62"
           style="fill:none;stroke:#000000;stroke-width:14.26000023;stroke-linecap:butt;stroke-linejoin:miter;stroke-miterlimit:10;stroke-opacity:1;stroke-dasharray:none" /></g><g
         id="g64"><path
           d="m 2500,285.199 0,142.598"
           id="path66"
           style="fill:none;stroke:#000000;stroke-width:7.12998009;stroke-linecap:butt;stroke-linejoin:miter;stroke-miterlimit:10;stroke-opacity:1;stroke-dasharray:none" /></g><g
         id="g68"><path
           d="m 785.801,427.797 3428.399,0"
           id="path70"
           style="fill:none;stroke:#000000;stroke-width:7.12998009;stroke-linecap:butt;stroke-linejoin:miter;stroke-miterlimit:10;stroke-opacity:1;stroke-dasharray:none" /></g><g
         id="g72"><path
           d="m 785.801,427.797 0,142.601"
           id="path74"
           style="fill:none;stroke:#000000;stroke-width:7.12998009;stroke-linecap:butt;stroke-linejoin:miter;stroke-miterlimit:10;stroke-opacity:1;stroke-dasharray:none" /></g><path
         d="m 785.801,570.398 21.39,-57.039 -42.781,0 21.391,57.039"
         id="path76"
         style="fill:#000000;fill-opacity:1;fill-rule:evenodd;stroke:none" /><g
         id="g78"><path
           d="m 2500,427.797 0,142.601"
           id="path80"
           style="fill:none;stroke:#000000;stroke-width:7.12998009;stroke-linecap:butt;stroke-linejoin:miter;stroke-miterlimit:10;stroke-opacity:1;stroke-dasharray:none" /></g><path
         d="m 2500,570.398 21.39,-57.039 -42.78,0 21.39,57.039"
         id="path82"
         style="fill:#000000;fill-opacity:1;fill-rule:evenodd;stroke:none" /><g
         id="g84"><path
           d="m 2500,855.598 0,142.597"
           id="path86"
           style="fill:none;stroke:#000000;stroke-width:7.12998009;stroke-linecap:butt;stroke-linejoin:miter;stroke-miterlimit:10;stroke-opacity:1;stroke-dasharray:none" /></g><g
         id="g88"><path
           d="m 4214.2,427.797 0,142.601"
           id="path90"
           style="fill:none;stroke:#000000;stroke-width:7.12998009;stroke-linecap:butt;stroke-linejoin:miter;stroke-miterlimit:10;stroke-opacity:1;stroke-dasharray:none" /></g><path
         d="m 4214.2,570.398 21.39,-57.039 -42.78,0 21.39,57.039"
         id="path92"
         style="fill:#000000;fill-opacity:1;fill-rule:evenodd;stroke:none" /><g
         id="g94"><path
           d="m 2500,998.195 0,142.605"
           id="path96"
           style="fill:none;stroke:#000000;stroke-width:7.12998009;stroke-linecap:butt;stroke-linejoin:miter;stroke-miterlimit:10;stroke-opacity:1;stroke-dasharray:none" /></g><path
         d="m 2500,1140.8 21.39,-57.04 -42.78,0 21.39,57.04"
         id="path98"
         style="fill:#000000;fill-opacity:1;fill-rule:evenodd;stroke:none" /></g></g></svg>