<?xml version="1.0" encoding="UTF-8" standalone="no"?>
<!-- Created with Inkscape (http://www.inkscape.org/) -->

<svg
   xmlns:dc="http://purl.org/dc/elements/1.1/"
   xmlns:cc="http://creativecommons.org/ns#"
   xmlns:rdf="http://www.w3.org/1999/02/22-rdf-syntax-ns#"
   xmlns:svg="http://www.w3.org/2000/svg"
   xmlns="http://www.w3.org/2000/svg"
   version="1.1"
   width="888.75"
   height="442.85876"
   id="svg2"
   xml:space="preserve"><metadata
     id="metadata8"><rdf:RDF><cc:Work
         rdf:about=""><dc:format>image/svg+xml</dc:format><dc:type
           rdf:resource="http://purl.org/dc/dcmitype/StillImage" /><dc:title></dc:title></cc:Work></rdf:RDF></metadata><defs
     id="defs6"><clipPath
       id="clipPath80"><path
         d="M 0,720 720,720 720,0 0,0 0,720 z"
         id="path82" /></clipPath></defs><g
     transform="matrix(1.25,0,0,-1.25,-11.25,671.08875)"
     id="g10"><g
       transform="translate(117.7539,425.332)"
       id="g12"><path
         d="M 0,0 9.657,-4.827 -9.656,-9.654 9.657,-14.48 -9.656,-19.308 9.657,-24.135 -9.656,-28.963 9.657,-33.789 -9.656,-38.615 9.657,-43.443 0,-48.271"
         id="path14"
         style="fill:none;stroke:#110f0d;stroke-width:1;stroke-linecap:butt;stroke-linejoin:miter;stroke-miterlimit:10;stroke-opacity:1;stroke-dasharray:none" /></g><g
       transform="translate(126.6094,314.502)"
       id="g16"><path
         d="M 0,0 -17.708,0 M 0,-19.07 l -17.708,0 m 23.156,-8.173 -28.605,0 m 28.605,17.708 -28.605,0"
         id="path18"
         style="fill:none;stroke:#141f38;stroke-width:1;stroke-linecap:butt;stroke-linejoin:miter;stroke-miterlimit:10;stroke-opacity:1;stroke-dasharray:none" /></g><g
       transform="translate(125.0947,277.0449)"
       id="g20"><path
         d="m 0,0 3.208,0 0,-3.185 1.341,0 0,3.185 3.185,0 0,1.357 -3.185,0 0,3.184 -1.341,0 0,-3.184 L 0,1.357 0,0 z"
         id="path22"
         style="fill:#110f0d;fill-opacity:1;fill-rule:nonzero;stroke:none" /></g><g
       transform="translate(255.5488,425.332)"
       id="g24"><path
         d="M 0,0 9.658,-4.828 -9.656,-9.654 9.658,-14.48 -9.656,-19.309 9.658,-24.137 -9.656,-28.964 9.658,-33.79 -9.656,-38.617 9.658,-43.443 0,-48.271"
         id="path26"
         style="fill:none;stroke:#110f0d;stroke-width:1;stroke-linecap:butt;stroke-linejoin:miter;stroke-miterlimit:10;stroke-opacity:1;stroke-dasharray:none" /></g><g
       transform="translate(246.6963,286.7959)"
       id="g28"><path
         d="m 0,0 17.707,0 m -17.708,19.069 17.709,0 m -23.156,8.174 28.603,0 M -5.448,9.534 l 28.603,0"
         id="path30"
         style="fill:none;stroke:#141f38;stroke-width:1;stroke-linecap:butt;stroke-linejoin:miter;stroke-miterlimit:10;stroke-opacity:1;stroke-dasharray:none" /></g><g
       transform="translate(245.4854,325.6143)"
       id="g32"><path
         d="m 0,0 -3.208,0 0,3.185 -1.341,0 0,-3.185 -3.185,0 0,-1.357 3.185,0 0,-3.185 1.341,0 0,3.185 3.208,0 L 0,0 z"
         id="path34"
         style="fill:#110f0d;fill-opacity:1;fill-rule:nonzero;stroke:none" /></g><g
       transform="translate(405.3848,425.332)"
       id="g36"><path
         d="M 0,0 9.658,-4.828 -9.656,-9.654 9.658,-14.48 -9.656,-19.309 9.658,-24.137 -9.656,-28.964 9.658,-33.79 -9.656,-38.617 9.658,-43.443 0,-48.271"
         id="path38"
         style="fill:none;stroke:#110f0d;stroke-width:1;stroke-linecap:butt;stroke-linejoin:miter;stroke-miterlimit:10;stroke-opacity:1;stroke-dasharray:none" /></g><g
       transform="translate(396.5313,286.7959)"
       id="g40"><path
         d="M 0,0 17.708,0 M 0,19.069 l 17.708,0 m -23.156,8.174 28.604,0 M -5.448,9.534 l 28.604,0"
         id="path42"
         style="fill:none;stroke:#141f38;stroke-width:1;stroke-linecap:butt;stroke-linejoin:miter;stroke-miterlimit:10;stroke-opacity:1;stroke-dasharray:none" /></g><g
       transform="translate(395.3203,325.6143)"
       id="g44"><path
         d="m 0,0 -3.208,0 0,3.185 -1.341,0 0,-3.185 -3.184,0 0,-1.357 3.184,0 0,-3.185 1.341,0 0,3.185 3.208,0 L 0,0 z"
         id="path46"
         style="fill:#110f0d;fill-opacity:1;fill-rule:nonzero;stroke:none" /></g><g
       transform="translate(100.7275,379.2539)"
       id="g48"><path
         d="M 0,0 28.116,33.551 M 304.657,-2.193 304.634,-65.264 M 154.822,-2.193 154.798,-65.264 M 17.027,-2.192 17.051,-64.534"
         id="path50"
         style="fill:none;stroke:#110f0d;stroke-width:1;stroke-linecap:round;stroke-linejoin:round;stroke-miterlimit:10;stroke-opacity:1;stroke-dasharray:none" /></g><g
       transform="translate(135.8438,421.1553)"
       id="g52"><path
         d="M 0,0 -10.131,-5.727 -3.867,-10.976 0,0 z"
         id="path54"
         style="fill:#110f0d;fill-opacity:1;fill-rule:nonzero;stroke:none" /></g><g
       transform="translate(135.8438,421.1563)"
       id="g56"><path
         d="M 0,0 -10.131,-5.728 -3.867,-10.977 0,0 z"
         id="path58"
         style="fill:none;stroke:#110f0d;stroke-width:1;stroke-linecap:butt;stroke-linejoin:miter;stroke-miterlimit:10;stroke-opacity:1;stroke-dasharray:none" /></g><g
       transform="translate(237.1606,379.2539)"
       id="g60"><path
         d="M 0,0 28.116,33.551"
         id="path62"
         style="fill:none;stroke:#110f0d;stroke-width:1;stroke-linecap:round;stroke-linejoin:round;stroke-miterlimit:10;stroke-opacity:1;stroke-dasharray:none" /></g><g
       transform="translate(272.2764,421.1553)"
       id="g64"><path
         d="M 0,0 -10.131,-5.727 -3.867,-10.976 0,0 z"
         id="path66"
         style="fill:#110f0d;fill-opacity:1;fill-rule:nonzero;stroke:none" /></g><g
       transform="translate(272.2764,421.1563)"
       id="g68"><path
         d="M 0,0 -10.131,-5.728 -3.867,-10.977 0,0 z"
         id="path70"
         style="fill:none;stroke:#110f0d;stroke-width:1;stroke-linecap:butt;stroke-linejoin:miter;stroke-miterlimit:10;stroke-opacity:1;stroke-dasharray:none" /></g><g
       transform="translate(333.873,238.7188)"
       id="g72"><path
         d="M 0,0 0,-23.838 M -78.348,0 l 9.535,0 70.175,0 70.126,0 0,38.324 0,9.534 m -287.583,0.73 0,-9.535 0,-39.053 71.708,0 66.039,0 0,38.324 0,9.534 m 0.706,194.603 9.535,0 139.619,0 0,-46.313 0,-9.535 m -287.631,0 0,9.535 0,46.313 138.477,0 -0.681,-46.313 0,-9.535 m 255.401,-72.791 39.502,-0.764 10.898,0.084 m -50.4,15.665 50.4,-0.682"
         id="path74"
         style="fill:none;stroke:#110f0d;stroke-width:1;stroke-linecap:round;stroke-linejoin:round;stroke-miterlimit:10;stroke-opacity:1;stroke-dasharray:none" /></g><g
       id="g76"><g
         clip-path="url(#clipPath80)"
         id="g78"><g
           transform="translate(330.9839,213.6846)"
           id="g84"><path
             d="m 0,0 c 1.596,1.596 4.182,1.596 5.778,0 1.597,-1.597 1.597,-4.183 0,-5.778 C 4.182,-7.375 1.596,-7.375 0,-5.778 -1.596,-4.183 -1.596,-1.597 0,0"
             id="path86"
             style="fill:none;stroke:#110f0d;stroke-width:1;stroke-linecap:butt;stroke-linejoin:miter;stroke-miterlimit:10;stroke-opacity:1;stroke-dasharray:none" /></g><g
           transform="translate(333.873,505.0176)"
           id="g88"><path
             d="M 0,0 0,-23.838"
             id="path90"
             style="fill:none;stroke:#110f0d;stroke-width:1;stroke-linecap:round;stroke-linejoin:round;stroke-miterlimit:10;stroke-opacity:1;stroke-dasharray:none" /></g><g
           transform="translate(336.7622,506.2148)"
           id="g92"><path
             d="m 0,0 c -1.596,-1.596 -4.182,-1.596 -5.778,0 -1.597,1.597 -1.597,4.183 0,5.778 1.596,1.597 4.182,1.597 5.778,0 C 1.596,4.183 1.596,1.597 0,0"
             id="path94"
             style="fill:none;stroke:#110f0d;stroke-width:1;stroke-linecap:butt;stroke-linejoin:miter;stroke-miterlimit:10;stroke-opacity:1;stroke-dasharray:none" /></g><g
           transform="translate(404.7041,238.7188)"
           id="g96"><path
             d="m 0,0 9.535,0 121.232,0 0,111.695 M 1.362,242.461 l 129.405,0 0,-110.93"
             id="path98"
             style="fill:none;stroke:#110f0d;stroke-width:1;stroke-linecap:round;stroke-linejoin:round;stroke-miterlimit:10;stroke-opacity:1;stroke-dasharray:none" /></g><g
           transform="translate(535.2344,238.7188)"
           id="g100"><path
             d="m 0,0 9.535,0 121.231,0 0,111.695 M 1.361,242.461 l 129.405,0 0,-110.93"
             id="path102"
             style="fill:none;stroke:#231f20;stroke-width:1;stroke-linecap:round;stroke-linejoin:round;stroke-miterlimit:10;stroke-opacity:1;stroke-dasharray:12;stroke-dashoffset:0" /></g><g
           transform="translate(526.6191,373.5029)"
           id="g104"><path
             d="m 0,0 0,3.209 3.184,0 0,1.341 -3.184,0 0,3.184 -1.357,0 0,-3.184 -3.185,0 0,-1.341 3.185,0 L -1.357,0 0,0 z m -9.546,0 0,3.209 3.185,0 0,1.341 -3.185,0 0,3.184 -1.356,0 0,-3.184 -3.186,0 0,-1.341 3.186,0 0,-3.209 1.356,0 z"
             id="path106"
             style="fill:#110f0d;fill-opacity:1;fill-rule:nonzero;stroke:none" /></g><g
           transform="translate(558.5068,373.5029)"
           id="g108"><path
             d="m 0,0 0,3.209 3.185,0 0,1.341 -3.185,0 0,3.184 -1.356,0 0,-3.184 -3.186,0 0,-1.341 3.186,0 L -1.356,0 0,0 z m -9.546,0 0,3.209 3.185,0 0,1.341 -3.185,0 0,3.184 -1.356,0 0,-3.184 -3.185,0 0,-1.341 3.185,0 0,-3.209 1.356,0 z"
             id="path110"
             style="fill:#110f0d;fill-opacity:1;fill-rule:nonzero;stroke:none" /></g><path
           d="m 532.711,342.158 -9.521,0 0,-1.038 9.521,0 0,1.038 z m -13.632,0 -9.521,0 0,-1.038 9.521,0 0,1.038 z"
           id="path112"
           style="fill:#110f0d;fill-opacity:1;fill-rule:nonzero;stroke:none" /><path
           d="m 564.041,342.158 -9.522,0 0,-1.038 9.522,0 0,1.038 z m -13.633,0 -9.521,0 0,-1.038 9.521,0 0,1.038 z"
           id="path114"
           style="fill:#110f0d;fill-opacity:1;fill-rule:nonzero;stroke:none" /><g
           transform="translate(240.2202,462.2471)"
           id="g116"><path
             d="m 0,0 -0.335,-35.553 0,2.179"
             id="path118"
             style="fill:none;stroke:#110f0d;stroke-width:1;stroke-linecap:round;stroke-linejoin:round;stroke-miterlimit:10;stroke-opacity:1;stroke-dasharray:none" /></g><g
           transform="translate(240.3232,473.1426)"
           id="g120"><path
             d="M 0,0 -4.189,-10.856 3.983,-10.934 0,0 z"
             id="path122"
             style="fill:#110f0d;fill-opacity:1;fill-rule:nonzero;stroke:none" /></g><g
           transform="translate(240.3232,473.1426)"
           id="g124"><path
             d="M 0,0 -4.189,-10.856 3.983,-10.934 0,0 z"
             id="path126"
             style="fill:none;stroke:#110f0d;stroke-width:1;stroke-linecap:butt;stroke-linejoin:miter;stroke-miterlimit:10;stroke-opacity:1;stroke-dasharray:none" /></g><g
           transform="translate(392.1953,462.2471)"
           id="g128"><path
             d="m 0,0 -0.336,-35.553 0,2.179"
             id="path130"
             style="fill:none;stroke:#110f0d;stroke-width:1;stroke-linecap:round;stroke-linejoin:round;stroke-miterlimit:10;stroke-opacity:1;stroke-dasharray:none" /></g><g
           transform="translate(392.2988,473.1426)"
           id="g132"><path
             d="M 0,0 -4.19,-10.856 3.982,-10.934 0,0 z"
             id="path134"
             style="fill:#110f0d;fill-opacity:1;fill-rule:nonzero;stroke:none" /></g><g
           transform="translate(392.2988,473.1426)"
           id="g136"><path
             d="M 0,0 -4.19,-10.856 3.982,-10.934 0,0 z"
             id="path138"
             style="fill:none;stroke:#110f0d;stroke-width:1;stroke-linecap:butt;stroke-linejoin:miter;stroke-miterlimit:10;stroke-opacity:1;stroke-dasharray:none" /></g><g
           transform="translate(100.3921,440.1787)"
           id="g140"><path
             d="m 0,0 0.336,35.553 0,-2.179"
             id="path142"
             style="fill:none;stroke:#110f0d;stroke-width:1;stroke-linecap:round;stroke-linejoin:round;stroke-miterlimit:10;stroke-opacity:1;stroke-dasharray:none" /></g><g
           transform="translate(100.2896,429.2832)"
           id="g144"><path
             d="M 0,0 4.189,10.857 -3.983,10.935 0,0 z"
             id="path146"
             style="fill:#110f0d;fill-opacity:1;fill-rule:nonzero;stroke:none" /></g><g
           transform="translate(100.2896,429.2832)"
           id="g148"><path
             d="M 0,0 4.189,10.857 -3.983,10.935 0,0 z"
             id="path150"
             style="fill:none;stroke:#110f0d;stroke-width:1;stroke-linecap:butt;stroke-linejoin:miter;stroke-miterlimit:10;stroke-opacity:1;stroke-dasharray:none" /></g><g
           transform="translate(34.2617,500.3857)"
           id="g152"><path
             d="M 0,0 1.242,-280.872"
             id="path154"
             style="fill:none;stroke:#110f0d;stroke-width:1;stroke-linecap:round;stroke-linejoin:round;stroke-miterlimit:10;stroke-opacity:1;stroke-dasharray:none" /></g><g
           transform="translate(35.5522,208.6162)"
           id="g156"><path
             d="M 0,0 4.038,10.914 -4.135,10.878 0,0 z"
             id="path158"
             style="fill:#110f0d;fill-opacity:1;fill-rule:nonzero;stroke:none" /></g><g
           transform="translate(35.5522,208.6162)"
           id="g160"><path
             d="M 0,0 4.038,10.914 -4.135,10.878 0,0 z"
             id="path162"
             style="fill:none;stroke:#110f0d;stroke-width:1;stroke-linecap:butt;stroke-linejoin:miter;stroke-miterlimit:10;stroke-opacity:1;stroke-dasharray:none" /></g><g
           transform="translate(34.2129,511.2832)"
           id="g164"><path
             d="M 0,0 -4.038,-10.914 4.135,-10.879 0,0 z"
             id="path166"
             style="fill:#110f0d;fill-opacity:1;fill-rule:nonzero;stroke:none" /></g><g
           transform="translate(34.2129,511.2832)"
           id="g168"><path
             d="M 0,0 -4.038,-10.914 4.135,-10.879 0,0 z"
             id="path170"
             style="fill:none;stroke:#110f0d;stroke-width:1;stroke-linecap:butt;stroke-linejoin:miter;stroke-miterlimit:10;stroke-opacity:1;stroke-dasharray:none" /></g><path
           d="m 9,382.212 50.399,0 0,-42.227 -50.399,0 0,42.227 z"
           id="path172"
           style="fill:#ffffff;fill-opacity:1;fill-rule:nonzero;stroke:none" /><g
           transform="translate(36.6167,352.9258)"
           id="g174"><path
             d="m 0,0 0,6.598 c 0,1.156 0.116,2.042 0.347,2.658 0.232,0.614 0.605,1.08 1.119,1.399 0.515,0.32 1.076,0.48 1.682,0.48 0.799,0 1.373,-0.24 1.725,-0.719 C 5.224,9.938 5.399,9.219 5.399,8.261 l 0,-8.261 2.155,0 0,7.389 c 0,1.308 0.296,2.259 0.886,2.854 0.591,0.595 1.333,0.892 2.227,0.892 0.495,0 0.926,-0.115 1.293,-0.347 0.367,-0.232 0.621,-0.537 0.76,-0.916 0.14,-0.38 0.21,-0.999 0.21,-1.861 l 0,-8.011 2.143,0 0,8.729 c 0,1.453 -0.34,2.528 -1.018,3.226 -0.679,0.698 -1.648,1.047 -2.909,1.047 -1.612,0 -2.921,-0.742 -3.927,-2.227 -0.247,0.703 -0.673,1.25 -1.275,1.641 -0.603,0.391 -1.375,0.586 -2.317,0.586 -0.846,0 -1.6,-0.189 -2.262,-0.568 -0.663,-0.379 -1.194,-0.879 -1.593,-1.502 l 0,1.783 -1.927,0 L -2.155,0 0,0 z m -10.834,0 6.871,17.551 -2.37,0 -4.741,-12.748 c -0.359,-0.959 -0.675,-1.917 -0.946,-2.875 -0.247,0.893 -0.555,1.851 -0.922,2.875 l -4.561,12.748 -2.514,0 6.8,-17.551 2.383,0 z"
             id="path176"
             style="fill:#110f0d;fill-opacity:1;fill-rule:nonzero;stroke:none" /></g><path
           d="m 206.572,465.358 -2.322,0 0,-17.551 2.322,0 0,17.551 z"
           id="path178"
           style="fill:#110f0d;fill-opacity:1;fill-rule:nonzero;stroke:none" /><g
           transform="translate(228.1846,444.251)"
           id="g180"><path
             d="m 0,0 0,3.208 3.185,0 0,1.341 -3.185,0 0,3.184 -1.357,0 0,-3.184 -3.185,0 0,-1.341 3.185,0 L -1.357,0 0,0 z m -13.608,-1.892 0,4.055 1.916,1.867 4.166,-5.922 2.043,0 -5.124,6.959 4.908,4.742 -2.099,0 -5.81,-5.802 0,5.802 -1.549,0 0,-11.701 1.549,0 z"
             id="path182"
             style="fill:#110f0d;fill-opacity:1;fill-rule:nonzero;stroke:none" /></g><path
           d="m 58.807,465.358 -2.323,0 0,-17.551 2.323,0 0,17.551 z"
           id="path184"
           style="fill:#110f0d;fill-opacity:1;fill-rule:nonzero;stroke:none" /><g
           transform="translate(89.5,444.251)"
           id="g186"><path
             d="m 0,0 0,3.208 3.185,0 0,1.341 -3.185,0 0,3.184 -1.357,0 0,-3.184 -3.185,0 0,-1.341 3.185,0 L -1.357,0 0,0 z m -8.053,1.835 c 0,-0.633 -0.077,-1.111 -0.232,-1.436 -0.202,-0.42 -0.518,-0.752 -0.949,-0.994 -0.431,-0.242 -0.923,-0.363 -1.477,-0.363 -0.559,0 -0.983,0.128 -1.273,0.383 -0.29,0.256 -0.435,0.575 -0.435,0.958 0,0.25 0.066,0.477 0.2,0.682 0.133,0.206 0.322,0.361 0.566,0.467 0.245,0.107 0.663,0.202 1.254,0.287 1.043,0.15 1.824,0.33 2.346,0.543 l 0,-0.527 z m 0.407,-3.727 1.5,0 c -0.18,0.325 -0.301,0.664 -0.363,1.018 -0.061,0.353 -0.092,1.198 -0.092,2.534 l 0,1.915 c 0,0.639 -0.024,1.08 -0.071,1.325 -0.085,0.394 -0.234,0.72 -0.447,0.978 -0.213,0.258 -0.546,0.473 -0.998,0.643 -0.452,0.169 -1.04,0.255 -1.764,0.255 -0.729,0 -1.37,-0.1 -1.923,-0.299 -0.553,-0.2 -0.977,-0.485 -1.269,-0.855 -0.293,-0.369 -0.503,-0.854 -0.631,-1.456 l 1.405,-0.191 c 0.154,0.6 0.392,1.02 0.714,1.256 0.322,0.237 0.821,0.356 1.497,0.356 0.723,0 1.269,-0.162 1.636,-0.487 0.271,-0.24 0.407,-0.652 0.407,-1.238 0,-0.052 -0.003,-0.177 -0.008,-0.375 -0.548,-0.191 -1.402,-0.356 -2.562,-0.494 -0.57,-0.069 -0.995,-0.141 -1.277,-0.216 -0.383,-0.106 -0.728,-0.263 -1.034,-0.47 -0.305,-0.208 -0.553,-0.484 -0.742,-0.827 -0.189,-0.342 -0.283,-0.722 -0.283,-1.137 0,-0.707 0.25,-1.289 0.75,-1.744 0.5,-0.455 1.216,-0.682 2.147,-0.682 0.564,0 1.092,0.093 1.584,0.279 0.492,0.186 1.005,0.505 1.537,0.957 0.042,-0.398 0.138,-0.747 0.287,-1.045 m -15.971,0 0,9.195 6.146,-9.195 1.588,0 0,11.701 -1.484,0 0,-9.187 -6.146,9.187 -1.588,0 0,-11.701 1.484,0 z"
             id="path188"
             style="fill:#110f0d;fill-opacity:1;fill-rule:nonzero;stroke:none" /></g><path
           d="m 341.548,465.358 -2.323,0 0,-17.551 2.323,0 0,17.551 z"
           id="path190"
           style="fill:#110f0d;fill-opacity:1;fill-rule:nonzero;stroke:none" /><g
           transform="translate(377.2725,442.3594)"
           id="g192"><path
             d="M 0,0 0,3.359 1.014,4.334 3.815,0 5.587,0 2.02,5.331 5.26,8.477 3.4,8.477 0,5.028 0,11.7 -1.437,11.7 -1.437,0 0,0 z M -5.124,3.727 C -5.124,3.094 -5.201,2.615 -5.355,2.291 -5.558,1.87 -5.874,1.539 -6.306,1.297 -6.736,1.055 -7.229,0.934 -7.782,0.934 c -0.559,0 -0.981,0.128 -1.272,0.382 -0.289,0.256 -0.435,0.576 -0.435,0.958 0,0.25 0.066,0.478 0.199,0.683 0.133,0.205 0.322,0.36 0.566,0.467 0.245,0.106 0.662,0.202 1.254,0.287 1.042,0.149 1.824,0.33 2.346,0.543 l 0,-0.527 z M -4.717,0 -3.216,0 C -3.397,0.324 -3.517,0.664 -3.578,1.018 -3.64,1.371 -3.671,2.216 -3.671,3.552 l 0,1.915 c 0,0.638 -0.024,1.08 -0.072,1.325 -0.085,0.394 -0.235,0.72 -0.447,0.978 -0.213,0.257 -0.545,0.472 -0.998,0.642 -0.452,0.17 -1.04,0.256 -1.764,0.256 -0.729,0 -1.369,-0.101 -1.923,-0.3 -0.554,-0.199 -0.977,-0.484 -1.269,-0.854 -0.293,-0.369 -0.503,-0.855 -0.63,-1.456 L -9.37,5.866 c 0.154,0.601 0.394,1.021 0.716,1.257 0.321,0.236 0.819,0.356 1.495,0.356 0.723,0 1.269,-0.163 1.637,-0.488 0.271,-0.239 0.406,-0.651 0.406,-1.237 0,-0.053 -0.002,-0.178 -0.008,-0.375 C -5.672,5.188 -6.526,5.022 -7.687,4.885 -8.255,4.815 -8.681,4.743 -8.963,4.669 -9.346,4.563 -9.688,4.405 -9.995,4.198 -10.302,3.99 -10.548,3.715 -10.737,3.372 c -0.19,-0.343 -0.285,-0.723 -0.285,-1.138 0,-0.707 0.25,-1.289 0.75,-1.744 0.501,-0.455 1.216,-0.681 2.147,-0.681 0.564,0 1.094,0.092 1.586,0.279 0.492,0.185 1.003,0.505 1.535,0.957 C -4.962,0.646 -4.866,0.298 -4.717,0 m -13.076,6.824 c 0.45,0.442 1.003,0.662 1.663,0.662 0.729,0 1.322,-0.277 1.779,-0.83 0.299,-0.356 0.48,-0.891 0.543,-1.604 l -4.733,0 c 0.048,0.739 0.299,1.33 0.748,1.772 m 3.083,-5.42 c -0.372,-0.276 -0.821,-0.415 -1.348,-0.415 -0.708,0 -1.298,0.247 -1.772,0.742 -0.474,0.496 -0.737,1.208 -0.79,2.14 l 6.321,0 c 0.005,0.17 0.008,0.298 0.008,0.383 0,1.399 -0.359,2.484 -1.077,3.256 -0.719,0.771 -1.645,1.158 -2.778,1.158 -1.17,0 -2.123,-0.395 -2.857,-1.182 -0.735,-0.787 -1.101,-1.894 -1.101,-3.32 0,-1.378 0.364,-2.449 1.09,-3.213 0.726,-0.764 1.708,-1.144 2.948,-1.144 0.984,0 1.794,0.239 2.426,0.717 0.633,0.48 1.067,1.153 1.301,2.02 l -1.484,0.183 C -14.042,2.123 -14.337,1.682 -14.71,1.404 M -21.286,0 l 0,1.381 -5.762,0 0,10.319 -1.549,0 0,-11.7 7.311,0 z"
             id="path194"
             style="fill:#110f0d;fill-opacity:1;fill-rule:nonzero;stroke:none" /></g><g
           transform="translate(141.1406,400.2979)"
           id="g196"><path
             d="m 0,0 c 0.596,0.691 1.319,1.037 2.171,1.037 0.864,0 1.604,-0.35 2.219,-1.054 0.613,-0.702 0.92,-1.744 0.92,-3.128 0,-1.447 -0.298,-2.51 -0.894,-3.187 -0.596,-0.679 -1.334,-1.017 -2.213,-1.017 -0.888,0 -1.626,0.341 -2.214,1.022 -0.589,0.681 -0.883,1.763 -0.883,3.246 0,1.362 0.298,2.389 0.894,3.081 m -1.277,-12.61 c 0.83,-0.608 1.918,-0.911 3.267,-0.911 1.135,0 2.091,0.213 2.868,0.639 0.777,0.426 1.343,1.006 1.703,1.74 0.357,0.735 0.537,1.981 0.537,3.741 l 0,9.769 -1.767,0 0,-1.362 C 4.465,2.083 3.365,2.623 2.032,2.623 c -1,0 -1.871,-0.249 -2.612,-0.745 -0.742,-0.497 -1.308,-1.201 -1.697,-2.112 -0.391,-0.912 -0.586,-1.908 -0.586,-2.986 0,-1.568 0.426,-2.912 1.277,-4.033 0.852,-1.121 2.054,-1.681 3.607,-1.681 1.249,0 2.292,0.493 3.129,1.48 0.007,-1.25 -0.04,-2.069 -0.138,-2.459 -0.17,-0.639 -0.497,-1.136 -0.979,-1.49 -0.483,-0.355 -1.168,-0.532 -2.054,-0.532 -0.823,0 -1.472,0.177 -1.947,0.532 -0.355,0.262 -0.572,0.681 -0.649,1.256 l -1.862,0.277 c -0.03,-1.222 0.372,-2.134 1.202,-2.74"
             id="path198"
             style="fill:#110f0d;fill-opacity:1;fill-rule:nonzero;stroke:none" /></g><g
           transform="translate(175.5327,385.7637)"
           id="g200"><path
             d="m 0,0 0,3.209 3.185,0 0,1.341 -3.185,0 0,3.184 -1.357,0 0,-3.184 -3.185,0 0,-1.341 3.185,0 L -1.357,0 0,0 z m -8.053,1.836 c 0,-0.633 -0.077,-1.112 -0.232,-1.437 -0.202,-0.42 -0.519,-0.753 -0.949,-0.995 -0.432,-0.242 -0.924,-0.362 -1.477,-0.362 -0.559,0 -0.983,0.128 -1.273,0.384 -0.29,0.255 -0.435,0.574 -0.435,0.957 0,0.25 0.066,0.476 0.199,0.681 0.134,0.206 0.323,0.362 0.567,0.468 0.245,0.107 0.663,0.202 1.253,0.288 1.043,0.149 1.825,0.329 2.347,0.542 l 0,-0.526 z m 0.407,-3.728 1.5,0 c -0.181,0.326 -0.302,0.663 -0.363,1.017 -0.061,0.354 -0.092,1.199 -0.092,2.535 l 0,1.916 c 0,0.638 -0.024,1.08 -0.071,1.324 -0.086,0.395 -0.235,0.719 -0.448,0.977 -0.213,0.258 -0.545,0.474 -0.997,0.644 -0.452,0.17 -1.04,0.255 -1.764,0.255 -0.729,0 -1.37,-0.101 -1.924,-0.3 -0.553,-0.2 -0.976,-0.485 -1.269,-0.855 -0.292,-0.369 -0.502,-0.853 -0.63,-1.455 l 1.405,-0.191 c 0.154,0.601 0.392,1.019 0.714,1.255 0.322,0.237 0.821,0.357 1.497,0.357 0.723,0 1.269,-0.162 1.635,-0.487 0.272,-0.24 0.408,-0.652 0.408,-1.237 0,-0.053 -0.003,-0.178 -0.008,-0.375 -0.549,-0.191 -1.403,-0.357 -2.562,-0.495 -0.57,-0.069 -0.995,-0.141 -1.277,-0.216 -0.383,-0.106 -0.728,-0.263 -1.034,-0.47 -0.306,-0.207 -0.553,-0.485 -0.742,-0.828 -0.189,-0.343 -0.284,-0.721 -0.284,-1.135 0,-0.708 0.25,-1.291 0.751,-1.746 0.5,-0.455 1.216,-0.681 2.147,-0.681 0.564,0 1.092,0.093 1.584,0.279 0.492,0.187 1.004,0.506 1.536,0.958 0.043,-0.399 0.139,-0.748 0.288,-1.046 m -15.971,0 0,9.195 6.146,-9.195 1.588,0 0,11.701 -1.485,0 0,-9.186 -6.145,9.186 -1.589,0 0,-11.701 1.485,0 z"
             id="path202"
             style="fill:#110f0d;fill-opacity:1;fill-rule:nonzero;stroke:none" /></g><g
           transform="translate(278.7051,400.2979)"
           id="g204"><path
             d="m 0,0 c 0.596,0.691 1.319,1.037 2.171,1.037 0.865,0 1.604,-0.35 2.219,-1.054 0.613,-0.702 0.92,-1.744 0.92,-3.128 0,-1.447 -0.298,-2.51 -0.894,-3.187 -0.596,-0.679 -1.334,-1.017 -2.213,-1.017 -0.888,0 -1.625,0.341 -2.214,1.022 -0.589,0.681 -0.883,1.763 -0.883,3.246 0,1.362 0.298,2.389 0.894,3.081 m -1.277,-12.61 c 0.83,-0.608 1.919,-0.911 3.267,-0.911 1.135,0 2.091,0.213 2.868,0.639 0.777,0.426 1.344,1.006 1.703,1.74 0.357,0.735 0.537,1.981 0.537,3.741 l 0,9.769 -1.767,0 0,-1.362 C 4.465,2.083 3.366,2.623 2.032,2.623 c -1,0 -1.871,-0.249 -2.612,-0.745 -0.742,-0.497 -1.308,-1.201 -1.697,-2.112 -0.391,-0.912 -0.586,-1.908 -0.586,-2.986 0,-1.568 0.426,-2.912 1.277,-4.033 0.852,-1.121 2.054,-1.681 3.607,-1.681 1.249,0 2.292,0.493 3.129,1.48 0.007,-1.25 -0.039,-2.069 -0.138,-2.459 -0.17,-0.639 -0.497,-1.136 -0.979,-1.49 -0.483,-0.355 -1.167,-0.532 -2.054,-0.532 -0.823,0 -1.472,0.177 -1.947,0.532 -0.355,0.262 -0.572,0.681 -0.649,1.256 l -1.862,0.277 c -0.029,-1.222 0.372,-2.134 1.202,-2.74"
             id="path206"
             style="fill:#110f0d;fill-opacity:1;fill-rule:nonzero;stroke:none" /></g><g
           transform="translate(305.377,385.7637)"
           id="g208"><path
             d="m 0,0 0,3.209 3.185,0 0,1.341 -3.185,0 0,3.184 -1.357,0 0,-3.184 -3.184,0 0,-1.341 3.184,0 L -1.357,0 0,0 z m -13.608,-1.892 0,4.055 1.916,1.868 4.166,-5.923 2.043,0 -5.124,6.96 4.908,4.741 -2.099,0 -5.81,-5.802 0,5.802 -1.548,0 0,-11.701 1.548,0 z"
             id="path210"
             style="fill:#110f0d;fill-opacity:1;fill-rule:nonzero;stroke:none" /></g><g
           transform="translate(427.8711,400.2979)"
           id="g212"><path
             d="m 0,0 c 0.596,0.691 1.32,1.037 2.172,1.037 0.864,0 1.603,-0.35 2.219,-1.054 0.613,-0.702 0.92,-1.744 0.92,-3.128 0,-1.447 -0.298,-2.51 -0.895,-3.187 -0.596,-0.679 -1.332,-1.017 -2.213,-1.017 -0.886,0 -1.625,0.341 -2.213,1.022 -0.588,0.681 -0.884,1.763 -0.884,3.246 0,1.362 0.298,2.389 0.894,3.081 m -1.277,-12.61 c 0.83,-0.608 1.919,-0.911 3.267,-0.911 1.137,0 2.092,0.213 2.868,0.639 0.777,0.426 1.343,1.006 1.703,1.74 0.359,0.735 0.537,1.981 0.537,3.741 l 0,9.769 -1.766,0 0,-1.362 C 4.467,2.083 3.365,2.623 2.033,2.623 c -1,0 -1.871,-0.249 -2.613,-0.745 -0.742,-0.497 -1.306,-1.201 -1.697,-2.112 -0.391,-0.912 -0.585,-1.908 -0.585,-2.986 0,-1.568 0.425,-2.912 1.276,-4.033 0.852,-1.121 2.055,-1.681 3.608,-1.681 1.248,0 2.291,0.493 3.128,1.48 0.008,-1.25 -0.039,-2.069 -0.137,-2.459 -0.171,-0.639 -0.497,-1.136 -0.98,-1.49 -0.481,-0.355 -1.168,-0.532 -2.054,-0.532 -0.821,0 -1.471,0.177 -1.947,0.532 -0.354,0.262 -0.571,0.681 -0.649,1.256 l -1.862,0.277 c -0.029,-1.222 0.372,-2.134 1.202,-2.74"
             id="path214"
             style="fill:#110f0d;fill-opacity:1;fill-rule:nonzero;stroke:none" /></g><g
           transform="translate(468.6582,383.8721)"
           id="g216"><path
             d="M 0,0 0,3.36 1.014,4.334 3.815,0 5.588,0 2.02,5.331 5.26,8.477 3.4,8.477 0,5.028 0,11.7 -1.437,11.7 -1.437,0 0,0 z M -5.123,3.728 C -5.123,3.095 -5.201,2.615 -5.355,2.291 -5.557,1.87 -5.874,1.538 -6.305,1.296 -6.736,1.054 -7.229,0.934 -7.781,0.934 c -0.559,0 -0.985,0.128 -1.275,0.383 -0.29,0.255 -0.433,0.575 -0.433,0.957 0,0.25 0.066,0.477 0.199,0.682 0.134,0.205 0.322,0.361 0.567,0.468 0.244,0.106 0.662,0.202 1.252,0.288 1.043,0.148 1.826,0.329 2.348,0.542 l 0,-0.526 z M -4.717,0 l 1.5,0 C -3.396,0.325 -3.52,0.663 -3.58,1.017 -3.642,1.37 -3.671,2.216 -3.671,3.552 l 0,1.916 c 0,0.637 -0.024,1.08 -0.072,1.324 -0.085,0.395 -0.234,0.719 -0.446,0.977 -0.213,0.257 -0.546,0.473 -0.999,0.643 -0.452,0.171 -1.04,0.256 -1.763,0.256 -0.729,0 -1.37,-0.102 -1.924,-0.301 -0.553,-0.199 -0.977,-0.484 -1.27,-0.854 -0.292,-0.369 -0.501,-0.854 -0.629,-1.455 l 1.405,-0.192 c 0.154,0.602 0.39,1.02 0.713,1.256 0.321,0.236 0.822,0.357 1.497,0.357 0.723,0 1.269,-0.163 1.636,-0.488 C -5.252,6.752 -5.115,6.34 -5.115,5.755 -5.115,5.701 -5.118,5.576 -5.123,5.38 -5.672,5.188 -6.525,5.022 -7.686,4.885 -8.255,4.815 -8.681,4.743 -8.963,4.669 -9.346,4.563 -9.691,4.405 -9.998,4.198 -10.304,3.991 -10.551,3.714 -10.74,3.371 c -0.189,-0.344 -0.281,-0.722 -0.281,-1.136 0,-0.708 0.25,-1.291 0.75,-1.746 0.5,-0.455 1.215,-0.68 2.146,-0.68 0.564,0 1.092,0.092 1.584,0.279 0.492,0.186 1.005,0.506 1.537,0.958 0.043,-0.4 0.139,-0.748 0.287,-1.046 m -13.078,6.824 c 0.449,0.442 1.006,0.662 1.665,0.662 0.73,0 1.322,-0.276 1.78,-0.83 0.297,-0.356 0.479,-0.89 0.543,-1.604 l -4.733,0 c 0.048,0.74 0.295,1.331 0.745,1.772 m 3.086,-5.419 c -0.373,-0.277 -0.822,-0.416 -1.35,-0.416 -0.707,0 -1.297,0.248 -1.771,0.743 -0.474,0.495 -0.736,1.208 -0.79,2.139 l 6.321,0 c 0.006,0.17 0.008,0.298 0.008,0.383 0,1.399 -0.359,2.485 -1.077,3.257 -0.719,0.771 -1.645,1.157 -2.778,1.157 -1.17,0 -2.124,-0.394 -2.857,-1.182 -0.734,-0.787 -1.101,-1.893 -1.101,-3.32 0,-1.378 0.362,-2.45 1.087,-3.214 0.727,-0.764 1.711,-1.143 2.951,-1.143 0.984,0 1.793,0.239 2.426,0.717 0.634,0.48 1.068,1.153 1.301,2.02 l -1.484,0.183 C -14.041,2.123 -14.337,1.682 -14.709,1.405 M -21.285,0 l 0,1.381 -5.764,0 0,10.319 -1.548,0 0,-11.7 7.312,0 z"
             id="path218"
             style="fill:#110f0d;fill-opacity:1;fill-rule:nonzero;stroke:none" /></g><g
           transform="translate(152.2393,298.1563)"
           id="g220"><path
             d="m 0,0 0,1.84 -9.578,0 0,5.31 8.631,0 0,1.83 -8.631,0 0,4.78 9.216,0 0,1.84 -11.28,0 0,-15.6 L 0,0 z"
             id="path222"
             style="fill:#110f0d;fill-opacity:1;fill-rule:nonzero;stroke:none" /></g><g
           transform="translate(180.7627,292.5557)"
           id="g224"><path
             d="m 0,0 0,3.208 3.185,0 0,1.341 -3.185,0 0,3.184 -1.356,0 0,-3.184 -3.185,0 0,-1.341 3.185,0 L -1.356,0 0,0 z m -8.053,1.835 c 0,-0.633 -0.077,-1.111 -0.231,-1.436 -0.203,-0.42 -0.519,-0.752 -0.95,-0.994 -0.431,-0.242 -0.923,-0.363 -1.476,-0.363 -0.56,0 -0.984,0.128 -1.273,0.383 -0.291,0.256 -0.435,0.575 -0.435,0.958 0,0.25 0.066,0.477 0.199,0.682 0.132,0.206 0.322,0.361 0.567,0.467 0.244,0.107 0.662,0.202 1.253,0.287 1.042,0.15 1.824,0.33 2.346,0.543 l 0,-0.527 z m 0.407,-3.727 1.5,0 c -0.18,0.325 -0.302,0.664 -0.362,1.018 C -6.57,-0.521 -6.6,0.324 -6.6,1.66 l 0,1.915 c 0,0.639 -0.024,1.08 -0.072,1.325 -0.085,0.394 -0.235,0.72 -0.447,0.978 -0.213,0.258 -0.546,0.473 -0.998,0.643 -0.452,0.169 -1.041,0.255 -1.764,0.255 -0.729,0 -1.37,-0.099 -1.923,-0.299 -0.554,-0.2 -0.977,-0.485 -1.269,-0.855 -0.293,-0.369 -0.503,-0.854 -0.631,-1.456 l 1.405,-0.191 c 0.154,0.6 0.392,1.02 0.715,1.256 0.321,0.237 0.82,0.356 1.496,0.356 0.723,0 1.269,-0.162 1.636,-0.487 0.271,-0.24 0.407,-0.652 0.407,-1.238 0,-0.052 -0.003,-0.177 -0.008,-0.375 -0.548,-0.191 -1.402,-0.356 -2.562,-0.494 -0.57,-0.069 -0.995,-0.141 -1.277,-0.216 -0.383,-0.106 -0.728,-0.263 -1.033,-0.47 -0.307,-0.208 -0.554,-0.484 -0.743,-0.827 -0.188,-0.342 -0.283,-0.722 -0.283,-1.137 0,-0.707 0.25,-1.289 0.75,-1.744 0.5,-0.455 1.216,-0.682 2.147,-0.682 0.564,0 1.092,0.093 1.584,0.279 0.492,0.186 1.005,0.505 1.537,0.957 0.042,-0.398 0.138,-0.747 0.287,-1.045 m -15.97,0 0,9.195 6.145,-9.195 1.589,0 0,11.701 -1.485,0 0,-9.187 -6.146,9.187 -1.588,0 0,-11.701 1.485,0 z"
             id="path226"
             style="fill:#110f0d;fill-opacity:1;fill-rule:nonzero;stroke:none" /></g><g
           transform="translate(289.8027,298.1563)"
           id="g228"><path
             d="m 0,0 0,1.84 -9.578,0 0,5.31 8.631,0 0,1.83 -8.631,0 0,4.78 9.216,0 0,1.84 -11.28,0 0,-15.6 L 0,0 z"
             id="path230"
             style="fill:#110f0d;fill-opacity:1;fill-rule:nonzero;stroke:none" /></g><g
           transform="translate(309.2441,292.5557)"
           id="g232"><path
             d="m 0,0 0,3.208 3.185,0 0,1.341 -3.185,0 0,3.184 -1.357,0 0,-3.184 -3.185,0 0,-1.341 3.185,0 L -1.357,0 0,0 z m -13.608,-1.892 0,4.055 1.915,1.867 4.167,-5.922 2.043,0 -5.124,6.959 4.908,4.742 -2.099,0 -5.81,-5.802 0,5.802 -1.549,0 0,-11.701 1.549,0 z"
             id="path234"
             style="fill:#110f0d;fill-opacity:1;fill-rule:nonzero;stroke:none" /></g><g
           transform="translate(438.9688,298.1563)"
           id="g236"><path
             d="m 0,0 0,1.84 -9.578,0 0,5.31 8.631,0 0,1.83 -8.631,0 0,4.78 9.216,0 0,1.84 -11.281,0 0,-15.6 L 0,0 z"
             id="path238"
             style="fill:#110f0d;fill-opacity:1;fill-rule:nonzero;stroke:none" /></g><g
           transform="translate(471.1621,290.6641)"
           id="g240"><path
             d="M 0,0 0,3.359 1.014,4.334 3.814,0 5.587,0 2.02,5.331 5.26,8.477 3.4,8.477 0,5.028 0,11.7 -1.437,11.7 -1.437,0 0,0 z M -5.124,3.727 C -5.124,3.094 -5.201,2.615 -5.355,2.291 -5.558,1.87 -5.875,1.539 -6.305,1.297 -6.736,1.055 -7.229,0.934 -7.781,0.934 c -0.56,0 -0.983,0.128 -1.273,0.382 -0.29,0.256 -0.436,0.576 -0.436,0.958 0,0.25 0.066,0.478 0.199,0.683 0.134,0.205 0.322,0.36 0.567,0.467 0.245,0.106 0.663,0.202 1.253,0.287 1.043,0.149 1.825,0.33 2.347,0.543 l 0,-0.527 z M -4.717,0 l 1.5,0 c -0.18,0.324 -0.301,0.664 -0.361,1.018 -0.062,0.353 -0.094,1.198 -0.094,2.534 l 0,1.915 c 0,0.638 -0.023,1.08 -0.071,1.325 -0.085,0.394 -0.235,0.72 -0.447,0.978 -0.213,0.257 -0.546,0.472 -0.998,0.642 -0.453,0.17 -1.041,0.256 -1.763,0.256 -0.73,0 -1.371,-0.1 -1.924,-0.3 -0.554,-0.199 -0.977,-0.484 -1.27,-0.854 -0.293,-0.369 -0.501,-0.855 -0.63,-1.456 L -9.37,5.866 c 0.154,0.601 0.393,1.021 0.716,1.257 0.322,0.236 0.819,0.356 1.495,0.356 0.723,0 1.268,-0.163 1.636,-0.488 0.271,-0.239 0.407,-0.651 0.407,-1.237 0,-0.053 -0.003,-0.178 -0.008,-0.375 C -5.672,5.188 -6.526,5.022 -7.686,4.885 -8.256,4.815 -8.682,4.743 -8.963,4.669 -9.346,4.563 -9.689,4.405 -9.995,4.198 -10.301,3.99 -10.549,3.715 -10.738,3.372 c -0.189,-0.343 -0.284,-0.723 -0.284,-1.138 0,-0.707 0.25,-1.289 0.751,-1.744 0.5,-0.455 1.214,-0.681 2.146,-0.681 0.564,0 1.094,0.092 1.586,0.279 0.492,0.185 1.002,0.505 1.535,0.957 C -4.962,0.646 -4.866,0.298 -4.717,0 m -13.076,6.824 c 0.449,0.442 1.003,0.662 1.662,0.662 0.73,0 1.322,-0.276 1.78,-0.83 0.298,-0.356 0.48,-0.891 0.543,-1.604 l -4.733,0 c 0.049,0.739 0.299,1.331 0.748,1.772 m 3.084,-5.42 c -0.373,-0.276 -0.822,-0.415 -1.35,-0.415 -0.707,0 -1.298,0.247 -1.771,0.742 -0.474,0.496 -0.737,1.208 -0.791,2.14 l 6.322,0 c 0.005,0.17 0.008,0.298 0.008,0.383 0,1.399 -0.359,2.484 -1.078,3.256 -0.718,0.771 -1.644,1.158 -2.777,1.158 -1.17,0 -2.124,-0.395 -2.858,-1.182 -0.734,-0.787 -1.101,-1.894 -1.101,-3.32 0,-1.378 0.365,-2.449 1.091,-3.213 0.726,-0.764 1.707,-1.144 2.948,-1.144 0.984,0 1.793,0.239 2.425,0.717 0.634,0.48 1.068,1.153 1.301,2.02 l -1.484,0.183 C -14.042,2.123 -14.338,1.682 -14.709,1.404 M -21.286,0 l 0,1.381 -5.763,0 0,10.319 -1.549,0 0,-11.7 7.312,0 z"
             id="path242"
             style="fill:#110f0d;fill-opacity:1;fill-rule:nonzero;stroke:none" /></g><g
           transform="translate(397.585,519.3203)"
           id="g244"><path
             d="m 0,0 0,6.656 c 0,0.91 0.12,1.748 0.359,2.514 0.16,0.504 0.429,0.896 0.804,1.18 0.375,0.284 0.798,0.424 1.269,0.424 0.526,0 1.053,-0.155 1.58,-0.466 l 0.743,1.999 c -0.751,0.463 -1.49,0.695 -2.217,0.695 -0.503,0 -0.963,-0.145 -1.381,-0.432 -0.42,-0.287 -0.878,-0.882 -1.373,-1.783 l 0,1.927 -1.939,0 L -2.155,0 0,0 z m -7.648,5.591 c 0,-0.95 -0.118,-1.668 -0.349,-2.155 C -8.3,2.806 -8.774,2.309 -9.421,1.944 -10.067,1.583 -10.807,1.4 -11.637,1.4 c -0.838,0 -1.473,0.192 -1.907,0.576 -0.436,0.382 -0.654,0.861 -0.654,1.436 0,0.375 0.1,0.717 0.301,1.023 0.199,0.308 0.48,0.542 0.847,0.701 0.367,0.159 0.996,0.303 1.881,0.43 1.565,0.224 2.738,0.496 3.521,0.815 l 0,-0.79 z M -7.04,0 -4.788,0 c -0.272,0.486 -0.453,0.995 -0.543,1.527 -0.094,0.53 -0.139,1.797 -0.139,3.8 l 0,2.874 c 0,0.957 -0.037,1.619 -0.109,1.987 -0.127,0.59 -0.352,1.079 -0.67,1.467 -0.319,0.386 -0.816,0.708 -1.496,0.963 -0.678,0.256 -1.561,0.384 -2.647,0.384 -1.093,0 -2.053,-0.149 -2.883,-0.45 -0.83,-0.298 -1.466,-0.727 -1.906,-1.28 -0.438,-0.556 -0.752,-1.284 -0.944,-2.185 l 2.107,-0.288 c 0.232,0.902 0.588,1.531 1.072,1.886 0.482,0.356 1.23,0.533 2.243,0.533 1.086,0 1.905,-0.243 2.456,-0.731 0.406,-0.359 0.609,-0.977 0.609,-1.855 0,-0.08 -0.003,-0.268 -0.01,-0.563 -0.823,-0.288 -2.105,-0.535 -3.845,-0.743 -0.854,-0.103 -1.492,-0.211 -1.916,-0.322 -0.574,-0.16 -1.09,-0.396 -1.548,-0.707 -0.46,-0.311 -0.833,-0.724 -1.114,-1.239 -0.283,-0.514 -0.426,-1.083 -0.426,-1.706 0,-1.061 0.375,-1.934 1.125,-2.616 0.75,-0.683 1.825,-1.023 3.222,-1.023 0.846,0 1.639,0.14 2.376,0.419 0.736,0.279 1.505,0.758 2.303,1.436 C -7.407,0.97 -7.263,0.447 -7.04,0 m -12.067,17.551 -2.155,0 0,-17.551 2.155,0 0,17.551 z M -24.591,0 l 0,12.714 -2.154,0 0,-6.812 c 0,-1.086 -0.117,-1.914 -0.352,-2.484 -0.236,-0.571 -0.638,-1.022 -1.205,-1.354 -0.566,-0.33 -1.174,-0.496 -1.82,-0.496 -0.647,0 -1.189,0.161 -1.627,0.486 -0.439,0.322 -0.727,0.767 -0.862,1.334 -0.088,0.391 -0.13,1.149 -0.13,2.274 l 0,7.052 -2.156,0 0,-7.877 c 0,-0.918 0.043,-1.589 0.13,-2.012 0.128,-0.63 0.349,-1.163 0.665,-1.598 0.318,-0.434 0.798,-0.796 1.451,-1.083 0.648,-0.288 1.348,-0.431 2.099,-0.431 1.699,0 3.045,0.718 4.035,2.154 l 0,-1.867 1.926,0 z m -13.599,17.551 -2.155,0 0,-17.551 2.155,0 0,17.551 z m -5.446,0 -2.155,0 0,-17.551 2.155,0 0,17.551 z m -12.997,-7.315 c 0.676,0.662 1.506,0.993 2.496,0.993 1.093,0 1.985,-0.415 2.671,-1.245 0.447,-0.535 0.718,-1.337 0.814,-2.406 l -7.1,0 c 0.071,1.11 0.443,1.995 1.119,2.658 m 4.627,-8.129 c -0.559,-0.416 -1.232,-0.623 -2.022,-0.623 -1.061,0 -1.948,0.371 -2.658,1.114 -0.71,0.742 -1.106,1.812 -1.187,3.209 l 9.482,0 c 0.008,0.255 0.014,0.446 0.014,0.574 0,2.099 -0.54,3.727 -1.618,4.885 -1.077,1.157 -2.466,1.736 -4.166,1.736 -1.756,0 -3.185,-0.591 -4.286,-1.773 -1.101,-1.18 -1.652,-2.84 -1.652,-4.98 0,-2.067 0.545,-3.674 1.636,-4.817 1.088,-1.147 2.562,-1.719 4.421,-1.719 1.477,0 2.69,0.359 3.64,1.077 0.95,0.718 1.602,1.728 1.953,3.028 l -2.227,0.276 c -0.327,-0.909 -0.771,-1.573 -1.33,-1.987 M -64.42,2.263 c -0.566,-0.519 -1.274,-0.779 -2.12,-0.779 -1.054,0 -1.908,0.387 -2.562,1.162 -0.654,0.774 -0.982,2.015 -0.982,3.723 0,1.684 0.341,2.916 1.019,3.693 0.679,0.779 1.559,1.167 2.645,1.167 0.718,0 1.33,-0.215 1.838,-0.646 0.508,-0.431 0.859,-1.073 1.059,-1.928 l 2.096,0.324 c -0.247,1.285 -0.811,2.277 -1.689,2.974 -0.878,0.699 -2.006,1.049 -3.387,1.049 -1.093,0 -2.107,-0.259 -3.036,-0.772 -0.928,-0.516 -1.622,-1.288 -2.077,-2.318 -0.455,-1.029 -0.681,-2.23 -0.681,-3.603 0,-2.123 0.526,-3.752 1.586,-4.891 1.058,-1.136 2.455,-1.705 4.195,-1.705 1.389,0 2.562,0.412 3.514,1.239 0.953,0.825 1.546,1.969 1.777,3.43 l -2.117,0.275 C -63.494,3.58 -63.853,2.781 -64.42,2.263 m -12.738,3.328 c 0,-0.95 -0.117,-1.668 -0.348,-2.155 C -77.81,2.806 -78.283,2.309 -78.93,1.944 -79.576,1.583 -80.316,1.4 -81.145,1.4 c -0.837,0 -1.474,0.192 -1.909,0.576 -0.435,0.382 -0.653,0.861 -0.653,1.436 0,0.375 0.1,0.717 0.3,1.023 0.199,0.308 0.483,0.542 0.85,0.701 0.367,0.159 0.994,0.303 1.879,0.43 1.565,0.224 2.738,0.496 3.52,0.815 l 0,-0.79 z M -76.549,0 l 2.251,0 c -0.271,0.486 -0.452,0.995 -0.543,1.527 -0.093,0.53 -0.138,1.797 -0.138,3.8 l 0,2.874 c 0,0.957 -0.037,1.619 -0.109,1.987 -0.128,0.59 -0.351,1.079 -0.67,1.467 -0.32,0.386 -0.817,0.708 -1.496,0.963 -0.678,0.256 -1.561,0.384 -2.647,0.384 -1.092,0 -2.054,-0.149 -2.884,-0.45 -0.83,-0.298 -1.464,-0.727 -1.903,-1.28 -0.439,-0.556 -0.754,-1.284 -0.946,-2.185 l 2.107,-0.288 c 0.232,0.902 0.589,1.531 1.071,1.886 0.483,0.356 1.232,0.533 2.244,0.533 1.086,0 1.905,-0.243 2.456,-0.731 0.406,-0.359 0.609,-0.977 0.609,-1.855 0,-0.08 -0.003,-0.268 -0.011,-0.563 -0.822,-0.288 -2.104,-0.535 -3.843,-0.743 -0.854,-0.103 -1.492,-0.211 -1.916,-0.322 -0.574,-0.16 -1.091,-0.396 -1.55,-0.707 -0.459,-0.311 -0.83,-0.724 -1.113,-1.239 -0.283,-0.514 -0.425,-1.083 -0.425,-1.706 0,-1.061 0.375,-1.934 1.125,-2.616 0.751,-0.683 1.824,-1.023 3.221,-1.023 0.846,0 1.638,0.14 2.375,0.419 0.737,0.279 1.506,0.758 2.305,1.436 0.063,-0.598 0.207,-1.121 0.43,-1.568 m -14.76,0 0,6.656 c 0,0.91 0.12,1.748 0.359,2.514 0.16,0.504 0.428,0.896 0.803,1.18 0.375,0.284 0.798,0.424 1.269,0.424 0.526,0 1.053,-0.155 1.58,-0.466 l 0.742,1.999 c -0.75,0.463 -1.488,0.695 -2.215,0.695 -0.502,0 -0.963,-0.145 -1.382,-0.432 -0.419,-0.287 -0.876,-0.882 -1.371,-1.783 l 0,1.927 -1.94,0 0,-12.714 2.155,0 z m -5.184,1.844 c -0.319,0 -0.564,0.052 -0.736,0.155 -0.171,0.105 -0.295,0.243 -0.371,0.419 -0.076,0.176 -0.114,0.571 -0.114,1.186 l 0,7.434 2.167,0 0,1.676 -2.167,0 0,4.442 -2.142,-1.293 0,-3.149 -1.581,0 0,-1.676 1.581,0 0,-7.315 c 0,-1.293 0.087,-2.14 0.263,-2.544 0.175,-0.402 0.479,-0.728 0.909,-0.976 0.432,-0.247 1.038,-0.371 1.82,-0.371 0.479,0 1.022,0.064 1.629,0.191 l -0.312,1.905 C -95.938,1.871 -96.253,1.844 -96.493,1.844 M -111.338,0 l 3.34,5.016 0.695,-1.065 2.61,-3.951 2.646,0 -4.729,6.729 4.393,5.985 -2.574,0 -2.143,-3.005 c -0.295,-0.407 -0.618,-0.874 -0.969,-1.4 -0.224,0.382 -0.519,0.857 -0.887,1.424 l -1.951,2.981 -2.694,0 4.298,-6.106 -4.645,-6.608 2.61,0 z m -4.106,0 0,2.071 -10.775,0 0,5.974 9.709,0 0,2.059 -9.709,0 0,5.375 10.368,0 0,2.072 -12.691,0 0,-17.551 13.098,0 z"
             id="path246"
             style="fill:#110f0d;fill-opacity:1;fill-rule:nonzero;stroke:none" /></g><g
           transform="translate(393.5039,182.8711)"
           id="g248"><path
             d="m 0,0 0,6.656 c 0,0.91 0.119,1.748 0.359,2.514 0.16,0.504 0.426,0.897 0.801,1.18 0.375,0.284 0.798,0.424 1.269,0.424 0.526,0 1.053,-0.155 1.581,-0.466 l 0.742,1.999 C 4.002,12.77 3.264,13.002 2.538,13.002 2.035,13.002 1.575,12.857 1.154,12.57 0.736,12.283 0.279,11.688 -0.215,10.787 l 0,1.927 -1.939,0 L -2.154,0 0,0 z m -7.651,5.591 c 0,-0.95 -0.115,-1.668 -0.346,-2.155 C -8.301,2.806 -8.777,2.31 -9.424,1.945 -10.07,1.583 -10.807,1.4 -11.637,1.4 c -0.838,0 -1.473,0.192 -1.91,0.576 -0.436,0.382 -0.652,0.862 -0.652,1.436 0,0.375 0.099,0.717 0.299,1.023 0.199,0.309 0.484,0.542 0.851,0.701 0.367,0.16 0.992,0.303 1.878,0.43 1.564,0.225 2.737,0.496 3.52,0.815 l 0,-0.79 z M -7.039,0 l 2.25,0 c -0.272,0.486 -0.455,0.995 -0.545,1.527 -0.091,0.53 -0.139,1.797 -0.139,3.8 l 0,2.874 c 0,0.957 -0.034,1.62 -0.106,1.987 -0.128,0.591 -0.351,1.079 -0.671,1.467 -0.318,0.386 -0.818,0.708 -1.497,0.963 -0.679,0.256 -1.56,0.384 -2.645,0.384 -1.093,0 -2.056,-0.149 -2.886,-0.45 -0.83,-0.298 -1.463,-0.726 -1.903,-1.28 -0.438,-0.555 -0.755,-1.284 -0.946,-2.185 l 2.106,-0.288 c 0.232,0.902 0.588,1.531 1.073,1.886 0.484,0.356 1.231,0.533 2.245,0.533 1.086,0 1.902,-0.243 2.453,-0.731 0.407,-0.359 0.611,-0.977 0.611,-1.855 0,-0.08 -0.005,-0.268 -0.012,-0.563 -0.823,-0.288 -2.102,-0.535 -3.842,-0.742 -0.855,-0.104 -1.492,-0.212 -1.915,-0.323 -0.575,-0.16 -1.092,-0.396 -1.551,-0.707 -0.461,-0.311 -0.83,-0.724 -1.113,-1.239 -0.284,-0.514 -0.426,-1.083 -0.426,-1.706 0,-1.061 0.376,-1.934 1.126,-2.616 0.751,-0.683 1.822,-1.023 3.22,-1.023 0.845,0 1.638,0.14 2.378,0.419 0.737,0.279 1.505,0.758 2.303,1.436 C -7.406,0.97 -7.264,0.447 -7.039,0 m -12.068,17.551 -2.154,0 0,-17.551 2.154,0 0,17.551 z M -24.59,0 l 0,12.714 -2.155,0 0,-6.812 c 0,-1.086 -0.12,-1.914 -0.355,-2.483 -0.234,-0.572 -0.634,-1.023 -1.202,-1.355 -0.566,-0.33 -1.173,-0.496 -1.819,-0.496 -0.647,0 -1.19,0.161 -1.629,0.486 -0.438,0.322 -0.727,0.767 -0.861,1.334 -0.088,0.391 -0.134,1.149 -0.134,2.274 l 0,7.052 -2.154,0 0,-7.877 c 0,-0.918 0.045,-1.589 0.132,-2.012 0.128,-0.63 0.349,-1.162 0.665,-1.598 0.314,-0.434 0.796,-0.796 1.448,-1.083 0.652,-0.288 1.351,-0.431 2.101,-0.431 1.7,0 3.044,0.718 4.033,2.154 l 0,-1.867 1.93,0 z m -13.6,17.551 -2.155,0 0,-17.551 2.155,0 0,17.551 z m -5.449,0 -2.155,0 0,-17.551 2.155,0 0,17.551 z m -12.994,-7.315 c 0.674,0.662 1.506,0.993 2.496,0.993 1.093,0 1.982,-0.415 2.668,-1.245 0.447,-0.534 0.719,-1.337 0.814,-2.406 l -7.098,0 c 0.072,1.11 0.444,1.995 1.12,2.658 m 4.627,-8.129 c -0.559,-0.416 -1.235,-0.623 -2.025,-0.623 -1.061,0 -1.947,0.371 -2.657,1.114 -0.711,0.742 -1.104,1.812 -1.185,3.209 l 9.482,0 c 0.008,0.255 0.011,0.447 0.011,0.574 0,2.099 -0.537,3.727 -1.615,4.885 -1.077,1.157 -2.466,1.736 -4.166,1.736 -1.756,0 -3.185,-0.591 -4.286,-1.773 -1.101,-1.18 -1.652,-2.84 -1.652,-4.98 0,-2.067 0.545,-3.674 1.633,-4.817 1.091,-1.147 2.565,-1.719 4.424,-1.719 1.477,0 2.69,0.359 3.64,1.077 0.95,0.719 1.599,1.728 1.95,3.029 l -2.227,0.276 c -0.327,-0.91 -0.768,-1.574 -1.327,-1.988 m -12.416,0.156 c -0.567,-0.519 -1.272,-0.779 -2.118,-0.779 -1.054,0 -1.908,0.387 -2.562,1.162 -0.655,0.774 -0.982,2.015 -0.982,3.723 0,1.684 0.338,2.916 1.017,3.693 0.678,0.78 1.561,1.167 2.647,1.167 0.718,0 1.33,-0.215 1.838,-0.646 0.505,-0.431 0.859,-1.073 1.059,-1.927 l 2.093,0.323 c -0.247,1.285 -0.808,2.277 -1.686,2.974 -0.878,0.7 -2.009,1.049 -3.389,1.049 -1.094,0 -2.105,-0.259 -3.034,-0.772 -0.931,-0.516 -1.622,-1.288 -2.077,-2.317 -0.455,-1.03 -0.684,-2.231 -0.684,-3.604 0,-2.122 0.529,-3.752 1.588,-4.891 1.057,-1.136 2.456,-1.705 4.196,-1.705 1.389,0 2.559,0.412 3.514,1.239 0.953,0.825 1.546,1.969 1.777,3.43 l -2.12,0.275 c -0.152,-1.077 -0.51,-1.876 -1.077,-2.394 m -12.737,3.328 c 0,-0.95 -0.116,-1.668 -0.347,-2.155 C -77.81,2.806 -78.285,2.31 -78.931,1.945 -79.578,1.583 -80.316,1.4 -81.146,1.4 c -0.838,0 -1.475,0.192 -1.91,0.576 -0.434,0.382 -0.652,0.862 -0.652,1.436 0,0.375 0.1,0.717 0.299,1.023 0.2,0.309 0.483,0.542 0.85,0.701 0.368,0.16 0.994,0.303 1.88,0.43 1.564,0.225 2.738,0.496 3.52,0.815 l 0,-0.79 z m 0.61,-5.591 2.251,0 c -0.271,0.486 -0.455,0.995 -0.545,1.527 -0.091,0.53 -0.138,1.797 -0.138,3.8 l 0,2.874 c 0,0.957 -0.035,1.62 -0.107,1.987 -0.128,0.591 -0.351,1.079 -0.671,1.467 -0.319,0.386 -0.819,0.708 -1.496,0.963 -0.679,0.256 -1.56,0.384 -2.646,0.384 -1.093,0 -2.055,-0.149 -2.885,-0.45 -0.83,-0.298 -1.464,-0.726 -1.903,-1.28 -0.439,-0.555 -0.755,-1.284 -0.946,-2.185 l 2.107,-0.288 c 0.231,0.902 0.589,1.531 1.071,1.886 0.483,0.356 1.231,0.533 2.245,0.533 1.086,0 1.903,-0.243 2.454,-0.731 0.407,-0.359 0.611,-0.977 0.611,-1.855 0,-0.08 -0.004,-0.268 -0.012,-0.563 -0.822,-0.288 -2.103,-0.535 -3.843,-0.742 -0.854,-0.104 -1.493,-0.212 -1.916,-0.323 -0.574,-0.16 -1.091,-0.396 -1.55,-0.707 -0.459,-0.311 -0.83,-0.724 -1.114,-1.239 -0.283,-0.514 -0.424,-1.083 -0.424,-1.706 0,-1.061 0.375,-1.934 1.125,-2.616 0.75,-0.683 1.823,-1.023 3.22,-1.023 0.847,0 1.639,0.14 2.377,0.419 0.738,0.279 1.506,0.758 2.305,1.436 0.063,-0.598 0.207,-1.121 0.43,-1.568 m -14.761,0 0,6.656 c 0,0.91 0.12,1.748 0.359,2.514 0.159,0.504 0.427,0.897 0.802,1.18 0.376,0.284 0.798,0.424 1.269,0.424 0.527,0 1.054,-0.155 1.581,-0.466 l 0.742,1.999 c -0.751,0.463 -1.489,0.695 -2.215,0.695 -0.503,0 -0.964,-0.145 -1.383,-0.432 -0.419,-0.287 -0.876,-0.882 -1.37,-1.783 l 0,1.927 -1.94,0 0,-12.714 2.155,0 z m -5.184,1.844 c -0.319,0 -0.565,0.052 -0.736,0.155 -0.172,0.105 -0.295,0.243 -0.372,0.419 -0.075,0.176 -0.113,0.571 -0.113,1.186 l 0,7.434 2.167,0 0,1.676 -2.167,0 0,4.442 -2.143,-1.293 0,-3.149 -1.58,0 0,-1.676 1.58,0 0,-7.315 c 0,-1.293 0.087,-2.14 0.263,-2.544 0.176,-0.402 0.479,-0.728 0.91,-0.976 0.431,-0.247 1.038,-0.371 1.82,-0.371 0.479,0 1.022,0.064 1.628,0.191 l -0.311,1.905 C -95.939,1.871 -96.254,1.844 -96.494,1.844 M -111.734,0 l 0,6.943 c 0,1.629 0.333,2.735 1,3.317 0.666,0.583 1.458,0.874 2.376,0.874 0.574,0 1.075,-0.13 1.503,-0.389 0.426,-0.261 0.724,-0.606 0.891,-1.042 0.168,-0.433 0.252,-1.092 0.252,-1.969 l 0,-7.734 2.154,0 0,7.817 c 0,0.998 -0.039,1.697 -0.119,2.096 -0.128,0.614 -0.351,1.146 -0.671,1.592 -0.319,0.447 -0.799,0.808 -1.442,1.084 -0.643,0.274 -1.347,0.413 -2.113,0.413 -1.764,0 -3.113,-0.699 -4.047,-2.096 l 0,1.808 -1.939,0 0,-12.714 2.155,0 z m -5.974,17.551 -2.323,0 0,-17.551 2.323,0 0,17.551 z"
             id="path250"
             style="fill:#110f0d;fill-opacity:1;fill-rule:nonzero;stroke:none" /></g><g
           transform="translate(589.498,350.1348)"
           id="g252"><path
             d="m 0,0 0,6.597 c 0,1.157 0.114,2.043 0.346,2.657 0.231,0.615 0.603,1.082 1.12,1.4 0.513,0.321 1.075,0.48 1.68,0.48 0.799,0 1.374,-0.239 1.725,-0.718 C 5.223,9.937 5.398,9.219 5.398,8.261 l 0,-8.261 2.155,0 0,7.387 c 0,1.308 0.295,2.261 0.885,2.855 0.591,0.595 1.333,0.892 2.228,0.892 0.494,0 0.926,-0.116 1.293,-0.347 0.367,-0.232 0.619,-0.538 0.76,-0.916 0.138,-0.38 0.211,-1 0.211,-1.862 l 0,-8.009 2.141,0 0,8.728 c 0,1.452 -0.341,2.527 -1.016,3.227 -0.678,0.696 -1.65,1.047 -2.91,1.047 -1.613,0 -2.922,-0.743 -3.928,-2.228 -0.246,0.703 -0.672,1.249 -1.274,1.641 -0.603,0.391 -1.375,0.587 -2.317,0.587 -0.847,0 -1.599,-0.191 -2.261,-0.568 C 0.699,12.053 0.17,11.553 -0.229,10.93 l 0,1.784 -1.926,0 L -2.155,0 0,0 z m -8.896,2.813 c -0.903,-0.75 -2.004,-1.125 -3.305,-1.125 -1.07,0 -2.065,0.275 -2.98,0.826 -0.918,0.55 -1.596,1.383 -2.03,2.497 -0.435,1.113 -0.651,2.416 -0.651,3.908 0,1.157 0.183,2.281 0.55,3.371 0.365,1.089 1.003,1.956 1.908,2.603 0.907,0.646 2.035,0.97 3.384,0.97 1.173,0 2.147,-0.292 2.92,-0.875 0.772,-0.582 1.366,-1.511 1.773,-2.789 l 2.285,0.539 c -0.471,1.62 -1.304,2.877 -2.501,3.772 -1.197,0.893 -2.676,1.34 -4.43,1.34 -1.55,0 -2.968,-0.352 -4.256,-1.059 -1.291,-0.706 -2.283,-1.74 -2.982,-3.101 -0.697,-1.36 -1.046,-2.956 -1.046,-4.783 0,-1.677 0.309,-3.245 0.926,-4.705 0.62,-1.461 1.522,-2.575 2.706,-3.346 1.186,-0.77 2.725,-1.156 4.615,-1.156 1.828,0 3.373,0.502 4.641,1.503 1.264,1.002 2.14,2.456 2.628,4.363 l -2.323,0.587 c -0.319,-1.476 -0.93,-2.59 -1.832,-3.34"
             id="path254"
             style="fill:#110f0d;fill-opacity:1;fill-rule:nonzero;stroke:none" /></g><path
           d="m 711,326.582 -90,0 0,54.002 90,0 0,-54.002 z"
           id="path256"
           style="fill:#ffffff;fill-opacity:1;fill-rule:nonzero;stroke:#100f0d;stroke-width:1;stroke-linecap:butt;stroke-linejoin:miter;stroke-miterlimit:10;stroke-opacity:1;stroke-dasharray:none" /><text
           transform="matrix(1,0,0,-1,630.9927,359.0996)"
           id="text258"><tspan
             x="0 12.996 21.996 32.004002 42.012001 57.006001 61.001999"
             y="0"
             id="tspan260"
             style="font-size:18px;font-variant:normal;font-weight:normal;font-stretch:normal;writing-mode:lr-tb;fill:#231f20;fill-opacity:1;fill-rule:nonzero;stroke:none;font-family:Arial;-inkscape-font-specification:ArialMT">Dynamic</tspan><tspan
             x="9 21.996 25.992001 36 50.993999"
             y="21.6"
             id="tspan262"
             style="font-size:18px;font-variant:normal;font-weight:normal;font-stretch:normal;writing-mode:lr-tb;fill:#231f20;fill-opacity:1;fill-rule:nonzero;stroke:none;font-family:Arial;-inkscape-font-specification:ArialMT">Clamp</tspan></text>
</g></g></g></svg>