<?xml version="1.0" encoding="UTF-8" standalone="no"?>
<!-- Created with Inkscape (http://www.inkscape.org/) -->

<svg
   xmlns:dc="http://purl.org/dc/elements/1.1/"
   xmlns:cc="http://creativecommons.org/ns#"
   xmlns:rdf="http://www.w3.org/1999/02/22-rdf-syntax-ns#"
   xmlns:svg="http://www.w3.org/2000/svg"
   xmlns="http://www.w3.org/2000/svg"
   version="1.1"
   width="425.95001"
   height="63.037498"
   id="svg2"
   xml:space="preserve"><metadata
     id="metadata8"><rdf:RDF><cc:Work
         rdf:about=""><dc:format>image/svg+xml</dc:format><dc:type
           rdf:resource="http://purl.org/dc/dcmitype/StillImage" /><dc:title></dc:title></cc:Work></rdf:RDF></metadata><defs
     id="defs6" /><g
     transform="matrix(1.25,0,0,-1.25,0,63.0375)"
     id="g10"><g
       transform="scale(0.1,0.1)"
       id="g12"><path
         d="m 699.336,252.344 -139.426,251.914 -513.4998,0 C 20.7813,504.258 0,483.438 0,457.813 L 0,46.4258 C 0,20.793 20.7813,0.0117188 46.4102,0.0117188 l 513.0388,0 L 699.336,252.344 z m -438.395,-113.496 -41.671,0 -102.614,165.761 -0.926,0 0,-165.761 -37.5894,0 0,225.429 41.6954,0 102.914,-166.062 0.617,0 0,166.062 37.574,0 0,-225.429 z m 78.344,0 -39.472,0 0,225.429 39.472,0 0,-225.429 z m 220.996,225.429 0,-225.429 -39.461,0 0,101.672 -102.593,0 0,-101.672 -39.473,0 0,225.429 39.473,0 0,-89.668 102.593,0 0,89.668 39.461,0"
         id="path14"
         style="fill:#5c5e65;fill-opacity:1;fill-rule:nonzero;stroke:none" /><path
         d="m 594.43,0 139.742,252.344 -139.285,251.914 34.863,0 c 19.094,0 42.301,-13.699 51.5,-30.391 L 803.734,252.344 680.836,30.3438 C 671.602,13.6602 648.414,0 629.324,0 L 594.43,0"
         id="path16"
         style="fill:#5c5e65;fill-opacity:1;fill-rule:nonzero;stroke:none" /><path
         d="m 594.438,0 139.742,252.344 -139.301,251.914 34.883,0 c 19.07,0 42.293,-13.699 51.5,-30.391 L 803.727,252.344 680.844,30.3438 C 671.602,13.6602 648.402,0 629.332,0 l -34.894,0"
         id="path18"
         style="fill:#6ca3b9;fill-opacity:1;fill-rule:nonzero;stroke:none" /><path
         d="m 880.074,386.074 72.84,0 -3.078,-15.129 -55.613,0 -5.461,-26.187 51.547,0 -2.942,-14.289 -51.687,0 -6.028,-29.278 56.032,0 -3.082,-15.125 -73.254,0 20.726,100.008"
         id="path20"
         style="fill:#5c5e65;fill-opacity:1;fill-rule:nonzero;stroke:none" /><path
         d="m 1006.58,286.066 -14.994,0 2.242,10.504 -0.277,0.278 c -5.742,-7.981 -14.992,-12.746 -24.938,-12.746 -14.566,0 -21.148,7.57 -21.148,19.187 0,2.668 0.137,6.449 0.699,8.969 l 9.668,46.23 15.969,0 -9.246,-44.687 c -0.563,-2.387 -1.121,-4.77 -1.121,-6.723 0,-2.383 -0.7,-10.367 11.062,-10.367 12.328,0 20.734,11.766 22.977,22.547 l 8.127,39.23 15.96,0 -14.98,-72.422"
         id="path22"
         style="fill:#5c5e65;fill-opacity:1;fill-rule:nonzero;stroke:none" /><path
         d="m 1036.42,358.488 14.99,0 -2.24,-10.508 0.28,-0.285 c 5.74,7.989 14.99,12.754 24.93,12.754 14.57,0 21.15,-7.566 21.15,-19.199 0,-2.656 -0.13,-6.434 -0.7,-8.965 l -9.66,-46.219 -15.97,0 9.25,44.688 c 0.55,2.371 1.12,4.754 1.12,6.719 0,2.382 0.56,10.371 -11.07,10.371 -6.3,0 -11.21,-3.086 -15.13,-7.016 -3.64,-3.777 -6.58,-9.656 -7.84,-15.547 l -8.13,-39.215 -15.96,0 14.98,72.422"
         id="path24"
         style="fill:#5c5e65;fill-opacity:1;fill-rule:nonzero;stroke:none" /><path
         d="m 1120.21,386.074 15.82,0 -3.08,-15.129 -15.83,0 3.09,15.129 z m -5.75,-27.586 15.97,0 -14.99,-72.422 -15.97,0 14.99,72.422"
         id="path26"
         style="fill:#5c5e65;fill-opacity:1;fill-rule:nonzero;stroke:none" /><path
         d="m 1188.14,334.531 c 0.28,8.965 -5.6,13.313 -14.28,13.313 -15.97,0 -23.82,-18.352 -23.82,-32.219 0,-10.789 4.2,-18.914 16.11,-18.914 9.39,0 15.55,5.605 18.21,14.285 l 15.97,0 c -5.18,-18.484 -17.93,-26.894 -36.84,-26.894 -18.91,0 -29.42,12.609 -29.42,30.957 0,24.375 15.41,45.39 41.18,45.39 16.11,0 29.42,-8.965 28.86,-25.918 l -15.97,0"
         id="path28"
         style="fill:#5c5e65;fill-opacity:1;fill-rule:nonzero;stroke:none" /><path
         d="m 1264.07,328.652 c 0.14,1.68 0.14,3.078 0.14,4.473 0,8.547 -5.74,14.719 -15.26,14.719 -11.91,0 -18.77,-7.989 -22,-19.192 l 37.12,0 z m 11.63,-20.175 c -5.04,-16.805 -17.65,-24.375 -34.88,-24.375 -18.35,0 -31.65,12.05 -31.65,31.66 0,22.273 14.28,44.687 40.2,44.687 25.77,0 30.81,-19.199 30.81,-33.34 0,-3.504 -0.42,-6.582 -0.84,-8.964 l -53.92,0 c -0.29,-1.68 -0.29,-3.223 -0.29,-4.629 0,-9.942 5.19,-16.805 17.23,-16.805 8.55,0 15.13,4.195 17.37,11.766 l 15.97,0"
         id="path30"
         style="fill:#5c5e65;fill-opacity:1;fill-rule:nonzero;stroke:none" /><path
         d="m 1340.43,386.074 17.51,0 -9.38,-45.379 0.28,-0.285 50.99,45.664 23.39,0 -48.04,-41.316 31.37,-58.692 -19.89,0 -25.07,47.762 -17.65,-15.129 -6.72,-32.633 -17.51,0 20.72,100.008"
         id="path32"
         style="fill:#5c5e65;fill-opacity:1;fill-rule:nonzero;stroke:none" /><path
         d="m 1469.46,328.652 c 0.14,1.68 0.14,3.078 0.14,4.473 0,8.547 -5.74,14.719 -15.27,14.719 -11.9,0 -18.77,-7.989 -21.99,-19.192 l 37.12,0 z m 11.62,-20.175 c -5.04,-16.805 -17.64,-24.375 -34.87,-24.375 -18.35,0 -31.66,12.05 -31.66,31.66 0,22.273 14.29,44.687 40.2,44.687 25.78,0 30.82,-19.199 30.82,-33.34 0,-3.504 -0.42,-6.582 -0.84,-8.964 l -53.93,0 c -0.28,-1.68 -0.28,-3.223 -0.28,-4.629 0,-9.942 5.18,-16.805 17.23,-16.805 8.54,0 15.13,4.195 17.37,11.766 l 15.96,0"
         id="path34"
         style="fill:#5c5e65;fill-opacity:1;fill-rule:nonzero;stroke:none" /><path
         d="m 1501.83,358.488 14.99,0 -2.24,-10.508 0.27,-0.285 c 5.75,7.989 14.99,12.754 24.94,12.754 14.57,0 21.15,-7.566 21.15,-19.199 0,-2.656 -0.14,-6.434 -0.7,-8.965 l -9.66,-46.219 -15.98,0 9.25,44.688 c 0.56,2.371 1.12,4.754 1.12,6.719 0,2.382 0.56,10.371 -11.06,10.371 -6.31,0 -11.21,-3.086 -15.13,-7.016 -3.64,-3.777 -6.59,-9.656 -7.85,-15.547 l -8.12,-39.215 -15.97,0 14.99,72.422"
         id="path36"
         style="fill:#5c5e65;fill-opacity:1;fill-rule:nonzero;stroke:none" /><path
         d="m 1579.86,358.488 14.99,0 -2.24,-10.508 0.28,-0.285 c 5.74,7.989 14.99,12.754 24.93,12.754 14.57,0 21.15,-7.566 21.15,-19.199 0,-2.656 -0.14,-6.434 -0.7,-8.965 l -9.66,-46.219 -15.97,0 9.24,44.688 c 0.56,2.371 1.12,4.754 1.12,6.719 0,2.382 0.56,10.371 -11.06,10.371 -6.31,0 -11.21,-3.086 -15.13,-7.016 -3.64,-3.777 -6.59,-9.656 -7.85,-15.547 l -8.12,-39.215 -15.97,0 14.99,72.422"
         id="path38"
         style="fill:#5c5e65;fill-opacity:1;fill-rule:nonzero;stroke:none" /><path
         d="m 1700.9,328.652 c 0.14,1.68 0.14,3.078 0.14,4.473 0,8.547 -5.74,14.719 -15.27,14.719 -11.9,0 -18.77,-7.989 -21.99,-19.192 l 37.12,0 z m 11.62,-20.175 c -5.03,-16.805 -17.64,-24.375 -34.87,-24.375 -18.35,0 -31.66,12.05 -31.66,31.66 0,22.273 14.29,44.687 40.2,44.687 25.78,0 30.82,-19.199 30.82,-33.34 0,-3.504 -0.42,-6.582 -0.84,-8.964 l -53.93,0 c -0.28,-1.68 -0.28,-3.223 -0.28,-4.629 0,-9.942 5.18,-16.805 17.23,-16.805 8.54,0 15.13,4.195 17.37,11.766 l 15.96,0"
         id="path40"
         style="fill:#5c5e65;fill-opacity:1;fill-rule:nonzero;stroke:none" /><path
         d="m 1762.69,347.844 c -17.8,0 -25.36,-17.793 -25.36,-34.043 0,-10.781 5.61,-17.09 16.53,-17.09 16.38,0 24.79,19.187 24.79,33.758 0,9.519 -4.62,17.375 -15.96,17.375 z m 22.83,-61.778 -15.28,0 2.25,9.801 -0.28,0.285 c -6.3,-9.382 -14.15,-12.05 -22.69,-12.05 -8.27,0 -28.16,2.519 -28.16,29.699 0,23.387 14.43,46.648 39.36,46.648 9.67,0 18.08,-3.086 21.85,-11.914 l 0.29,0 7.98,37.539 15.97,0 -21.29,-100.008"
         id="path42"
         style="fill:#5c5e65;fill-opacity:1;fill-rule:nonzero;stroke:none" /><path
         d="m 1807.24,358.488 16.81,0 7.56,-52.953 0.28,0 27.32,52.953 17.09,0 -41.47,-74.66 c -7.55,-13.73 -13.02,-26.473 -30.95,-26.473 -3.23,0 -6.45,0.418 -9.67,1.114 l 2.95,13.308 c 1.95,-0.554 4.2,-1.125 6.16,-1.125 4.76,0 8.41,1.543 10.36,6.164 l 6.31,11.629 -12.75,70.043"
         id="path44"
         style="fill:#5c5e65;fill-opacity:1;fill-rule:nonzero;stroke:none" /><path
         d="m 1925.9,319.121 c -0.69,-15.547 8.41,-21.152 22.98,-21.152 9.52,0 22.26,4.347 22.26,15.969 0,11.343 -11.62,14.148 -23.94,17.507 -8.83,2.383 -27.33,6.868 -27.33,25.918 0,18.067 13.6,31.094 37.27,31.094 20.87,0 37.81,-8.398 36.97,-31.934 l -16.8,0 c -0.14,12.461 -6.87,17.649 -20.45,17.649 -4.76,0 -19.47,-1.399 -19.47,-14.707 0,-9.809 9.81,-12.188 20.86,-14.992 14.16,-3.645 30.4,-7.422 30.4,-28.426 0,-15.559 -11.34,-32.363 -41.6,-32.363 -23.52,0 -38.66,10.507 -37.96,35.437 l 16.81,0"
         id="path46"
         style="fill:#5c5e65;fill-opacity:1;fill-rule:nonzero;stroke:none" /><path
         d="m 2014.73,386.074 15.96,0 -7.85,-37.812 0.29,0 c 5.46,7.285 14.71,12.187 23.81,12.187 14.57,0 21.16,-7.566 21.16,-19.199 0,-2.656 -0.14,-6.434 -0.71,-8.965 l -9.67,-46.219 -15.96,0 9.25,44.688 c 0.55,2.371 1.11,4.754 1.11,6.719 0,2.382 0.57,10.371 -11.06,10.371 -6.3,0 -11.21,-3.086 -15.13,-7.016 -3.64,-3.777 -6.58,-9.656 -7.84,-15.547 l -8.13,-39.215 -15.97,0 20.74,100.008"
         id="path48"
         style="fill:#5c5e65;fill-opacity:1;fill-rule:nonzero;stroke:none" /><path
         d="m 2087.01,358.488 15.13,0 -2.94,-14.152 0.28,-0.281 c 4.34,7.988 13.3,16.394 23.11,16.394 2.52,0 5.18,0 7.71,-0.429 l -3.37,-15.262 c -1.82,0.281 -3.78,0.555 -5.59,0.555 -16.54,0 -23.54,-12.61 -26.62,-27.168 l -6.72,-32.079 -15.98,0 14.99,72.422"
         id="path50"
         style="fill:#5c5e65;fill-opacity:1;fill-rule:nonzero;stroke:none" /><path
         d="m 2142.21,386.074 15.83,0 -3.09,-15.129 -15.82,0 3.08,15.129 z m -5.75,-27.586 15.97,0 -14.98,-72.422 -15.98,0 14.99,72.422"
         id="path52"
         style="fill:#5c5e65;fill-opacity:1;fill-rule:nonzero;stroke:none" /><path
         d="m 2159.17,358.488 16.52,0 6.03,-52.812 0.28,0 28.01,52.812 16.82,0 -40.06,-72.422 -17.8,0 -9.8,72.422"
         id="path54"
         style="fill:#5c5e65;fill-opacity:1;fill-rule:nonzero;stroke:none" /><path
         d="m 2278.38,328.652 c 0.15,1.68 0.15,3.078 0.15,4.473 0,8.547 -5.75,14.719 -15.28,14.719 -11.9,0 -18.77,-7.989 -21.99,-19.192 l 37.12,0 z m 11.63,-20.175 c -5.04,-16.805 -17.66,-24.375 -34.88,-24.375 -18.35,0 -31.66,12.05 -31.66,31.66 0,22.273 14.29,44.687 40.2,44.687 25.77,0 30.81,-19.199 30.81,-33.34 0,-3.504 -0.41,-6.582 -0.84,-8.964 l -53.92,0 c -0.28,-1.68 -0.28,-3.223 -0.28,-4.629 0,-9.942 5.18,-16.805 17.23,-16.805 8.54,0 15.13,4.195 17.36,11.766 l 15.98,0"
         id="path56"
         style="fill:#5c5e65;fill-opacity:1;fill-rule:nonzero;stroke:none" /><path
         d="m 2310.89,358.488 15.14,0 -2.95,-14.152 0.28,-0.281 c 4.35,7.988 13.31,16.394 23.11,16.394 2.52,0 5.18,0 7.7,-0.429 l -3.36,-15.262 c -1.82,0.281 -3.78,0.555 -5.6,0.555 -16.53,0 -23.54,-12.61 -26.62,-27.168 l -6.72,-32.079 -15.96,0 14.98,72.422"
         id="path58"
         style="fill:#5c5e65;fill-opacity:1;fill-rule:nonzero;stroke:none" /><path
         d="m 2387.78,379.758 17.33,0 42.77,-69.024 0.26,0 0,69.024 15.62,0 0,-93.692 -17.32,0 -42.65,68.895 -0.4,0 0,-68.895 -15.61,0 0,93.692"
         id="path60"
         style="fill:#5c5e65;fill-opacity:1;fill-rule:nonzero;stroke:none" /><path
         d="m 2520.65,320.051 c -4.59,-3.02 -11.8,-2.883 -18.36,-4.063 -6.44,-1.054 -12.2,-3.418 -12.2,-11.293 0,-6.687 8.52,-8.66 13.77,-8.66 6.56,0 16.79,3.418 16.79,12.863 l 0,11.153 z m 14.97,-18.899 c 0,-3.672 0.79,-5.117 3.54,-5.117 0.92,0 2.1,0 3.68,0.266 l 0,-10.363 c -2.23,-0.79 -6.96,-1.708 -9.45,-1.708 -6.04,0 -10.37,2.098 -11.54,8.258 -5.92,-5.769 -15.49,-8.258 -23.5,-8.258 -12.21,0 -23.22,6.559 -23.22,19.813 0,16.926 13.51,19.687 26.11,21.121 10.76,1.977 20.33,0.793 20.33,9.582 0,7.742 -8.01,9.192 -14.04,9.192 -8.4,0 -14.3,-3.411 -14.96,-10.762 l -14.95,0 c 1.04,17.449 15.87,22.566 30.83,22.566 13.26,0 27.17,-5.379 27.17,-19.676 l 0,-34.914"
         id="path62"
         style="fill:#5c5e65;fill-opacity:1;fill-rule:nonzero;stroke:none" /><path
         d="m 2542.67,353.906 11.29,0 0,20.34 14.96,0 0,-20.34 13.51,0 0,-11.152 -13.51,0 0,-36.223 c 0,-6.16 0.52,-9.312 7.2,-9.312 2.11,0 4.2,0 6.31,0.523 l 0,-11.551 c -3.28,-0.253 -6.43,-0.781 -9.72,-0.781 -15.61,0 -18.5,6.035 -18.75,17.324 l 0,40.02 -11.29,0 0,11.152"
         id="path64"
         style="fill:#5c5e65;fill-opacity:1;fill-rule:nonzero;stroke:none" /><path
         d="m 2591.2,353.906 14.96,0 0,-67.84 -14.96,0 0,67.84 z m 0,25.852 14.96,0 0,-14.172 -14.96,0 0,14.172"
         id="path66"
         style="fill:#5c5e65;fill-opacity:1;fill-rule:nonzero;stroke:none" /><path
         d="m 2670.58,320.051 c 0,11.679 -5.92,23.887 -19.3,23.887 -13.38,0 -19.3,-12.208 -19.3,-23.887 0,-11.809 5.92,-24.016 19.3,-24.016 13.38,0 19.3,12.207 19.3,24.016 z m -53.56,0 c 0,20.73 12.48,35.691 34.26,35.691 21.78,0 34.25,-14.961 34.25,-35.691 0,-20.86 -12.47,-35.821 -34.25,-35.821 -21.78,0 -34.26,14.961 -34.26,35.821"
         id="path68"
         style="fill:#5c5e65;fill-opacity:1;fill-rule:nonzero;stroke:none" /><path
         d="m 2695.71,353.906 14.18,0 0,-9.968 0.27,-0.266 c 4.46,7.48 12.19,12.07 21.12,12.07 14.71,0 24.02,-7.871 24.02,-23.094 l 0,-46.582 -14.96,0 0,42.645 c -0.27,10.637 -4.47,15.227 -13.26,15.227 -9.97,0 -16.41,-7.872 -16.41,-17.852 l 0,-40.02 -14.96,0 0,67.84"
         id="path70"
         style="fill:#5c5e65;fill-opacity:1;fill-rule:nonzero;stroke:none" /><path
         d="m 2810.63,320.051 c -4.59,-3.02 -11.81,-2.883 -18.37,-4.063 -6.43,-1.054 -12.2,-3.418 -12.2,-11.293 0,-6.687 8.52,-8.66 13.78,-8.66 6.56,0 16.79,3.418 16.79,12.863 l 0,11.153 z m 14.97,-18.899 c 0,-3.672 0.78,-5.117 3.53,-5.117 0.92,0 2.11,0 3.67,0.266 l 0,-10.363 c -2.22,-0.79 -6.95,-1.708 -9.43,-1.708 -6.05,0 -10.37,2.098 -11.56,8.258 -5.9,-5.769 -15.48,-8.258 -23.48,-8.258 -12.21,0 -23.23,6.559 -23.23,19.813 0,16.926 13.51,19.687 26.11,21.121 10.76,1.977 20.34,0.793 20.34,9.582 0,7.742 -8.01,9.192 -14.04,9.192 -8.4,0 -14.3,-3.411 -14.96,-10.762 l -14.96,0 c 1.05,17.449 15.88,22.566 30.84,22.566 13.26,0 27.17,-5.379 27.17,-19.676 l 0,-34.914"
         id="path72"
         style="fill:#5c5e65;fill-opacity:1;fill-rule:nonzero;stroke:none" /><path
         d="m 2839.74,286.066 14.9414,0 0,93.6914 -14.9414,0 0,-93.6914 z"
         id="path74"
         style="fill:#5c5e65;fill-opacity:1;fill-rule:nonzero;stroke:none" /><path
         d="m 2904.91,286.066 16.4102,0 0,93.6914 -16.4102,0 0,-93.6914 z"
         id="path76"
         style="fill:#5c5e65;fill-opacity:1;fill-rule:nonzero;stroke:none" /><path
         d="m 2936.9,353.906 14.18,0 0,-9.968 0.26,-0.266 c 4.47,7.48 12.2,12.07 21.13,12.07 14.71,0 24.02,-7.871 24.02,-23.094 l 0,-46.582 -14.96,0 0,42.645 c -0.27,10.637 -4.47,15.227 -13.26,15.227 -9.96,0 -16.4,-7.872 -16.4,-17.852 l 0,-40.02 -14.97,0 0,67.84"
         id="path78"
         style="fill:#5c5e65;fill-opacity:1;fill-rule:nonzero;stroke:none" /><path
         d="m 3021.26,307.852 c 0.78,-8.661 7.34,-11.817 15.35,-11.817 5.65,0 15.49,1.184 15.08,8.926 -0.39,7.871 -11.27,8.789 -22.17,11.289 -11.01,2.355 -21.78,6.301 -21.78,20.078 0,14.824 16,19.414 28.34,19.414 13.91,0 26.51,-5.769 28.34,-20.859 l -15.6,0 c -1.33,7.082 -7.23,9.055 -13.79,9.055 -4.34,0 -12.32,-1.055 -12.32,-6.954 0,-7.355 11.01,-8.398 22.03,-10.898 10.89,-2.492 21.91,-6.43 21.91,-19.816 0,-16.133 -16.27,-22.04 -30.31,-22.04 -17.05,0 -29.79,7.606 -30.04,23.622 l 14.96,0"
         id="path80"
         style="fill:#5c5e65;fill-opacity:1;fill-rule:nonzero;stroke:none" /><path
         d="m 3068.97,353.906 11.29,0 0,20.34 14.96,0 0,-20.34 13.52,0 0,-11.152 -13.52,0 0,-36.223 c 0,-6.16 0.53,-9.312 7.21,-9.312 2.11,0 4.2,0 6.31,0.523 l 0,-11.551 c -3.28,-0.253 -6.43,-0.781 -9.71,-0.781 -15.62,0 -18.51,6.035 -18.77,17.324 l 0,40.02 -11.29,0 0,11.152"
         id="path82"
         style="fill:#5c5e65;fill-opacity:1;fill-rule:nonzero;stroke:none" /><path
         d="m 3117.51,353.906 14.96,0 0,-67.84 -14.96,0 0,67.84 z m 0,25.852 14.96,0 0,-14.172 -14.96,0 0,14.172"
         id="path84"
         style="fill:#5c5e65;fill-opacity:1;fill-rule:nonzero;stroke:none" /><path
         d="m 3139.54,353.906 11.29,0 0,20.34 14.96,0 0,-20.34 13.52,0 0,-11.152 -13.52,0 0,-36.223 c 0,-6.16 0.53,-9.312 7.21,-9.312 2.11,0 4.2,0 6.31,0.523 l 0,-11.551 c -3.28,-0.253 -6.43,-0.781 -9.71,-0.781 -15.63,0 -18.52,6.035 -18.77,17.324 l 0,40.02 -11.29,0 0,11.152"
         id="path86"
         style="fill:#5c5e65;fill-opacity:1;fill-rule:nonzero;stroke:none" /><path
         d="m 3247.39,286.066 -14.7,0 0,9.454 -0.26,0 c -3.67,-6.829 -11.81,-11.29 -19.3,-11.29 -17.71,0 -25.33,8.922 -25.33,26.637 l 0,43.039 14.96,0 0,-41.59 c 0,-11.945 4.87,-16.281 12.99,-16.281 12.48,0 16.68,8.008 16.68,18.504 l 0,39.367 14.96,0 0,-67.84"
         id="path88"
         style="fill:#5c5e65;fill-opacity:1;fill-rule:nonzero;stroke:none" /><path
         d="m 3254.03,353.906 11.29,0 0,20.34 14.96,0 0,-20.34 13.52,0 0,-11.152 -13.52,0 0,-36.223 c 0,-6.16 0.53,-9.312 7.21,-9.312 2.11,0 4.2,0 6.31,0.523 l 0,-11.551 c -3.28,-0.253 -6.43,-0.781 -9.71,-0.781 -15.62,0 -18.51,6.035 -18.77,17.324 l 0,40.02 -11.29,0 0,11.152"
         id="path90"
         style="fill:#5c5e65;fill-opacity:1;fill-rule:nonzero;stroke:none" /><path
         d="m 3348.9,325.957 c -0.53,9.445 -6.98,17.981 -17.07,17.981 -10.37,0 -17.45,-7.872 -17.86,-17.981 l 34.93,0 z m -34.93,-9.844 c 0,-10.625 5.79,-20.078 18.25,-20.078 8.67,0 13.9,3.809 16.54,11.289 l 14.16,0 c -3.28,-14.836 -15.88,-23.094 -30.7,-23.094 -21.25,0 -33.21,14.825 -33.21,35.692 0,19.289 12.6,35.82 32.82,35.82 21.38,0 34.51,-19.289 32.01,-39.629 l -49.87,0"
         id="path92"
         style="fill:#5c5e65;fill-opacity:1;fill-rule:nonzero;stroke:none" /><path
         d="m 921.395,144.844 c 0,12.472 -6.301,25.5 -20.59,25.5 -14.285,0 -20.59,-13.028 -20.59,-25.5 0,-12.606 6.305,-25.633 20.59,-25.633 14.289,0 20.59,13.027 20.59,25.633 z m -57.149,0 c 0,22.129 13.309,38.105 36.559,38.105 23.254,0 36.562,-15.976 36.562,-38.105 0,-22.274 -13.308,-38.242 -36.562,-38.242 -23.25,0 -36.559,15.968 -36.559,38.242"
         id="path94"
         style="fill:#5c5e65;fill-opacity:1;fill-rule:nonzero;stroke:none" /><path
         d="m 941.156,180.988 11.91,0 0,6.024 c 0,18.484 9.664,21.562 20.032,21.562 5.043,0 8.683,-0.273 11.203,-0.976 l 0,-12.469 c -2.098,0.566 -4.203,0.848 -7.426,0.848 -4.34,0 -7.844,-1.543 -7.844,-7.571 l 0,-7.418 13.59,0 0,-11.906 -13.59,0 0,-60.516 -15.965,0 0,60.516 -11.91,0 0,11.906"
         id="path96"
         style="fill:#5c5e65;fill-opacity:1;fill-rule:nonzero;stroke:none" /><path
         d="m 1096.38,176.777 c -2.95,11.496 -10.37,19.895 -24.94,19.895 -21.43,0 -30.4,-18.906 -30.4,-38.098 0,-19.187 8.97,-38.105 30.4,-38.105 15.55,0 24.1,11.633 25.49,26.191 l 17.09,0 c -1.4,-23.945 -18.35,-40.476 -42.58,-40.476 -29.98,0 -47.9,23.816 -47.9,52.39 0,28.574 17.92,52.383 47.9,52.383 22.55,-0.137 40.34,-12.605 42.45,-34.18 l -17.51,0"
         id="path98"
         style="fill:#5c5e65;fill-opacity:1;fill-rule:nonzero;stroke:none" /><path
         d="m 1125.38,208.574 15.97,0 0,-37.121 0.28,0 c 3.92,6.594 12.19,11.496 21.71,11.496 15.69,0 25.63,-8.406 25.63,-24.656 l 0,-49.727 -15.96,0 0,45.528 c -0.28,11.347 -4.76,16.25 -14.15,16.25 -10.65,0 -17.51,-8.41 -17.51,-19.055 l 0,-42.723 -15.97,0 0,100.008"
         id="path100"
         style="fill:#5c5e65;fill-opacity:1;fill-rule:nonzero;stroke:none" /><path
         d="m 1203.84,180.988 15.97,0 0,-72.422 -15.97,0 0,72.422 z m 0,27.586 15.97,0 0,-15.129 -15.97,0 0,15.129"
         id="path102"
         style="fill:#5c5e65;fill-opacity:1;fill-rule:nonzero;stroke:none" /><path
         d="m 1235.08,108.566 15.9688,0 0,100.008 -15.9688,0 0,-100.008 z"
         id="path104"
         style="fill:#5c5e65;fill-opacity:1;fill-rule:nonzero;stroke:none" /><path
         d="m 1298.54,119.211 c 14.29,0 20.31,13.027 20.31,25.633 0,15.969 -7.7,25.5 -20.03,25.5 -14.99,0 -20.31,-13.313 -20.31,-26.34 0,-12.473 6.16,-24.793 20.03,-24.793 z m 35.72,-10.645 -15.13,0 0,9.801 -0.28,0 c -4.2,-8.258 -13.31,-11.765 -22.41,-11.765 -22.84,0 -33.9,16.953 -33.9,38.664 0,26.187 15.55,37.683 31.38,37.683 9.1,0 19.19,-3.371 24.09,-11.347 l 0.28,0 0,36.972 15.97,0 0,-100.008"
         id="path106"
         style="fill:#5c5e65;fill-opacity:1;fill-rule:nonzero;stroke:none" /><path
         d="m 1387.36,208.574 17.51,0 0,-39.773 45.53,0 0,39.773 17.51,0 0,-100.008 -17.51,0 0,45.106 -45.53,0 0,-45.106 -17.51,0 0,100.008"
         id="path108"
         style="fill:#5c5e65;fill-opacity:1;fill-rule:nonzero;stroke:none" /><path
         d="m 1534.04,151.152 c -0.56,10.078 -7.42,19.192 -18.21,19.192 -11.06,0 -18.63,-8.41 -19.05,-19.192 l 37.26,0 z m -37.26,-10.507 c 0,-11.348 6.16,-21.434 19.47,-21.434 9.24,0 14.85,4.062 17.65,12.051 l 15.13,0 c -3.5,-15.832 -16.95,-24.66 -32.78,-24.66 -22.69,0 -35.44,15.832 -35.44,38.105 0,20.586 13.45,38.242 35.02,38.242 22.83,0 36.84,-20.594 34.18,-42.304 l -53.23,0"
         id="path110"
         style="fill:#5c5e65;fill-opacity:1;fill-rule:nonzero;stroke:none" /><path
         d="m 1604.37,144.844 c -4.91,-3.223 -12.61,-3.086 -19.61,-4.348 -6.86,-1.109 -13.03,-3.641 -13.03,-12.039 0,-7.148 9.1,-9.246 14.71,-9.246 7,0 17.93,3.641 17.93,13.73 l 0,11.903 z m 15.97,-20.164 c 0,-3.926 0.84,-5.469 3.78,-5.469 0.98,0 2.24,0 3.92,0.281 l 0,-11.062 c -2.38,-0.84 -7.42,-1.828 -10.09,-1.828 -6.44,0 -11.06,2.246 -12.32,8.828 -6.3,-6.16 -16.53,-8.828 -25.07,-8.828 -13.03,0 -24.8,7.003 -24.8,21.152 0,18.066 14.43,21.016 27.88,22.551 11.48,2.105 21.71,0.847 21.71,10.23 0,8.266 -8.55,9.809 -14.99,9.809 -8.96,0 -15.27,-3.645 -15.97,-11.496 l -15.97,0 c 1.13,18.632 16.95,24.101 32.92,24.101 14.15,0 29,-5.754 29,-21.015 l 0,-37.254"
         id="path112"
         style="fill:#5c5e65;fill-opacity:1;fill-rule:nonzero;stroke:none" /><path
         d="m 1635.62,108.566 15.9688,0 0,100.008 -15.9688,0 0,-100.008 z"
         id="path114"
         style="fill:#5c5e65;fill-opacity:1;fill-rule:nonzero;stroke:none" /><path
         d="m 1659.15,180.988 12.05,0 0,21.707 15.97,0 0,-21.707 14.43,0 0,-11.906 -14.43,0 0,-38.66 c 0,-6.594 0.56,-9.953 7.7,-9.953 2.24,0 4.49,0 6.73,0.566 l 0,-12.336 c -3.5,-0.269 -6.87,-0.836 -10.37,-0.836 -16.67,0 -19.75,6.446 -20.03,18.496 l 0,42.723 -12.05,0 0,11.906"
         id="path116"
         style="fill:#5c5e65;fill-opacity:1;fill-rule:nonzero;stroke:none" /><path
         d="m 1710.57,208.574 15.96,0 0,-37.121 0.29,0 c 3.91,6.594 12.18,11.496 21.71,11.496 15.69,0 25.63,-8.406 25.63,-24.656 l 0,-49.727 -15.97,0 0,45.528 c -0.27,11.347 -4.76,16.25 -14.14,16.25 -10.65,0 -17.52,-8.41 -17.52,-19.055 l 0,-42.723 -15.96,0 0,100.008"
         id="path118"
         style="fill:#5c5e65;fill-opacity:1;fill-rule:nonzero;stroke:none" /><path
         d="m 1869.72,144.844 c -4.92,-3.223 -12.62,-3.086 -19.62,-4.348 -6.87,-1.109 -13.03,-3.641 -13.03,-12.039 0,-7.148 9.11,-9.246 14.72,-9.246 6.99,0 17.93,3.641 17.93,13.73 l 0,11.903 z m 15.95,-20.164 c 0,-3.926 0.84,-5.469 3.79,-5.469 0.98,0 2.24,0 3.93,0.281 l 0,-11.062 c -2.38,-0.84 -7.43,-1.828 -10.1,-1.828 -6.43,0 -11.05,2.246 -12.32,8.828 -6.3,-6.16 -16.53,-8.828 -25.07,-8.828 -13.03,0 -24.8,7.003 -24.8,21.152 0,18.066 14.44,21.016 27.87,22.551 11.49,2.105 21.72,0.847 21.72,10.23 0,8.266 -8.55,9.809 -14.99,9.809 -8.96,0 -15.26,-3.645 -15.96,-11.496 l -15.98,0 c 1.13,18.632 16.95,24.101 32.93,24.101 14.14,0 28.98,-5.754 28.98,-21.015 l 0,-37.254"
         id="path120"
         style="fill:#5c5e65;fill-opacity:1;fill-rule:nonzero;stroke:none" /><path
         d="m 1900.4,180.988 15.13,0 0,-10.644 0.28,-0.285 c 4.77,7.988 13.03,12.89 22.56,12.89 15.68,0 25.62,-8.406 25.62,-24.656 l 0,-49.727 -15.96,0 0,45.528 c -0.29,11.347 -4.76,16.25 -14.15,16.25 -10.65,0 -17.5,-8.41 -17.5,-19.055 l 0,-42.723 -15.98,0 0,72.422"
         id="path122"
         style="fill:#5c5e65;fill-opacity:1;fill-rule:nonzero;stroke:none" /><path
         d="m 2010.93,119.211 c 14.29,0 20.31,13.027 20.31,25.633 0,15.969 -7.7,25.5 -20.03,25.5 -14.99,0 -20.31,-13.313 -20.31,-26.34 0,-12.473 6.16,-24.793 20.03,-24.793 z m 35.72,-10.645 -15.13,0 0,9.801 -0.28,0 c -4.2,-8.258 -13.3,-11.765 -22.41,-11.765 -22.83,0 -33.9,16.953 -33.9,38.664 0,26.187 15.55,37.683 31.38,37.683 9.11,0 19.19,-3.371 24.09,-11.347 l 0.28,0 0,36.972 15.97,0 0,-100.008"
         id="path124"
         style="fill:#5c5e65;fill-opacity:1;fill-rule:nonzero;stroke:none" /><path
         d="m 2099.89,208.574 17.52,0 0,-39.773 45.53,0 0,39.773 17.5,0 0,-100.008 -17.5,0 0,45.106 -45.53,0 0,-45.106 -17.52,0 0,100.008"
         id="path126"
         style="fill:#5c5e65;fill-opacity:1;fill-rule:nonzero;stroke:none" /><path
         d="m 2260.44,108.566 -15.68,0 0,10.086 -0.29,0 c -3.91,-7.285 -12.6,-12.05 -20.59,-12.05 -18.91,0 -27.03,9.531 -27.03,28.437 l 0,45.949 15.97,0 0,-44.406 c 0,-12.754 5.18,-17.371 13.87,-17.371 13.3,0 17.78,8.543 17.78,19.754 l 0,42.023 15.97,0 0,-72.422"
         id="path128"
         style="fill:#5c5e65;fill-opacity:1;fill-rule:nonzero;stroke:none" /><path
         d="m 2274.87,180.988 15.14,0 0,-10.09 0.42,0 c 4.76,7.149 10.78,12.051 22.28,12.051 8.81,0 17.08,-3.789 20.31,-12.051 5.31,7.422 12.18,12.051 22.68,12.051 15.27,0 24.23,-6.726 24.23,-24.375 l 0,-50.008 -15.97,0 0,42.301 c 0,11.488 -0.69,19.477 -13.16,19.477 -10.79,0 -15.41,-7.149 -15.41,-19.336 l 0,-42.442 -15.97,0 0,46.504 c 0,9.95 -3.08,15.274 -12.75,15.274 -8.26,0 -15.82,-6.731 -15.82,-18.774 l 0,-43.004 -15.98,0 0,72.422"
         id="path130"
         style="fill:#5c5e65;fill-opacity:1;fill-rule:nonzero;stroke:none" /><path
         d="m 2439.07,144.844 c -4.91,-3.223 -12.61,-3.086 -19.62,-4.348 -6.86,-1.109 -13.02,-3.641 -13.02,-12.039 0,-7.148 9.11,-9.246 14.71,-9.246 6.99,0 17.93,3.641 17.93,13.73 l 0,11.903 z m 15.96,-20.164 c 0,-3.926 0.84,-5.469 3.79,-5.469 0.97,0 2.23,0 3.92,0.281 l 0,-11.062 c -2.38,-0.84 -7.43,-1.828 -10.09,-1.828 -6.44,0 -11.06,2.246 -12.33,8.828 -6.3,-6.16 -16.52,-8.828 -25.07,-8.828 -13.02,0 -24.79,7.003 -24.79,21.152 0,18.066 14.43,21.016 27.87,22.551 11.48,2.105 21.72,0.847 21.72,10.23 0,8.266 -8.56,9.809 -14.99,9.809 -8.97,0 -15.27,-3.645 -15.97,-11.496 l -15.97,0 c 1.13,18.632 16.95,24.101 32.92,24.101 14.15,0 28.99,-5.754 28.99,-21.015 l 0,-37.254"
         id="path132"
         style="fill:#5c5e65;fill-opacity:1;fill-rule:nonzero;stroke:none" /><path
         d="m 2469.89,180.988 15.13,0 0,-10.644 0.28,-0.285 c 4.77,7.988 13.03,12.89 22.56,12.89 15.68,0 25.63,-8.406 25.63,-24.656 l 0,-49.727 -15.97,0 0,45.528 c -0.28,11.347 -4.76,16.25 -14.15,16.25 -10.65,0 -17.5,-8.41 -17.5,-19.055 l 0,-42.723 -15.98,0 0,72.422"
         id="path134"
         style="fill:#5c5e65;fill-opacity:1;fill-rule:nonzero;stroke:none" /><path
         d="m 2604.1,122.852 17.24,0 c 27.45,0 33.33,15.695 33.33,35.722 0,20.031 -5.88,35.711 -33.33,35.711 l -17.24,0 0,-71.433 z m -17.51,85.722 41.47,0 c 30.82,0 44.12,-22.414 44.12,-50 0,-27.597 -13.3,-50.008 -44.12,-50.008 l -41.47,0 0,100.008"
         id="path136"
         style="fill:#5c5e65;fill-opacity:1;fill-rule:nonzero;stroke:none" /><path
         d="m 2732.85,151.152 c -0.56,10.078 -7.43,19.192 -18.21,19.192 -11.07,0 -18.63,-8.41 -19.05,-19.192 l 37.26,0 z m -37.26,-10.507 c 0,-11.348 6.16,-21.434 19.47,-21.434 9.25,0 14.84,4.062 17.65,12.051 l 15.12,0 c -3.49,-15.832 -16.94,-24.66 -32.77,-24.66 -22.7,0 -35.44,15.832 -35.44,38.105 0,20.586 13.45,38.242 35.02,38.242 22.83,0 36.83,-20.594 34.18,-42.304 l -53.23,0"
         id="path138"
         style="fill:#5c5e65;fill-opacity:1;fill-rule:nonzero;stroke:none" /><path
         d="m 2751.49,180.988 17.38,0 18.35,-55.617 0.27,0 17.66,55.617 16.52,0 -25.91,-72.422 -17.93,0 -26.34,72.422"
         id="path140"
         style="fill:#5c5e65;fill-opacity:1;fill-rule:nonzero;stroke:none" /><path
         d="m 2878.69,151.152 c -0.56,10.078 -7.43,19.192 -18.21,19.192 -11.07,0 -18.63,-8.41 -19.05,-19.192 l 37.26,0 z m -37.26,-10.507 c 0,-11.348 6.16,-21.434 19.47,-21.434 9.25,0 14.84,4.062 17.64,12.051 l 15.13,0 c -3.49,-15.832 -16.94,-24.66 -32.77,-24.66 -22.7,0 -35.44,15.832 -35.44,38.105 0,20.586 13.45,38.242 35.02,38.242 22.83,0 36.83,-20.594 34.18,-42.304 l -53.23,0"
         id="path142"
         style="fill:#5c5e65;fill-opacity:1;fill-rule:nonzero;stroke:none" /><path
         d="m 2904.9,108.566 15.9727,0 0,100.008 -15.9727,0 0,-100.008 z"
         id="path144"
         style="fill:#5c5e65;fill-opacity:1;fill-rule:nonzero;stroke:none" /><path
         d="m 2989.51,144.844 c 0,12.472 -6.31,25.5 -20.59,25.5 -14.29,0 -20.59,-13.028 -20.59,-25.5 0,-12.606 6.3,-25.633 20.59,-25.633 14.28,0 20.59,13.027 20.59,25.633 z m -57.16,0 c 0,22.129 13.31,38.105 36.57,38.105 23.25,0 36.56,-15.976 36.56,-38.105 0,-22.274 -13.31,-38.242 -36.56,-38.242 -23.26,0 -36.57,15.968 -36.57,38.242"
         id="path146"
         style="fill:#5c5e65;fill-opacity:1;fill-rule:nonzero;stroke:none" /><path
         d="m 3052.55,170.344 c -13.45,0 -20.31,-10.227 -20.31,-25.637 0,-14.57 7.43,-25.496 20.31,-25.496 14.57,0 20.03,12.891 20.03,25.496 0,13.164 -6.86,25.637 -20.03,25.637 z m -35.71,10.644 15.12,0 0,-9.804 0.28,0 c 4.48,8.261 13.17,11.765 22.41,11.765 22.84,0 33.9,-17.375 33.9,-38.523 0,-19.477 -9.8,-37.824 -31.24,-37.824 -9.24,0 -19.18,3.359 -24.22,11.347 l -0.29,0 0,-36.1404 -15.96,0 0,99.1794"
         id="path148"
         style="fill:#5c5e65;fill-opacity:1;fill-rule:nonzero;stroke:none" /><path
         d="m 3099.49,180.988 15.13,0 0,-10.09 0.42,0 c 4.75,7.149 10.78,12.051 22.26,12.051 8.83,0 17.09,-3.789 20.32,-12.051 5.32,7.422 12.18,12.051 22.69,12.051 15.27,0 24.23,-6.726 24.23,-24.375 l 0,-50.008 -15.97,0 0,42.301 c 0,11.488 -0.69,19.477 -13.16,19.477 -10.79,0 -15.41,-7.149 -15.41,-19.336 l 0,-42.442 -15.97,0 0,46.504 c 0,9.95 -3.08,15.274 -12.74,15.274 -8.27,0 -15.83,-6.731 -15.83,-18.774 l 0,-43.004 -15.97,0 0,72.422"
         id="path150"
         style="fill:#5c5e65;fill-opacity:1;fill-rule:nonzero;stroke:none" /><path
         d="m 3268.58,151.152 c -0.56,10.078 -7.43,19.192 -18.21,19.192 -11.06,0 -18.63,-8.41 -19.05,-19.192 l 37.26,0 z m -37.26,-10.507 c 0,-11.348 6.16,-21.434 19.47,-21.434 9.25,0 14.84,4.062 17.65,12.051 l 15.12,0 c -3.49,-15.832 -16.94,-24.66 -32.77,-24.66 -22.69,0 -35.44,15.832 -35.44,38.105 0,20.586 13.45,38.242 35.02,38.242 22.83,0 36.84,-20.594 34.18,-42.304 l -53.23,0"
         id="path152"
         style="fill:#5c5e65;fill-opacity:1;fill-rule:nonzero;stroke:none" /><path
         d="m 3294.38,180.988 15.12,0 0,-10.644 0.28,-0.285 c 4.76,7.988 13.02,12.89 22.55,12.89 15.69,0 25.64,-8.406 25.64,-24.656 l 0,-49.727 -15.97,0 0,45.528 c -0.28,11.347 -4.76,16.25 -14.15,16.25 -10.64,0 -17.51,-8.41 -17.51,-19.055 l 0,-42.723 -15.96,0 0,72.422"
         id="path154"
         style="fill:#5c5e65;fill-opacity:1;fill-rule:nonzero;stroke:none" /><path
         d="m 3365.12,180.988 12.04,0 0,21.707 15.97,0 0,-21.707 14.43,0 0,-11.906 -14.43,0 0,-38.66 c 0,-6.594 0.56,-9.953 7.7,-9.953 2.25,0 4.48,0 6.73,0.566 l 0,-12.336 c -3.51,-0.269 -6.87,-0.836 -10.37,-0.836 -16.66,0 -19.75,6.446 -20.03,18.496 l 0,42.723 -12.04,0 0,11.906"
         id="path156"
         style="fill:#5c5e65;fill-opacity:1;fill-rule:nonzero;stroke:none" /></g></g></svg>