<?xml version="1.0" encoding="UTF-8" standalone="no"?>
<!-- Created with Inkscape (http://www.inkscape.org/) -->

<svg
   xmlns:dc="http://purl.org/dc/elements/1.1/"
   xmlns:cc="http://creativecommons.org/ns#"
   xmlns:rdf="http://www.w3.org/1999/02/22-rdf-syntax-ns#"
   xmlns:svg="http://www.w3.org/2000/svg"
   xmlns="http://www.w3.org/2000/svg"
   xmlns:sodipodi="http://sodipodi.sourceforge.net/DTD/sodipodi-0.dtd"
   xmlns:inkscape="http://www.inkscape.org/namespaces/inkscape"
   version="1.2"
   width="981.21692"
   height="466.84067"
   id="svg2"
   xml:space="preserve"
   inkscape:version="0.48.5 r10040"
   sodipodi:docname="deadline-approaching.svg"><sodipodi:namedview
     pagecolor="#ffffff"
     bordercolor="#666666"
     borderopacity="1"
     objecttolerance="10"
     gridtolerance="10"
     guidetolerance="10"
     inkscape:pageopacity="0"
     inkscape:pageshadow="2"
     inkscape:window-width="1920"
     inkscape:window-height="1022"
     id="namedview35"
     showgrid="false"
     fit-margin-top="50"
     fit-margin-left="0"
     fit-margin-right="0"
     fit-margin-bottom="80"
     inkscape:zoom="1.0459938"
     inkscape:cx="443.77051"
     inkscape:cy="244.05225"
     inkscape:window-x="0"
     inkscape:window-y="0"
     inkscape:window-maximized="1"
     inkscape:current-layer="flowRoot3012" /><metadata
     id="metadata8"><rdf:RDF><cc:Work
         rdf:about=""><dc:format>image/svg+xml</dc:format><dc:type
           rdf:resource="http://purl.org/dc/dcmitype/StillImage" /><dc:title></dc:title></cc:Work></rdf:RDF></metadata><defs
     id="defs6"><clipPath
       id="clipPath16"><path
         d="m 392.307,99.932 c 3.649,-2.391 7.289,-4.894 10.753,-7.416 l 0,0 c 3.511,-2.559 6.843,-5.138 9.822,-7.641 l 0,0 c 3.015,-2.538 5.667,-4.998 7.764,-7.273 l 0,0 3.161,9.49 c 0.188,-0.109 0.37,-0.218 0.544,-0.328 l 0,0 c 0.177,-0.107 0.349,-0.215 0.517,-0.323 l 0,0 c 0.166,-0.11 0.33,-0.218 0.488,-0.325 l 0,0 c 0.159,-0.109 0.312,-0.218 0.464,-0.327 l 0,0 c 0.642,-0.464 1.216,-0.933 1.716,-1.41 l 0,0 c 0.502,-0.478 0.931,-0.961 1.291,-1.453 l 0,0 c 0.36,-0.494 0.645,-0.997 0.857,-1.509 l 0,0 c 0.215,-0.513 0.354,-1.037 0.419,-1.575 l 0,0 c 0.117,-0.942 -0.026,-1.906 -0.419,-2.889 l 0,0 c -0.398,-0.991 -1.05,-1.999 -1.953,-3.015 l 0,0 c -0.908,-1.026 -2.07,-2.062 -3.478,-3.097 l 0,0 c -1.42,-1.046 -3.092,-2.091 -5.008,-3.131 l 0,0 c -2.894,-1.581 -6.332,-3.15 -10.252,-4.691 l 0,0 c -3.977,-1.568 -8.449,-3.108 -13.353,-4.607 l 0,0 c -4.981,-1.521 -10.405,-3.001 -16.204,-4.423 l 0,0 c -5.887,-1.443 -12.16,-2.826 -18.738,-4.131 l 0,0 c -6.676,-1.325 -13.663,-2.573 -20.88,-3.726 l 0,0 c -7.321,-1.169 -14.868,-2.238 -22.544,-3.191 l 0,0 c -7.779,-0.963 -15.681,-1.807 -23.6,-2.513 l 0,0 c -8.015,-0.712 -16.035,-1.282 -23.939,-1.688 l 0,0 c -0.01,0 -0.018,0 -0.027,-0.001 l 0,0 -0.026,0 -0.027,0 c -0.008,-0.003 -0.018,-0.003 -0.025,-0.003 l 0,0 C 258.609,38.17 247.421,37.88 236.209,37.858 l 0,0 c -11.342,-0.026 -22.676,0.225 -33.861,0.736 l 0,0 c -11.277,0.514 -22.366,1.286 -33.117,2.31 l 0,0 c -10.808,1.028 -21.239,2.301 -31.146,3.799 l 0,0 c -4.966,0.752 -9.794,1.556 -14.463,2.416 l 0,0 c -4.669,0.858 -9.179,1.764 -13.511,2.722 l 0,0 c -4.327,0.955 -8.472,1.955 -12.421,3.001 l 0,0 c -3.943,1.044 -7.684,2.125 -11.21,3.248 l 0,0 c -3.52,1.118 -6.82,2.271 -9.893,3.458 l 0,0 c -3.063,1.181 -5.896,2.394 -8.493,3.631 l 0,0 c -2.588,1.234 -4.937,2.495 -7.044,3.78 l 0,0 c -2.098,1.275 -3.952,2.575 -5.56,3.894 l 0,0 c -0.937,0.768 -1.783,1.515 -2.541,2.244 l 0,0 c -0.758,0.724 -1.426,1.428 -2.009,2.11 l 0,0 c -0.581,0.681 -1.077,1.342 -1.49,1.98 l 0,0 c -0.414,0.636 -0.746,1.251 -0.997,1.846 l 0,0 c -0.308,0.729 -0.504,1.429 -0.587,2.098 l 0,0 c -0.086,0.665 -0.062,1.301 0.07,1.912 l 0,0 c 0.131,0.608 0.369,1.193 0.707,1.754 l 0,0 c 0.339,0.561 0.78,1.098 1.32,1.62 l 0,0 c 0.802,0.772 1.849,1.52 3.164,2.24 l 0,0 c 1.309,0.716 2.882,1.401 4.743,2.056 l 0,0 c 1.849,0.651 3.985,1.271 6.427,1.856 l 0,0 c 2.427,0.579 5.159,1.127 8.215,1.635 l 0,0 c 3.025,0.504 6.355,0.963 9.99,1.377 l 0,0 c 3.611,0.41 7.516,0.91 11.731,1.089 l 0,0 c 1.63,0.068 1.618,0.068 1.577,0.067 l 0,0 c -0.048,-10e-4 -0.136,-10e-4 2.452,0.116 l 0,0 0,6.486 c -6.506,-0.32 -12.99,-0.742 -18.596,-1.267 l 0,0 c -5.659,-0.532 -10.862,-1.174 -15.617,-1.928 l 0,0 C 59.251,99.383 54.91,98.502 51.023,97.495 l 0,0 c -1.951,-0.506 -3.783,-1.051 -5.49,-1.628 l 0,0 c -1.715,-0.582 -3.304,-1.198 -4.758,-1.849 l 0,0 c -1.461,-0.656 -2.787,-1.346 -3.967,-2.071 l 0,0 C 35.622,91.217 34.582,90.452 33.7,89.649 l 0,0 C 32.805,88.845 32.076,88.01 31.51,87.144 l 0,0 c -0.571,-0.868 -0.977,-1.763 -1.223,-2.685 l 0,0 c -0.249,-0.925 -0.335,-1.875 -0.261,-2.843 l 0,0 c 0.072,-0.975 0.304,-1.97 0.695,-2.98 l 0,0 c 0.316,-0.825 0.734,-1.659 1.248,-2.505 l 0,0 c 0.516,-0.851 1.129,-1.713 1.839,-2.583 l 0,0 c 0.712,-0.877 1.52,-1.764 2.422,-2.662 l 0,0 c 0.905,-0.903 1.904,-1.816 2.995,-2.742 l 0,0 c 2,-1.695 4.301,-3.351 6.886,-4.961 l 0,0 c 2.6,-1.622 5.482,-3.198 8.625,-4.723 l 0,0 c 3.158,-1.534 6.577,-3.017 10.23,-4.446 l 0,0 c 3.668,-1.433 7.571,-2.812 11.682,-4.131 l 0,0 c 6.2,-1.989 12.863,-3.843 19.938,-5.562 l 0,0 c 7.09,-1.724 14.576,-3.307 22.398,-4.743 l 0,0 c 7.823,-1.433 15.967,-2.722 24.371,-3.858 l 0,0 c 8.386,-1.132 17.014,-2.112 25.826,-2.937 l 0,0 c 8.774,-0.815 17.716,-1.475 26.764,-1.969 l 0,0 c 8.992,-0.495 18.074,-0.824 27.186,-0.989 l 0,0 c 9.039,-0.162 18.089,-0.16 27.094,0.006 l 0,0 c 8.92,0.167 17.782,0.499 26.528,0.995 l 0,0 c 12.74,0.726 25.615,1.846 38.258,3.291 l 0,0 c 12.386,1.416 24.508,3.137 36.048,5.101 l 0,0 c 11.278,1.922 21.977,4.069 31.821,6.383 l 0,0 c 9.614,2.265 18.406,4.685 26.142,7.215 l 0,0 c 3.797,1.248 7.336,2.519 10.596,3.816 l 0,0 c 3.221,1.279 6.168,2.581 8.809,3.905 l 0,0 c 2.613,1.307 4.929,2.638 6.922,3.986 l 0,0 c 1.973,1.334 3.63,2.687 4.944,4.058 l 0,0 c 0.651,0.68 1.217,1.367 1.696,2.06 l 0,0 c 0.475,0.688 0.86,1.384 1.15,2.086 l 0,0 c 0.29,0.699 0.483,1.405 0.577,2.119 l 0,0 c 0.094,0.71 0.087,1.431 -0.026,2.158 l 0,0 c -0.111,0.722 -0.329,1.457 -0.669,2.2 l 0,0 c -0.338,0.742 -0.792,1.494 -1.371,2.252 l 0,0 c -0.577,0.756 -1.276,1.519 -2.104,2.285 l 0,0 c -0.827,0.764 -1.782,1.532 -2.873,2.303 l 0,0 c -0.516,0.365 -1.059,0.73 -1.631,1.093 l 0,0 c -0.572,0.363 -1.172,0.724 -1.801,1.085 l 0,0 c -0.626,0.36 -1.279,0.718 -1.961,1.075 l 0,0 c -0.678,0.355 -1.384,0.708 -2.117,1.058 l 0,0 21.162,2.427 c -4.91,0.632 -10.347,1.479 -16.074,2.479 l 0,0 c -5.73,1 -11.742,2.154 -17.797,3.396 l 0,0 c -6.052,1.239 -12.141,2.566 -18.033,3.915 l 0,0 c -5.881,1.348 -11.562,2.717 -16.81,4.046 l 0,0 c 3.474,-2.065 7.091,-4.323 10.696,-6.686"
         id="path18"
         inkscape:connector-curvature="0" /></clipPath><linearGradient
       x1="0"
       y1="0"
       x2="1"
       y2="0"
       id="linearGradient24"
       gradientUnits="userSpaceOnUse"
       gradientTransform="matrix(420.3252,0,0,-420.3252,30.000004,68.161629)"
       spreadMethod="pad"><stop
         id="stop26"
         style="stop-color:#f4e6df;stop-opacity:1"
         offset="0" /><stop
         id="stop28"
         style="stop-color:#b64138;stop-opacity:1"
         offset="1" /></linearGradient><clipPath
       id="clipPath36"><path
         d="M 0,246 820,246 820,0 0,0 0,246 z"
         id="path38"
         inkscape:connector-curvature="0" /></clipPath><clipPath
       id="clipPath36-2"><path
         id="path38-2"
         d="M 0,246 820,246 820,0 0,0 0,246 z"
         inkscape:connector-curvature="0" /></clipPath><linearGradient
       spreadMethod="pad"
       gradientTransform="matrix(420.3252,0,0,-420.3252,30.000004,68.161629)"
       gradientUnits="userSpaceOnUse"
       id="linearGradient24-5"
       y2="0"
       x2="1"
       y1="0"
       x1="0"><stop
         offset="0"
         style="stop-color:#f4e6df;stop-opacity:1"
         id="stop26-9" /><stop
         offset="1"
         style="stop-color:#b64138;stop-opacity:1"
         id="stop28-8" /></linearGradient><clipPath
       id="clipPath16-9"><path
         id="path18-2"
         d="m 392.307,99.932 c 3.649,-2.391 7.289,-4.894 10.753,-7.416 l 0,0 c 3.511,-2.559 6.843,-5.138 9.822,-7.641 l 0,0 c 3.015,-2.538 5.667,-4.998 7.764,-7.273 l 0,0 3.161,9.49 c 0.188,-0.109 0.37,-0.218 0.544,-0.328 l 0,0 c 0.177,-0.107 0.349,-0.215 0.517,-0.323 l 0,0 c 0.166,-0.11 0.33,-0.218 0.488,-0.325 l 0,0 c 0.159,-0.109 0.312,-0.218 0.464,-0.327 l 0,0 c 0.642,-0.464 1.216,-0.933 1.716,-1.41 l 0,0 c 0.502,-0.478 0.931,-0.961 1.291,-1.453 l 0,0 c 0.36,-0.494 0.645,-0.997 0.857,-1.509 l 0,0 c 0.215,-0.513 0.354,-1.037 0.419,-1.575 l 0,0 c 0.117,-0.942 -0.026,-1.906 -0.419,-2.889 l 0,0 c -0.398,-0.991 -1.05,-1.999 -1.953,-3.015 l 0,0 c -0.908,-1.026 -2.07,-2.062 -3.478,-3.097 l 0,0 c -1.42,-1.046 -3.092,-2.091 -5.008,-3.131 l 0,0 c -2.894,-1.581 -6.332,-3.15 -10.252,-4.691 l 0,0 c -3.977,-1.568 -8.449,-3.108 -13.353,-4.607 l 0,0 c -4.981,-1.521 -10.405,-3.001 -16.204,-4.423 l 0,0 c -5.887,-1.443 -12.16,-2.826 -18.738,-4.131 l 0,0 c -6.676,-1.325 -13.663,-2.573 -20.88,-3.726 l 0,0 c -7.321,-1.169 -14.868,-2.238 -22.544,-3.191 l 0,0 c -7.779,-0.963 -15.681,-1.807 -23.6,-2.513 l 0,0 c -8.015,-0.712 -16.035,-1.282 -23.939,-1.688 l 0,0 c -0.01,0 -0.018,0 -0.027,-0.001 l 0,0 -0.026,0 -0.027,0 c -0.008,-0.003 -0.018,-0.003 -0.025,-0.003 l 0,0 C 258.609,38.17 247.421,37.88 236.209,37.858 l 0,0 c -11.342,-0.026 -22.676,0.225 -33.861,0.736 l 0,0 c -11.277,0.514 -22.366,1.286 -33.117,2.31 l 0,0 c -10.808,1.028 -21.239,2.301 -31.146,3.799 l 0,0 c -4.966,0.752 -9.794,1.556 -14.463,2.416 l 0,0 c -4.669,0.858 -9.179,1.764 -13.511,2.722 l 0,0 c -4.327,0.955 -8.472,1.955 -12.421,3.001 l 0,0 c -3.943,1.044 -7.684,2.125 -11.21,3.248 l 0,0 c -3.52,1.118 -6.82,2.271 -9.893,3.458 l 0,0 c -3.063,1.181 -5.896,2.394 -8.493,3.631 l 0,0 c -2.588,1.234 -4.937,2.495 -7.044,3.78 l 0,0 c -2.098,1.275 -3.952,2.575 -5.56,3.894 l 0,0 c -0.937,0.768 -1.783,1.515 -2.541,2.244 l 0,0 c -0.758,0.724 -1.426,1.428 -2.009,2.11 l 0,0 c -0.581,0.681 -1.077,1.342 -1.49,1.98 l 0,0 c -0.414,0.636 -0.746,1.251 -0.997,1.846 l 0,0 c -0.308,0.729 -0.504,1.429 -0.587,2.098 l 0,0 c -0.086,0.665 -0.062,1.301 0.07,1.912 l 0,0 c 0.131,0.608 0.369,1.193 0.707,1.754 l 0,0 c 0.339,0.561 0.78,1.098 1.32,1.62 l 0,0 c 0.802,0.772 1.849,1.52 3.164,2.24 l 0,0 c 1.309,0.716 2.882,1.401 4.743,2.056 l 0,0 c 1.849,0.651 3.985,1.271 6.427,1.856 l 0,0 c 2.427,0.579 5.159,1.127 8.215,1.635 l 0,0 c 3.025,0.504 6.355,0.963 9.99,1.377 l 0,0 c 3.611,0.41 7.516,0.91 11.731,1.089 l 0,0 c 1.63,0.068 1.618,0.068 1.577,0.067 l 0,0 c -0.048,-10e-4 -0.136,-10e-4 2.452,0.116 l 0,0 0,6.486 c -6.506,-0.32 -12.99,-0.742 -18.596,-1.267 l 0,0 c -5.659,-0.532 -10.862,-1.174 -15.617,-1.928 l 0,0 C 59.251,99.383 54.91,98.502 51.023,97.495 l 0,0 c -1.951,-0.506 -3.783,-1.051 -5.49,-1.628 l 0,0 c -1.715,-0.582 -3.304,-1.198 -4.758,-1.849 l 0,0 c -1.461,-0.656 -2.787,-1.346 -3.967,-2.071 l 0,0 C 35.622,91.217 34.582,90.452 33.7,89.649 l 0,0 C 32.805,88.845 32.076,88.01 31.51,87.144 l 0,0 c -0.571,-0.868 -0.977,-1.763 -1.223,-2.685 l 0,0 c -0.249,-0.925 -0.335,-1.875 -0.261,-2.843 l 0,0 c 0.072,-0.975 0.304,-1.97 0.695,-2.98 l 0,0 c 0.316,-0.825 0.734,-1.659 1.248,-2.505 l 0,0 c 0.516,-0.851 1.129,-1.713 1.839,-2.583 l 0,0 c 0.712,-0.877 1.52,-1.764 2.422,-2.662 l 0,0 c 0.905,-0.903 1.904,-1.816 2.995,-2.742 l 0,0 c 2,-1.695 4.301,-3.351 6.886,-4.961 l 0,0 c 2.6,-1.622 5.482,-3.198 8.625,-4.723 l 0,0 c 3.158,-1.534 6.577,-3.017 10.23,-4.446 l 0,0 c 3.668,-1.433 7.571,-2.812 11.682,-4.131 l 0,0 c 6.2,-1.989 12.863,-3.843 19.938,-5.562 l 0,0 c 7.09,-1.724 14.576,-3.307 22.398,-4.743 l 0,0 c 7.823,-1.433 15.967,-2.722 24.371,-3.858 l 0,0 c 8.386,-1.132 17.014,-2.112 25.826,-2.937 l 0,0 c 8.774,-0.815 17.716,-1.475 26.764,-1.969 l 0,0 c 8.992,-0.495 18.074,-0.824 27.186,-0.989 l 0,0 c 9.039,-0.162 18.089,-0.16 27.094,0.006 l 0,0 c 8.92,0.167 17.782,0.499 26.528,0.995 l 0,0 c 12.74,0.726 25.615,1.846 38.258,3.291 l 0,0 c 12.386,1.416 24.508,3.137 36.048,5.101 l 0,0 c 11.278,1.922 21.977,4.069 31.821,6.383 l 0,0 c 9.614,2.265 18.406,4.685 26.142,7.215 l 0,0 c 3.797,1.248 7.336,2.519 10.596,3.816 l 0,0 c 3.221,1.279 6.168,2.581 8.809,3.905 l 0,0 c 2.613,1.307 4.929,2.638 6.922,3.986 l 0,0 c 1.973,1.334 3.63,2.687 4.944,4.058 l 0,0 c 0.651,0.68 1.217,1.367 1.696,2.06 l 0,0 c 0.475,0.688 0.86,1.384 1.15,2.086 l 0,0 c 0.29,0.699 0.483,1.405 0.577,2.119 l 0,0 c 0.094,0.71 0.087,1.431 -0.026,2.158 l 0,0 c -0.111,0.722 -0.329,1.457 -0.669,2.2 l 0,0 c -0.338,0.742 -0.792,1.494 -1.371,2.252 l 0,0 c -0.577,0.756 -1.276,1.519 -2.104,2.285 l 0,0 c -0.827,0.764 -1.782,1.532 -2.873,2.303 l 0,0 c -0.516,0.365 -1.059,0.73 -1.631,1.093 l 0,0 c -0.572,0.363 -1.172,0.724 -1.801,1.085 l 0,0 c -0.626,0.36 -1.279,0.718 -1.961,1.075 l 0,0 c -0.678,0.355 -1.384,0.708 -2.117,1.058 l 0,0 21.162,2.427 c -4.91,0.632 -10.347,1.479 -16.074,2.479 l 0,0 c -5.73,1 -11.742,2.154 -17.797,3.396 l 0,0 c -6.052,1.239 -12.141,2.566 -18.033,3.915 l 0,0 c -5.881,1.348 -11.562,2.717 -16.81,4.046 l 0,0 c 3.474,-2.065 7.091,-4.323 10.696,-6.686"
         inkscape:connector-curvature="0" /></clipPath></defs><g
     transform="translate(335.51827,73.021479)"
     style="font-size:40px;font-style:normal;font-weight:normal;line-height:125%;letter-spacing:0px;word-spacing:0px;fill:#000000;fill-opacity:1;stroke:none;font-family:Sans"
     id="flowRoot3012"><g
       id="g4697"><path
         id="path3050"
         style="font-size:82px;font-weight:bold;fill:#ffffff;fill-opacity:1;stroke:#b64138;stroke-opacity:1;-inkscape-font-specification:Sans Bold"
         d="m 89.256262,114.07523 0,36.47558 5.52539,0 c 6.299448,2e-5 11.104128,-1.56151 14.414058,-4.68457 3.33655,-3.12302 5.00484,-7.66078 5.00489,-13.61328 -5e-5,-5.92574 -1.655,-10.43681 -4.96485,-13.5332 -3.30993,-3.09631 -8.12796,-4.64448 -14.454098,-4.64453 l -5.52539,0 m -15.415039,-11.65137 16.255859,0 c 9.075488,6e-5 15.828738,0.65403 20.259768,1.96191 4.45763,1.28131 8.27468,3.47011 11.45117,6.56641 2.80268,2.69601 4.88471,5.80571 6.24609,9.3291 1.36127,3.52348 2.04193,7.51403 2.042,11.97168 -7e-5,4.5111 -0.68073,8.54169 -2.042,12.0918 -1.36138,3.52345 -3.44341,6.63315 -6.24609,9.3291 -3.20318,3.09636 -7.04692,5.29851 -11.53125,6.60645 -4.48442,1.28125 -11.210971,1.92187 -20.179688,1.92187 l -16.255859,0 0,-59.77832"
         inkscape:connector-curvature="0" /><path
         id="path3052"
         style="font-size:82px;font-weight:bold;fill:#ffffff;fill-opacity:1;stroke:#b64138;stroke-opacity:1;-inkscape-font-specification:Sans Bold"
         d="m 186.03068,139.66019 0,4.08398 -33.5127,0 c 0.34699,3.3633 1.56151,5.88576 3.64356,7.56739 2.082,1.68165 4.99151,2.52247 8.72851,2.52246 3.01624,1e-5 6.09925,-0.44042 9.24903,-1.32129 3.17638,-0.90754 6.43289,-2.26887 9.76953,-4.08399 l 0,11.05078 c -3.39002,1.28126 -6.77999,2.24219 -10.16993,2.88282 -3.39001,0.66731 -6.77998,1.00097 -10.16992,1.00097 -8.1146,0 -14.42742,-2.05533 -18.93847,-6.16601 -4.48438,-4.13736 -6.72657,-9.92967 -6.72657,-17.37695 0,-7.31378 2.20215,-13.06605 6.60645,-17.25684 4.43097,-4.19071 10.51691,-6.28609 18.25781,-6.28613 7.04684,4e-5 12.679,2.12211 16.89649,6.36621 4.24409,4.24417 6.36616,9.91637 6.36621,17.0166 m -14.73438,-4.76465 c -4e-5,-2.72263 -0.80082,-4.91143 -2.40234,-6.56641 -1.5749,-1.6816 -3.64359,-2.52242 -6.20606,-2.52246 -2.77606,4e-5 -5.0316,0.78747 -6.7666,2.36231 -1.73504,1.54821 -2.8161,3.79039 -3.24316,6.72656 l 18.61816,0"
         inkscape:connector-curvature="0" /><path
         id="path3054"
         style="font-size:82px;font-weight:bold;fill:#ffffff;fill-opacity:1;stroke:#b64138;stroke-opacity:1;-inkscape-font-specification:Sans Bold"
         d="m 216.94083,142.02249 c -2.9896,2e-5 -5.24514,0.50718 -6.7666,1.52149 -1.49481,1.01434 -2.2422,2.50913 -2.24219,4.48437 -1e-5,1.81512 0.60057,3.24318 1.80176,4.28418 1.22785,1.01433 2.92283,1.5215 5.08496,1.52149 2.69594,1e-5 4.96482,-0.96093 6.80664,-2.88282 1.84177,-1.94855 2.76266,-4.37758 2.7627,-7.2871 l 0,-1.64161 -7.44727,0 m 21.90137,-5.40527 0,25.58496 -14.4541,0 0,-6.64648 c -1.92191,2.72266 -4.08402,4.71126 -6.48633,5.96582 -2.40237,1.22786 -5.32522,1.84179 -8.76855,1.84179 -4.64455,0 -8.42156,-1.34798 -11.33106,-4.04394 -2.88282,-2.72265 -4.32422,-6.24609 -4.32422,-10.57031 0,-5.25845 1.80175,-9.11554 5.40528,-11.57129 3.63019,-2.4557 9.31573,-3.68357 17.05664,-3.6836 l 8.44824,0 0,-1.12109 c -4e-5,-2.26885 -0.89424,-3.92379 -2.68262,-4.96484 -1.78844,-1.06768 -4.57783,-1.60153 -8.36816,-1.60157 -3.06968,4e-5 -5.9258,0.30701 -8.56836,0.9209 -2.64259,0.61397 -5.09832,1.53487 -7.36719,2.7627 l 0,-10.93067 c 3.06965,-0.74735 6.15266,-1.30789 9.24902,-1.68164 3.09634,-0.40034 6.19269,-0.60054 9.28907,-0.60058 8.08785,4e-5 13.9202,1.6016 17.49707,4.80468 3.60347,3.17647 5.40522,8.35485 5.40527,15.53516"
         inkscape:connector-curvature="0" /><path
         id="path3056"
         style="font-size:82px;font-weight:bold;fill:#ffffff;fill-opacity:1;stroke:#b64138;stroke-opacity:1;-inkscape-font-specification:Sans Bold"
         d="m 282.76505,123.92484 0,-24.02344 14.41406,0 0,62.30078 -14.41406,0 0,-6.48633 c -1.97529,2.64259 -4.15075,4.5778 -6.52637,5.80567 -2.37567,1.22786 -5.12502,1.84179 -8.24804,1.84179 -5.52541,0 -10.06317,-2.1888 -13.61328,-6.5664 -3.55014,-4.40429 -5.3252,-10.06314 -5.3252,-16.97656 0,-6.91339 1.77506,-12.55889 5.3252,-16.93653 3.55011,-4.40425 8.08787,-6.6064 13.61328,-6.60644 3.09633,4e-5 5.83233,0.62732 8.20801,1.88183 2.40231,1.22791 4.59111,3.14978 6.5664,5.76563 m -9.44922,29.02832 c 3.06963,1e-5 5.40524,-1.12109 7.00684,-3.36328 1.62822,-2.24218 2.44234,-5.49868 2.44238,-9.76953 -4e-5,-4.27081 -0.81416,-7.52732 -2.44238,-9.76954 -1.6016,-2.24215 -3.93721,-3.36324 -7.00684,-3.36328 -3.04299,4e-5 -5.3786,1.12113 -7.00683,3.36328 -1.60158,2.24222 -2.40237,5.49873 -2.40235,9.76954 -2e-5,4.27085 0.80077,7.52735 2.40235,9.76953 1.62823,2.24219 3.96384,3.36329 7.00683,3.36328"
         inkscape:connector-curvature="0" /><path
         id="path3058"
         style="font-size:82px;font-weight:bold;fill:#ffffff;fill-opacity:1;stroke:#b64138;stroke-opacity:1;-inkscape-font-specification:Sans Bold"
         d="m 311.03263,99.9014 14.33398,0 0,62.30078 -14.33398,0 0,-62.30078"
         inkscape:connector-curvature="0" /><path
         id="path3060"
         style="font-size:82px;font-weight:bold;fill:#ffffff;fill-opacity:1;stroke:#b64138;stroke-opacity:1;-inkscape-font-specification:Sans Bold"
         d="m 339.22013,117.35843 14.33398,0 0,44.84375 -14.33398,0 0,-44.84375 m 0,-17.45703 14.33398,0 0,11.69141 -14.33398,0 0,-11.69141"
         inkscape:connector-curvature="0" /><path
         id="path3062"
         style="font-size:82px;font-weight:bold;fill:#ffffff;fill-opacity:1;stroke:#b64138;stroke-opacity:1;-inkscape-font-specification:Sans Bold"
         d="m 412.49161,134.89554 0,27.30664 -14.41406,0 0,-4.44433 0,-16.45606 c -4e-5,-3.87042 -0.0935,-6.53969 -0.28027,-8.00781 -0.16019,-1.46807 -0.45381,-2.54912 -0.88086,-3.24317 -0.56058,-0.93421 -1.32133,-1.65491 -2.28223,-2.16211 -0.96097,-0.53381 -2.05537,-0.80074 -3.2832,-0.80078 -2.98961,4e-5 -5.33857,1.16117 -7.04688,3.4834 -1.70835,2.2956 -2.56252,5.48538 -2.5625,9.56934 l 0,22.06152 -14.33398,0 0,-44.84375 14.33398,0 0,6.56641 c 2.16209,-2.61585 4.45766,-4.53772 6.88672,-5.76563 2.42901,-1.25451 5.11162,-1.88179 8.04785,-1.88183 5.17835,4e-5 9.10217,1.58826 11.77149,4.76464 2.69591,3.17648 4.04389,7.79431 4.04394,13.85352"
         inkscape:connector-curvature="0" /><path
         id="path3064"
         style="font-size:82px;font-weight:bold;fill:#ffffff;fill-opacity:1;stroke:#b64138;stroke-opacity:1;-inkscape-font-specification:Sans Bold"
         d="m 470.62833,139.66019 0,4.08398 -33.51269,0 c 0.34698,3.3633 1.5615,5.88576 3.64355,7.56739 2.08201,1.68165 4.99151,2.52247 8.72852,2.52246 3.01624,1e-5 6.09925,-0.44042 9.24902,-1.32129 3.17639,-0.90754 6.4329,-2.26887 9.76953,-4.08399 l 0,11.05078 c -3.39002,1.28126 -6.77999,2.24219 -10.16992,2.88282 -3.39001,0.66731 -6.77998,1.00097 -10.16992,1.00097 -8.11461,0 -14.42742,-2.05533 -18.93848,-6.16601 -4.48438,-4.13736 -6.72656,-9.92967 -6.72656,-17.37695 0,-7.31378 2.20214,-13.06605 6.60645,-17.25684 4.43097,-4.19071 10.5169,-6.28609 18.25781,-6.28613 7.04684,4e-5 12.67899,2.12211 16.89648,6.36621 4.24409,4.24417 6.36616,9.91637 6.36621,17.0166 m -14.73437,-4.76465 c -4e-5,-2.72263 -0.80082,-4.91143 -2.40235,-6.56641 -1.5749,-1.6816 -3.64358,-2.52242 -6.20605,-2.52246 -2.77607,4e-5 -5.0316,0.78747 -6.7666,2.36231 -1.73505,1.54821 -2.8161,3.79039 -3.24317,6.72656 l 18.61817,0"
         inkscape:connector-curvature="0" /><path
         id="path3066"
         style="font-size:82px;font-weight:bold;fill:#ffffff;fill-opacity:1;stroke:#b64138;stroke-opacity:1;-inkscape-font-specification:Sans Bold"
         d="m 110.11661,253.81156 -24.103512,0 -3.803711,10.89062 -15.495117,0 22.141601,-59.77832 18.377929,0 22.1416,59.77832 -15.49512,0 -3.76367,-10.89062 m -20.259762,-11.09082 16.375972,0 -8.167964,-23.78321 -8.208008,23.78321"
         inkscape:connector-curvature="0" /><path
         id="path3068"
         style="font-size:82px;font-weight:bold;fill:#ffffff;fill-opacity:1;stroke:#b64138;stroke-opacity:1;-inkscape-font-specification:Sans Bold"
         d="m 150.95646,258.21585 0,23.54297 -14.33399,0 0,-61.90039 14.33399,0 0,6.56641 c 1.97524,-2.61585 4.16404,-4.53772 6.5664,-5.76563 2.40232,-1.25451 5.16501,-1.88179 8.28809,-1.88183 5.52535,4e-5 10.06311,2.20219 13.61328,6.60644 3.55008,4.37764 5.32514,10.02314 5.3252,16.93653 -6e-5,6.91342 -1.77512,12.57227 -5.3252,16.97656 -3.55017,4.3776 -8.08793,6.5664 -13.61328,6.5664 -3.12308,0 -5.88577,-0.61393 -8.28809,-1.84179 -2.40236,-1.25456 -4.59116,-3.18978 -6.5664,-5.80567 m 9.52929,-29.02832 c -3.06968,4e-5 -5.43199,1.13448 -7.08691,3.40332 -1.62828,2.24222 -2.4424,5.48538 -2.44238,9.7295 -2e-5,4.24415 0.8141,7.50066 2.44238,9.76953 1.65492,2.24219 4.01723,3.36329 7.08691,3.36328 3.06963,1e-5 5.40524,-1.12109 7.00684,-3.36328 1.62822,-2.24218 2.44234,-5.49868 2.44238,-9.76953 -4e-5,-4.27081 -0.81416,-7.52732 -2.44238,-9.76954 -1.6016,-2.24215 -3.93721,-3.36324 -7.00684,-3.36328"
         inkscape:connector-curvature="0" /><path
         id="path3070"
         style="font-size:82px;font-weight:bold;fill:#ffffff;fill-opacity:1;stroke:#b64138;stroke-opacity:1;-inkscape-font-specification:Sans Bold"
         d="m 209.7338,258.21585 0,23.54297 -14.33398,0 0,-61.90039 14.33398,0 0,6.56641 c 1.97524,-2.61585 4.16404,-4.53772 6.56641,-5.76563 2.40231,-1.25451 5.165,-1.88179 8.28808,-1.88183 5.52535,4e-5 10.06311,2.20219 13.61329,6.60644 3.55007,4.37764 5.32514,10.02314 5.32519,16.93653 -5e-5,6.91342 -1.77512,12.57227 -5.32519,16.97656 -3.55018,4.3776 -8.08794,6.5664 -13.61329,6.5664 -3.12308,0 -5.88577,-0.61393 -8.28808,-1.84179 -2.40237,-1.25456 -4.59117,-3.18978 -6.56641,-5.80567 m 9.5293,-29.02832 c -3.06969,4e-5 -5.43199,1.13448 -7.08692,3.40332 -1.62827,2.24222 -2.4424,5.48538 -2.44238,9.7295 -2e-5,4.24415 0.81411,7.50066 2.44238,9.76953 1.65493,2.24219 4.01723,3.36329 7.08692,3.36328 3.06963,1e-5 5.40524,-1.12109 7.00683,-3.36328 1.62822,-2.24218 2.44235,-5.49868 2.44239,-9.76953 -4e-5,-4.27081 -0.81417,-7.52732 -2.44239,-9.76954 -1.60159,-2.24215 -3.9372,-3.36324 -7.00683,-3.36328"
         inkscape:connector-curvature="0" /><path
         id="path3072"
         style="font-size:82px;font-weight:bold;fill:#ffffff;fill-opacity:1;stroke:#b64138;stroke-opacity:1;-inkscape-font-specification:Sans Bold"
         d="m 287.48966,232.07035 c -1.25459,-0.58721 -2.50915,-1.01429 -3.76367,-1.28125 -1.2279,-0.29359 -2.46911,-0.4404 -3.72363,-0.44043 -3.68363,3e-5 -6.5264,1.18785 -8.52832,3.56347 -1.97529,2.34899 -2.96292,5.72561 -2.96289,10.12988 l 0,20.66016 -14.33399,0 0,-44.84375 14.33399,0 0,7.36719 c 1.84177,-2.93616 3.95049,-5.07157 6.32617,-6.40625 2.40231,-1.36128 5.27177,-2.04195 8.6084,-2.04199 0.48043,4e-5 1.00094,0.0267 1.56152,0.0801 0.56051,0.0267 1.37463,0.10682 2.44238,0.24024 l 0.04,12.97266"
         inkscape:connector-curvature="0" /><path
         id="path3074"
         style="font-size:82px;font-weight:bold;fill:#ffffff;fill-opacity:1;stroke:#b64138;stroke-opacity:1;-inkscape-font-specification:Sans Bold"
         d="m 316.03751,229.02738 c -3.17645,3e-5 -5.60549,1.14782 -7.28711,3.44336 -1.65496,2.26891 -2.48244,5.55211 -2.48242,9.84961 -2e-5,4.29754 0.82746,7.59409 2.48242,9.88964 1.68162,2.26889 4.11066,3.40333 7.28711,3.40332 3.12302,10e-6 5.51201,-1.13443 7.16699,-3.40332 1.65492,-2.29555 2.48239,-5.5921 2.48243,-9.88964 -4e-5,-4.2975 -0.82751,-7.5807 -2.48243,-9.84961 -1.65498,-2.29554 -4.04397,-3.44333 -7.16699,-3.44336 m 0,-10.25 c 7.71416,4e-5 13.73336,2.08207 18.05762,6.24609 4.35086,4.1641 6.52631,9.92972 6.52637,17.29688 -6e-5,7.3672 -2.17551,13.13282 -6.52637,17.29687 -4.32426,4.16406 -10.34346,6.24609 -18.05762,6.24609 -7.7409,0 -13.80014,-2.08203 -18.17773,-6.24609 -4.35092,-4.16405 -6.52637,-9.92967 -6.52637,-17.29687 0,-7.36716 2.17545,-13.13278 6.52637,-17.29688 4.37759,-4.16402 10.43683,-6.24605 18.17773,-6.24609"
         inkscape:connector-curvature="0" /><path
         id="path3076"
         style="font-size:82px;font-weight:bold;fill:#ffffff;fill-opacity:1;stroke:#b64138;stroke-opacity:1;-inkscape-font-specification:Sans Bold"
         d="m 371.1713,244.52249 c -2.98961,2e-5 -5.24514,0.50718 -6.7666,1.52149 -1.49481,1.01434 -2.24221,2.50913 -2.24219,4.48437 -2e-5,1.81512 0.60057,3.24318 1.80176,4.28418 1.22784,1.01433 2.92283,1.5215 5.08496,1.52149 2.69594,10e-6 4.96482,-0.96093 6.80664,-2.88282 1.84177,-1.94855 2.76266,-4.37758 2.7627,-7.2871 l 0,-1.64161 -7.44727,0 m 21.90137,-5.40527 0,25.58496 -14.4541,0 0,-6.64648 c -1.92191,2.72266 -4.08402,4.71126 -6.48633,5.96582 -2.40237,1.22786 -5.32522,1.84179 -8.76856,1.84179 -4.64454,0 -8.42156,-1.34798 -11.33105,-4.04394 -2.88282,-2.72265 -4.32422,-6.24609 -4.32422,-10.57031 0,-5.25845 1.80175,-9.11554 5.40527,-11.57129 3.6302,-2.4557 9.31574,-3.68357 17.05665,-3.6836 l 8.44824,0 0,-1.12109 c -4e-5,-2.26885 -0.89424,-3.92379 -2.68262,-4.96484 -1.78844,-1.06768 -4.57783,-1.60153 -8.36816,-1.60157 -3.06969,4e-5 -5.9258,0.30701 -8.56836,0.9209 -2.64259,0.61397 -5.09832,1.53487 -7.36719,2.7627 l 0,-10.93067 c 3.06965,-0.74735 6.15266,-1.30789 9.24902,-1.68164 3.09634,-0.40034 6.19269,-0.60054 9.28907,-0.60058 8.08785,4e-5 13.9202,1.6016 17.49707,4.80468 3.60346,3.17647 5.40522,8.35485 5.40527,15.53516"
         inkscape:connector-curvature="0" /><path
         id="path3078"
         style="font-size:82px;font-weight:bold;fill:#ffffff;fill-opacity:1;stroke:#b64138;stroke-opacity:1;-inkscape-font-specification:Sans Bold"
         d="m 442.72111,221.2598 0,11.6914 c -1.94861,-1.3346 -3.91052,-2.32223 -5.88575,-2.96289 -1.9486,-0.64059 -3.97724,-0.9609 -6.08593,-0.96093 -4.00394,3e-5 -7.12698,1.17451 -9.36914,3.52343 -2.21552,2.3223 -3.32326,5.57881 -3.32325,9.76954 -10e-6,4.19077 1.10773,7.46062 3.32325,9.80957 2.24216,2.32227 5.3652,3.4834 9.36914,3.48339 2.24215,10e-6 4.36422,-0.33365 6.36621,-1.00097 2.0286,-0.66731 3.89709,-1.65494 5.60547,-2.96289 l 0,11.73144 c -2.24223,0.82748 -4.52446,1.44141 -6.84668,1.8418 -2.29561,0.42708 -4.60453,0.64062 -6.92676,0.64062 -8.08791,0 -14.41408,-2.06868 -18.97852,-6.20605 -4.56446,-4.16405 -6.84668,-9.94302 -6.84668,-17.33691 0,-7.39386 2.28222,-13.15947 6.84668,-17.29688 4.56444,-4.16402 10.89061,-6.24605 18.97852,-6.24609 2.34893,4e-5 4.65784,0.21358 6.92676,0.64062 2.29553,0.40044 4.57776,1.01437 6.84668,1.8418"
         inkscape:connector-curvature="0" /><path
         id="path3080"
         style="font-size:82px;font-weight:bold;fill:#ffffff;fill-opacity:1;stroke:#b64138;stroke-opacity:1;-inkscape-font-specification:Sans Bold"
         d="m 500.25724,237.39554 0,27.30664 -14.41406,0 0,-4.44433 0,-16.37598 c -4e-5,-3.9238 -0.0935,-6.61977 -0.28028,-8.08789 -0.16019,-1.46807 -0.45381,-2.54912 -0.88086,-3.24317 -0.56058,-0.93421 -1.32132,-1.65491 -2.28222,-2.16211 -0.96097,-0.53381 -2.05537,-0.80074 -3.28321,-0.80078 -2.98961,4e-5 -5.33856,1.16117 -7.04687,3.4834 -1.70836,2.2956 -2.56252,5.48538 -2.5625,9.56934 l 0,22.06152 -14.33399,0 0,-62.30078 14.33399,0 0,24.02344 c 2.16209,-2.61585 4.45766,-4.53772 6.88672,-5.76563 2.429,-1.25451 5.11162,-1.88179 8.04785,-1.88183 5.17834,4e-5 9.10217,1.58826 11.77148,4.76464 2.69592,3.17648 4.0439,7.79431 4.04395,13.85352"
         inkscape:connector-curvature="0" /><path
         id="path3082"
         style="font-size:82px;font-weight:bold;fill:#ffffff;fill-opacity:1;stroke:#b64138;stroke-opacity:1;-inkscape-font-specification:Sans Bold"
         d="m 513.63029,219.85843 14.33398,0 0,44.84375 -14.33398,0 0,-44.84375 m 0,-17.45703 14.33398,0 0,11.69141 -14.33398,0 0,-11.69141"
         inkscape:connector-curvature="0" /><path
         id="path3084"
         style="font-size:82px;font-weight:bold;fill:#ffffff;fill-opacity:1;stroke:#b64138;stroke-opacity:1;-inkscape-font-specification:Sans Bold"
         d="m 586.90177,237.39554 0,27.30664 -14.41406,0 0,-4.44433 0,-16.45606 c -4e-5,-3.87042 -0.0935,-6.53969 -0.28028,-8.00781 -0.16019,-1.46807 -0.45381,-2.54912 -0.88085,-3.24317 -0.56059,-0.93421 -1.32133,-1.65491 -2.28223,-2.16211 -0.96097,-0.53381 -2.05537,-0.80074 -3.2832,-0.80078 -2.98962,4e-5 -5.33857,1.16117 -7.04688,3.4834 -1.70835,2.2956 -2.56252,5.48538 -2.5625,9.56934 l 0,22.06152 -14.33398,0 0,-44.84375 14.33398,0 0,6.56641 c 2.16209,-2.61585 4.45766,-4.53772 6.88672,-5.76563 2.42901,-1.25451 5.11162,-1.88179 8.04785,-1.88183 5.17835,4e-5 9.10217,1.58826 11.77149,4.76464 2.69591,3.17648 4.04389,7.79431 4.04394,13.85352"
         inkscape:connector-curvature="0" /><path
         id="path3086"
         style="font-size:82px;font-weight:bold;fill:#ffffff;fill-opacity:1;stroke:#b64138;stroke-opacity:1;-inkscape-font-specification:Sans Bold"
         d="m 630.78458,257.09476 c -1.97529,2.61589 -4.15075,4.53776 -6.52636,5.76562 -2.37568,1.22787 -5.12503,1.8418 -8.24805,1.8418 -5.47202,0 -9.99643,-2.14876 -13.57324,-6.44629 -3.57683,-4.32421 -5.36524,-9.8229 -5.36524,-16.49609 0,-6.69984 1.78841,-12.18519 5.36524,-16.45606 3.57681,-4.29748 8.10122,-6.44624 13.57324,-6.44629 3.12302,5e-5 5.87237,0.61398 8.24805,1.8418 2.37561,1.22791 4.55107,3.16313 6.52636,5.80567 l 0,-6.64649 14.41407,0 0,40.31934 c -6e-5,7.20703 -2.28228,12.70572 -6.84668,16.49609 -4.5378,3.81704 -11.1309,5.72557 -19.7793,5.72559 -2.80276,-2e-5 -5.51206,-0.21356 -8.12793,-0.64063 -2.6159,-0.4271 -5.24513,-1.08107 -7.8877,-1.96191 l 0,-11.1709 c 2.50911,1.4414 4.96483,2.50911 7.36719,3.20312 2.40233,0.7207 4.81801,1.08105 7.24707,1.08106 4.69789,-10e-6 8.14125,-1.02768 10.33008,-3.08301 2.18877,-2.05534 3.28317,-5.27181 3.2832,-9.64941 l 0,-3.08301 m -9.44922,-27.90723 c -2.96291,4e-5 -5.27183,1.09444 -6.92675,3.28321 -1.65497,2.18883 -2.48244,5.28518 -2.48243,9.28906 -1e-5,4.11069 0.80077,7.23374 2.40235,9.36914 1.60154,2.10873 3.93715,3.1631 7.00683,3.16308 2.98956,2e-5 5.31182,-1.09438 6.9668,-3.2832 1.65491,-2.18878 2.48239,-5.27179 2.48242,-9.24902 -3e-5,-4.00388 -0.82751,-7.10023 -2.48242,-9.28906 -1.65498,-2.18877 -3.97724,-3.28317 -6.9668,-3.28321"
         inkscape:connector-curvature="0" /><g
         transform="matrix(1.25,0,0,-1.25,-673.77605,348.96234)"
         id="g10"
         style="display:inline"><g
           id="g3063"
           style="display:inline"><g
             transform="matrix(1.0030727,0,0,1.0030727,172.32896,65.375725)"
             id="g32"><g
               clip-path="url(#clipPath36-2)"
               id="g34"
               style="fill:#ffffff"><g
                 transform="translate(127.2559,120.1475)"
                 id="g40"
                 style="fill:#ffffff"><path
                   inkscape:connector-curvature="0"
                   d="M 0,0 5.812,0 C 16.711,0 22.16,5.69 22.16,17.072 22.16,28.454 16.711,34.146 5.812,34.146 L 0,34.146 0,0 z m -28.771,-55.874 0,99.175 42.648,0 c 11.091,0 19.955,-2.338 26.592,-7.012 6.635,-4.674 9.953,-10.935 9.953,-18.78 0,-12.013 -7.119,-19.836 -21.361,-23.468 7.313,-2.713 12.048,-5.692 14.205,-8.937 2.154,-3.245 3.62,-9.543 4.394,-18.889 0.92,-11.142 2.785,-18.505 5.596,-22.089 l -31.242,0 c -1.987,4.601 -2.979,10.341 -2.979,17.22 l -0.144,5.884 -0.146,7.412 c 0,11.431 -4.602,17.145 -13.806,17.145 l -4.939,0 0,-47.661 -28.771,0 z"
                   id="path42"
                   style="fill:#ffffff;fill-opacity:1;fill-rule:nonzero;stroke:none" /></g><g
                 transform="translate(127.2559,120.1475)"
                 id="g44"
                 style="fill:#ffffff"><path
                   inkscape:connector-curvature="0"
                   d="M 0,0 5.812,0 C 16.711,0 22.16,5.69 22.16,17.072 22.16,28.454 16.711,34.146 5.812,34.146 L 0,34.146 0,0 z m -28.771,-55.874 0,99.175 42.648,0 c 11.091,0 19.955,-2.338 26.592,-7.012 6.635,-4.674 9.953,-10.935 9.953,-18.78 0,-12.013 -7.119,-19.836 -21.361,-23.468 7.313,-2.713 12.048,-5.692 14.205,-8.937 2.154,-3.245 3.62,-9.543 4.394,-18.889 0.92,-11.142 2.785,-18.505 5.596,-22.089 l -31.242,0 c -1.987,4.601 -2.979,10.341 -2.979,17.22 l -0.144,5.884 -0.146,7.412 c 0,11.431 -4.602,17.145 -13.806,17.145 l -4.939,0 0,-47.661 -28.771,0 z"
                   id="path46"
                   style="fill:#ffffff;stroke:#b64138;stroke-width:1;stroke-linecap:butt;stroke-linejoin:miter;stroke-miterlimit:4;stroke-opacity:1;stroke-dasharray:none" /></g><g
                 transform="translate(255.1982,163.4482)"
                 id="g48"
                 style="fill:#ffffff"><path
                   inkscape:connector-curvature="0"
                   d="m 0,0 0,-9.954 -24.338,0 0,-89.221 -30.514,0 0,89.221 -24.485,0 0,9.954 L 0,0 z"
                   id="path50"
                   style="fill:#ffffff;fill-opacity:1;fill-rule:nonzero;stroke:none" /></g><g
                 transform="translate(255.1982,163.4482)"
                 id="g52"
                 style="fill:#ffffff"><path
                   inkscape:connector-curvature="0"
                   d="m 0,0 0,-9.954 -24.338,0 0,-89.221 -30.514,0 0,89.221 -24.485,0 0,9.954 L 0,0 z"
                   id="path54"
                   style="fill:#ffffff;stroke:#b64138;stroke-width:1;stroke-linecap:butt;stroke-linejoin:miter;stroke-miterlimit:4;stroke-opacity:1;stroke-dasharray:none" /></g><g
                 transform="translate(389.583,231)"
                 id="g56"
                 style="fill:#ffffff"><path
                   inkscape:connector-curvature="0"
                   d="m 0,0 -74.08,-109.982 31.603,-56.745 -31.968,0 -19.035,34.876 -21.141,-34.876 -12.934,0 27.971,45.336 -29.932,53.839 31.895,0 17.728,-32.332 L -28.375,-9.97 0,0 z"
                   id="path58"
                   style="fill:#ffffff;fill-opacity:1;fill-rule:nonzero;stroke:none" /></g><g
                 transform="translate(389.583,231)"
                 id="g60"
                 style="fill:#ffffff"><path
                   inkscape:connector-curvature="0"
                   d="m 0,0 -74.08,-109.982 31.603,-56.745 -31.968,0 -19.035,34.876 -21.141,-34.876 -12.934,0 27.971,45.336 -29.932,53.839 31.895,0 17.728,-32.332 L -28.375,-9.97 0,0 z"
                   id="path62"
                   style="fill:#ffffff;stroke:#b64138;stroke-width:1;stroke-linecap:butt;stroke-linejoin:miter;stroke-miterlimit:4;stroke-opacity:1;stroke-dasharray:none" /></g><path
                 inkscape:connector-curvature="0"
                 d="m 381.353,64.273 -28.771,0 0,99.175 28.771,0 0,-99.175 z"
                 id="path64"
                 style="fill:#ffffff;fill-opacity:1;fill-rule:nonzero;stroke:#b64138;stroke-width:1;stroke-linecap:butt;stroke-linejoin:miter;stroke-miterlimit:4;stroke-opacity:1;stroke-dasharray:none" /></g></g><g
             id="layer1"
             style="display:inline" /><g
             transform="matrix(0.79293715,0,0,-0.8891124,259.49916,345.6022)"
             id="flowRoot3053"
             style="font-size:140px;font-style:italic;font-variant:normal;font-weight:bold;font-stretch:normal;line-height:125%;letter-spacing:0px;word-spacing:0px;fill:#ffcc00;fill-opacity:1;stroke:none;font-family:Cantarell;-inkscape-font-specification:Cantarell Bold Italic"><path
               inkscape:connector-curvature="0"
               d="m 33.8875,281.06386 c 8.819991,-3.5 17.36001,-7.42 27.16,-7.42 12.319988,0 15.959998,4.90001 14.42,12.74 -2.519997,12.31999 -20.580017,26.32001 -37.52,41.02 -8.679991,7.55999 -15.680006,12.6 -21.84,17.5 l -2.1,10.78 66.78,0 3.08,-15.12 -39.06,0 c 21.979978,-18.75998 44.240004,-36.12002 48.16,-55.3 3.079997,-15.81998 -5.180023,-28 -28.56,-28 -13.159987,0 -25.200007,5.32 -32.62,8.82 l 2.1,14.98"
               id="path3104"
               style="fill:#ffcc00;font-family:Cantarell;-inkscape-font-specification:Cantarell Bold Italic" /><path
               inkscape:connector-curvature="0"
               d="m 156.82937,273.36386 c 10.21999,0 23.66,7.42002 18.48,33.04 -5.31999,27.01997 -21.98001,34.72 -32.05999,34.72 -10.21999,0 -23.8,-7.70003 -18.34001,-35.14 5.04,-25.19998 21.84002,-32.62 31.92,-32.62 m 3.22,-16.1 c -17.91998,0 -44.8,11.06004 -52.36,48.72 -7.839987,39.33996 14.14002,51.1 32.34001,51.1 18.05998,0 44.66,-11.48004 52.63999,-50.96 7.56,-37.79996 -14.56001,-48.86 -32.62,-48.86"
               id="path3106"
               style="fill:#ffcc00;font-family:Cantarell;-inkscape-font-specification:Cantarell Bold Italic" /><path
               inkscape:connector-curvature="0"
               d="m 247.15125,258.52386 -28.84,11.9 2.66,13.44 22.68,-8.54 -13.16,65.94 -24.5,0 -2.94,14.42 64.4,0 2.94,-14.42 -22.68,0 16.52,-82.74 -17.08,0"
               id="path3108"
               style="fill:#ffcc00;font-family:Cantarell;-inkscape-font-specification:Cantarell Bold Italic" /><path
               inkscape:connector-curvature="0"
               d="m 313.53312,258.52386 -10.5,52.22 c 13.99999,-1.68 21.28001,-2.1 25.90001,-2.1 19.31998,0 21.83999,9.38001 20.57999,15.68 -1.39999,6.57999 -6.30002,16.66 -27.3,16.66 -8.67999,0 -15.96,-1.96 -24.36,-4.76 l -7.56,15.4 c 10.07999,3.64 17.78002,5.46 28.14001,5.46 34.85996,0 46.2,-20.30001 48.44,-31.5 2.93999,-14.83999 -1.40003,-32.62 -30.80001,-32.62 -4.61999,0 -9.24,0.28 -12.74,0.56 l 3.78001,-19.18 43.26,0 3.21999,-15.82 -60.06,0"
               id="path3110"
               style="fill:#ffcc00;font-family:Cantarell;-inkscape-font-specification:Cantarell Bold Italic" /></g></g></g></g></g></svg>