<?xml version="1.0" encoding="UTF-8" standalone="no"?>
<!-- Created with Inkscape (http://www.inkscape.org/) -->

<svg
   xmlns:dc="http://purl.org/dc/elements/1.1/"
   xmlns:cc="http://creativecommons.org/ns#"
   xmlns:rdf="http://www.w3.org/1999/02/22-rdf-syntax-ns#"
   xmlns:svg="http://www.w3.org/2000/svg"
   xmlns="http://www.w3.org/2000/svg"
   version="1.1"
   width="356.79788"
   height="68.210251"
   id="svg2"
   xml:space="preserve"><metadata
     id="metadata8"><rdf:RDF><cc:Work
         rdf:about=""><dc:format>image/svg+xml</dc:format><dc:type
           rdf:resource="http://purl.org/dc/dcmitype/StillImage" /><dc:title></dc:title></cc:Work></rdf:RDF></metadata><defs
     id="defs6"><clipPath
       id="clipPath30"><path
         d="m 0,70.157 347.15,0 L 347.15,0 0,0 0,70.157 z"
         id="path32" /></clipPath></defs><g
     transform="matrix(1.25,0,0,-1.25,-5.084375,83.604)"
     id="g10"><g
       id="g3117"><g
         transform="translate(117.4639,36.5645)"
         id="g12"><path
           d="M 0,0 5.28,-19.805 0,-19.805 0,0 z"
           id="path14"
           style="fill:none;stroke:#927946;stroke-width:0.80000001;stroke-linecap:butt;stroke-linejoin:miter;stroke-miterlimit:4;stroke-opacity:1;stroke-dasharray:none" /></g><g
         transform="translate(128.0254,36.5645)"
         id="g16"><path
           d="M 0,0 -5.281,-19.805 0,-19.805 0,0 z"
           id="path18"
           style="fill:none;stroke:#927946;stroke-width:0.80000001;stroke-linecap:butt;stroke-linejoin:miter;stroke-miterlimit:4;stroke-opacity:1;stroke-dasharray:none" /></g><g
         transform="translate(125.3848,26.8672)"
         id="g20"><path
           d="M 0,0 -2.641,39.616 -5.281,0"
           id="path22"
           style="fill:none;stroke:#927946;stroke-width:0.80000001;stroke-linecap:butt;stroke-linejoin:miter;stroke-miterlimit:4;stroke-opacity:1;stroke-dasharray:none" /></g><path
         d="m 128.025,12.715 -10.562,0 0,2.018 10.562,0 0,-2.018 z"
         id="path24"
         style="fill:none;stroke:#927946;stroke-width:0.80000001;stroke-linecap:butt;stroke-linejoin:miter;stroke-miterlimit:4;stroke-opacity:1;stroke-dasharray:none" /><g
         id="g26"><g
           clip-path="url(#clipPath30)"
           id="g28"><g
             transform="translate(24.6465,40.6631)"
             id="g34"><path
               d="m 0,0 -3.6,0 -0.33,1.873 c -1.47,-1.656 -3.989,-2.232 -5.969,-2.232 -6.48,0 -10.68,3.962 -10.68,8.927 0,4.968 4.2,8.929 10.68,8.929 4.439,0 9.179,-1.896 9.689,-6.193 l -5.58,0 c -0.18,1.464 -1.98,2.352 -4.23,2.352 -3.6,0 -4.98,-2.544 -4.98,-5.088 0,-2.544 1.38,-5.087 4.98,-5.087 2.76,0 4.62,1.034 4.92,2.591 l -3.9,0 0,3.312 9,0 L 0,0 z"
               id="path36"
               style="fill:#231f20;fill-opacity:1;fill-rule:nonzero;stroke:none" /></g><g
             transform="translate(37.1816,48.1748)"
             id="g38"><path
               d="m 0,0 c -0.09,1.393 -1.32,2.544 -3.03,2.544 -1.8,0 -3,-1.032 -3.3,-2.544 L 0,0 z m -6.33,-2.28 c 0.09,-1.701 1.32,-2.831 3.48,-2.831 1.23,0 2.43,0.457 2.91,1.371 l 4.77,0 C 3.9,-6.623 0.57,-7.871 -2.91,-7.871 c -5.069,0 -8.519,2.449 -8.519,6.623 0,3.816 3.809,6.553 8.399,6.553 5.58,0 8.37,-3.361 8.13,-7.585 l -11.43,0 z"
               id="path40"
               style="fill:#231f20;fill-opacity:1;fill-rule:nonzero;stroke:none" /></g><g
             transform="translate(51.2671,43.4248)"
             id="g42"><path
               d="M 0,0 C 2.37,0 3.12,1.872 3.12,3.454 3.12,5.038 2.37,6.935 0,6.935 -2.37,6.935 -3.09,5.038 -3.09,3.454 -3.09,1.872 -2.37,0 0,0 m 0,10.055 c 4.83,0 8.22,-2.857 8.22,-6.601 0,-3.743 -3.39,-6.575 -8.22,-6.575 -4.83,0 -8.189,2.832 -8.189,6.575 0,3.744 3.359,6.601 8.189,6.601"
               id="path44"
               style="fill:#231f20;fill-opacity:1;fill-rule:nonzero;stroke:none" /></g><g
             transform="translate(60.3325,53.1191)"
             id="g46"><path
               d="m 0,0 4.95,0 0,-2.184 0.06,0 C 5.76,-0.6 7.5,0.24 9.69,0.24 c 0.39,0 0.81,-0.024 1.2,-0.095 l 0,-3.721 c -0.661,0.144 -1.26,0.24 -1.95,0.24 -2.52,0 -3.84,-1.393 -3.84,-2.952 l 0,-6.168 -5.1,0 L 0,0 z"
               id="path48"
               style="fill:#231f20;fill-opacity:1;fill-rule:nonzero;stroke:none" /></g><g
             transform="translate(79.5957,50.3594)"
             id="g50"><path
               d="m 0,0 c -2.25,0 -2.97,-1.584 -2.97,-3.121 0,-1.462 0.84,-2.926 2.94,-2.926 2.16,0 3.09,1.344 3.09,2.902 C 3.06,-1.561 2.28,0 0,0 m 7.89,-8.183 c 0,-2.041 -0.48,-5.88 -7.77,-5.88 -3.63,0 -7.05,0.649 -7.65,3.984 l 5.1,0 c 0.12,-0.553 0.39,-0.889 0.87,-1.08 0.45,-0.192 1.08,-0.264 1.86,-0.264 2.43,0 2.67,1.367 2.67,2.904 l 0,1.176 -0.06,0 c -0.93,-1.152 -2.49,-1.824 -4.14,-1.824 -4.709,0 -6.839,2.688 -6.839,6.19 0,3.313 2.429,6.097 6.839,6.097 1.86,0 3.27,-0.648 4.17,-1.92 l 0.06,0 0,1.56 4.89,0 0,-10.943 z"
               id="path52"
               style="fill:#231f20;fill-opacity:1;fill-rule:nonzero;stroke:none" /></g><path
             d="m 94.531,54.68 -5.1,0 0,3.12 5.1,0 0,-3.12 z m -5.1,-1.561 5.1,0 0,-12.456 -5.1,0 0,12.456 z"
             id="path54"
             style="fill:#231f20;fill-opacity:1;fill-rule:nonzero;stroke:none" /><g
             transform="translate(102.6304,42.8252)"
             id="g56"><path
               d="M 0,0 C 2.43,0 3.24,1.104 3.12,3.671 2.4,3.31 1.08,3.238 -0.03,2.999 -1.17,2.783 -2.13,2.399 -2.13,1.417 -2.13,0.406 -1.14,0 0,0 m -6.6,6.454 c 0.09,1.632 1.05,2.688 2.43,3.336 1.38,0.625 3.18,0.864 4.95,0.864 3.69,0 7.26,-0.648 7.26,-4.176 l 0,-5.446 c 0,-1.057 0,-2.21 0.6,-3.194 l -5.13,0 C 3.33,-1.777 3.27,-1.393 3.209,-0.984 1.89,-2.09 -0.06,-2.521 -1.92,-2.521 c -2.97,0 -5.31,1.201 -5.31,3.77 0,4.053 5.52,3.741 9.06,4.316 0.87,0.145 1.35,0.385 1.35,1.153 0,0.936 -1.41,1.296 -2.46,1.296 -1.41,0 -2.31,-0.504 -2.55,-1.56 l -4.77,0 z"
               id="path58"
               style="fill:#231f20;fill-opacity:1;fill-rule:nonzero;stroke:none" /></g><g
             transform="translate(64.9463,33.7129)"
             id="g60"><path
               d="m 0,0 -6.39,0 0,-13.299 -5.58,0 0,13.299 -6.389,0 0,3.84 L 0,3.84 0,0 z"
               id="path62"
               style="fill:#231f20;fill-opacity:1;fill-rule:nonzero;stroke:none" /></g><g
             transform="translate(71.875,27.9277)"
             id="g64"><path
               d="m 0,0 c -0.09,1.393 -1.32,2.545 -3.03,2.545 -1.8,0 -3,-1.033 -3.3,-2.545 L 0,0 z m -6.33,-2.281 c 0.09,-1.703 1.32,-2.832 3.48,-2.832 1.23,0 2.43,0.457 2.91,1.369 l 4.77,0 C 3.9,-6.625 0.57,-7.873 -2.91,-7.873 c -5.069,0 -8.52,2.449 -8.52,6.625 0,3.816 3.81,6.553 8.4,6.553 5.58,0 8.37,-3.362 8.13,-7.586 l -11.43,0 z"
               id="path66"
               style="fill:#231f20;fill-opacity:1;fill-rule:nonzero;stroke:none" /></g><g
             transform="translate(88.9951,28.3125)"
             id="g68"><path
               d="m 0,0 c -0.03,1.055 -1.2,1.799 -2.49,1.799 -2.85,0 -3.3,-1.944 -3.3,-3.672 0,-1.607 0.871,-3.264 3.03,-3.264 1.77,0 2.67,0.817 2.91,2.135 l 4.95,0 c -0.45,-3.336 -3.69,-5.256 -7.83,-5.256 -4.68,0 -8.16,2.569 -8.16,6.385 0,3.961 3.15,6.793 8.16,6.793 C 1.14,4.92 4.59,3.287 4.95,0 L 0,0 z"
               id="path70"
               style="fill:#231f20;fill-opacity:1;fill-rule:nonzero;stroke:none" /></g><g
             transform="translate(95.1387,37.5527)"
             id="g72"><path
               d="m 0,0 5.1,0 0,-6.385 0.06,0 c 0.78,1.272 2.88,2.065 4.74,2.065 5.189,0 5.609,-3.026 5.609,-4.825 l 0,-7.994 -5.099,0 0,6.026 c 0,1.703 0.24,3.431 -2.55,3.431 -1.92,0 -2.76,-1.295 -2.76,-2.664 l 0,-6.793 -5.1,0 L 0,0 z"
               id="path74"
               style="fill:#231f20;fill-opacity:1;fill-rule:nonzero;stroke:none" /></g><g
             transform="translate(130.9028,13.9277)"
             id="g76"><path
               d="m 0,0 c 0.231,0 0.556,0.037 0.556,0.381 0,0.316 -0.241,0.383 -0.496,0.383 l -0.476,0 L -0.416,0 0,0 z m -0.496,0.844 0.564,0 c 0.388,0 0.567,-0.172 0.567,-0.463 0,-0.293 -0.207,-0.428 -0.448,-0.447 l 0.528,-0.809 -0.1,0 L 0.1,-0.076 C 0.06,-0.08 0.02,-0.08 -0.024,-0.08 l -0.392,0 0,-0.795 -0.08,0 0,1.719 z m 0.504,-2.246 c 0.784,0 1.415,0.631 1.415,1.414 0,0.785 -0.631,1.416 -1.415,1.416 -0.784,0 -1.415,-0.631 -1.415,-1.416 0,-0.783 0.631,-1.414 1.415,-1.414 m 0,2.91 c 0.827,0 1.495,-0.668 1.495,-1.496 0,-0.826 -0.668,-1.494 -1.495,-1.494 -0.828,0 -1.495,0.668 -1.495,1.494 0,0.828 0.667,1.496 1.495,1.496"
               id="path78"
               style="fill:#231f20;fill-opacity:1;fill-rule:nonzero;stroke:none" /></g><g
             transform="translate(134.9292,55.6455)"
             id="g80"><path
               d="m 0,0 5.753,0 6.949,-9.385 0.042,0 0,9.385 4.83,0 0,-14.991 -5.522,0 -7.181,9.469 -0.042,0 0,-9.469 -4.829,0 L 0,0 z"
               id="path82"
               style="fill:#231f20;fill-opacity:1;fill-rule:nonzero;stroke:none" /></g><g
             transform="translate(164.8521,47.604)"
             id="g84"><path
               d="M 0,0 C -0.252,1.26 -1.196,2.331 -3.296,2.331 -5.396,2.331 -6.341,1.26 -6.593,0 L 0,0 z m 4.367,-3.57 c -0.546,-1.888 -2.708,-3.842 -7.558,-3.842 -5.123,0 -7.979,1.954 -7.979,6.173 0,4.031 3.128,6.131 7.853,6.131 4.871,0 7.894,-2.121 7.894,-6.866 l 0,-0.336 -11.17,0 c 0.231,-1.469 1.281,-2.54 3.57,-2.54 1.427,0 2.163,0.608 2.687,1.28 l 4.703,0 z"
               id="path86"
               style="fill:#231f20;fill-opacity:1;fill-rule:nonzero;stroke:none" /></g><g
             transform="translate(170.5239,52.0342)"
             id="g88"><path
               d="m 0,0 4.451,0 0,-5.879 c 0,-1.932 0.82,-2.603 2.31,-2.603 1.574,0 2.771,0.861 2.771,2.729 l 0,5.753 4.451,0 0,-11.38 -4.325,0 0,1.47 -0.042,0 C 8.714,-11.023 7.075,-11.842 4.829,-11.842 2.1,-11.842 0,-10.666 0,-7.244 L 0,0 z"
               id="path90"
               style="fill:#231f20;fill-opacity:1;fill-rule:nonzero;stroke:none" /></g><g
             transform="translate(186.4419,52.0342)"
             id="g92"><path
               d="m 0,0 4.388,0 0,-2.247 0.043,0 c 0.881,1.512 2.624,2.541 4.639,2.541 0.484,0 1.072,-0.042 1.512,-0.126 l 0,-4.157 c -0.567,0.21 -1.616,0.378 -2.456,0.378 -2.541,0 -3.675,-1.302 -3.675,-3.36 l 0,-4.409 L 0,-11.38 0,0 z"
               id="path94"
               style="fill:#231f20;fill-opacity:1;fill-rule:nonzero;stroke:none" /></g><g
             transform="translate(208.1118,45.9663)"
             id="g96"><path
               d="m 0,0 c -0.336,-0.105 -0.882,-0.21 -1.7,-0.315 l -3.003,-0.357 c -0.903,-0.105 -1.28,-0.461 -1.28,-1.155 0,-0.881 0.796,-1.385 1.994,-1.385 2.561,0 3.989,0.965 3.989,2.519 L 0,0 z m -10.036,2.499 c 0.42,3.38 3.633,3.863 7.117,3.863 4.137,0 7.244,-0.672 7.244,-3.863 l 0,-5.753 c 0,-0.966 0.106,-1.407 0.462,-2.058 l -4.451,0 c -0.148,0.336 -0.21,0.735 -0.232,1.05 -1.28,-1.218 -3.107,-1.512 -5.353,-1.512 -3.633,0 -5.564,1.176 -5.564,3.549 0,2.582 1.722,3.506 4.914,3.716 l 4.429,0.294 c 1.155,0.084 1.344,0.336 1.344,0.923 0,0.798 -0.861,1.218 -2.813,1.218 -1.638,0 -2.436,-0.462 -2.646,-1.427 l -4.451,0 z"
               id="path98"
               style="fill:#231f20;fill-opacity:1;fill-rule:nonzero;stroke:none" /></g><path
             d="m 214.33,56.023 4.451,0 0,-15.369 -4.451,0 0,15.369 z"
             id="path100"
             style="fill:#231f20;fill-opacity:1;fill-rule:nonzero;stroke:none" /><g
             transform="translate(134.9292,35.3955)"
             id="g102"><path
               d="m 0,0 15.012,0 0,-3.233 -10.015,0 0,-2.708 9.385,0 0,-3.108 -9.385,0 0,-2.709 10.015,0 0,-3.233 L 0,-14.991 0,0 z"
               id="path104"
               style="fill:#231f20;fill-opacity:1;fill-rule:nonzero;stroke:none" /></g><g
             transform="translate(151.9604,31.7842)"
             id="g106"><path
               d="m 0,0 4.325,0 0,-1.638 0.042,0 c 0.904,1.113 2.539,1.932 4.787,1.932 2.792,0 4.829,-1.344 4.829,-4.179 l 0,-7.495 -4.452,0 0,6.151 c 0,1.45 -0.817,2.164 -2.308,2.164 -1.576,0 -2.772,-0.861 -2.772,-2.73 l 0,-5.585 L 0,-11.38 0,0 z"
               id="path108"
               style="fill:#231f20;fill-opacity:1;fill-rule:nonzero;stroke:none" /></g><g
             transform="translate(175.1636,23.7217)"
             id="g110"><path
               d="M 0,0 C 2.52,0 3.316,1.218 3.316,2.666 3.316,4.262 2.288,5.417 0,5.417 -2.247,5.417 -3.275,4.199 -3.275,2.709 -3.275,1.197 -2.247,0 0,0 m 3.443,8.063 4.325,0 0,-10.352 c 0,-3.8 -2.121,-5.396 -7.58,-5.396 -4.493,0 -7.348,0.756 -7.81,3.906 l 4.913,0 c 0.21,-1.03 1.406,-1.344 2.709,-1.344 2.498,0 3.316,0.882 3.316,2.961 l 0,0.797 C 2.33,-2.373 0.482,-2.813 -1.238,-2.813 c -4.83,0 -6.741,2.477 -6.741,5.584 0,3.002 2.163,5.585 6.741,5.585 1.972,0 3.715,-0.503 4.638,-1.743 l 0.043,0 0,1.45 z"
               id="path112"
               style="fill:#231f20;fill-opacity:1;fill-rule:nonzero;stroke:none" /></g><path
             d="m 184.867,31.784 4.451,0 0,-11.38 -4.451,0 0,11.38 z m 0,3.989 4.451,0 0,-2.688 -4.451,0 0,2.688 z"
             id="path114"
             style="fill:#231f20;fill-opacity:1;fill-rule:nonzero;stroke:none" /><g
             transform="translate(191.2505,31.7842)"
             id="g116"><path
               d="m 0,0 4.325,0 0,-1.638 0.042,0 c 0.904,1.113 2.54,1.932 4.787,1.932 2.792,0 4.829,-1.344 4.829,-4.179 l 0,-7.495 -4.451,0 0,6.151 c 0,1.45 -0.818,2.164 -2.309,2.164 -1.576,0 -2.772,-0.861 -2.772,-2.73 l 0,-5.585 L 0,-11.38 0,0 z"
               id="path118"
               style="fill:#231f20;fill-opacity:1;fill-rule:nonzero;stroke:none" /></g><g
             transform="translate(217.4985,27.3545)"
             id="g120"><path
               d="M 0,0 C -0.252,1.26 -1.196,2.33 -3.296,2.33 -5.396,2.33 -6.341,1.26 -6.593,0 L 0,0 z m 4.367,-3.57 c -0.546,-1.889 -2.708,-3.842 -7.558,-3.842 -5.123,0 -7.979,1.953 -7.979,6.173 0,4.031 3.128,6.131 7.853,6.131 4.871,0 7.894,-2.121 7.894,-6.867 l 0,-0.336 -11.17,0 c 0.231,-1.468 1.281,-2.54 3.57,-2.54 1.427,0 2.163,0.609 2.687,1.281 l 4.703,0 z"
               id="path122"
               style="fill:#231f20;fill-opacity:1;fill-rule:nonzero;stroke:none" /></g><g
             transform="translate(234.3403,27.3545)"
             id="g124"><path
               d="M 0,0 C -0.252,1.26 -1.196,2.33 -3.296,2.33 -5.396,2.33 -6.341,1.26 -6.593,0 L 0,0 z m 4.367,-3.57 c -0.546,-1.889 -2.708,-3.842 -7.558,-3.842 -5.123,0 -7.979,1.953 -7.979,6.173 0,4.031 3.128,6.131 7.853,6.131 4.871,0 7.894,-2.121 7.894,-6.867 l 0,-0.336 -11.17,0 c 0.231,-1.468 1.281,-2.54 3.57,-2.54 1.427,0 2.163,0.609 2.687,1.281 l 4.703,0 z"
               id="path126"
               style="fill:#231f20;fill-opacity:1;fill-rule:nonzero;stroke:none" /></g><g
             transform="translate(240.0962,31.7842)"
             id="g128"><path
               d="m 0,0 4.388,0 0,-2.246 0.043,0 c 0.881,1.512 2.624,2.54 4.639,2.54 0.484,0 1.072,-0.042 1.512,-0.126 l 0,-4.157 c -0.567,0.21 -1.616,0.378 -2.456,0.378 -2.541,0 -3.675,-1.302 -3.675,-3.36 l 0,-4.409 L 0,-11.38 0,0 z"
               id="path130"
               style="fill:#231f20;fill-opacity:1;fill-rule:nonzero;stroke:none" /></g><path
             d="m 252.402,31.784 4.451,0 0,-11.38 -4.451,0 0,11.38 z m 0,3.989 4.451,0 0,-2.688 -4.451,0 0,2.688 z"
             id="path132"
             style="fill:#231f20;fill-opacity:1;fill-rule:nonzero;stroke:none" /><g
             transform="translate(258.7856,31.7842)"
             id="g134"><path
               d="m 0,0 4.325,0 0,-1.638 0.042,0 c 0.904,1.113 2.54,1.932 4.787,1.932 2.792,0 4.829,-1.344 4.829,-4.179 l 0,-7.495 -4.451,0 0,6.151 c 0,1.45 -0.818,2.164 -2.309,2.164 -1.576,0 -2.772,-0.861 -2.772,-2.73 l 0,-5.585 L 0,-11.38 0,0 z"
               id="path136"
               style="fill:#231f20;fill-opacity:1;fill-rule:nonzero;stroke:none" /></g><g
             transform="translate(281.7378,23.7217)"
             id="g138"><path
               d="M 0,0 C 2.52,0 3.316,1.218 3.316,2.666 3.316,4.262 2.288,5.417 0,5.417 -2.247,5.417 -3.275,4.199 -3.275,2.709 -3.275,1.197 -2.247,0 0,0 m 3.443,8.063 4.325,0 0,-10.352 c 0,-3.8 -2.121,-5.396 -7.58,-5.396 -4.493,0 -7.348,0.756 -7.81,3.906 l 4.913,0 c 0.21,-1.03 1.406,-1.344 2.709,-1.344 2.498,0 3.316,0.882 3.316,2.961 l 0,0.797 C 2.33,-2.373 0.482,-2.813 -1.239,-2.813 c -4.829,0 -6.74,2.477 -6.74,5.584 0,3.002 2.163,5.585 6.74,5.585 1.973,0 3.716,-0.503 4.639,-1.743 l 0.043,0 0,1.45 z"
               id="path140"
               style="fill:#231f20;fill-opacity:1;fill-rule:nonzero;stroke:none" /></g></g></g></g></g></svg>