<?xml version="1.0" encoding="UTF-8" standalone="no"?>
<!-- Created with Inkscape (http://www.inkscape.org/) -->

<svg
   xmlns:dc="http://purl.org/dc/elements/1.1/"
   xmlns:cc="http://creativecommons.org/ns#"
   xmlns:rdf="http://www.w3.org/1999/02/22-rdf-syntax-ns#"
   xmlns:svg="http://www.w3.org/2000/svg"
   xmlns="http://www.w3.org/2000/svg"
   xmlns:sodipodi="http://sodipodi.sourceforge.net/DTD/sodipodi-0.dtd"
   xmlns:inkscape="http://www.inkscape.org/namespaces/inkscape"
   version="1.2"
   width="440.02682"
   height="81.414291"
   id="svg2"
   xml:space="preserve"
   inkscape:version="0.91 r13725"
   sodipodi:docname="nih-logo-trans.svg"><sodipodi:namedview
     pagecolor="#ffffff"
     bordercolor="#666666"
     borderopacity="1"
     objecttolerance="10"
     gridtolerance="10"
     guidetolerance="10"
     inkscape:pageopacity="0"
     inkscape:pageshadow="2"
     inkscape:window-width="1920"
     inkscape:window-height="1057"
     id="namedview59"
     showgrid="false"
     inkscape:zoom="2.9180039"
     inkscape:cx="274.16002"
     inkscape:cy="68.123147"
     inkscape:window-x="0"
     inkscape:window-y="0"
     inkscape:window-maximized="1"
     inkscape:current-layer="flowRoot3049" /><metadata
     id="metadata8"><rdf:RDF><cc:Work
         rdf:about=""><dc:format>image/svg+xml</dc:format><dc:type
           rdf:resource="http://purl.org/dc/dcmitype/StillImage" /><dc:title /></cc:Work></rdf:RDF></metadata><defs
     id="defs6" /><g
     transform="matrix(1.2903084,0,0,1.2903084,0.06451542,0.02081869)"
     id="g3872"><rect
       width="340.91794"
       height="62.990173"
       rx="7.307488"
       ry="4.9712148"
       x="0.0032982226"
       y="0.037163563"
       id="rect3801"
       style="fill:#ffffff;fill-opacity:1;stroke:#000000;stroke-width:0.10659645;stroke-miterlimit:4;stroke-opacity:1;stroke-dasharray:none" /><g
       transform="translate(0,-0.00525)"
       id="g3216"><path
         d="M 87.417,31.4945 69.98875,0.00525 l -64.187475,0 C 2.5976625,0.00525 0,2.60775 0,5.810875 l 0,51.4234 c 0,3.2041 2.5976625,5.80176 5.801275,5.80176 l 64.12985,0 L 87.417,31.4945 z m -54.799375,14.187 -5.208875,0 -12.82675,-20.720125 -0.11575,0 0,20.720125 -4.698675,0 0,-28.178625 5.211925,0 12.86425,20.75775 0.07712,0 0,-20.75775 4.69675,0 0,28.178625 z m 9.793,0 -4.934,0 0,-28.178625 4.934,0 0,28.178625 z m 27.6245,-28.178625 0,28.178625 -4.932625,0 0,-12.709 -12.824125,0 0,12.709 -4.934125,0 0,-28.178625 4.934125,0 0,11.2085 12.824125,0 0,-11.2085 4.932625,0"
         id="path14"
         style="fill:#5c5e65;fill-opacity:1;fill-rule:nonzero;stroke:none" /><path
         d="M 74.30375,63.0375 91.7715,31.4945 74.360875,0.00525 l 4.357875,0 c 2.38675,0 5.287625,1.712375 6.4375,3.798875 L 100.46675,31.4945 85.1045,59.244525 c -1.15425,2.08545 -4.05275,3.792975 -6.439,3.792975 l -4.36175,0"
         id="path16"
         style="fill:#5c5e65;fill-opacity:1;fill-rule:nonzero;stroke:none" /><path
         d="M 74.30475,63.0375 91.7725,31.4945 74.359875,0.00525 l 4.360375,0 c 2.38375,0 5.286625,1.712375 6.4375,3.798875 L 100.46587,31.4945 85.1055,59.244525 c -1.15525,2.08545 -4.05525,3.792975 -6.439,3.792975 l -4.36175,0"
         id="path18"
         style="fill:#6ca3b9;fill-opacity:1;fill-rule:nonzero;stroke:none" /></g><flowRoot
       transform="matrix(0.77500852,0,0,0.77500852,-0.0625,-0.03125)"
       id="flowRoot3023"
       xml:space="preserve"
       style="font-size:32px;font-style:normal;font-weight:normal;line-height:125%;letter-spacing:0px;word-spacing:0px;fill:#000000;fill-opacity:1;stroke:none;font-family:Sans"><flowRegion
         id="flowRegion3025"><rect
           width="246.96765"
           height="63.475487"
           x="133.88527"
           y="10.507522"
           id="rect3027"
           style="font-size:32px" /></flowRegion><flowPara
         id="flowPara3029" /></flowRoot><flowRoot
       transform="matrix(0.77500852,0,0,0.77500852,-0.0625,-0.03125)"
       id="flowRoot3039"
       xml:space="preserve"
       style="font-size:28px;font-style:normal;font-weight:normal;line-height:125%;letter-spacing:0px;word-spacing:0px;fill:#000000;fill-opacity:1;stroke:none;font-family:Sans"><flowRegion
         id="flowRegion3041"><rect
           width="290.70709"
           height="88.278938"
           x="135.7522"
           y="4.6400399"
           id="rect3043" /></flowRegion><flowPara
         id="flowPara3045"
         style="font-size:22px" /></flowRoot><g
       transform="matrix(0.77500852,0,0,0.77500852,2.6245696,10.096935)"
       id="flowRoot3049"
       style="font-size:28px;font-style:normal;font-weight:normal;line-height:125%;letter-spacing:0px;word-spacing:0px;fill:#5c5e65;fill-opacity:1;stroke:none;font-family:Sans"><path
         d="m 137.57397,14.987724 c 0.45491,0.153979 0.89583,0.482917 1.32276,0.986817 0.43391,0.503912 0.86783,1.196782 1.30176,2.078613 l 2.1521,4.283203 -2.27808,0 -2.00513,-4.020752 c -0.51791,-1.0498 -1.02182,-1.746169 -1.51172,-2.089111 -0.48291,-0.34293 -1.14429,-0.514398 -1.98413,-0.514405 l -2.30957,0 0,6.624268 -2.1206,0 0,-15.673584 4.78711,0 c 1.79165,1.57e-5 3.1284,0.3744456 4.01025,1.123291 0.88182,0.7488745 1.32274,1.8791631 1.32275,3.390869 -1e-5,0.986827 -0.23096,1.805674 -0.69287,2.456543 -0.45492,0.650887 -1.1198,1.102303 -1.99463,1.354248 m -5.31201,-6.5822752 0,5.5639652 2.66651,0 c 1.0218,8e-6 1.79165,-0.234448 2.30957,-0.70337 0.52489,-0.475901 0.78734,-1.172271 0.78735,-2.089111 -10e-6,-0.916817 -0.26246,-1.6061883 -0.78735,-2.0681151 -0.51792,-0.4688991 -1.28777,-0.7033552 -2.30957,-0.7033691 l -2.66651,0"
         id="path3004"
         style="font-size:21.5px;fill:#5c5e65" /><path
         d="m 141.36377,6.662773 13.25903,0 0,1.7846679 -5.56396,0 0,13.8889161 -2.13111,0 0,-13.8889161 -5.56396,0 0,-1.7846679"
         id="path3006"
         style="font-size:21.5px;fill:#5c5e65" /><path
         d="m 155.92456,6.662773 2.27808,0 3.89477,5.826416 3.91577,-5.826416 2.27808,0 -5.03906,7.5271 5.375,8.146484 -2.27808,0 -4.40918,-6.66626 -4.44067,6.66626 -2.28858,0 5.59546,-8.366943 -4.88159,-7.306641"
         id="path3008"
         style="font-size:21.5px;fill:#5c5e65" /><path
         d="m 171.41968,6.662773 2.1206,0 0,15.673584 -2.1206,0 0,-15.673584"
         id="path3010"
         style="font-size:21.5px;fill:#5c5e65" /><path
         d="m 184.52124,10.578544 1.93164,0 0,11.757813 -1.93164,0 0,-11.757813 m 0,-4.577148 1.93164,0 0,2.4460449 -1.93164,0 0,-2.4460449"
         id="path3012"
         style="font-size:21.5px;fill:#5c5e65" /><path
         d="m 197.97974,10.92498 0,1.82666 c -0.54591,-0.279938 -1.11281,-0.489899 -1.70069,-0.629883 -0.5879,-0.139963 -1.19678,-0.20995 -1.82666,-0.209961 -0.95882,1.1e-5 -1.67969,0.146983 -2.1626,0.440918 -0.47591,0.293955 -0.71387,0.734873 -0.71386,1.322754 -1e-5,0.447925 0.17146,0.801359 0.5144,1.060303 0.34293,0.25196 1.03231,0.493415 2.06812,0.724365 l 0.66137,0.146973 c 1.37174,0.293952 2.34456,0.710374 2.91846,1.249267 0.58088,0.531906 0.87133,1.277267 0.87134,2.236084 -1e-5,1.0918 -0.43393,1.956138 -1.30176,2.593018 -0.86085,0.636882 -2.04712,0.955322 -3.55884,0.955322 -0.62988,0 -1.28776,-0.06299 -1.97363,-0.188965 -0.67888,-0.118977 -1.39624,-0.300943 -2.1521,-0.545898 l 0,-1.994629 c 0.71387,0.370933 1.41723,0.650881 2.11011,0.839844 0.69287,0.181967 1.37874,0.27295 2.05762,0.272949 0.90982,10e-7 1.60969,-0.15397 2.0996,-0.461914 0.48991,-0.314939 0.73486,-0.755857 0.73487,-1.322754 -1e-5,-0.524899 -0.17848,-0.927323 -0.5354,-1.207275 -0.34994,-0.279944 -1.1233,-0.549393 -2.32007,-0.80835 l -0.67188,-0.157471 c -1.19678,-0.251947 -2.06111,-0.636875 -2.59301,-1.154785 -0.53191,-0.524895 -0.79786,-1.242261 -0.79785,-2.152099 -1e-5,-1.105785 0.39192,-1.959625 1.17578,-2.561524 0.78385,-0.601876 1.89664,-0.90282 3.33838,-0.902832 0.71386,1.2e-5 1.38573,0.0525 2.01562,0.157471 0.62987,0.104992 1.21077,0.262463 1.74268,0.472412"
         id="path3014"
         style="font-size:21.5px;fill:#5c5e65" /><path
         d="m 214.49316,6.001396 0,1.6062012 -1.84765,0 c -0.69288,1.47e-5 -1.17579,0.1399885 -1.44873,0.4199219 -0.26596,0.2799619 -0.39893,0.7838677 -0.39893,1.5117187 l 0,1.0393062 3.18091,0 0,1.501221 -3.18091,0 0,10.256592 -1.94214,0 0,-10.256592 -1.84765,0 0,-1.501221 1.84765,0 0,-0.8188472 c 0,-1.3087426 0.30444,-2.2605646 0.91333,-2.8554687 0.60889,-0.601872 1.57471,-0.9028157 2.89746,-0.9028321 l 1.82666,0"
         id="path3016"
         style="font-size:21.5px;fill:#5c5e65" /><path
         d="m 215.8999,17.69622 0,-7.117676 1.93164,0 0,7.04419 c 0,1.112796 0.21696,1.94914 0.65088,2.509033 0.43392,0.552899 1.08479,0.829347 1.95264,0.829346 1.0428,10e-7 1.86514,-0.332437 2.46704,-0.997315 0.60888,-0.664873 0.91332,-1.571203 0.91333,-2.718994 l 0,-6.66626 1.93164,0 0,11.757813 -1.93164,0 0,-1.805664 c -0.46892,0.713868 -1.01482,1.245769 -1.6377,1.595703 -0.61589,0.342936 -1.33325,0.514404 -2.1521,0.514404 -1.35075,0 -2.37606,-0.419921 -3.07592,-1.259765 -0.69987,-0.839842 -1.04981,-2.068113 -1.04981,-3.684815 m 4.8606,-7.401123 0,0"
         id="path3018"
         style="font-size:21.5px;fill:#5c5e65" /><path
         d="m 239.52051,15.239677 0,7.09668 -1.93164,0 0,-7.033691 c -10e-6,-1.112785 -0.21697,-1.945629 -0.65088,-2.498536 -0.43393,-0.552887 -1.08481,-0.829335 -1.95264,-0.829345 -1.04281,10e-6 -1.86516,0.332448 -2.46704,0.997314 -0.60189,0.664885 -0.90284,1.571216 -0.90283,2.718994 l 0,6.645264 -1.94214,0 0,-11.757813 1.94214,0 0,1.826661 c 0.46191,-0.706858 1.00431,-1.235259 1.6272,-1.585205 0.62987,-0.349923 1.35424,-0.524891 2.17309,-0.524903 1.35074,1.2e-5 2.37255,0.419934 3.06543,1.259766 0.69286,0.832855 1.0393,2.061125 1.03931,3.684814"
         id="path3020"
         style="font-size:21.5px;fill:#5c5e65" /><path
         d="m 251.13135,12.363212 0,-6.361816 1.93164,0 0,16.334961 -1.93164,0 0,-1.763672 c -0.40594,0.699871 -0.92034,1.221273 -1.54322,1.564209 -0.61589,0.335937 -1.35775,0.503906 -2.22558,0.503906 -1.42074,0 -2.57902,-0.566894 -3.47485,-1.700683 -0.88884,-1.133787 -1.33326,-2.624508 -1.33326,-4.472168 0,-1.847649 0.44442,-3.33837 1.33326,-4.472168 0.89583,-1.133778 2.05411,-1.700672 3.47485,-1.700684 0.86783,1.2e-5 1.60969,0.17148 2.22558,0.514404 0.62288,0.335949 1.13728,0.853852 1.54322,1.553711 m -6.58228,4.104737 c 0,1.42074 0.29044,2.537031 0.87134,3.348877 0.58789,0.804852 1.39274,1.207276 2.41455,1.207275 1.0218,10e-7 1.82665,-0.402423 2.41455,-1.207275 0.58788,-0.811846 0.88183,-1.928137 0.88184,-3.348877 -1e-5,-1.420729 -0.29396,-2.53352 -0.88184,-3.338379 -0.5879,-0.811839 -1.39275,-1.217763 -2.41455,-1.217774 -1.02181,1.1e-5 -1.82666,0.405935 -2.41455,1.217774 -0.5809,0.804859 -0.87134,1.91765 -0.87134,3.338379"
         id="path3022"
         style="font-size:21.5px;fill:#5c5e65" /><path
         d="m 267.09888,15.974541 0,0.944824 -8.88135,0 c 0.084,1.329756 0.48291,2.344567 1.19678,3.044433 0.72086,0.692873 1.72167,1.039308 3.00244,1.039307 0.74185,10e-7 1.45922,-0.09098 2.1521,-0.272949 0.69986,-0.181965 1.39273,-0.454914 2.07861,-0.818848 l 0,1.82666 c -0.69288,0.293946 -1.40325,0.517904 -2.1311,0.671875 -0.72788,0.153971 -1.46624,0.230957 -2.21509,0.230957 -1.87566,0 -3.36288,-0.545898 -4.46167,-1.637695 -1.0918,-1.091794 -1.6377,-2.568518 -1.6377,-4.430176 0,-1.924634 0.51791,-3.450349 1.55372,-4.577148 1.0428,-1.133778 2.44603,-1.700672 4.20971,-1.700684 1.5817,1.2e-5 2.83097,0.510917 3.7478,1.532715 0.92382,1.014821 1.38573,2.397062 1.38575,4.146729 m -1.93164,-0.566895 c -0.014,-1.056795 -0.31146,-1.900138 -0.89234,-2.530029 -0.5739,-0.629873 -1.33676,-0.944814 -2.28857,-0.944824 -1.07781,10e-6 -1.94215,0.304453 -2.59302,0.91333 -0.64388,0.608895 -1.01481,1.466235 -1.11279,2.572021 l 6.88672,-0.0105"
         id="path3024"
         style="font-size:21.5px;fill:#5c5e65" /><path
         d="m 278.00635,12.363212 0,-6.361816 1.93164,0 0,16.334961 -1.93164,0 0,-1.763672 c -0.40594,0.699871 -0.92034,1.221273 -1.54322,1.564209 -0.61589,0.335937 -1.35775,0.503906 -2.22558,0.503906 -1.42074,0 -2.57902,-0.566894 -3.47485,-1.700683 -0.88884,-1.133787 -1.33326,-2.624508 -1.33326,-4.472168 0,-1.847649 0.44442,-3.33837 1.33326,-4.472168 0.89583,-1.133778 2.05411,-1.700672 3.47485,-1.700684 0.86783,1.2e-5 1.60969,0.17148 2.22558,0.514404 0.62288,0.335949 1.13728,0.853852 1.54322,1.553711 m -6.58228,4.104737 c 0,1.42074 0.29044,2.537031 0.87134,3.348877 0.58789,0.804852 1.39274,1.207276 2.41455,1.207275 1.0218,10e-7 1.82665,-0.402423 2.41455,-1.207275 0.58788,-0.811846 0.88183,-1.928137 0.88184,-3.348877 -10e-6,-1.420729 -0.29396,-2.53352 -0.88184,-3.338379 -0.5879,-0.811839 -1.39275,-1.217763 -2.41455,-1.217774 -1.02181,1.1e-5 -1.82666,0.405935 -2.41455,1.217774 -0.5809,0.804859 -0.87134,1.91765 -0.87134,3.338379"
         id="path3026"
         style="font-size:21.5px;fill:#5c5e65" /><path
         d="m 299.2019,16.467949 c -1e-5,-1.420729 -0.29395,-2.53352 -0.88183,-3.338379 -0.5809,-0.811839 -1.38225,-1.217763 -2.40405,-1.217774 -1.02182,1.1e-5 -1.82667,0.405935 -2.41456,1.217774 -0.58089,0.804859 -0.87134,1.91765 -0.87133,3.338379 -1e-5,1.42074 0.29044,2.537031 0.87133,3.348877 0.58789,0.804852 1.39274,1.207276 2.41456,1.207275 1.0218,10e-7 1.82315,-0.402423 2.40405,-1.207275 0.58788,-0.811846 0.88182,-1.928137 0.88183,-3.348877 m -6.57177,-4.104737 c 0.40592,-0.699859 0.91682,-1.217762 1.53271,-1.553711 0.62288,-0.342924 1.36474,-0.514392 2.22559,-0.514404 1.42772,1.2e-5 2.58601,0.566906 3.47485,1.700684 0.89582,1.133798 1.34374,2.624519 1.34375,4.472168 -10e-6,1.84766 -0.44793,3.338381 -1.34375,4.472168 -0.88884,1.133789 -2.04713,1.700683 -3.47485,1.700683 -0.86085,0 -1.60271,-0.167969 -2.22559,-0.503906 -0.61589,-0.342936 -1.12679,-0.864338 -1.53271,-1.564209 l 0,1.763672 -1.94214,0 0,-16.334961 1.94214,0 0,6.361816"
         id="path3028"
         style="font-size:21.5px;fill:#5c5e65" /><path
         d="m 309.30103,23.428154 c -0.54591,1.399737 -1.07781,2.313066 -1.59571,2.73999 -0.51791,0.426916 -1.21078,0.640376 -2.07861,0.640381 l -1.54321,0 0,-1.616699 1.13379,0 c 0.53189,-3e-6 0.94482,-0.12598 1.23876,-0.37793 0.29395,-0.251955 0.61938,-0.846844 0.97632,-1.784668 l 0.34644,-0.881836 -4.75562,-11.568848 2.04712,0 3.67432,9.19629 3.67432,-9.19629 2.04711,0 -5.16503,12.84961"
         id="path3030"
         style="font-size:21.5px;fill:#5c5e65" /><path
         d="m 324.06128,6.662773 2.85547,0 6.94971,13.112061 0,-13.112061 2.05761,0 0,15.673584 -2.85547,0 -6.9497,-13.1120606 0,13.1120606 -2.05762,0 0,-15.673584"
         id="path3032"
         style="font-size:21.5px;fill:#5c5e65" /><path
         d="m 340.14429,6.662773 2.1206,0 0,15.673584 -2.1206,0 0,-15.673584"
         id="path3034"
         style="font-size:21.5px;fill:#5c5e65" /><path
         d="m 346.48511,6.662773 2.1206,0 0,6.424805 7.70557,0 0,-6.424805 2.1206,0 0,15.673584 -2.1206,0 0,-7.464111 -7.70557,0 0,7.464111 -2.1206,0 0,-15.673584"
         id="path3036"
         style="font-size:21.5px;fill:#5c5e65" /><path
         d="m 377.1499,16.320976 c -10e-6,-1.399732 -0.29045,-2.484529 -0.87134,-3.254394 -0.5739,-0.769847 -1.38225,-1.154775 -2.42504,-1.154786 -1.03582,1.1e-5 -1.84417,0.384939 -2.42505,1.154786 -0.5739,0.769865 -0.86085,1.854662 -0.86084,3.254394 -1e-5,1.392746 0.28694,2.474043 0.86084,3.243897 0.58088,0.769858 1.38923,1.154786 2.42505,1.154785 1.04279,1e-6 1.85114,-0.384927 2.42504,-1.154785 0.58089,-0.769854 0.87133,-1.851151 0.87134,-3.243897 m 1.93164,4.556152 c -1e-5,2.001628 -0.44443,3.488849 -1.33325,4.46167 -0.88884,0.979814 -2.25009,1.469722 -4.08374,1.469727 -0.67888,-5e-6 -1.31926,-0.0525 -1.92114,-0.157471 -0.60189,-0.09799 -1.18628,-0.251957 -1.75318,-0.461914 l 0,-1.87915 c 0.5669,0.30794 1.12679,0.535398 1.67969,0.682373 0.55289,0.14697 1.11629,0.220456 1.69019,0.220459 1.26675,-3e-6 2.21508,-0.332441 2.84497,-0.997315 0.62987,-0.657878 0.94481,-1.655192 0.94482,-2.991943 l 0,-0.955322 c -0.39893,0.692872 -0.90984,1.210775 -1.53271,1.553711 -0.62289,0.342936 -1.36825,0.514404 -2.23609,0.514404 -1.44173,0 -2.60352,-0.549397 -3.48535,-1.648193 -0.88184,-1.098793 -1.32275,-2.554521 -1.32275,-4.367188 0,-1.819654 0.44091,-3.278881 1.32275,-4.377685 0.88183,-1.098785 2.04362,-1.648182 3.48535,-1.648194 0.86784,1.2e-5 1.6132,0.17148 2.23609,0.514404 0.62287,0.342948 1.13378,0.860851 1.53271,1.553711 l 0,-1.784668 1.93164,0 0,10.298584"
         id="path3038"
         style="font-size:21.5px;fill:#5c5e65" /><path
         d="m 389.87354,12.384209 c -0.21697,-0.125967 -0.45493,-0.21695 -0.71387,-0.27295 -0.25196,-0.06298 -0.53191,-0.09447 -0.83985,-0.09448 -1.0918,10e-6 -1.93164,0.356943 -2.51953,1.070801 -0.58089,0.706877 -0.87134,1.725186 -0.87133,3.054931 l 0,6.193848 -1.94214,0 0,-11.757813 1.94214,0 0,1.826661 c 0.40592,-0.713857 0.93432,-1.242258 1.5852,-1.585205 0.65087,-0.349923 1.44173,-0.524891 2.37256,-0.524903 0.13297,1.2e-5 0.27994,0.01051 0.44092,0.03149 0.16096,0.01401 0.33942,0.0385 0.5354,0.07349 l 0.0105,1.984131"
         id="path3040"
         style="font-size:21.5px;fill:#5c5e65" /><path
         d="m 397.26416,16.425957 c -1.56072,5e-6 -2.64201,0.178472 -3.2439,0.5354 -0.60189,0.356939 -0.90283,0.965825 -0.90283,1.82666 0,0.685875 0.22396,1.231773 0.67188,1.637695 0.45491,0.398928 1.07079,0.59839 1.84765,0.598389 1.0708,10e-7 1.92814,-0.377928 2.57202,-1.133789 0.65087,-0.762855 0.97631,-1.774166 0.97632,-3.033936 l 0,-0.430419 -1.92114,0 m 3.85278,-0.797852 0,6.708252 -1.93164,0 0,-1.784668 c -0.44092,0.713868 -0.99032,1.242269 -1.64819,1.585205 -0.65789,0.335937 -1.46273,0.503906 -2.41455,0.503906 -1.20378,0 -2.1626,-0.335937 -2.87647,-1.007812 -0.70687,-0.678872 -1.0603,-1.585203 -1.0603,-2.718994 0,-1.322749 0.44092,-2.320063 1.32275,-2.991944 0.88884,-0.671868 2.21159,-1.007805 3.96827,-1.007812 l 2.70849,0 0,-0.188965 c -10e-6,-0.888826 -0.29395,-1.574698 -0.88183,-2.057617 -0.5809,-0.489899 -1.39975,-0.734853 -2.45655,-0.734863 -0.67188,10e-6 -1.32625,0.08049 -1.96313,0.241455 -0.63689,0.16098 -1.24927,0.402434 -1.83716,0.724365 l 0,-1.784668 c 0.70687,-0.272938 1.39274,-0.4759 2.05762,-0.608887 0.66487,-0.139962 1.31225,-0.209949 1.94214,-0.209961 1.70067,1.2e-5 2.97093,0.44093 3.81079,1.322754 0.83983,0.881846 1.25975,2.218596 1.25976,4.010254"
         id="path3042"
         style="font-size:21.5px;fill:#5c5e65" /><path
         d="m 414.87988,15.239677 0,7.09668 -1.93164,0 0,-7.033691 c -10e-6,-1.112785 -0.21697,-1.945629 -0.65088,-2.498536 -0.43392,-0.552887 -1.0848,-0.829335 -1.95263,-0.829345 -1.04282,10e-6 -1.86516,0.332448 -2.46704,0.997314 -0.6019,0.664885 -0.90284,1.571216 -0.90284,2.718994 l 0,6.645264 -1.94214,0 0,-11.757813 1.94214,0 0,1.826661 c 0.46191,-0.706858 1.00431,-1.235259 1.6272,-1.585205 0.62988,-0.349923 1.35424,-0.524891 2.1731,-0.524903 1.35074,1.2e-5 2.37255,0.419934 3.06543,1.259766 0.69286,0.832855 1.03929,2.061125 1.0393,3.684814"
         id="path3044"
         style="font-size:21.5px;fill:#5c5e65" /><path
         d="m 420.66431,7.2401656 0,3.3383784 3.97876,0 0,1.501221 -3.97876,0 0,6.382813 c -10e-6,0.958824 0.12947,1.574709 0.38842,1.847656 0.26595,0.272951 0.80135,0.409425 1.60621,0.409424 l 1.98413,0 0,1.616699 -1.98413,0 c -1.49073,0 -2.51954,-0.276448 -3.08643,-0.829346 -0.5669,-0.559894 -0.85034,-1.574704 -0.85034,-3.044433 l 0,-6.382813 -1.41724,0 0,-1.501221 1.41724,0 0,-3.3383784 1.94214,0"
         id="path3046"
         style="font-size:21.5px;fill:#5c5e65" /><path
         d="m 132.15698,47.426689 7.40113,0 0,1.784668 -9.95215,0 0,-1.784668 c 0.80484,-0.832842 1.90014,-1.949134 3.28589,-3.348877 1.39273,-1.406732 2.26757,-2.313062 2.62451,-2.718994 0.67886,-0.76285 1.15127,-1.406729 1.41723,-1.931641 0.27294,-0.53189 0.40942,-1.053293 0.40943,-1.564209 -1e-5,-0.832833 -0.29396,-1.511706 -0.88184,-2.036621 -0.5809,-0.524888 -1.34026,-0.787339 -2.27807,-0.787353 -0.66489,1.4e-5 -1.36825,0.115492 -2.11011,0.346435 -0.73487,0.230971 -1.52222,0.580905 -2.36206,1.049805 l 0,-2.141602 c 0.85384,-0.342921 1.65169,-0.601872 2.39355,-0.776855 0.74186,-0.174952 1.42073,-0.262435 2.03662,-0.262451 1.62369,1.6e-5 2.91845,0.40594 3.88428,1.217773 0.96581,0.811863 1.44872,1.89666 1.44873,3.254395 -1e-5,0.643891 -0.12249,1.256276 -0.36743,1.837158 -0.23797,0.573902 -0.67539,1.252775 -1.31226,2.036621 -0.17497,0.20297 -0.73137,0.79086 -1.66919,1.763672 -0.93783,0.965825 -2.26058,2.320072 -3.96826,4.062744"
         id="path3048"
         style="font-size:21.5px;fill:#5c5e65" /><path
         d="m 151.26343,41.862724 c 0.4549,0.153979 0.89582,0.482917 1.32275,0.986817 0.43391,0.503912 0.86783,1.196782 1.30176,2.078613 l 2.1521,4.283203 -2.27808,0 -2.00512,-4.020752 c -0.51792,-1.0498 -1.02182,-1.746169 -1.51172,-2.089111 -0.48292,-0.34293 -1.1443,-0.514398 -1.98413,-0.514405 l -2.30957,0 0,6.624268 -2.12061,0 0,-15.673584 4.78711,0 c 1.79166,1.6e-5 3.12841,0.374446 4.01025,1.123291 0.88183,0.748874 1.32275,1.879163 1.32276,3.390869 -1e-5,0.986827 -0.23097,1.805674 -0.69287,2.456543 -0.45493,0.650887 -1.11981,1.102303 -1.99463,1.354248 m -5.31201,-6.582275 0,5.563965 2.6665,0 c 1.0218,8e-6 1.79166,-0.234448 2.30957,-0.70337 0.52489,-0.475901 0.78734,-1.172271 0.78735,-2.089111 -1e-5,-0.916817 -0.26246,-1.606188 -0.78735,-2.068115 -0.51791,-0.468899 -1.28777,-0.703355 -2.30957,-0.703369 l -2.6665,0"
         id="path3050"
         style="font-size:21.5px;fill:#5c5e65" /><path
         d="m 163.50415,34.934013 c -1.0918,1.4e-5 -1.91415,0.538914 -2.46704,1.616699 -0.5459,1.070813 -0.81885,2.684011 -0.81885,4.8396 0,2.148606 0.27295,3.761804 0.81885,4.8396 0.55289,1.070802 1.37524,1.606202 2.46704,1.606201 1.09879,1e-6 1.92113,-0.535399 2.46704,-1.606201 0.55289,-1.077796 0.82934,-2.690994 0.82935,-4.8396 -1e-5,-2.155589 -0.27646,-3.768787 -0.82935,-4.8396 -0.54591,-1.077785 -1.36825,-1.616685 -2.46704,-1.616699 m 0,-1.679687 c 1.75666,1.6e-5 3.09691,0.696385 4.02075,2.089111 0.93082,1.385755 1.39623,3.401378 1.39624,6.046875 -1e-5,2.638514 -0.46542,4.654137 -1.39624,6.046875 -0.92384,1.385743 -2.26409,2.078613 -4.02075,2.078613 -1.75668,0 -3.10043,-0.69287 -4.03125,-2.078613 -0.92383,-1.392738 -1.38574,-3.408361 -1.38574,-6.046875 0,-2.645497 0.46191,-4.66112 1.38574,-6.046875 0.93082,-1.392726 2.27457,-2.089095 4.03125,-2.089111"
         id="path3052"
         style="font-size:21.5px;fill:#5c5e65" /><path
         d="m 173.02588,47.426689 3.46435,0 0,-11.957275 -3.76879,0.755859 0,-1.931641 3.7478,-0.755859 2.1206,0 0,13.888916 3.46436,0 0,1.784668 -9.02832,0 0,-1.784668"
         id="path3054"
         style="font-size:21.5px;fill:#5c5e65" /><path
         d="m 186.15894,33.537773 9.91015,0 0,1.784668 -7.78955,0 0,4.640137 7.46411,0 0,1.784668 -7.46411,0 0,5.679443 7.97852,0 0,1.784668 -10.09912,0 0,-15.673584"
         id="path3056"
         style="font-size:21.5px;fill:#5c5e65" /><path
         d="m 201.88501,41.72625 0,5.742431 3.40137,0 c 1.14078,2e-6 1.98412,-0.234454 2.53003,-0.703369 0.55288,-0.475908 0.82933,-1.200273 0.82934,-2.173096 -1e-5,-0.979812 -0.27646,-1.700677 -0.82934,-2.162597 -0.54591,-0.468906 -1.38925,-0.703362 -2.53003,-0.703369 l -3.40137,0 m 0,-6.445801 0,4.724121 3.13892,0 c 1.03579,9e-6 1.80565,-0.192455 2.30957,-0.577393 0.51089,-0.391917 0.76634,-0.986805 0.76635,-1.784668 -1e-5,-0.79084 -0.25546,-1.38223 -0.76635,-1.77417 -0.50392,-0.391913 -1.27378,-0.587876 -2.30957,-0.58789 l -3.13892,0 m -2.12061,-1.742676 5.417,0 c 1.61669,1.6e-5 2.86245,0.335953 3.7373,1.007812 0.87483,0.671889 1.31224,1.627211 1.31226,2.865967 -2e-5,0.958833 -0.22397,1.72169 -0.67188,2.288574 -0.44793,0.566904 -1.1058,0.920338 -1.97363,1.060303 1.04279,0.223967 1.85114,0.692879 2.42505,1.406739 0.58088,0.706874 0.87132,1.592209 0.87134,2.656005 -2e-5,1.399743 -0.47593,2.481041 -1.42774,3.243897 -0.95183,0.762858 -2.30608,1.144287 -4.06274,1.144287 l -5.62696,0 0,-15.673584"
         id="path3058"
         style="font-size:21.5px;fill:#5c5e65" /><path
         d="m 219.22778,34.934013 c -1.0918,1.4e-5 -1.91415,0.538914 -2.46704,1.616699 -0.5459,1.070813 -0.81885,2.684011 -0.81885,4.8396 0,2.148606 0.27295,3.761804 0.81885,4.8396 0.55289,1.070802 1.37524,1.606202 2.46704,1.606201 1.09879,1e-6 1.92114,-0.535399 2.46704,-1.606201 0.55289,-1.077796 0.82934,-2.690994 0.82935,-4.8396 -1e-5,-2.155589 -0.27646,-3.768787 -0.82935,-4.8396 -0.5459,-1.077785 -1.36825,-1.616685 -2.46704,-1.616699 m 0,-1.679687 c 1.75667,1.6e-5 3.09692,0.696385 4.02076,2.089111 0.93081,1.385755 1.39622,3.401378 1.39624,6.046875 -2e-5,2.638514 -0.46543,4.654137 -1.39624,6.046875 -0.92384,1.385743 -2.26409,2.078613 -4.02076,2.078613 -1.75668,0 -3.10042,-0.69287 -4.03125,-2.078613 -0.92383,-1.392738 -1.38574,-3.408361 -1.38574,-6.046875 0,-2.645497 0.46191,-4.66112 1.38574,-6.046875 0.93083,-1.392726 2.27457,-2.089095 4.03125,-2.089111"
         id="path3060"
         style="font-size:21.5px;fill:#5c5e65" /><path
         d="m 228.74951,47.426689 3.46436,0 0,-11.957275 -3.7688,0.755859 0,-1.931641 3.7478,-0.755859 2.12061,0 0,13.888916 3.46435,0 0,1.784668 -9.02832,0 0,-1.784668"
         id="path3062"
         style="font-size:21.5px;fill:#5c5e65" /><path
         d="m 246.86914,40.529472 c -0.95183,9e-6 -1.70769,0.325448 -2.26758,0.976319 -0.5529,0.650886 -0.82935,1.543219 -0.82934,2.677002 -1e-5,1.126794 0.27644,2.019127 0.82934,2.677001 0.55989,0.650881 1.31575,0.97632 2.26758,0.976319 0.95182,1e-6 1.70417,-0.325438 2.25708,-0.976319 0.55989,-0.657874 0.83983,-1.550207 0.83984,-2.677001 -1e-5,-1.133783 -0.27995,-2.026116 -0.83984,-2.677002 -0.55291,-0.650871 -1.30526,-0.97631 -2.25708,-0.976319 m 4.20972,-6.645263 0,1.93164 c -0.53191,-0.251939 -1.07081,-0.444403 -1.6167,-0.577392 -0.53891,-0.132962 -1.07431,-0.199449 -1.6062,-0.199463 -1.39975,1.4e-5 -2.47055,0.472425 -3.21241,1.417236 -0.73486,0.944836 -1.15478,2.372569 -1.25976,4.283203 0.41292,-0.608878 0.93082,-1.07429 1.55371,-1.39624 0.62288,-0.328929 1.30875,-0.493398 2.05762,-0.493408 1.5747,1e-5 2.81696,0.47942 3.7268,1.438232 0.91682,0.951831 1.37524,2.250088 1.37525,3.894776 -1e-5,1.609703 -0.47593,2.900962 -1.42774,3.873779 -0.95183,0.972819 -2.21859,1.459228 -3.80029,1.459228 -1.81267,0 -3.19841,-0.69287 -4.15723,-2.078613 -0.95882,-1.392738 -1.43823,-3.408361 -1.43823,-6.046875 0,-2.477529 0.58789,-4.45116 1.76367,-5.920898 1.17578,-1.47671 2.75399,-2.215072 4.73462,-2.215088 0.5319,1.6e-5 1.0673,0.05251 1.6062,0.15747 0.54589,0.104997 1.11279,0.262467 1.70069,0.472413"
         id="path3064"
         style="font-size:21.5px;fill:#5c5e65" /><path
         d="m 261.5874,35.385429 -5.354,8.366944 5.354,0 0,-8.366944 m -0.55639,-1.847656 2.6665,0 0,10.2146 2.23608,0 0,1.763671 -2.23608,0 0,3.695313 -2.11011,0 0,-3.695313 -7.07568,0 0,-2.047119 6.51929,-9.931152"
         id="path3066"
         style="font-size:21.5px;fill:#5c5e65" /><path
         d="m 273.9856,34.934013 c -1.09181,1.4e-5 -1.91415,0.538914 -2.46705,1.616699 -0.5459,1.070813 -0.81885,2.684011 -0.81884,4.8396 -10e-6,2.148606 0.27294,3.761804 0.81884,4.8396 0.5529,1.070802 1.37524,1.606202 2.46705,1.606201 1.09878,1e-6 1.92113,-0.535399 2.46704,-1.606201 0.55288,-1.077796 0.82933,-2.690994 0.82934,-4.8396 -10e-6,-2.155589 -0.27646,-3.768787 -0.82934,-4.8396 -0.54591,-1.077785 -1.36826,-1.616685 -2.46704,-1.616699 m 0,-1.679687 c 1.75666,1.6e-5 3.09691,0.696385 4.02075,2.089111 0.93081,1.385755 1.39623,3.401378 1.39624,6.046875 -10e-6,2.638514 -0.46543,4.654137 -1.39624,6.046875 -0.92384,1.385743 -2.26409,2.078613 -4.02075,2.078613 -1.75668,0 -3.10043,-0.69287 -4.03125,-2.078613 -0.92383,-1.392738 -1.38575,-3.408361 -1.38575,-6.046875 0,-2.645497 0.46192,-4.66112 1.38575,-6.046875 0.93082,-1.392726 2.27457,-2.089095 4.03125,-2.089111"
         id="path3068"
         style="font-size:21.5px;fill:#5c5e65" /><path
         d="m 282.60449,33.537773 10.07813,0 0,0.902832 -5.68994,14.770752 -2.21509,0 5.354,-13.888916 -7.5271,0 0,-1.784668"
         id="path3070"
         style="font-size:21.5px;fill:#5c5e65" /><path
         d="m 295.58008,42.461113 5.65845,0 0,1.72168 -5.65845,0 0,-1.72168"
         id="path3072"
         style="font-size:21.5px;fill:#5c5e65" /><path
         d="m 309.13306,34.934013 c -1.09181,1.4e-5 -1.91415,0.538914 -2.46704,1.616699 -0.54591,1.070813 -0.81886,2.684011 -0.81885,4.8396 -1e-5,2.148606 0.27294,3.761804 0.81885,4.8396 0.55289,1.070802 1.37523,1.606202 2.46704,1.606201 1.09878,1e-6 1.92113,-0.535399 2.46704,-1.606201 0.55288,-1.077796 0.82933,-2.690994 0.82934,-4.8396 -10e-6,-2.155589 -0.27646,-3.768787 -0.82934,-4.8396 -0.54591,-1.077785 -1.36826,-1.616685 -2.46704,-1.616699 m 0,-1.679687 c 1.75666,1.6e-5 3.09691,0.696385 4.02075,2.089111 0.93081,1.385755 1.39623,3.401378 1.39624,6.046875 -10e-6,2.638514 -0.46543,4.654137 -1.39624,6.046875 -0.92384,1.385743 -2.26409,2.078613 -4.02075,2.078613 -1.75668,0 -3.10043,-0.69287 -4.03125,-2.078613 -0.92383,-1.392738 -1.38575,-3.408361 -1.38575,-6.046875 0,-2.645497 0.46192,-4.66112 1.38575,-6.046875 0.93082,-1.392726 2.27457,-2.089095 4.03125,-2.089111"
         id="path3074"
         style="font-size:21.5px;fill:#5c5e65" /><path
         d="m 318.35034,48.885918 0,-1.931641 c 0.5319,0.251955 1.0708,0.444419 1.6167,0.577392 0.54589,0.132977 1.08129,0.199465 1.6062,0.199463 1.39973,2e-6 2.46704,-0.46891 3.20191,-1.406738 0.74185,-0.94482 1.16527,-2.376053 1.27026,-4.293701 -0.40593,0.601895 -0.92034,1.063808 -1.54321,1.385742 -0.62289,0.321946 -1.31227,0.482916 -2.06812,0.48291 -1.56771,6e-6 -2.80998,-0.472406 -3.7268,-1.417236 -0.90984,-0.951815 -1.36475,-2.250072 -1.36475,-3.894775 0,-1.609689 0.47591,-2.900947 1.42773,-3.87378 0.95182,-0.972803 2.21859,-1.459212 3.8003,-1.459228 1.81265,1.6e-5 3.19489,0.696385 4.14673,2.089111 0.95881,1.385755 1.43822,3.401378 1.43823,6.046875 -1e-5,2.470546 -0.5879,4.444177 -1.76367,5.920898 -1.1688,1.469727 -2.7435,2.20459 -4.72413,2.20459 -0.5319,0 -1.0708,-0.05249 -1.61669,-0.15747 -0.54591,-0.104981 -1.1128,-0.262451 -1.70069,-0.472412 m 4.22022,-6.645264 c 0.95181,7e-6 1.70417,-0.325432 2.25708,-0.976319 0.55988,-0.65087 0.83983,-1.543203 0.83984,-2.677001 -1e-5,-1.126779 -0.27996,-2.015613 -0.83984,-2.666504 -0.55291,-0.657864 -1.30527,-0.986803 -2.25708,-0.986817 -0.95183,1.4e-5 -1.70769,0.328953 -2.26758,0.986817 -0.5529,0.650891 -0.82935,1.539725 -0.82935,2.666504 0,1.133798 0.27645,2.026131 0.82935,2.677001 0.55989,0.650887 1.31575,0.976326 2.26758,0.976319"
         id="path3076"
         style="font-size:21.5px;fill:#5c5e65" /></g></g></svg>