<?xml version="1.0" encoding="UTF-8" standalone="no"?>
<!-- Created with Inkscape (http://www.inkscape.org/) -->

<svg
   xmlns:dc="http://purl.org/dc/elements/1.1/"
   xmlns:cc="http://creativecommons.org/ns#"
   xmlns:rdf="http://www.w3.org/1999/02/22-rdf-syntax-ns#"
   xmlns:svg="http://www.w3.org/2000/svg"
   xmlns="http://www.w3.org/2000/svg"
   xmlns:sodipodi="http://sodipodi.sourceforge.net/DTD/sodipodi-0.dtd"
   xmlns:inkscape="http://www.inkscape.org/namespaces/inkscape"
   version="1.1"
   width="440.02682"
   height="81.414291"
   id="svg2"
   xml:space="preserve"
   inkscape:version="0.48.4 r9939"
   sodipodi:docname="nih-logo-trans-2.svg"><sodipodi:namedview
     pagecolor="#ffffff"
     bordercolor="#666666"
     borderopacity="1"
     objecttolerance="10"
     gridtolerance="10"
     guidetolerance="10"
     inkscape:pageopacity="0"
     inkscape:pageshadow="2"
     inkscape:window-width="1920"
     inkscape:window-height="1024"
     id="namedview46"
     showgrid="false"
     fit-margin-top="0"
     fit-margin-left="0"
     fit-margin-right="0"
     fit-margin-bottom="0"
     inkscape:zoom="2.6512819"
     inkscape:cx="205.84322"
     inkscape:cy="40.708438"
     inkscape:window-x="0"
     inkscape:window-y="27"
     inkscape:window-maximized="1"
     inkscape:current-layer="g3872" /><metadata
     id="metadata8"><rdf:RDF><cc:Work
         rdf:about=""><dc:format>image/svg+xml</dc:format><dc:type
           rdf:resource="http://purl.org/dc/dcmitype/StillImage" /><dc:title></dc:title></cc:Work></rdf:RDF></metadata><defs
     id="defs6" /><g
     transform="matrix(1.2903084,0,0,1.2903084,0.06451542,0.02081869)"
     id="g3872"><rect
       width="340.91794"
       height="62.990173"
       rx="7.307488"
       ry="4.9712148"
       x="0.0032982226"
       y="0.037163563"
       id="rect3801"
       style="fill:#ffffff;fill-opacity:1;stroke:#000000;stroke-width:0.10659645;stroke-miterlimit:4;stroke-opacity:1;stroke-dasharray:none" /><g
       transform="translate(0,-0.00525)"
       id="g3216"><path
         d="M 87.417,31.4945 69.98875,0.00525 l -64.187475,0 C 2.5976625,0.00525 0,2.60775 0,5.810875 l 0,51.4234 c 0,3.2041 2.5976625,5.80176 5.801275,5.80176 l 64.12985,0 L 87.417,31.4945 z m -54.799375,14.187 -5.208875,0 -12.82675,-20.720125 -0.11575,0 0,20.720125 -4.698675,0 0,-28.178625 5.211925,0 12.86425,20.75775 0.07712,0 0,-20.75775 4.69675,0 0,28.178625 z m 9.793,0 -4.934,0 0,-28.178625 4.934,0 0,28.178625 z m 27.6245,-28.178625 0,28.178625 -4.932625,0 0,-12.709 -12.824125,0 0,12.709 -4.934125,0 0,-28.178625 4.934125,0 0,11.2085 12.824125,0 0,-11.2085 4.932625,0"
         id="path14"
         style="fill:#5c5e65;fill-opacity:1;fill-rule:nonzero;stroke:none"
         inkscape:connector-curvature="0" /><path
         d="M 74.30375,63.0375 91.7715,31.4945 74.360875,0.00525 l 4.357875,0 c 2.38675,0 5.287625,1.712375 6.4375,3.798875 L 100.46675,31.4945 85.1045,59.244525 c -1.15425,2.08545 -4.05275,3.792975 -6.439,3.792975 l -4.36175,0"
         id="path16"
         style="fill:#5c5e65;fill-opacity:1;fill-rule:nonzero;stroke:none"
         inkscape:connector-curvature="0" /><path
         d="M 74.30475,63.0375 91.7725,31.4945 74.359875,0.00525 l 4.360375,0 c 2.38375,0 5.286625,1.712375 6.4375,3.798875 L 100.46587,31.4945 85.1055,59.244525 c -1.15525,2.08545 -4.05525,3.792975 -6.439,3.792975 l -4.36175,0"
         id="path18"
         style="fill:#6ca3b9;fill-opacity:1;fill-rule:nonzero;stroke:none"
         inkscape:connector-curvature="0" /></g><flowRoot
       xml:space="preserve"
       id="flowRoot3023"
       style="font-size:32px;font-style:normal;font-weight:normal;line-height:125%;letter-spacing:0px;word-spacing:0px;fill:#000000;fill-opacity:1;stroke:none;font-family:Sans"
       transform="matrix(0.77500852,0,0,0.77500852,-0.0625,-0.03125)"><flowRegion
         id="flowRegion3025"><rect
           id="rect3027"
           width="246.96765"
           height="63.475487"
           x="133.88527"
           y="10.507522"
           style="font-size:32px" /></flowRegion><flowPara
         id="flowPara3029"></flowPara></flowRoot><flowRoot
       xml:space="preserve"
       id="flowRoot3039"
       style="font-size:28px;font-style:normal;font-weight:normal;line-height:125%;letter-spacing:0px;word-spacing:0px;fill:#000000;fill-opacity:1;stroke:none;font-family:Sans"
       transform="matrix(0.77500852,0,0,0.77500852,-0.0625,-0.03125)"><flowRegion
         id="flowRegion3041"><rect
           id="rect3043"
           width="290.70709"
           height="88.278938"
           x="135.7522"
           y="4.6400399" /></flowRegion><flowPara
         id="flowPara3045"
         style="font-size:22px" /></flowRoot><flowRoot
       xml:space="preserve"
       id="flowRoot3049"
       style="font-size:28px;font-style:normal;font-weight:normal;line-height:125%;letter-spacing:0px;word-spacing:0px;fill:#5c5e65;fill-opacity:1;stroke:none;font-family:Sans"
       transform="matrix(0.77500852,0,0,0.77500852,2.6245696,10.096935)"><flowRegion
         id="flowRegion3051"><rect
           id="rect3053"
           width="300.04172"
           height="83.744972"
           x="128.01779"
           y="0.90618783"
           style="fill:#5c5e65;fill-opacity:1" /></flowRegion><flowPara
         id="flowPara3055"
         style="font-size:18px;fill:#5c5e65;fill-opacity:1"><flowSpan
           style="font-size:21px;fill:#5c5e65;fill-opacity:1"
           id="flowSpan3067"><flowSpan
             style="font-size:22px;fill:#5c5e65;fill-opacity:1"
             id="flowSpan3071"><flowSpan
               style="font-size:21px;fill:#5c5e65;fill-opacity:1"
               id="flowSpan3073"><flowSpan
                 style="font-size:21.5px;fill:#5c5e65;fill-opacity:1"
                 id="flowSpan3075">RTXI is funded by NIH grant 2R01EB016407-09A1 </flowSpan></flowSpan></flowSpan></flowSpan></flowPara></flowRoot></g></svg>