<?xml version="1.0" encoding="UTF-8" standalone="no"?>
<!-- Created with Inkscape (http://www.inkscape.org/) -->

<svg
   xmlns:dc="http://purl.org/dc/elements/1.1/"
   xmlns:cc="http://creativecommons.org/ns#"
   xmlns:rdf="http://www.w3.org/1999/02/22-rdf-syntax-ns#"
   xmlns:svg="http://www.w3.org/2000/svg"
   xmlns="http://www.w3.org/2000/svg"
   version="1.1"
   width="387.25381"
   height="81.450714"
   id="svg2"
   xml:space="preserve"><metadata
     id="metadata8"><rdf:RDF><cc:Work
         rdf:about=""><dc:format>image/svg+xml</dc:format><dc:type
           rdf:resource="http://purl.org/dc/dcmitype/StillImage" /><dc:title></dc:title></cc:Work></rdf:RDF></metadata><defs
     id="defs6" /><g
     transform="matrix(1.2903084,0,0,1.2903084,0.08064427,0.04032214)"
     id="g3872"><rect
       width="299.99838"
       height="62.996769"
       rx="6.430388"
       ry="4.9717355"
       x="2.8421709e-14"
       y="0.03386534"
       id="rect3801"
       style="fill:#ffffff;fill-opacity:1;stroke:#000000;stroke-width:0.1;stroke-miterlimit:4;stroke-opacity:1;stroke-dasharray:none" /><g
       transform="translate(0,-0.00525)"
       id="g3216"><path
         d="M 87.417,31.4945 69.98875,0.00525 l -64.187475,0 C 2.5976625,0.00525 0,2.60775 0,5.810875 l 0,51.4234 c 0,3.2041 2.5976625,5.80176 5.801275,5.80176 l 64.12985,0 L 87.417,31.4945 z m -54.799375,14.187 -5.208875,0 -12.82675,-20.720125 -0.11575,0 0,20.720125 -4.698675,0 0,-28.178625 5.211925,0 12.86425,20.75775 0.07712,0 0,-20.75775 4.69675,0 0,28.178625 z m 9.793,0 -4.934,0 0,-28.178625 4.934,0 0,28.178625 z m 27.6245,-28.178625 0,28.178625 -4.932625,0 0,-12.709 -12.824125,0 0,12.709 -4.934125,0 0,-28.178625 4.934125,0 0,11.2085 12.824125,0 0,-11.2085 4.932625,0"
         id="path14"
         style="fill:#5c5e65;fill-opacity:1;fill-rule:nonzero;stroke:none" /><path
         d="M 74.30375,63.0375 91.7715,31.4945 74.360875,0.00525 l 4.357875,0 c 2.38675,0 5.287625,1.712375 6.4375,3.798875 L 100.46675,31.4945 85.1045,59.244525 c -1.15425,2.08545 -4.05275,3.792975 -6.439,3.792975 l -4.36175,0"
         id="path16"
         style="fill:#5c5e65;fill-opacity:1;fill-rule:nonzero;stroke:none" /><path
         d="M 74.30475,63.0375 91.7725,31.4945 74.359875,0.00525 l 4.360375,0 c 2.38375,0 5.286625,1.712375 6.4375,3.798875 L 100.46587,31.4945 85.1055,59.244525 c -1.15525,2.08545 -4.05525,3.792975 -6.439,3.792975 l -4.36175,0"
         id="path18"
         style="fill:#6ca3b9;fill-opacity:1;fill-rule:nonzero;stroke:none" /></g><g
       transform="matrix(1.0712803,0,0,1.0712803,-4.6493943,5.647469)"
       id="flowRoot3003"
       style="font-size:16px;font-style:normal;font-weight:normal;line-height:125%;letter-spacing:0px;word-spacing:0px;fill:#5c5e65;fill-opacity:1;stroke:none;font-family:Sans"><path
         d="m 110.57031,13.260487 c 0.33854,0.114588 0.66666,0.35938 0.98438,0.734375 0.32291,0.375004 0.64582,0.890628 0.96875,1.546875 l 1.60156,3.1875 -1.69531,0 -1.49219,-2.992188 c -0.38542,-0.781246 -0.76042,-1.299475 -1.125,-1.554687 -0.35938,-0.255204 -0.85157,-0.382808 -1.47656,-0.382813 l -1.71875,0 0,4.929688 -1.57813,0 0,-11.6640629 3.5625,0 c 1.33333,1.16e-5 2.32812,0.2786572 2.98438,0.8359375 0.65624,0.5573019 0.98436,1.3984469 0.98437,2.5234374 -1e-5,0.734383 -0.17188,1.343757 -0.51562,1.828125 -0.33855,0.484381 -0.83334,0.820318 -1.48438,1.007813 m -3.95312,-4.8984379 0,4.1406249 1.98437,0 c 0.76041,6e-6 1.33333,-0.174473 1.71875,-0.523437 0.39062,-0.35416 0.58593,-0.872389 0.58594,-1.554688 -1e-5,-0.6822826 -0.19532,-1.1953029 -0.58594,-1.5390624 -0.38542,-0.3489482 -0.95834,-0.5234272 -1.71875,-0.5234375 l -1.98437,0"
         id="path3804" /><path
         d="m 113.39063,7.0651741 9.86718,0 0,1.328125 -4.14062,0 0,10.3359379 -1.58594,0 0,-10.3359379 -4.14062,0 0,-1.328125"
         id="path3806" /><path
         d="m 124.22656,7.0651741 1.69532,0 2.89843,4.3359379 2.91406,-4.3359379 1.69532,0 -3.75,5.6015629 4,6.0625 -1.69532,0 -3.28125,-4.960938 -3.30468,4.960938 -1.70313,0 4.16407,-6.226563 -3.63282,-5.4374999"
         id="path3808" /><path
         d="m 135.75781,7.0651741 1.57813,0 0,11.6640629 -1.57813,0 0,-11.6640629"
         id="path3810" /><path
         d="m 145.50781,9.9792366 1.4375,0 0,8.7500004 -1.4375,0 0,-8.7500004 m 0,-3.40625 1.4375,0 0,1.8203125 -1.4375,0 0,-1.8203125"
         id="path3812" /><path
         d="m 155.52344,10.237049 0,1.359375 c -0.40626,-0.208326 -0.82813,-0.364576 -1.26563,-0.46875 -0.4375,-0.104159 -0.89063,-0.156242 -1.35937,-0.15625 -0.71355,8e-6 -1.25001,0.109383 -1.60938,0.328125 -0.35417,0.218757 -0.53125,0.546882 -0.53125,0.984375 0,0.33334 0.1276,0.59636 0.38281,0.789063 0.25521,0.187505 0.76823,0.367192 1.53907,0.539062 l 0.49218,0.109375 c 1.02083,0.218755 1.74479,0.52865 2.17188,0.929688 0.43228,0.395837 0.64843,0.950524 0.64844,1.664062 -1e-5,0.812502 -0.32293,1.45573 -0.96875,1.929688 -0.64063,0.473958 -1.52345,0.710937 -2.64844,0.710937 -0.46875,0 -0.95834,-0.04687 -1.46875,-0.140625 -0.50521,-0.08854 -1.03906,-0.223958 -1.60156,-0.40625 l 0,-1.484375 c 0.53125,0.276043 1.05468,0.484376 1.57031,0.625 0.51562,0.135418 1.02604,0.203126 1.53125,0.203125 0.67708,1e-6 1.19791,-0.114582 1.5625,-0.34375 0.36458,-0.234373 0.54687,-0.562498 0.54687,-0.984375 0,-0.390622 -0.13281,-0.690101 -0.39843,-0.898437 -0.26042,-0.20833 -0.83594,-0.408851 -1.72657,-0.601563 l -0.5,-0.117187 C 151,14.619866 150.35677,14.333408 149.96094,13.947987 c -0.39584,-0.39062 -0.59375,-0.924474 -0.59375,-1.601563 0,-0.822909 0.29166,-1.458325 0.875,-1.90625 0.58333,-0.4479079 1.41145,-0.671866 2.48437,-0.6718749 0.53125,8.9e-6 1.03125,0.039071 1.5,0.1171875 0.46875,0.078134 0.90104,0.1953214 1.29688,0.3515624"
         id="path3814" /><path
         d="m 167.8125,6.5729866 0,1.1953125 -1.375,0 c -0.51563,1.09e-5 -0.875,0.1041775 -1.07813,0.3125 -0.19791,0.2083438 -0.29687,0.5833434 -0.29687,1.125 l 0,0.7734375 2.36719,0 0,1.1171874 -2.36719,0 0,7.632813 -1.44531,0 0,-7.632813 -1.375,0 0,-1.1171874 1.375,0 0,-0.609375 c 0,-0.973948 0.22656,-1.6822806 0.67968,-2.125 0.45313,-0.4479048 1.17188,-0.6718629 2.15625,-0.671875 l 1.35938,0"
         id="path3816" /><path
         d="m 168.85937,15.276112 0,-5.2968754 1.4375,0 0,5.2421874 c 0,0.828128 0.16146,1.450523 0.48438,1.867188 0.32291,0.411459 0.80729,0.617188 1.45312,0.617187 0.77604,1e-6 1.38802,-0.247394 1.83594,-0.742187 0.45312,-0.49479 0.67968,-1.169268 0.67969,-2.023438 l 0,-4.9609374 1.4375,0 0,8.7500004 -1.4375,0 0,-1.34375 c -0.34897,0.53125 -0.75521,0.927083 -1.21875,1.1875 -0.45834,0.255208 -0.99219,0.382812 -1.60156,0.382812 -1.00521,0 -1.76823,-0.3125 -2.28907,-0.9375 -0.52083,-0.624999 -0.78125,-1.53906 -0.78125,-2.742187 m 3.61719,-5.5078129 0,0"
         id="path3818" /><path
         d="m 186.4375,13.447987 0,5.28125 -1.4375,0 0,-5.234375 c -1e-5,-0.828119 -0.16147,-1.44791 -0.48438,-1.859375 -0.32292,-0.411451 -0.80729,-0.61718 -1.45312,-0.617188 -0.77605,8e-6 -1.38802,0.247403 -1.83594,0.742188 -0.44792,0.494798 -0.67188,1.169276 -0.67187,2.023437 l 0,4.945313 -1.44532,0 0,-8.7500004 1.44532,0 0,1.3593754 c 0.34374,-0.526034 0.74739,-0.919263 1.21093,-1.179688 0.46875,-0.2604078 1.00781,-0.390616 1.61719,-0.3906249 1.0052,8.9e-6 1.76562,0.3125089 2.28125,0.9374999 0.51562,0.619799 0.77343,1.533861 0.77344,2.742188"
         id="path3820" /><path
         d="m 195.07812,11.307362 0,-4.7343754 1.4375,0 0,12.1562504 -1.4375,0 0,-1.3125 c -0.30209,0.520834 -0.6849,0.908854 -1.14843,1.164062 -0.45834,0.25 -1.01042,0.375 -1.65625,0.375 -1.0573,0 -1.91928,-0.421875 -2.58594,-1.265625 -0.66146,-0.843748 -0.99219,-1.953122 -0.99219,-3.328125 0,-1.374994 0.33073,-2.484368 0.99219,-3.328125 0.66666,-0.843741 1.52864,-1.265616 2.58594,-1.2656249 0.64583,8.9e-6 1.19791,0.127613 1.65625,0.3828129 0.46353,0.250008 0.84634,0.635424 1.14843,1.15625 m -4.89843,3.054687 c 0,1.057295 0.21614,1.888023 0.64843,2.492188 0.4375,0.598959 1.03646,0.898438 1.79688,0.898437 0.76041,1e-6 1.35937,-0.299478 1.79687,-0.898437 0.4375,-0.604165 0.65625,-1.434893 0.65625,-2.492188 0,-1.057286 -0.21875,-1.88541 -0.65625,-2.484375 -0.4375,-0.604159 -1.03646,-0.906242 -1.79687,-0.90625 -0.76042,8e-6 -1.35938,0.302091 -1.79688,0.90625 -0.43229,0.598965 -0.64843,1.427089 -0.64843,2.484375"
         id="path3822" /><path
         d="m 206.96094,13.994862 0,0.703125 -6.60938,0 c 0.0625,0.989586 0.35937,1.744794 0.89063,2.265625 0.53645,0.515626 1.28124,0.773438 2.23437,0.773437 0.55208,1e-6 1.08593,-0.06771 1.60156,-0.203125 0.52083,-0.135415 1.03646,-0.33854 1.54688,-0.609375 l 0,1.359375 c -0.51563,0.21875 -1.04428,0.385417 -1.58594,0.5 -0.54167,0.114583 -1.09115,0.171875 -1.64844,0.171875 -1.39583,0 -2.5026,-0.40625 -3.32031,-1.21875 -0.8125,-0.812498 -1.21875,-1.911455 -1.21875,-3.296875 0,-1.432286 0.38542,-2.567701 1.15625,-3.40625 0.77604,-0.843741 1.82031,-1.265616 3.13281,-1.2656249 1.17708,8.9e-6 2.10677,0.3802169 2.78907,1.1406249 0.68749,0.755215 1.03124,1.78386 1.03125,3.085938 m -1.4375,-0.421875 c -0.0104,-0.786453 -0.23178,-1.414056 -0.66407,-1.882813 -0.42708,-0.468742 -0.99479,-0.703117 -1.70312,-0.703125 -0.80209,8e-6 -1.44532,0.22657 -1.92969,0.679688 -0.47917,0.453131 -0.75521,1.091151 -0.82812,1.914062 l 5.125,-0.0078"
         id="path3824" /><path
         d="m 215.07812,11.307362 0,-4.7343754 1.4375,0 0,12.1562504 -1.4375,0 0,-1.3125 c -0.30209,0.520834 -0.6849,0.908854 -1.14843,1.164062 -0.45834,0.25 -1.01042,0.375 -1.65625,0.375 -1.0573,0 -1.91928,-0.421875 -2.58594,-1.265625 -0.66146,-0.843748 -0.99219,-1.953122 -0.99219,-3.328125 0,-1.374994 0.33073,-2.484368 0.99219,-3.328125 0.66666,-0.843741 1.52864,-1.265616 2.58594,-1.2656249 0.64583,8.9e-6 1.19791,0.127613 1.65625,0.3828129 0.46353,0.250008 0.84634,0.635424 1.14843,1.15625 m -4.89843,3.054687 c 0,1.057295 0.21614,1.888023 0.64843,2.492188 0.4375,0.598959 1.03646,0.898438 1.79688,0.898437 0.76041,1e-6 1.35937,-0.299478 1.79687,-0.898437 0.4375,-0.604165 0.65625,-1.434893 0.65625,-2.492188 0,-1.057286 -0.21875,-1.88541 -0.65625,-2.484375 -0.4375,-0.604159 -1.03646,-0.906242 -1.79687,-0.90625 -0.76042,8e-6 -1.35938,0.302091 -1.79688,0.90625 -0.43229,0.598965 -0.64843,1.427089 -0.64843,2.484375"
         id="path3826" /><path
         d="m 230.85156,14.362049 c -1e-5,-1.057286 -0.21876,-1.88541 -0.65625,-2.484375 -0.4323,-0.604159 -1.02865,-0.906242 -1.78906,-0.90625 -0.76042,8e-6 -1.35938,0.302091 -1.79688,0.90625 -0.43229,0.598965 -0.64844,1.427089 -0.64843,2.484375 -1e-5,1.057295 0.21614,1.888023 0.64843,2.492188 0.4375,0.598959 1.03646,0.898438 1.79688,0.898437 0.76041,1e-6 1.35676,-0.299478 1.78906,-0.898437 0.43749,-0.604165 0.65624,-1.434893 0.65625,-2.492188 m -4.89062,-3.054687 c 0.30208,-0.520826 0.68229,-0.906242 1.14062,-1.15625 0.46354,-0.2551999 1.01562,-0.382804 1.65625,-0.3828129 1.0625,8.9e-6 1.92447,0.4218839 2.58594,1.2656249 0.66666,0.843757 0.99999,1.953131 1,3.328125 -1e-5,1.375003 -0.33334,2.484377 -1,3.328125 -0.66147,0.84375 -1.52344,1.265625 -2.58594,1.265625 -0.64063,0 -1.19271,-0.125 -1.65625,-0.375 -0.45833,-0.255208 -0.83854,-0.643228 -1.14062,-1.164062 l 0,1.3125 -1.44532,0 0,-12.1562504 1.44532,0 0,4.7343754"
         id="path3828" /><path
         d="m 238.36719,19.541737 c -0.40626,1.041664 -0.80209,1.721351 -1.1875,2.039062 -0.38542,0.317705 -0.90105,0.476559 -1.54688,0.476563 l -1.14844,0 0,-1.203125 0.84375,0 c 0.39584,-3e-6 0.70313,-0.09375 0.92188,-0.28125 0.21875,-0.187502 0.46093,-0.63021 0.72656,-1.328125 l 0.25781,-0.65625 -3.53906,-8.6093754 1.52344,0 2.73437,6.8437504 2.73438,-6.8437504 1.52344,0 -3.84375,9.5625004"
         id="path3830" /><path
         d="m 249.35156,7.0651741 2.125,0 5.17188,9.7578129 0,-9.7578129 1.53125,0 0,11.6640629 -2.125,0 -5.17188,-9.7578129 0,9.7578129 -1.53125,0 0,-11.6640629"
         id="path3832" /><path
         d="m 261.32031,7.0651741 1.57813,0 0,11.6640629 -1.57813,0 0,-11.6640629"
         id="path3834" /><path
         d="m 266.03906,7.0651741 1.57813,0 0,4.7812499 5.73437,0 0,-4.7812499 1.57813,0 0,11.6640629 -1.57813,0 0,-5.554688 -5.73437,0 0,5.554688 -1.57813,0 0,-11.6640629"
         id="path3836" /><path
         d="m 110.73438,34.252674 c -1e-5,-1.041661 -0.21616,-1.848952 -0.64844,-2.421875 -0.42709,-0.572909 -1.02865,-0.859367 -1.80469,-0.859375 -0.77084,8e-6 -1.3724,0.286466 -1.80469,0.859375 -0.42708,0.572923 -0.64062,1.380214 -0.64062,2.421875 0,1.036462 0.21354,1.841149 0.64062,2.414063 0.43229,0.572918 1.03385,0.859376 1.80469,0.859375 0.77604,1e-6 1.3776,-0.286457 1.80469,-0.859375 0.43228,-0.572914 0.64843,-1.377601 0.64844,-2.414063 m 1.4375,3.390625 c -1e-5,1.489583 -0.33074,2.596353 -0.99219,3.320313 -0.66147,0.729163 -1.67449,1.093746 -3.03906,1.09375 -0.50522,-4e-6 -0.98178,-0.03907 -1.42969,-0.117188 -0.44792,-0.07292 -0.88282,-0.187503 -1.30469,-0.34375 l 0,-1.398437 c 0.42187,0.229165 0.83854,0.398435 1.25,0.507812 0.41145,0.109373 0.83073,0.16406 1.25781,0.164063 0.94271,-3e-6 1.64843,-0.247398 2.11719,-0.742188 0.46874,-0.489584 0.70312,-1.231771 0.70313,-2.226562 l 0,-0.710938 c -0.29689,0.515626 -0.67709,0.901042 -1.14063,1.15625 -0.46355,0.255209 -1.01823,0.382813 -1.66406,0.382813 -1.07292,0 -1.93751,-0.408854 -2.59375,-1.226563 -0.65625,-0.817706 -0.98438,-1.901038 -0.98438,-3.25 0,-1.354161 0.32813,-2.440097 0.98438,-3.257812 0.65624,-0.8177 1.52083,-1.226554 2.59375,-1.226563 0.64583,9e-6 1.20051,0.127613 1.66406,0.382813 0.46354,0.255216 0.84374,0.640633 1.14063,1.15625 l 0,-1.328125 1.4375,0 0,7.664062"
         id="path3838" /><path
         d="m 120.20313,31.322987 c -0.16147,-0.09374 -0.33855,-0.161451 -0.53125,-0.203125 -0.18751,-0.04687 -0.39584,-0.07031 -0.625,-0.07031 -0.81251,8e-6 -1.43751,0.265632 -1.875,0.796875 -0.4323,0.526048 -0.64845,1.28386 -0.64844,2.273438 l 0,4.609375 -1.44531,0 0,-8.75 1.44531,0 0,1.359375 c 0.30208,-0.531243 0.69531,-0.924471 1.17969,-1.179688 0.48437,-0.260408 1.07291,-0.390616 1.76562,-0.390625 0.099,9e-6 0.20833,0.0078 0.32813,0.02344 0.11978,0.01042 0.25259,0.02865 0.39843,0.05469 l 0.008,1.476563"
         id="path3840" /><path
         d="m 125.70313,34.330799 c -1.16147,4e-6 -1.96615,0.132817 -2.41407,0.398438 -0.44792,0.265628 -0.67187,0.718753 -0.67187,1.359375 0,0.510418 0.16666,0.916668 0.5,1.21875 0.33854,0.296876 0.79687,0.445313 1.375,0.445312 0.79687,1e-6 1.43489,-0.281249 1.91406,-0.84375 0.48437,-0.567706 0.72656,-1.320309 0.72656,-2.257812 l 0,-0.320313 -1.42968,0 m 2.86718,-0.59375 0,4.992188 -1.4375,0 0,-1.328125 c -0.32813,0.53125 -0.73698,0.924479 -1.22656,1.179687 -0.48959,0.25 -1.08855,0.375 -1.79687,0.375 -0.89584,0 -1.60938,-0.25 -2.14063,-0.75 -0.52604,-0.505207 -0.78906,-1.179686 -0.78906,-2.023437 0,-0.984372 0.32812,-1.726559 0.98437,-2.226563 0.66146,-0.499995 1.64583,-0.749994 2.95313,-0.75 l 2.01562,0 0,-0.140625 c 0,-0.661452 -0.21875,-1.171868 -0.65625,-1.53125 -0.43229,-0.364576 -1.04167,-0.546867 -1.82812,-0.546875 -0.50001,8e-6 -0.98699,0.0599 -1.46094,0.179688 -0.47396,0.119799 -0.92969,0.299486 -1.36719,0.539062 l 0,-1.328125 c 0.52604,-0.203116 1.03646,-0.354158 1.53125,-0.453125 0.49479,-0.104158 0.97656,-0.156241 1.44532,-0.15625 1.26561,9e-6 2.21093,0.328134 2.83593,0.984375 0.62499,0.656257 0.93749,1.651048 0.9375,2.984375"
         id="path3842" /><path
         d="m 138.8125,33.447987 0,5.28125 -1.4375,0 0,-5.234375 c -1e-5,-0.828119 -0.16147,-1.44791 -0.48438,-1.859375 -0.32292,-0.411451 -0.80729,-0.61718 -1.45312,-0.617188 -0.77605,8e-6 -1.38802,0.247403 -1.83594,0.742188 -0.44792,0.494798 -0.67188,1.169276 -0.67187,2.023437 l 0,4.945313 -1.44532,0 0,-8.75 1.44532,0 0,1.359375 c 0.34374,-0.526034 0.74739,-0.919263 1.21093,-1.179688 0.46875,-0.260408 1.00781,-0.390616 1.61719,-0.390625 1.0052,9e-6 1.76562,0.312509 2.28125,0.9375 0.51562,0.619799 0.77343,1.533861 0.77344,2.742188"
         id="path3844" /><path
         d="m 143.11719,27.494862 0,2.484375 2.96093,0 0,1.117187 -2.96093,0 0,4.75 c -1e-5,0.713544 0.0964,1.171877 0.28906,1.375 0.19791,0.203126 0.59635,0.304689 1.19531,0.304688 l 1.47656,0 0,1.203125 -1.47656,0 c -1.10938,0 -1.875,-0.205729 -2.29687,-0.617188 -0.42188,-0.416666 -0.63282,-1.171873 -0.63282,-2.265625 l 0,-4.75 -1.05468,0 0,-1.117187 1.05468,0 0,-2.484375 1.44532,0"
         id="path3846" /><path
         d="m 158.66406,33.260487 c 0.33854,0.114588 0.66666,0.35938 0.98438,0.734375 0.32291,0.375004 0.64582,0.890628 0.96875,1.546875 l 1.60156,3.1875 -1.69531,0 -1.49219,-2.992188 c -0.38542,-0.781246 -0.76042,-1.299475 -1.125,-1.554687 -0.35938,-0.255204 -0.85157,-0.382808 -1.47656,-0.382813 l -1.71875,0 0,4.929688 -1.57813,0 0,-11.664063 3.5625,0 c 1.33333,1.2e-5 2.32812,0.278657 2.98438,0.835938 0.65624,0.557302 0.98436,1.398447 0.98437,2.523437 -1e-5,0.734383 -0.17188,1.343757 -0.51562,1.828125 -0.33855,0.484381 -0.83334,0.820318 -1.48438,1.007813 m -3.95312,-4.898438 0,4.140625 1.98437,0 c 0.76041,6e-6 1.33333,-0.174473 1.71875,-0.523437 0.39062,-0.35416 0.58593,-0.872389 0.58594,-1.554688 -1e-5,-0.682283 -0.19532,-1.195303 -0.58594,-1.539062 -0.38542,-0.348949 -0.95834,-0.523428 -1.71875,-0.523438 l -1.98437,0"
         id="path3848" /><path
         d="m 167.77344,28.104237 c -0.81251,10e-6 -1.42449,0.401051 -1.83594,1.203125 -0.40625,0.796883 -0.60938,1.997403 -0.60938,3.601562 0,1.598963 0.20313,2.799482 0.60938,3.601563 0.41145,0.796876 1.02343,1.195313 1.83594,1.195312 0.8177,1e-6 1.42968,-0.398436 1.83593,-1.195312 0.41146,-0.802081 0.61718,-2.0026 0.61719,-3.601563 -1e-5,-1.604159 -0.20573,-2.804679 -0.61719,-3.601562 -0.40625,-0.802074 -1.01823,-1.203115 -1.83593,-1.203125 m 0,-1.25 c 1.30728,1.1e-5 2.30468,0.51824 2.99218,1.554687 0.6927,1.031259 1.03906,2.531258 1.03907,4.5 -1e-5,1.963546 -0.34637,3.463544 -1.03907,4.5 -0.6875,1.03125 -1.6849,1.546875 -2.99218,1.546875 -1.3073,0 -2.3073,-0.515625 -3,-1.546875 -0.6875,-1.036456 -1.03125,-2.536454 -1.03125,-4.5 0,-1.968742 0.34375,-3.468741 1.03125,-4.5 0.6927,-1.036447 1.6927,-1.554676 3,-1.554687"
         id="path3850" /><path
         d="m 174.85937,37.401112 2.57813,0 0,-8.898438 -2.80469,0.5625 0,-1.4375 2.78906,-0.5625 1.57813,0 0,10.335938 2.57812,0 0,1.328125 -6.71875,0 0,-1.328125"
         id="path3852" /><path
         d="m 183.84375,33.705799 4.21094,0 0,1.28125 -4.21094,0 0,-1.28125"
         id="path3854" /><path
         d="m 195.94531,33.260487 c 0.33854,0.114588 0.66666,0.35938 0.98438,0.734375 0.32291,0.375004 0.64582,0.890628 0.96875,1.546875 l 1.60156,3.1875 -1.69531,0 -1.49219,-2.992188 c -0.38542,-0.781246 -0.76042,-1.299475 -1.125,-1.554687 -0.35938,-0.255204 -0.85157,-0.382808 -1.47656,-0.382813 l -1.71875,0 0,4.929688 -1.57813,0 0,-11.664063 3.5625,0 c 1.33333,1.2e-5 2.32812,0.278657 2.98438,0.835938 0.65624,0.557302 0.98436,1.398447 0.98437,2.523437 -1e-5,0.734383 -0.17188,1.343757 -0.51562,1.828125 -0.33855,0.484381 -0.83334,0.820318 -1.48438,1.007813 m -3.95312,-4.898438 0,4.140625 1.98437,0 c 0.76041,6e-6 1.33333,-0.174473 1.71875,-0.523437 0.39062,-0.35416 0.58593,-0.872389 0.58594,-1.554688 -1e-5,-0.682283 -0.19532,-1.195303 -0.58594,-1.539062 -0.38542,-0.348949 -0.95834,-0.523428 -1.71875,-0.523438 l -1.98437,0"
         id="path3856" /><path
         d="m 207.07031,33.260487 c 0.33854,0.114588 0.66666,0.35938 0.98438,0.734375 0.32291,0.375004 0.64582,0.890628 0.96875,1.546875 l 1.60156,3.1875 -1.69531,0 -1.49219,-2.992188 c -0.38542,-0.781246 -0.76042,-1.299475 -1.125,-1.554687 -0.35938,-0.255204 -0.85157,-0.382808 -1.47656,-0.382813 l -1.71875,0 0,4.929688 -1.57813,0 0,-11.664063 3.5625,0 c 1.33333,1.2e-5 2.32812,0.278657 2.98438,0.835938 0.65624,0.557302 0.98436,1.398447 0.98437,2.523437 -1e-5,0.734383 -0.17188,1.343757 -0.51562,1.828125 -0.33855,0.484381 -0.83334,0.820318 -1.48438,1.007813 m -3.95312,-4.898438 0,4.140625 1.98437,0 c 0.76041,6e-6 1.33333,-0.174473 1.71875,-0.523437 0.39062,-0.35416 0.58593,-0.872389 0.58594,-1.554688 -1e-5,-0.682283 -0.19532,-1.195303 -0.58594,-1.539062 -0.38542,-0.348949 -0.95834,-0.523428 -1.71875,-0.523438 l -1.98437,0"
         id="path3858" /><path
         d="m 216.17969,28.104237 c -0.81251,10e-6 -1.42449,0.401051 -1.83594,1.203125 -0.40625,0.796883 -0.60938,1.997403 -0.60938,3.601562 0,1.598963 0.20313,2.799482 0.60938,3.601563 0.41145,0.796876 1.02343,1.195313 1.83594,1.195312 0.8177,1e-6 1.42968,-0.398436 1.83593,-1.195312 0.41146,-0.802081 0.61718,-2.0026 0.61719,-3.601563 -1e-5,-1.604159 -0.20573,-2.804679 -0.61719,-3.601562 -0.40625,-0.802074 -1.01823,-1.203115 -1.83593,-1.203125 m 0,-1.25 c 1.30728,1.1e-5 2.30468,0.51824 2.99218,1.554687 0.6927,1.031259 1.03906,2.531258 1.03907,4.5 -1e-5,1.963546 -0.34637,3.463544 -1.03907,4.5 -0.6875,1.03125 -1.6849,1.546875 -2.99218,1.546875 -1.3073,0 -2.3073,-0.515625 -3,-1.546875 -0.6875,-1.036456 -1.03125,-2.536454 -1.03125,-4.5 0,-1.968742 0.34375,-3.468741 1.03125,-4.5 0.6927,-1.036447 1.6927,-1.554676 3,-1.554687"
         id="path3860" /><path
         d="m 224.35156,37.401112 5.50781,0 0,1.328125 -7.40625,0 0,-1.328125 c 0.59896,-0.61979 1.41406,-1.450518 2.44532,-2.492188 1.03645,-1.04687 1.68749,-1.721349 1.95312,-2.023437 0.5052,-0.567702 0.85677,-1.046869 1.05469,-1.4375 0.20312,-0.395826 0.30468,-0.783847 0.30469,-1.164063 -1e-5,-0.619783 -0.21876,-1.12499 -0.65625,-1.515625 -0.4323,-0.390615 -0.9974,-0.585927 -1.69532,-0.585937 -0.49479,10e-6 -1.01823,0.08595 -1.57031,0.257812 -0.54687,0.171885 -1.13281,0.432302 -1.75781,0.78125 l 0,-1.59375 c 0.63541,-0.255197 1.22916,-0.447905 1.78125,-0.578125 0.55208,-0.130196 1.05729,-0.195301 1.51562,-0.195312 1.20833,1.1e-5 2.17187,0.302094 2.89063,0.90625 0.71874,0.604177 1.07812,1.411467 1.07812,2.421875 0,0.479174 -0.0911,0.934903 -0.27343,1.367187 -0.17709,0.42709 -0.50261,0.932298 -0.97657,1.515625 -0.13021,0.151047 -0.54427,0.588547 -1.24218,1.3125 -0.69792,0.718754 -1.6823,1.726565 -2.95313,3.023438"
         id="path3862" /><path
         d="m 236.55469,28.104237 c -0.81251,10e-6 -1.42449,0.401051 -1.83594,1.203125 -0.40625,0.796883 -0.60938,1.997403 -0.60938,3.601562 0,1.598963 0.20313,2.799482 0.60938,3.601563 0.41145,0.796876 1.02343,1.195313 1.83594,1.195312 0.8177,1e-6 1.42968,-0.398436 1.83593,-1.195312 0.41146,-0.802081 0.61718,-2.0026 0.61719,-3.601563 -1e-5,-1.604159 -0.20573,-2.804679 -0.61719,-3.601562 -0.40625,-0.802074 -1.01823,-1.203115 -1.83593,-1.203125 m 0,-1.25 c 1.30728,1.1e-5 2.30468,0.51824 2.99218,1.554687 0.6927,1.031259 1.03906,2.531258 1.03907,4.5 -1e-5,1.963546 -0.34637,3.463544 -1.03907,4.5 -0.6875,1.03125 -1.6849,1.546875 -2.99218,1.546875 -1.3073,0 -2.3073,-0.515625 -3,-1.546875 -0.6875,-1.036456 -1.03125,-2.536454 -1.03125,-4.5 0,-1.968742 0.34375,-3.468741 1.03125,-4.5 0.6927,-1.036447 1.6927,-1.554676 3,-1.554687"
         id="path3864" /><path
         d="m 243.64062,37.401112 2.57813,0 0,-8.898438 -2.80469,0.5625 0,-1.4375 2.78906,-0.5625 1.57813,0 0,10.335938 2.57812,0 0,1.328125 -6.71875,0 0,-1.328125"
         id="path3866" /><path
         d="m 253.82812,37.401112 2.57813,0 0,-8.898438 -2.80469,0.5625 0,-1.4375 2.78906,-0.5625 1.57813,0 0,10.335938 2.57812,0 0,1.328125 -6.71875,0 0,-1.328125"
         id="path3868" /><path
         d="m 263.75781,27.065174 6.19531,0 0,1.328125 -4.75,0 0,2.859375 c 0.22917,-0.07812 0.45833,-0.135409 0.6875,-0.171875 0.22917,-0.04166 0.45833,-0.06249 0.6875,-0.0625 1.30208,8e-6 2.33333,0.356778 3.09375,1.070313 0.76041,0.713547 1.14062,1.679692 1.14063,2.898437 -10e-6,1.255211 -0.39063,2.231772 -1.17188,2.929688 -0.78125,0.692708 -1.88281,1.039062 -3.30468,1.039062 -0.48959,0 -0.98959,-0.04167 -1.5,-0.125 -0.50521,-0.08333 -1.02865,-0.208333 -1.57032,-0.375 l 0,-1.585937 c 0.46875,0.25521 0.95313,0.445313 1.45313,0.570312 0.5,0.125001 1.02864,0.187501 1.58594,0.1875 0.90103,1e-6 1.61457,-0.236978 2.14062,-0.710937 0.52604,-0.473956 0.78906,-1.117185 0.78906,-1.929688 0,-0.812495 -0.26302,-1.455724 -0.78906,-1.929687 -0.52605,-0.473953 -1.23959,-0.710932 -2.14062,-0.710938 -0.42188,6e-6 -0.84376,0.04688 -1.26563,0.140625 -0.41667,0.09376 -0.84375,0.239589 -1.28125,0.4375 l 0,-5.859375"
         id="path3870" /></g></g></svg>