<?xml version="1.0" encoding="UTF-8" standalone="no"?>
<svg
   xmlns:dc="http://purl.org/dc/elements/1.1/"
   xmlns:cc="http://creativecommons.org/ns#"
   xmlns:rdf="http://www.w3.org/1999/02/22-rdf-syntax-ns#"
   xmlns:svg="http://www.w3.org/2000/svg"
   xmlns="http://www.w3.org/2000/svg"
   xmlns:xlink="http://www.w3.org/1999/xlink"
   xml:space="preserve"
   id="svg2"
   height="400"
   width="400"
   version="1.2"><metadata
     id="metadata8"><rdf:RDF><cc:Work
         rdf:about=""><dc:format>image/svg+xml</dc:format><dc:type
           rdf:resource="http://purl.org/dc/dcmitype/StillImage" /><dc:title></dc:title></cc:Work></rdf:RDF></metadata><defs
     id="defs6"><clipPath
       id="clipPath16"><path
         id="path18"
         d="m 392.307,99.932 c 3.649,-2.391 7.289,-4.894 10.753,-7.416 l 0,0 c 3.511,-2.559 6.843,-5.138 9.822,-7.641 l 0,0 c 3.015,-2.538 5.667,-4.998 7.764,-7.273 l 0,0 3.161,9.49 c 0.188,-0.109 0.37,-0.218 0.544,-0.328 l 0,0 c 0.177,-0.107 0.349,-0.215 0.517,-0.323 l 0,0 c 0.166,-0.11 0.33,-0.218 0.488,-0.325 l 0,0 c 0.159,-0.109 0.312,-0.218 0.464,-0.327 l 0,0 c 0.642,-0.464 1.216,-0.933 1.716,-1.41 l 0,0 c 0.502,-0.478 0.931,-0.961 1.291,-1.453 l 0,0 c 0.36,-0.494 0.645,-0.997 0.857,-1.509 l 0,0 c 0.215,-0.513 0.354,-1.037 0.419,-1.575 l 0,0 c 0.117,-0.942 -0.026,-1.906 -0.419,-2.889 l 0,0 c -0.398,-0.991 -1.05,-1.999 -1.953,-3.015 l 0,0 c -0.908,-1.026 -2.07,-2.062 -3.478,-3.097 l 0,0 c -1.42,-1.046 -3.092,-2.091 -5.008,-3.131 l 0,0 c -2.894,-1.581 -6.332,-3.15 -10.252,-4.691 l 0,0 c -3.977,-1.568 -8.449,-3.108 -13.353,-4.607 l 0,0 c -4.981,-1.521 -10.405,-3.001 -16.204,-4.423 l 0,0 c -5.887,-1.443 -12.16,-2.826 -18.738,-4.131 l 0,0 c -6.676,-1.325 -13.663,-2.573 -20.88,-3.726 l 0,0 c -7.321,-1.169 -14.868,-2.238 -22.544,-3.191 l 0,0 c -7.779,-0.963 -15.681,-1.807 -23.6,-2.513 l 0,0 c -8.015,-0.712 -16.035,-1.282 -23.939,-1.688 l 0,0 c -0.01,0 -0.018,0 -0.027,-0.001 l 0,0 -0.026,0 -0.027,0 c -0.008,-0.003 -0.018,-0.003 -0.025,-0.003 l 0,0 C 258.609,38.17 247.421,37.88 236.209,37.858 l 0,0 c -11.342,-0.026 -22.676,0.225 -33.861,0.736 l 0,0 c -11.277,0.514 -22.366,1.286 -33.117,2.31 l 0,0 c -10.808,1.028 -21.239,2.301 -31.146,3.799 l 0,0 c -4.966,0.752 -9.794,1.556 -14.463,2.416 l 0,0 c -4.669,0.858 -9.179,1.764 -13.511,2.722 l 0,0 c -4.327,0.955 -8.472,1.955 -12.421,3.001 l 0,0 c -3.943,1.044 -7.684,2.125 -11.21,3.248 l 0,0 c -3.52,1.118 -6.82,2.271 -9.893,3.458 l 0,0 c -3.063,1.181 -5.896,2.394 -8.493,3.631 l 0,0 c -2.588,1.234 -4.937,2.495 -7.044,3.78 l 0,0 c -2.098,1.275 -3.952,2.575 -5.56,3.894 l 0,0 c -0.937,0.768 -1.783,1.515 -2.541,2.244 l 0,0 c -0.758,0.724 -1.426,1.428 -2.009,2.11 l 0,0 c -0.581,0.681 -1.077,1.342 -1.49,1.98 l 0,0 c -0.414,0.636 -0.746,1.251 -0.997,1.846 l 0,0 c -0.308,0.729 -0.504,1.429 -0.587,2.098 l 0,0 c -0.086,0.665 -0.062,1.301 0.07,1.912 l 0,0 c 0.131,0.608 0.369,1.193 0.707,1.754 l 0,0 c 0.339,0.561 0.78,1.098 1.32,1.62 l 0,0 c 0.802,0.772 1.849,1.52 3.164,2.24 l 0,0 c 1.309,0.716 2.882,1.401 4.743,2.056 l 0,0 c 1.849,0.651 3.985,1.271 6.427,1.856 l 0,0 c 2.427,0.579 5.159,1.127 8.215,1.635 l 0,0 c 3.025,0.504 6.355,0.963 9.99,1.377 l 0,0 c 3.611,0.41 7.516,0.91 11.731,1.089 l 0,0 c 1.63,0.068 1.618,0.068 1.577,0.067 l 0,0 c -0.048,-10e-4 -0.136,-10e-4 2.452,0.116 l 0,0 0,6.486 c -6.506,-0.32 -12.99,-0.742 -18.596,-1.267 l 0,0 c -5.659,-0.532 -10.862,-1.174 -15.617,-1.928 l 0,0 C 59.251,99.383 54.91,98.502 51.023,97.495 l 0,0 c -1.951,-0.506 -3.783,-1.051 -5.49,-1.628 l 0,0 c -1.715,-0.582 -3.304,-1.198 -4.758,-1.849 l 0,0 c -1.461,-0.656 -2.787,-1.346 -3.967,-2.071 l 0,0 C 35.622,91.217 34.582,90.452 33.7,89.649 l 0,0 C 32.805,88.845 32.076,88.01 31.51,87.144 l 0,0 c -0.571,-0.868 -0.977,-1.763 -1.223,-2.685 l 0,0 c -0.249,-0.925 -0.335,-1.875 -0.261,-2.843 l 0,0 c 0.072,-0.975 0.304,-1.97 0.695,-2.98 l 0,0 c 0.316,-0.825 0.734,-1.659 1.248,-2.505 l 0,0 c 0.516,-0.851 1.129,-1.713 1.839,-2.583 l 0,0 c 0.712,-0.877 1.52,-1.764 2.422,-2.662 l 0,0 c 0.905,-0.903 1.904,-1.816 2.995,-2.742 l 0,0 c 2,-1.695 4.301,-3.351 6.886,-4.961 l 0,0 c 2.6,-1.622 5.482,-3.198 8.625,-4.723 l 0,0 c 3.158,-1.534 6.577,-3.017 10.23,-4.446 l 0,0 c 3.668,-1.433 7.571,-2.812 11.682,-4.131 l 0,0 c 6.2,-1.989 12.863,-3.843 19.938,-5.562 l 0,0 c 7.09,-1.724 14.576,-3.307 22.398,-4.743 l 0,0 c 7.823,-1.433 15.967,-2.722 24.371,-3.858 l 0,0 c 8.386,-1.132 17.014,-2.112 25.826,-2.937 l 0,0 c 8.774,-0.815 17.716,-1.475 26.764,-1.969 l 0,0 c 8.992,-0.495 18.074,-0.824 27.186,-0.989 l 0,0 c 9.039,-0.162 18.089,-0.16 27.094,0.006 l 0,0 c 8.92,0.167 17.782,0.499 26.528,0.995 l 0,0 c 12.74,0.726 25.615,1.846 38.258,3.291 l 0,0 c 12.386,1.416 24.508,3.137 36.048,5.101 l 0,0 c 11.278,1.922 21.977,4.069 31.821,6.383 l 0,0 c 9.614,2.265 18.406,4.685 26.142,7.215 l 0,0 c 3.797,1.248 7.336,2.519 10.596,3.816 l 0,0 c 3.221,1.279 6.168,2.581 8.809,3.905 l 0,0 c 2.613,1.307 4.929,2.638 6.922,3.986 l 0,0 c 1.973,1.334 3.63,2.687 4.944,4.058 l 0,0 c 0.651,0.68 1.217,1.367 1.696,2.06 l 0,0 c 0.475,0.688 0.86,1.384 1.15,2.086 l 0,0 c 0.29,0.699 0.483,1.405 0.577,2.119 l 0,0 c 0.094,0.71 0.087,1.431 -0.026,2.158 l 0,0 c -0.111,0.722 -0.329,1.457 -0.669,2.2 l 0,0 c -0.338,0.742 -0.792,1.494 -1.371,2.252 l 0,0 c -0.577,0.756 -1.276,1.519 -2.104,2.285 l 0,0 c -0.827,0.764 -1.782,1.532 -2.873,2.303 l 0,0 c -0.516,0.365 -1.059,0.73 -1.631,1.093 l 0,0 c -0.572,0.363 -1.172,0.724 -1.801,1.085 l 0,0 c -0.626,0.36 -1.279,0.718 -1.961,1.075 l 0,0 c -0.678,0.355 -1.384,0.708 -2.117,1.058 l 0,0 21.162,2.427 c -4.91,0.632 -10.347,1.479 -16.074,2.479 l 0,0 c -5.73,1 -11.742,2.154 -17.797,3.396 l 0,0 c -6.052,1.239 -12.141,2.566 -18.033,3.915 l 0,0 c -5.881,1.348 -11.562,2.717 -16.81,4.046 l 0,0 c 3.474,-2.065 7.091,-4.323 10.696,-6.686" /></clipPath><linearGradient
       spreadMethod="pad"
       gradientTransform="matrix(420.3252,0,0,-420.3252,30.000004,68.161629)"
       gradientUnits="userSpaceOnUse"
       id="linearGradient24"
       y2="0"
       x2="1"
       y1="0"
       x1="0"><stop
         offset="0"
         style="stop-color:#b64138;stop-opacity:1"
         id="stop26" /><stop
         offset="1"
         style="stop-color:#ffffff;stop-opacity:1"
         id="stop28" /></linearGradient><clipPath
       id="clipPath36"><path
         id="path38"
         d="M 0,246 820,246 820,0 0,0 0,246 Z" /></clipPath><linearGradient
       gradientUnits="userSpaceOnUse"
       xlink:href="#linearGradient24"
       id="linearGradient4027"
       y2="68.161491"
       x2="450.32501"
       y1="68.161491"
       x1="30.000368" /><linearGradient
       gradientUnits="userSpaceOnUse"
       xlink:href="#linearGradient24"
       id="linearGradient3814"
       y2="68.161491"
       x2="450.32501"
       y1="68.161491"
       x1="30.000368" /><linearGradient
       gradientUnits="userSpaceOnUse"
       xlink:href="#linearGradient24"
       id="linearGradient3042"
       y2="68.161491"
       x2="450.32501"
       y1="68.161491"
       x1="30.000368" /><linearGradient
       gradientUnits="userSpaceOnUse"
       xlink:href="#linearGradient24"
       id="linearGradient3044"
       y2="68.161491"
       x2="450.32501"
       y1="68.161491"
       x1="30.000368" /><linearGradient
       gradientUnits="userSpaceOnUse"
       xlink:href="#linearGradient24"
       id="linearGradient3046"
       y2="68.161491"
       x2="450.32501"
       y1="68.161491"
       x1="30.000368" /><linearGradient
       gradientUnits="userSpaceOnUse"
       xlink:href="#linearGradient24"
       id="linearGradient3048"
       y2="68.161491"
       x2="450.32501"
       y1="68.161491"
       x1="30.000368" /><linearGradient
       gradientUnits="userSpaceOnUse"
       xlink:href="#linearGradient24"
       id="linearGradient3050"
       y2="68.161491"
       x2="450.32501"
       y1="68.161491"
       x1="30.000368" /><linearGradient
       gradientUnits="userSpaceOnUse"
       xlink:href="#linearGradient24"
       id="linearGradient3052"
       y2="68.161491"
       x2="450.32501"
       y1="68.161491"
       x1="30.000368" /><linearGradient
       gradientUnits="userSpaceOnUse"
       xlink:href="#linearGradient24"
       id="linearGradient3054"
       y2="68.161491"
       x2="450.32501"
       y1="68.161491"
       x1="30.000368" /><linearGradient
       gradientUnits="userSpaceOnUse"
       xlink:href="#linearGradient24"
       id="linearGradient3056"
       y2="68.161491"
       x2="450.32501"
       y1="68.161491"
       x1="30.000368" /><linearGradient
       gradientUnits="userSpaceOnUse"
       xlink:href="#linearGradient24"
       id="linearGradient3881"
       y2="68.161491"
       x2="450.32501"
       y1="68.161491"
       x1="30.000368" /><linearGradient
       gradientUnits="userSpaceOnUse"
       xlink:href="#linearGradient24"
       id="linearGradient3934"
       y2="68.161491"
       x2="450.32501"
       y1="68.161491"
       x1="30.000368" /><linearGradient
       gradientUnits="userSpaceOnUse"
       xlink:href="#linearGradient24"
       id="linearGradient3936"
       y2="68.161491"
       x2="450.32501"
       y1="68.161491"
       x1="30.000368" /><linearGradient
       gradientUnits="userSpaceOnUse"
       xlink:href="#linearGradient24"
       id="linearGradient3938"
       y2="68.161491"
       x2="450.32501"
       y1="68.161491"
       x1="30.000368" /><linearGradient
       gradientUnits="userSpaceOnUse"
       xlink:href="#linearGradient24"
       id="linearGradient3940"
       y2="68.161491"
       x2="450.32501"
       y1="68.161491"
       x1="30.000368" /><linearGradient
       gradientUnits="userSpaceOnUse"
       xlink:href="#linearGradient24"
       id="linearGradient3942"
       y2="68.161491"
       x2="450.32501"
       y1="68.161491"
       x1="30.000368" /><linearGradient
       gradientUnits="userSpaceOnUse"
       xlink:href="#linearGradient24"
       id="linearGradient3944"
       y2="68.161491"
       x2="450.32501"
       y1="68.161491"
       x1="30.000368" /><linearGradient
       y2="68.161491"
       x2="450.32501"
       y1="68.161491"
       x1="30.000368"
       gradientUnits="userSpaceOnUse"
       id="linearGradient3900"
       xlink:href="#linearGradient24" /><linearGradient
       y2="68.161491"
       x2="450.32501"
       y1="68.161491"
       x1="30.000368"
       gradientUnits="userSpaceOnUse"
       id="linearGradient3902"
       xlink:href="#linearGradient24" /><linearGradient
       y2="68.161491"
       x2="450.32501"
       y1="68.161491"
       x1="30.000368"
       gradientUnits="userSpaceOnUse"
       id="linearGradient3904"
       xlink:href="#linearGradient24" /><linearGradient
       y2="68.161491"
       x2="450.32501"
       y1="68.161491"
       x1="30.000368"
       gradientUnits="userSpaceOnUse"
       id="linearGradient3906"
       xlink:href="#linearGradient24" /><linearGradient
       y2="68.161491"
       x2="450.32501"
       y1="68.161491"
       x1="30.000368"
       gradientUnits="userSpaceOnUse"
       id="linearGradient3908"
       xlink:href="#linearGradient24" /><linearGradient
       y2="68.161491"
       x2="450.32501"
       y1="68.161491"
       x1="30.000368"
       gradientUnits="userSpaceOnUse"
       id="linearGradient3910"
       xlink:href="#linearGradient24" /></defs><g
     id="g10"
     transform="matrix(1.25,0,0,-1.25,-100.20343,270.17361)"><rect
       transform="scale(1,-1)"
       y="-216.13889"
       x="80.162743"
       height="320"
       width="320"
       id="rect4271"
       style="opacity:1;fill:#b64138;fill-opacity:1;fill-rule:nonzero;stroke:none;stroke-opacity:1" /><g
       transform="matrix(0.68518439,0,0,0.68518439,75.606961,17.762685)"
       id="g12"
       style="fill:#ffffff;fill-opacity:1;stroke:#b64138;stroke-opacity:1"><g
         clip-path="url(#clipPath16)"
         id="g14"
         style="fill:#ffffff;fill-opacity:1;fill-rule:nonzero;stroke:#b64138;stroke-opacity:1"><g
           id="g20"
           style="fill:#ffffff;fill-opacity:1;fill-rule:nonzero;stroke:#b64138;stroke-opacity:1"><g
             id="g22"
             style="fill:#ffffff;fill-opacity:1;fill-rule:nonzero;stroke:#b64138;stroke-opacity:1"><path
               d="m 392.307,99.932 c 3.649,-2.391 7.289,-4.894 10.753,-7.416 l 0,0 c 3.511,-2.559 6.843,-5.138 9.822,-7.641 l 0,0 c 3.015,-2.538 5.667,-4.998 7.764,-7.273 l 0,0 3.161,9.49 c 0.188,-0.109 0.37,-0.218 0.544,-0.328 l 0,0 c 0.177,-0.107 0.349,-0.215 0.517,-0.323 l 0,0 c 0.166,-0.11 0.33,-0.218 0.488,-0.325 l 0,0 c 0.159,-0.109 0.312,-0.218 0.464,-0.327 l 0,0 c 0.642,-0.464 1.216,-0.933 1.716,-1.41 l 0,0 c 0.502,-0.478 0.931,-0.961 1.291,-1.453 l 0,0 c 0.36,-0.494 0.645,-0.997 0.857,-1.509 l 0,0 c 0.215,-0.513 0.354,-1.037 0.419,-1.575 l 0,0 c 0.117,-0.942 -0.026,-1.906 -0.419,-2.889 l 0,0 c -0.398,-0.991 -1.05,-1.999 -1.953,-3.015 l 0,0 c -0.908,-1.026 -2.07,-2.062 -3.478,-3.097 l 0,0 c -1.42,-1.046 -3.092,-2.091 -5.008,-3.131 l 0,0 c -2.894,-1.581 -6.332,-3.15 -10.252,-4.691 l 0,0 c -3.977,-1.568 -8.449,-3.108 -13.353,-4.607 l 0,0 c -4.981,-1.521 -10.405,-3.001 -16.204,-4.423 l 0,0 c -5.887,-1.443 -12.16,-2.826 -18.738,-4.131 l 0,0 c -6.676,-1.325 -13.663,-2.573 -20.88,-3.726 l 0,0 c -7.321,-1.169 -14.868,-2.238 -22.544,-3.191 l 0,0 c -7.779,-0.963 -15.681,-1.807 -23.6,-2.513 l 0,0 c -8.015,-0.712 -16.035,-1.282 -23.939,-1.688 l 0,0 c -0.01,0 -0.018,0 -0.027,-0.001 l 0,0 -0.026,0 -0.027,0 c -0.008,-0.003 -0.018,-0.003 -0.025,-0.003 l 0,0 C 258.609,38.17 247.421,37.88 236.209,37.858 l 0,0 c -11.342,-0.026 -22.676,0.225 -33.861,0.736 l 0,0 c -11.277,0.514 -22.366,1.286 -33.117,2.31 l 0,0 c -10.808,1.028 -21.239,2.301 -31.146,3.799 l 0,0 c -4.966,0.752 -9.794,1.556 -14.463,2.416 l 0,0 c -4.669,0.858 -9.179,1.764 -13.511,2.722 l 0,0 c -4.327,0.955 -8.472,1.955 -12.421,3.001 l 0,0 c -3.943,1.044 -7.684,2.125 -11.21,3.248 l 0,0 c -3.52,1.118 -6.82,2.271 -9.893,3.458 l 0,0 c -3.063,1.181 -5.896,2.394 -8.493,3.631 l 0,0 c -2.588,1.234 -4.937,2.495 -7.044,3.78 l 0,0 c -2.098,1.275 -3.952,2.575 -5.56,3.894 l 0,0 c -0.937,0.768 -1.783,1.515 -2.541,2.244 l 0,0 c -0.758,0.724 -1.426,1.428 -2.009,2.11 l 0,0 c -0.581,0.681 -1.077,1.342 -1.49,1.98 l 0,0 c -0.414,0.636 -0.746,1.251 -0.997,1.846 l 0,0 c -0.308,0.729 -0.504,1.429 -0.587,2.098 l 0,0 c -0.086,0.665 -0.062,1.301 0.07,1.912 l 0,0 c 0.131,0.608 0.369,1.193 0.707,1.754 l 0,0 c 0.339,0.561 0.78,1.098 1.32,1.62 l 0,0 c 0.802,0.772 1.849,1.52 3.164,2.24 l 0,0 c 1.309,0.716 2.882,1.401 4.743,2.056 l 0,0 c 1.849,0.651 3.985,1.271 6.427,1.856 l 0,0 c 2.427,0.579 5.159,1.127 8.215,1.635 l 0,0 c 3.025,0.504 6.355,0.963 9.99,1.377 l 0,0 c 3.611,0.41 7.516,0.91 11.731,1.089 l 0,0 c 1.63,0.068 1.618,0.068 1.577,0.067 l 0,0 c -0.048,-10e-4 -0.136,-10e-4 2.452,0.116 l 0,0 0,6.486 c -6.506,-0.32 -12.99,-0.742 -18.596,-1.267 l 0,0 c -5.659,-0.532 -10.862,-1.174 -15.617,-1.928 l 0,0 C 59.251,99.383 54.91,98.502 51.023,97.495 l 0,0 c -1.951,-0.506 -3.783,-1.051 -5.49,-1.628 l 0,0 c -1.715,-0.582 -3.304,-1.198 -4.758,-1.849 l 0,0 c -1.461,-0.656 -2.787,-1.346 -3.967,-2.071 l 0,0 C 35.622,91.217 34.582,90.452 33.7,89.649 l 0,0 C 32.805,88.845 32.076,88.01 31.51,87.144 l 0,0 c -0.571,-0.868 -0.977,-1.763 -1.223,-2.685 l 0,0 c -0.249,-0.925 -0.335,-1.875 -0.261,-2.843 l 0,0 c 0.072,-0.975 0.304,-1.97 0.695,-2.98 l 0,0 c 0.316,-0.825 0.734,-1.659 1.248,-2.505 l 0,0 c 0.516,-0.851 1.129,-1.713 1.839,-2.583 l 0,0 c 0.712,-0.877 1.52,-1.764 2.422,-2.662 l 0,0 c 0.905,-0.903 1.904,-1.816 2.995,-2.742 l 0,0 c 2,-1.695 4.301,-3.351 6.886,-4.961 l 0,0 c 2.6,-1.622 5.482,-3.198 8.625,-4.723 l 0,0 c 3.158,-1.534 6.577,-3.017 10.23,-4.446 l 0,0 c 3.668,-1.433 7.571,-2.812 11.682,-4.131 l 0,0 c 6.2,-1.989 12.863,-3.843 19.938,-5.562 l 0,0 c 7.09,-1.724 14.576,-3.307 22.398,-4.743 l 0,0 c 7.823,-1.433 15.967,-2.722 24.371,-3.858 l 0,0 c 8.386,-1.132 17.014,-2.112 25.826,-2.937 l 0,0 c 8.774,-0.815 17.716,-1.475 26.764,-1.969 l 0,0 c 8.992,-0.495 18.074,-0.824 27.186,-0.989 l 0,0 c 9.039,-0.162 18.089,-0.16 27.094,0.006 l 0,0 c 8.92,0.167 17.782,0.499 26.528,0.995 l 0,0 c 12.74,0.726 25.615,1.846 38.258,3.291 l 0,0 c 12.386,1.416 24.508,3.137 36.048,5.101 l 0,0 c 11.278,1.922 21.977,4.069 31.821,6.383 l 0,0 c 9.614,2.265 18.406,4.685 26.142,7.215 l 0,0 c 3.797,1.248 7.336,2.519 10.596,3.816 l 0,0 c 3.221,1.279 6.168,2.581 8.809,3.905 l 0,0 c 2.613,1.307 4.929,2.638 6.922,3.986 l 0,0 c 1.973,1.334 3.63,2.687 4.944,4.058 l 0,0 c 0.651,0.68 1.217,1.367 1.696,2.06 l 0,0 c 0.475,0.688 0.86,1.384 1.15,2.086 l 0,0 c 0.29,0.699 0.483,1.405 0.577,2.119 l 0,0 c 0.094,0.71 0.087,1.431 -0.026,2.158 l 0,0 c -0.111,0.722 -0.329,1.457 -0.669,2.2 l 0,0 c -0.338,0.742 -0.792,1.494 -1.371,2.252 l 0,0 c -0.577,0.756 -1.276,1.519 -2.104,2.285 l 0,0 c -0.827,0.764 -1.782,1.532 -2.873,2.303 l 0,0 c -0.516,0.365 -1.059,0.73 -1.631,1.093 l 0,0 c -0.572,0.363 -1.172,0.724 -1.801,1.085 l 0,0 c -0.626,0.36 -1.279,0.718 -1.961,1.075 l 0,0 c -0.678,0.355 -1.384,0.708 -2.117,1.058 l 0,0 21.162,2.427 c -4.91,0.632 -10.347,1.479 -16.074,2.479 l 0,0 c -5.73,1 -11.742,2.154 -17.797,3.396 l 0,0 c -6.052,1.239 -12.141,2.566 -18.033,3.915 l 0,0 c -5.881,1.348 -11.562,2.717 -16.81,4.046 l 0,0 c 3.474,-2.065 7.091,-4.323 10.696,-6.686"
               id="path30"
               style="fill:#ffffff;fill-opacity:1;fill-rule:nonzero;stroke:#b64138;stroke-opacity:1" /></g></g></g></g><g
       transform="matrix(0.68518439,0,0,0.68518439,75.606961,17.762685)"
       id="g32"
       style="fill:#ffffff;fill-opacity:1"><g
         clip-path="url(#clipPath36)"
         id="g34"
         style="fill:#ffffff;fill-opacity:1"><g
           transform="translate(127.2559,120.1475)"
           id="g40"
           style="fill:#ffffff;fill-opacity:1"><path
             d="M 0,0 5.812,0 C 16.711,0 22.16,5.69 22.16,17.072 22.16,28.454 16.711,34.146 5.812,34.146 L 0,34.146 0,0 Z m -28.771,-55.874 0,99.175 42.648,0 c 11.091,0 19.955,-2.338 26.592,-7.012 6.635,-4.674 9.953,-10.935 9.953,-18.78 0,-12.013 -7.119,-19.836 -21.361,-23.468 7.313,-2.713 12.048,-5.692 14.205,-8.937 2.154,-3.245 3.62,-9.543 4.394,-18.889 0.92,-11.142 2.785,-18.505 5.596,-22.089 l -31.242,0 c -1.987,4.601 -2.979,10.341 -2.979,17.22 l -0.144,5.884 -0.146,7.412 c 0,11.431 -4.602,17.145 -13.806,17.145 l -4.939,0 0,-47.661 -28.771,0 z"
             id="path42"
             style="fill:#ffffff;fill-opacity:1;stroke:none" /></g><g
           transform="translate(127.2559,120.1475)"
           id="g44"
           style="fill:#ffffff;fill-opacity:1"><path
             d="M 0,0 5.812,0 C 16.711,0 22.16,5.69 22.16,17.072 22.16,28.454 16.711,34.146 5.812,34.146 L 0,34.146 0,0 Z m -28.771,-55.874 0,99.175 42.648,0 c 11.091,0 19.955,-2.338 26.592,-7.012 6.635,-4.674 9.953,-10.935 9.953,-18.78 0,-12.013 -7.119,-19.836 -21.361,-23.468 7.313,-2.713 12.048,-5.692 14.205,-8.937 2.154,-3.245 3.62,-9.543 4.394,-18.889 0.92,-11.142 2.785,-18.505 5.596,-22.089 l -31.242,0 c -1.987,4.601 -2.979,10.341 -2.979,17.22 l -0.144,5.884 -0.146,7.412 c 0,11.431 -4.602,17.145 -13.806,17.145 l -4.939,0 0,-47.661 -28.771,0 z"
             id="path46"
             style="fill:#ffffff;fill-opacity:1;stroke:#b64138;stroke-width:1;stroke-linecap:butt;stroke-linejoin:miter;stroke-miterlimit:4;stroke-dasharray:none;stroke-opacity:1" /></g><g
           transform="translate(255.1982,163.4482)"
           id="g48"
           style="fill:#ffffff;fill-opacity:1"><path
             d="m 0,0 0,-9.954 -24.338,0 0,-89.221 -30.514,0 0,89.221 -24.485,0 0,9.954 L 0,0 Z"
             id="path50"
             style="fill:#ffffff;fill-opacity:1;stroke:none" /></g><g
           transform="translate(255.1982,163.4482)"
           id="g52"
           style="fill:#ffffff;fill-opacity:1"><path
             d="m 0,0 0,-9.954 -24.338,0 0,-89.221 -30.514,0 0,89.221 -24.485,0 0,9.954 L 0,0 Z"
             id="path54"
             style="fill:#ffffff;fill-opacity:1;stroke:#b64138;stroke-width:1;stroke-linecap:butt;stroke-linejoin:miter;stroke-miterlimit:4;stroke-dasharray:none;stroke-opacity:1" /></g><g
           transform="translate(389.583,231)"
           id="g56"
           style="fill:#ffffff;fill-opacity:1"><path
             d="m 0,0 -74.08,-109.982 31.603,-56.745 -31.968,0 -19.035,34.876 -21.141,-34.876 -12.934,0 27.971,45.336 -29.932,53.839 31.895,0 17.728,-32.332 L -28.375,-9.97 0,0 Z"
             id="path58"
             style="fill:#ffffff;fill-opacity:1;stroke:none" /></g><g
           transform="translate(389.583,231)"
           id="g60"
           style="fill:#ffffff;fill-opacity:1"><path
             d="m 0,0 -74.08,-109.982 31.603,-56.745 -31.968,0 -19.035,34.876 -21.141,-34.876 -12.934,0 27.971,45.336 -29.932,53.839 31.895,0 17.728,-32.332 L -28.375,-9.97 0,0 Z"
             id="path62"
             style="fill:#ffffff;fill-opacity:1;stroke:#b64138;stroke-width:1;stroke-linecap:butt;stroke-linejoin:miter;stroke-miterlimit:4;stroke-dasharray:none;stroke-opacity:1" /></g><path
           d="m 381.353,64.273 -28.771,0 0,99.175 28.771,0 0,-99.175 z"
           id="path64"
           style="fill:#ffffff;fill-opacity:1;stroke:#b64138;stroke-width:1;stroke-linecap:butt;stroke-linejoin:miter;stroke-miterlimit:4;stroke-dasharray:none;stroke-opacity:1" /></g></g><g
       transform="matrix(0.68518439,0,0,-0.68518439,-187.57309,-97.02159)"
       id="text66"
       style="font-size:13.2587986px;fill:#ffffff;fill-opacity:1;stroke:#b64138;stroke-opacity:1"><path
         d="m 517.42251,-168.79725 c 1.67473,2e-5 2.87196,-0.3114 3.59171,-0.93426 0.73355,-0.62282 1.10033,-1.64704 1.10035,-3.07268 -2e-5,-1.41174 -0.3668,-2.42213 -1.10035,-3.03115 -0.71975,-0.60897 -1.91698,-0.91347 -3.59171,-0.9135 l -3.36334,0 0,7.95159 3.36334,0 m -3.36334,5.52251 0,11.73015 -7.99311,0 0,-30.99666 12.20766,0 c 4.08304,3e-5 7.07267,0.68516 8.9689,2.05537 1.91001,1.37028 2.86503,3.53637 2.86506,6.4983 -3e-5,2.04847 -0.4983,3.73014 -1.49482,5.045 -0.98272,1.3149 -2.47062,2.28376 -4.46368,2.90659 1.09341,0.24915 2.06919,0.81662 2.92735,1.70243 0.87195,0.87198 1.75084,2.20071 2.63669,3.98617 l 4.33911,8.8028 -8.51214,0 -3.77856,-7.70245 c -0.76127,-1.55017 -1.53636,-2.609 -2.32527,-3.17648 -0.77511,-0.56747 -1.81317,-0.8512 -3.1142,-0.85122 l -2.26299,0"
         id="path3965"
         style="font-variant:normal;font-weight:bold;font-stretch:normal;font-size:42.51919937px;font-family:Verdana;-inkscape-font-specification:Verdana-Bold;writing-mode:lr-tb;fill:#ffffff;fill-opacity:1;stroke:#b64138;stroke-opacity:1" /><path
         d="m 562.19508,-163.23321 0,2.11765 -17.37723,0 c 0.17992,1.74396 0.80968,3.05192 1.88928,3.92389 1.07957,0.87198 2.58823,1.30797 4.52597,1.30797 1.564,0 3.16262,-0.22837 4.79586,-0.68513 1.64705,-0.47058 3.33563,-1.17647 5.06577,-2.11765 l 0,5.73012 c -1.75782,0.66437 -3.51561,1.16264 -5.27338,1.49482 -1.75781,0.34602 -3.5156,0.51903 -5.27338,0.51903 -4.20764,0 -7.481,-1.06575 -9.82011,-3.19724 -2.32527,-2.14533 -3.4879,-5.1488 -3.4879,-9.01042 0,-3.79239 1.14187,-6.77509 3.42562,-8.94813 2.29758,-2.173 5.4533,-3.25951 9.46717,-3.25953 3.65397,2e-5 6.57439,1.10037 8.76128,3.30105 2.20067,2.20072 3.30102,5.14191 3.30105,8.82357 m -7.64017,-2.4706 c -2e-5,-1.41176 -0.41525,-2.54671 -1.24568,-3.40486 -0.81663,-0.87196 -1.8893,-1.30794 -3.21801,-1.30796 -1.43946,2e-5 -2.60902,0.40832 -3.50866,1.22492 -0.89967,0.80278 -1.46022,1.96542 -1.68167,3.4879 l 9.65402,0"
         id="path3967"
         style="font-variant:normal;font-weight:bold;font-stretch:normal;font-size:42.51919937px;font-family:Verdana;-inkscape-font-specification:Verdana-Bold;writing-mode:lr-tb;fill:#ffffff;fill-opacity:1;stroke:#b64138;stroke-opacity:1" /><path
         d="m 577.63883,-162.0083 c -1.5502,2e-5 -2.71975,0.26299 -3.50867,0.78894 -0.7751,0.52596 -1.16264,1.30105 -1.16263,2.32526 -10e-6,0.94119 0.31141,1.68168 0.93426,2.22147 0.63667,0.52595 1.51556,0.78893 2.63669,0.78893 1.39791,0 2.57438,-0.49827 3.52942,-1.49482 0.955,-1.01038 1.43251,-2.2699 1.43253,-3.77856 l 0,-0.85122 -3.8616,0 m 11.35644,-2.80277 0,13.26648 -7.49484,0 0,-3.44638 c -0.99656,1.41178 -2.11767,2.44292 -3.36333,3.09344 -1.2457,0.63668 -2.76127,0.95502 -4.54673,0.95502 -2.40832,0 -4.36681,-0.69896 -5.87546,-2.09689 -1.49482,-1.41177 -2.24222,-3.23876 -2.24222,-5.48099 0,-2.72665 0.93425,-4.72665 2.80278,-6.00003 1.88235,-1.27334 4.83046,-1.91002 8.84432,-1.91004 l 4.38064,0 0,-0.58132 c -2e-5,-1.17645 -0.46368,-2.03459 -1.39101,-2.5744 -0.92735,-0.55362 -2.37372,-0.83043 -4.33911,-0.83045 -1.59172,2e-5 -3.07269,0.15919 -4.44293,0.47751 -1.37025,0.31836 -2.64361,0.79587 -3.82008,1.43253 l 0,-5.66784 c 1.59169,-0.38753 3.19031,-0.67818 4.79586,-0.87198 1.60554,-0.20759 3.21108,-0.3114 4.81663,-0.31142 4.19377,2e-5 7.218,0.83048 9.0727,2.49136 1.8685,1.64709 2.80276,4.33221 2.80278,8.0554"
         id="path3969"
         style="font-variant:normal;font-weight:bold;font-stretch:normal;font-size:42.51919937px;font-family:Verdana;-inkscape-font-specification:Verdana-Bold;writing-mode:lr-tb;fill:#ffffff;fill-opacity:1;stroke:#b64138;stroke-opacity:1" /><path
         d="m 595.61947,-183.84921 7.43256,0 0,32.30462 -7.43256,0 0,-32.30462"
         id="path3971"
         style="font-variant:normal;font-weight:bold;font-stretch:normal;font-size:42.51919937px;font-family:Verdana;-inkscape-font-specification:Verdana-Bold;writing-mode:lr-tb;fill:#ffffff;fill-opacity:1;stroke:#b64138;stroke-opacity:1" /><path
         d="m 608.8946,-166.80416 13.03811,0 0,6.04154 -13.03811,0 0,-6.04154"
         id="path3973"
         style="font-variant:normal;font-weight:bold;font-stretch:normal;font-size:42.51919937px;font-family:Verdana;-inkscape-font-specification:Verdana-Bold;writing-mode:lr-tb;fill:#ffffff;fill-opacity:1;stroke:#b64138;stroke-opacity:1" /><path
         d="m 627.20688,-182.54125 28.56759,0 0,6.04155 -10.27686,0 0,24.95511 -7.99311,0 0,-24.95511 -10.29762,0 0,-6.04155"
         id="path3975"
         style="font-variant:normal;font-weight:bold;font-stretch:normal;font-size:42.51919937px;font-family:Verdana;-inkscape-font-specification:Verdana-Bold;writing-mode:lr-tb;fill:#ffffff;fill-opacity:1;stroke:#b64138;stroke-opacity:1" /><path
         d="m 659.56832,-174.79727 7.43256,0 0,23.25268 -7.43256,0 0,-23.25268 m 0,-9.05194 7.43256,0 0,6.06231 -7.43256,0 0,-6.06231"
         id="path3977"
         style="font-variant:normal;font-weight:bold;font-stretch:normal;font-size:42.51919937px;font-family:Verdana;-inkscape-font-specification:Verdana-Bold;writing-mode:lr-tb;fill:#ffffff;fill-opacity:1;stroke:#b64138;stroke-opacity:1" /><path
         d="m 695.66021,-170.93567 c 0.94115,-1.43943 2.05534,-2.53286 3.34257,-3.28029 1.30102,-0.76122 2.72663,-1.14185 4.27684,-1.14187 2.67125,2e-5 4.70586,0.82356 6.10383,2.4706 1.39788,1.64708 2.09685,4.04155 2.09689,7.18342 l 0,14.15922 -7.47408,0 0,-12.12461 c 0.0138,-0.17992 0.0207,-0.36677 0.0208,-0.56056 0.0138,-0.19376 0.0207,-0.47057 0.0208,-0.83045 -3e-5,-1.64705 -0.24224,-2.83737 -0.72664,-3.57095 -0.48447,-0.74739 -1.26647,-1.12109 -2.34603,-1.12111 -1.4118,2e-5 -2.50523,0.58133 -3.28029,1.74395 -0.76128,1.16265 -1.15574,2.84432 -1.1834,5.045 l 0,11.41873 -7.47408,0 0,-12.12461 c -10e-6,-2.57439 -0.22147,-4.22838 -0.66436,-4.96196 -0.44292,-0.74739 -1.23185,-1.12109 -2.36679,-1.12111 -1.42562,2e-5 -2.52597,0.58825 -3.30105,1.76471 -0.7751,1.16265 -1.16265,2.83048 -1.16263,5.00348 l 0,11.43949 -7.47408,0 0,-23.25268 7.47408,0 0,3.40485 c 0.91348,-1.31486 1.95847,-2.30448 3.13496,-2.96887 1.1903,-0.66433 2.49826,-0.99652 3.92389,-0.99654 1.60552,2e-5 3.02421,0.38757 4.25607,1.16264 1.23181,0.77511 2.16607,1.86162 2.80278,3.25952"
         id="path3979"
         style="font-variant:normal;font-weight:bold;font-stretch:normal;font-size:42.51919937px;font-family:Verdana;-inkscape-font-specification:Verdana-Bold;writing-mode:lr-tb;fill:#ffffff;fill-opacity:1;stroke:#b64138;stroke-opacity:1" /><path
         d="m 742.3064,-163.23321 0,2.11765 -17.37723,0 c 0.17993,1.74396 0.80969,3.05192 1.88928,3.92389 1.07958,0.87198 2.58824,1.30797 4.52597,1.30797 1.56401,0 3.16263,-0.22837 4.79587,-0.68513 1.64704,-0.47058 3.33563,-1.17647 5.06576,-2.11765 l 0,5.73012 c -1.75781,0.66437 -3.5156,1.16264 -5.27337,1.49482 -1.75781,0.34602 -3.5156,0.51903 -5.27338,0.51903 -4.20764,0 -7.48101,-1.06575 -9.82011,-3.19724 -2.32527,-2.14533 -3.4879,-5.1488 -3.4879,-9.01042 0,-3.79239 1.14187,-6.77509 3.42562,-8.94813 2.29758,-2.173 5.4533,-3.25951 9.46716,-3.25953 3.65398,2e-5 6.5744,1.10037 8.76128,3.30105 2.20068,2.20072 3.30103,5.14191 3.30105,8.82357 m -7.64016,-2.4706 c -2e-5,-1.41176 -0.41525,-2.54671 -1.24568,-3.40486 -0.81663,-0.87196 -1.8893,-1.30794 -3.21801,-1.30796 -1.43946,2e-5 -2.60902,0.40832 -3.50866,1.22492 -0.89967,0.80278 -1.46023,1.96542 -1.68167,3.4879 l 9.65402,0"
         id="path3981"
         style="font-variant:normal;font-weight:bold;font-stretch:normal;font-size:42.51919937px;font-family:Verdana;-inkscape-font-specification:Verdana-Bold;writing-mode:lr-tb;fill:#ffffff;fill-opacity:1;stroke:#b64138;stroke-opacity:1" /><path
         d="m 511.12946,-112.21018 0,2.11765 -17.37723,0 c 0.17992,1.74396 0.80968,3.05193 1.88928,3.9239 1.07958,0.87198 2.58824,1.30796 4.52597,1.30796 1.56401,0 3.16263,-0.22837 4.79587,-0.68512 1.64704,-0.47059 3.33563,-1.17647 5.06576,-2.11766 l 0,5.73013 c -1.75781,0.66436 -3.5156,1.16263 -5.27337,1.49481 -1.75781,0.34602 -3.51561,0.519035 -5.27338,0.519035 -4.20764,0 -7.48101,-1.065745 -9.82011,-3.197245 -2.32527,-2.14533 -3.4879,-5.1488 -3.4879,-9.01042 0,-3.79238 1.14187,-6.77509 3.42562,-8.94813 2.29758,-2.17299 5.4533,-3.2595 9.46716,-3.25953 3.65398,3e-5 6.5744,1.10038 8.76128,3.30106 2.20068,2.20071 3.30103,5.1419 3.30105,8.82356 m -7.64016,-2.4706 c -2e-5,-1.41175 -0.41525,-2.5467 -1.24568,-3.40486 -0.81663,-0.87195 -1.8893,-1.30794 -3.21801,-1.30796 -1.43947,2e-5 -2.60902,0.40832 -3.50866,1.22492 -0.89967,0.80279 -1.46023,1.96542 -1.68167,3.4879 l 9.65402,0"
         id="path3983"
         style="font-variant:normal;font-weight:bold;font-stretch:normal;font-size:42.51919937px;font-family:Verdana;-inkscape-font-specification:Verdana-Bold;writing-mode:lr-tb;fill:#ffffff;fill-opacity:1;stroke:#b64138;stroke-opacity:1" /><path
         d="m 533.75663,-116.34168 10.75437,15.82013 -8.32529,0 -7.24571,-10.58828 -7.18341,10.58828 -8.36682,0 10.75437,-15.82013 -10.33914,-15.17654 8.34605,0 6.78895,9.9862 6.7682,-9.9862 8.38757,0 -10.33914,15.17654"
         id="path3985"
         style="font-variant:normal;font-weight:bold;font-stretch:normal;font-size:42.51919937px;font-family:Verdana;-inkscape-font-specification:Verdana-Bold;writing-mode:lr-tb;fill:#ffffff;fill-opacity:1;stroke:#b64138;stroke-opacity:1" /><path
         d="m 556.06832,-103.88489 0,12.207663 -7.43255,0 0,-32.097013 7.43255,0 0,3.40486 c 1.02422,-1.35639 2.15917,-2.35293 3.40486,-2.98963 1.24566,-0.6505 2.6782,-0.97576 4.2976,-0.97579 2.86504,3e-5 5.21799,1.1419 7.05885,3.42562 1.84081,2.26993 2.76123,5.19727 2.76125,8.78204 -2e-5,3.5848 -0.92044,6.51907 -2.76125,8.80281 -1.84086,2.2699 -4.19381,3.404855 -7.05885,3.404855 -1.6194,0 -3.05194,-0.318345 -4.2976,-0.955025 -1.24569,-0.65052 -2.38064,-1.65398 -3.40486,-3.01039 m 4.9412,-15.05196 c -1.59172,2e-5 -2.81663,0.58825 -3.67476,1.76471 -0.8443,1.16265 -1.26645,2.84432 -1.26644,5.045 -10e-6,2.20071 0.42214,3.8893 1.26644,5.06577 0.85813,1.16264 2.08304,1.74396 3.67476,1.74395 1.59168,1e-5 2.80276,-0.58131 3.63323,-1.74395 0.84428,-1.16263 1.26642,-2.85121 1.26644,-5.06577 -2e-5,-2.21452 -0.42216,-3.90311 -1.26644,-5.06576 -0.83047,-1.16262 -2.04155,-1.74393 -3.63323,-1.74395"
         id="path3987"
         style="font-variant:normal;font-weight:bold;font-stretch:normal;font-size:42.51919937px;font-family:Verdana;-inkscape-font-specification:Verdana-Bold;writing-mode:lr-tb;fill:#ffffff;fill-opacity:1;stroke:#b64138;stroke-opacity:1" /><path
         d="m 601.56788,-112.21018 0,2.11765 -17.37723,0 c 0.17992,1.74396 0.80968,3.05193 1.88928,3.9239 1.07958,0.87198 2.58823,1.30796 4.52597,1.30796 1.564,0 3.16262,-0.22837 4.79587,-0.68512 1.64704,-0.47059 3.33562,-1.17647 5.06576,-2.11766 l 0,5.73013 c -1.75782,0.66436 -3.51561,1.16263 -5.27338,1.49481 -1.75781,0.34602 -3.5156,0.519035 -5.27338,0.519035 -4.20764,0 -7.481,-1.065745 -9.8201,-3.197245 -2.32528,-2.14533 -3.48791,-5.1488 -3.48791,-9.01042 0,-3.79238 1.14187,-6.77509 3.42562,-8.94813 2.29758,-2.17299 5.4533,-3.2595 9.46717,-3.25953 3.65397,3e-5 6.5744,1.10038 8.76128,3.30106 2.20067,2.20071 3.30102,5.1419 3.30105,8.82356 m -7.64017,-2.4706 c -2e-5,-1.41175 -0.41524,-2.5467 -1.24568,-3.40486 -0.81663,-0.87195 -1.8893,-1.30794 -3.218,-1.30796 -1.43947,2e-5 -2.60902,0.40832 -3.50867,1.22492 -0.89967,0.80279 -1.46022,1.96542 -1.68167,3.4879 l 9.65402,0"
         id="path3989"
         style="font-variant:normal;font-weight:bold;font-stretch:normal;font-size:42.51919937px;font-family:Verdana;-inkscape-font-specification:Verdana-Bold;writing-mode:lr-tb;fill:#ffffff;fill-opacity:1;stroke:#b64138;stroke-opacity:1" /><path
         d="m 623.86287,-117.44204 c -0.65055,-0.30448 -1.30107,-0.52593 -1.95157,-0.66436 -0.6367,-0.15223 -1.2803,-0.22835 -1.9308,-0.22837 -1.91006,2e-5 -3.38411,0.61593 -4.42216,1.84776 -1.02424,1.21801 -1.53635,2.96888 -1.53634,5.25261 l 0,10.71285 -7.43256,0 0,-23.25269 7.43256,0 0,3.82008 c 0.95501,-1.52247 2.04844,-2.62974 3.28029,-3.32181 1.24566,-0.70586 2.73356,-1.0588 4.46368,-1.05883 0.24912,3e-5 0.51902,0.0139 0.80969,0.0415 0.29064,0.0139 0.71279,0.0554 1.26645,0.12456 l 0.0208,6.72667"
         id="path3991"
         style="font-variant:normal;font-weight:bold;font-stretch:normal;font-size:42.51919937px;font-family:Verdana;-inkscape-font-specification:Verdana-Bold;writing-mode:lr-tb;fill:#ffffff;fill-opacity:1;stroke:#b64138;stroke-opacity:1" /><path
         d="m 627.72146,-123.77424 7.43256,0 0,23.25269 -7.43256,0 0,-23.25269 m 0,-9.05194 7.43256,0 0,6.06231 -7.43256,0 0,-6.06231"
         id="path3993"
         style="font-variant:normal;font-weight:bold;font-stretch:normal;font-size:42.51919937px;font-family:Verdana;-inkscape-font-specification:Verdana-Bold;writing-mode:lr-tb;fill:#ffffff;fill-opacity:1;stroke:#b64138;stroke-opacity:1" /><path
         d="m 663.81335,-119.91263 c 0.94115,-1.43943 2.05534,-2.53286 3.34257,-3.28029 1.30101,-0.76123 2.72662,-1.14185 4.27683,-1.14188 2.67126,3e-5 4.70587,0.82356 6.10383,2.4706 1.39789,1.64709 2.09686,4.04156 2.0969,7.18342 l 0,14.15923 -7.47408,0 0,-12.12462 c 0.0138,-0.17992 0.0207,-0.36677 0.0208,-0.56055 0.0138,-0.19376 0.0207,-0.47058 0.0208,-0.83046 -3e-5,-1.64705 -0.24225,-2.83736 -0.72664,-3.57095 -0.48447,-0.74739 -1.26648,-1.12109 -2.34603,-1.12111 -1.4118,2e-5 -2.50523,0.58134 -3.28029,1.74395 -0.76128,1.16265 -1.15574,2.84432 -1.1834,5.04501 l 0,11.41873 -7.47408,0 0,-12.12462 c -2e-5,-2.57439 -0.22147,-4.22837 -0.66436,-4.96196 -0.44293,-0.74739 -1.23186,-1.12109 -2.36679,-1.12111 -1.42563,2e-5 -2.52598,0.58826 -3.30105,1.76472 -0.7751,1.16264 -1.16265,2.83047 -1.16264,5.00348 l 0,11.43949 -7.47408,0 0,-23.25269 7.47408,0 0,3.40486 c 0.91349,-1.31487 1.95847,-2.30449 3.13496,-2.96887 1.1903,-0.66434 2.49827,-0.99652 3.92389,-0.99655 1.60553,3e-5 3.02422,0.38757 4.25608,1.16264 1.23181,0.77511 2.16607,1.86162 2.80278,3.25953"
         id="path3995"
         style="font-variant:normal;font-weight:bold;font-stretch:normal;font-size:42.51919937px;font-family:Verdana;-inkscape-font-specification:Verdana-Bold;writing-mode:lr-tb;fill:#ffffff;fill-opacity:1;stroke:#b64138;stroke-opacity:1" /><path
         d="m 710.45948,-112.21018 0,2.11765 -17.37723,0 c 0.17992,1.74396 0.80968,3.05193 1.88928,3.9239 1.07958,0.87198 2.58823,1.30796 4.52597,1.30796 1.564,0 3.16262,-0.22837 4.79587,-0.68512 1.64704,-0.47059 3.33563,-1.17647 5.06576,-2.11766 l 0,5.73013 c -1.75782,0.66436 -3.51561,1.16263 -5.27338,1.49481 -1.75781,0.34602 -3.5156,0.519035 -5.27337,0.519035 -4.20764,0 -7.48101,-1.065745 -9.82011,-3.197245 -2.32527,-2.14533 -3.48791,-5.1488 -3.4879,-9.01042 -10e-6,-3.79238 1.14187,-6.77509 3.42561,-8.94813 2.29758,-2.17299 5.4533,-3.2595 9.46717,-3.25953 3.65397,3e-5 6.5744,1.10038 8.76128,3.30106 2.20067,2.20071 3.30102,5.1419 3.30105,8.82356 m -7.64017,-2.4706 c -2e-5,-1.41175 -0.41524,-2.5467 -1.24568,-3.40486 -0.81663,-0.87195 -1.88929,-1.30794 -3.218,-1.30796 -1.43947,2e-5 -2.60902,0.40832 -3.50867,1.22492 -0.89967,0.80279 -1.46022,1.96542 -1.68167,3.4879 l 9.65402,0"
         id="path3997"
         style="font-variant:normal;font-weight:bold;font-stretch:normal;font-size:42.51919937px;font-family:Verdana;-inkscape-font-specification:Verdana-Bold;writing-mode:lr-tb;fill:#ffffff;fill-opacity:1;stroke:#b64138;stroke-opacity:1" /><path
         d="m 738.85836,-114.68078 0,14.15923 -7.47408,0 0,-2.30451 0,-8.53291 c -2e-5,-2.00691 -0.0485,-3.391 -0.14533,-4.15226 -0.0831,-0.76123 -0.23531,-1.32179 -0.45675,-1.68167 -0.29067,-0.48441 -0.68514,-0.85812 -1.18339,-1.12111 -0.49829,-0.2768 -1.06577,-0.41521 -1.70243,-0.41523 -1.55019,2e-5 -2.76819,0.6021 -3.654,1.80624 -0.88582,1.19033 -1.32873,2.84431 -1.32872,4.96196 l 0,11.43949 -7.43256,0 0,-23.25269 7.43256,0 0,3.40486 c 1.1211,-1.35639 2.31141,-2.35293 3.57095,-2.98963 1.2595,-0.6505 2.65051,-0.97576 4.17303,-0.97579 2.68511,3e-5 4.71971,0.82356 6.10383,2.4706 1.3979,1.64709 2.09686,4.04156 2.09689,7.18342"
         id="path3999"
         style="font-variant:normal;font-weight:bold;font-stretch:normal;font-size:42.51919937px;font-family:Verdana;-inkscape-font-specification:Verdana-Bold;writing-mode:lr-tb;fill:#ffffff;fill-opacity:1;stroke:#b64138;stroke-opacity:1" /><path
         d="m 753.87247,-130.37634 0,6.6021 7.66093,0 0,5.3149 -7.66093,0 0,9.86163 c -2e-5,1.0796 0.21452,1.81316 0.6436,2.2007 0.42905,0.37371 1.28026,0.56056 2.55364,0.56056 l 3.82008,0 0,5.3149 -6.37372,0 c -2.93428,0 -5.01733,-0.609 -6.24916,-1.827 -1.21801,-1.23184 -1.827,-3.31489 -1.827,-6.24916 l 0,-9.86163 -3.69552,0 0,-5.3149 3.69552,0 0,-6.6021 7.43256,0"
         id="path4001"
         style="font-variant:normal;font-weight:bold;font-stretch:normal;font-size:42.51919937px;font-family:Verdana;-inkscape-font-specification:Verdana-Bold;writing-mode:lr-tb;fill:#ffffff;fill-opacity:1;stroke:#b64138;stroke-opacity:1" /><path
         d="m 517.95349,-80.495167 7.99311,0 0,30.996662 -7.99311,0 0,-30.996662"
         id="path4003"
         style="font-variant:normal;font-weight:bold;font-stretch:normal;font-size:42.51919937px;font-family:Verdana;-inkscape-font-specification:Verdana-Bold;writing-mode:lr-tb;fill:#ffffff;fill-opacity:1;stroke:#b64138;stroke-opacity:1" /><path
         d="m 554.77336,-64.332072 0,14.159225 -7.47407,0 0,-2.304507 0,-8.532906 c -2e-5,-2.006915 -0.0485,-3.391002 -0.14533,-4.152265 -0.0831,-0.761233 -0.23532,-1.321789 -0.45675,-1.681668 -0.29068,-0.484414 -0.68515,-0.858117 -1.1834,-1.121112 -0.49829,-0.276799 -1.06576,-0.415208 -1.70243,-0.415226 -1.55019,1.8e-5 -2.76819,0.602096 -3.65399,1.806235 -0.88583,1.190332 -1.32874,2.844316 -1.32873,4.961958 l 0,11.439491 -7.43255,0 0,-23.252687 7.43255,0 0,3.404858 c 1.1211,-1.356386 2.31142,-2.352928 3.57095,-2.989631 1.25951,-0.650498 2.65051,-0.975759 4.17303,-0.975783 2.68511,2.4e-5 4.71972,0.823556 6.10383,2.470598 1.3979,1.647085 2.09687,4.041556 2.09689,7.18342"
         id="path4005"
         style="font-variant:normal;font-weight:bold;font-stretch:normal;font-size:42.51919937px;font-family:Verdana;-inkscape-font-specification:Verdana-Bold;writing-mode:lr-tb;fill:#ffffff;fill-opacity:1;stroke:#b64138;stroke-opacity:1" /><path
         d="m 569.78741,-79.353294 0,6.602102 7.66093,0 0,5.3149 -7.66093,0 0,9.861631 c -10e-6,1.079596 0.21452,1.813162 0.6436,2.200701 0.42905,0.373709 1.28027,0.560561 2.55364,0.560555 l 3.82009,0 0,5.3149 -6.37373,0 c -2.93428,0 -5.01733,-0.608998 -6.24916,-1.826996 -1.218,-1.231836 -1.827,-3.314887 -1.827,-6.24916 l 0,-9.861631 -3.69551,0 0,-5.3149 3.69551,0 0,-6.602102 7.43256,0"
         id="path4007"
         style="font-variant:normal;font-weight:bold;font-stretch:normal;font-size:42.51919937px;font-family:Verdana;-inkscape-font-specification:Verdana-Bold;writing-mode:lr-tb;fill:#ffffff;fill-opacity:1;stroke:#b64138;stroke-opacity:1" /><path
         d="m 607.6414,-61.187132 0,2.117655 -17.37723,0 c 0.17992,1.74396 0.80968,3.051922 1.88928,3.923891 1.07957,0.871981 2.58823,1.307968 4.52597,1.307964 1.564,4e-6 3.16262,-0.22837 4.79586,-0.685124 1.64705,-0.470585 3.33563,-1.176469 5.06577,-2.117655 l 0,5.730126 c -1.75782,0.664363 -3.51561,1.162635 -5.27338,1.494816 -1.75781,0.346021 -3.5156,0.519032 -5.27338,0.519033 -4.20764,-1e-6 -7.481,-1.065748 -9.82011,-3.197245 -2.32527,-2.145332 -3.4879,-5.148801 -3.4879,-9.010416 0,-3.792387 1.14187,-6.775095 3.42562,-8.948132 2.29758,-2.172996 5.4533,-3.259505 9.46717,-3.259529 3.65397,2.4e-5 6.5744,1.100373 8.76128,3.301051 2.20067,2.20072 3.30102,5.141905 3.30105,8.823565 m -7.64017,-2.470598 c -2e-5,-1.411755 -0.41525,-2.546706 -1.24568,-3.404858 -0.81663,-0.871957 -1.8893,-1.307945 -3.21801,-1.307964 -1.43946,1.9e-5 -2.60902,0.408325 -3.50866,1.224919 -0.89967,0.802788 -1.46022,1.965421 -1.68167,3.487903 l 9.65402,0"
         id="path4009"
         style="font-variant:normal;font-weight:bold;font-stretch:normal;font-size:42.51919937px;font-family:Verdana;-inkscape-font-specification:Verdana-Bold;writing-mode:lr-tb;fill:#ffffff;fill-opacity:1;stroke:#b64138;stroke-opacity:1" /><path
         d="m 630.61072,-66.418987 c -0.65054,-0.304482 -1.30106,-0.525936 -1.95156,-0.664362 -0.6367,-0.152232 -1.2803,-0.228357 -1.9308,-0.228375 -1.91006,1.8e-5 -3.38411,0.615937 -4.42217,1.847758 -1.02423,1.218013 -1.53635,2.968883 -1.53633,5.252616 l 0,10.712845 -7.43256,0 0,-23.252687 7.43256,0 0,3.820085 c 0.955,-1.522477 2.04843,-2.629747 3.28029,-3.321813 1.24566,-0.705862 2.73355,-1.058804 4.46368,-1.058828 0.24912,2.4e-5 0.51901,0.01386 0.80969,0.04152 0.29064,0.01386 0.71279,0.05539 1.26644,0.124568 l 0.0208,6.72667"
         id="path4011"
         style="font-variant:normal;font-weight:bold;font-stretch:normal;font-size:42.51919937px;font-family:Verdana;-inkscape-font-specification:Verdana-Bold;writing-mode:lr-tb;fill:#ffffff;fill-opacity:1;stroke:#b64138;stroke-opacity:1" /><path
         d="m 652.46779,-81.803131 0,4.878912 -4.11075,0 c -1.05192,2.8e-5 -1.78548,0.1938 -2.2007,0.581317 -0.41523,0.373731 -0.62285,1.031172 -0.62284,1.972327 l 0,1.619383 6.35297,0 0,5.3149 -6.35297,0 0,17.937787 -7.43255,0 0,-17.937787 -3.69552,0 0,-5.3149 3.69552,0 0,-1.619383 c -10e-6,-2.532855 0.70588,-4.401373 2.11765,-5.605559 1.41177,-1.217966 3.59862,-1.826964 6.56058,-1.826997 l 5.68861,0"
         id="path4013"
         style="font-variant:normal;font-weight:bold;font-stretch:normal;font-size:42.51919937px;font-family:Verdana;-inkscape-font-specification:Verdana-Bold;writing-mode:lr-tb;fill:#ffffff;fill-opacity:1;stroke:#b64138;stroke-opacity:1" /><path
         d="m 666.20633,-59.962214 c -1.55019,1.1e-5 -2.71974,0.262987 -3.50866,0.788931 -0.7751,0.525962 -1.16265,1.301051 -1.16264,2.325268 -10e-6,0.941187 0.31141,1.681674 0.93426,2.221462 0.63667,0.525959 1.51557,0.788935 2.63669,0.788931 1.39792,4e-6 2.57439,-0.498267 3.52943,-1.494816 0.955,-1.010378 1.43251,-2.269897 1.43253,-3.778561 l 0,-0.851215 -3.86161,0 m 11.35645,-2.802779 0,13.266488 -7.49484,0 0,-3.44638 c -0.99656,1.411772 -2.11767,2.442917 -3.36334,3.093438 -1.24569,0.63668 -2.76127,0.95502 -4.54673,0.955021 -2.40832,-1e-6 -4.3668,-0.698965 -5.87545,-2.096894 -1.49482,-1.411768 -2.24223,-3.238763 -2.24223,-5.480991 0,-2.726644 0.93426,-4.72665 2.80278,-6.000024 1.88236,-1.273347 4.83046,-1.910027 8.84433,-1.910042 l 4.38064,0 0,-0.581317 c -2e-5,-1.176458 -0.46369,-2.034592 -1.39101,-2.574405 -0.92736,-0.553616 -2.37373,-0.830434 -4.33912,-0.830453 -1.59171,1.9e-5 -3.07268,0.159189 -4.44292,0.477511 -1.37026,0.318358 -2.64362,0.795868 -3.82009,1.432532 l 0,-5.667843 c 1.5917,-0.387522 3.19032,-0.67818 4.79587,-0.871976 1.60553,-0.207589 3.21107,-0.311396 4.81663,-0.31142 4.19377,2.4e-5 7.218,0.830476 9.0727,2.49136 1.86849,1.647085 2.80275,4.332214 2.80278,8.055395"
         id="path4015"
         style="font-variant:normal;font-weight:bold;font-stretch:normal;font-size:42.51919937px;font-family:Verdana;-inkscape-font-specification:Verdana-Bold;writing-mode:lr-tb;fill:#ffffff;fill-opacity:1;stroke:#b64138;stroke-opacity:1" /><path
         d="m 702.97592,-72.024545 0,6.062307 c -1.01041,-0.692027 -2.02771,-1.204139 -3.05192,-1.536338 -1.0104,-0.332163 -2.06231,-0.498253 -3.15572,-0.498272 -2.07615,1.9e-5 -3.69553,0.609017 -4.85815,1.826997 -1.1488,1.204173 -1.7232,2.892759 -1.72319,5.065764 -1e-5,2.173029 0.57439,3.868535 1.72319,5.086525 1.16262,1.204163 2.782,1.806241 4.85815,1.806236 1.16262,5e-6 2.26297,-0.173006 3.30105,-0.519033 1.05189,-0.346017 2.02075,-0.858129 2.90659,-1.536339 l 0,6.08307 c -1.16266,0.429067 -2.34605,0.747407 -3.55019,0.955021 -1.19033,0.221453 -2.38757,0.33218 -3.59171,0.332181 -4.1938,-1e-6 -7.47409,-1.072668 -9.84087,-3.218006 -2.36679,-2.159173 -3.55019,-5.155722 -3.55019,-8.989655 0,-3.83391 1.1834,-6.823538 3.55019,-8.968894 2.36678,-2.159155 5.64707,-3.238743 9.84087,-3.238767 1.21798,2.4e-5 2.41522,0.110751 3.59171,0.332182 1.1903,0.207636 2.37369,0.525976 3.55019,0.955021"
         id="path4017"
         style="font-variant:normal;font-weight:bold;font-stretch:normal;font-size:42.51919937px;font-family:Verdana;-inkscape-font-specification:Verdana-Bold;writing-mode:lr-tb;fill:#ffffff;fill-opacity:1;stroke:#b64138;stroke-opacity:1" /><path
         d="m 732.39942,-61.187132 0,2.117655 -17.37723,0 c 0.17992,1.74396 0.80968,3.051922 1.88928,3.923891 1.07958,0.871981 2.58823,1.307968 4.52597,1.307964 1.564,4e-6 3.16262,-0.22837 4.79587,-0.685124 1.64704,-0.470585 3.33563,-1.176469 5.06576,-2.117655 l 0,5.730126 c -1.75781,0.664363 -3.5156,1.162635 -5.27338,1.494816 -1.75781,0.346021 -3.5156,0.519032 -5.27337,0.519033 -4.20764,-1e-6 -7.48101,-1.065748 -9.82011,-3.197245 -2.32527,-2.145332 -3.48791,-5.148801 -3.4879,-9.010416 -10e-6,-3.792387 1.14187,-6.775095 3.42562,-8.948132 2.29757,-2.172996 5.45329,-3.259505 9.46716,-3.259529 3.65398,2.4e-5 6.5744,1.100373 8.76128,3.301051 2.20068,2.20072 3.30103,5.141905 3.30105,8.823565 m -7.64017,-2.470598 c -2e-5,-1.411755 -0.41524,-2.546706 -1.24568,-3.404858 -0.81663,-0.871957 -1.88929,-1.307945 -3.218,-1.307964 -1.43947,1.9e-5 -2.60902,0.408325 -3.50867,1.224919 -0.89966,0.802788 -1.46022,1.965421 -1.68166,3.487903 l 9.65401,0"
         id="path4019"
         style="font-variant:normal;font-weight:bold;font-stretch:normal;font-size:42.51919937px;font-family:Verdana;-inkscape-font-specification:Verdana-Bold;writing-mode:lr-tb;fill:#ffffff;fill-opacity:1;stroke:#b64138;stroke-opacity:1" /></g></g></svg>