<?xml version="1.0" encoding="UTF-8" standalone="no"?>
<!-- Created with Inkscape (http://www.inkscape.org/) -->

<svg
   xmlns:dc="http://purl.org/dc/elements/1.1/"
   xmlns:cc="http://creativecommons.org/ns#"
   xmlns:rdf="http://www.w3.org/1999/02/22-rdf-syntax-ns#"
   xmlns:svg="http://www.w3.org/2000/svg"
   xmlns="http://www.w3.org/2000/svg"
   xmlns:xlink="http://www.w3.org/1999/xlink"
   xmlns:sodipodi="http://sodipodi.sourceforge.net/DTD/sodipodi-0.dtd"
   xmlns:inkscape="http://www.inkscape.org/namespaces/inkscape"
   version="1.2"
   width="570.1723"
   height="324.88583"
   id="svg2"
   xml:space="preserve"
   inkscape:version="0.48.5 r10040"
   sodipodi:docname="rtxi-2.0-release-banner.svg"><sodipodi:namedview
     pagecolor="#ffffff"
     bordercolor="#666666"
     borderopacity="1"
     objecttolerance="10"
     gridtolerance="10"
     guidetolerance="10"
     inkscape:pageopacity="0"
     inkscape:pageshadow="2"
     inkscape:window-width="1920"
     inkscape:window-height="1032"
     id="namedview80"
     showgrid="false"
     inkscape:zoom="1.8337068"
     inkscape:cx="239.48473"
     inkscape:cy="123.52473"
     inkscape:window-x="0"
     inkscape:window-y="0"
     inkscape:window-maximized="1"
     inkscape:current-layer="g10"
     fit-margin-top="0"
     fit-margin-left="0"
     fit-margin-right="0"
     fit-margin-bottom="0" /><metadata
     id="metadata8"><rdf:RDF><cc:Work
         rdf:about=""><dc:format>image/svg+xml</dc:format><dc:type
           rdf:resource="http://purl.org/dc/dcmitype/StillImage" /><dc:title></dc:title></cc:Work></rdf:RDF></metadata><defs
     id="defs6"><clipPath
       id="clipPath16"><path
         d="m 392.307,99.932 c 3.649,-2.391 7.289,-4.894 10.753,-7.416 l 0,0 c 3.511,-2.559 6.843,-5.138 9.822,-7.641 l 0,0 c 3.015,-2.538 5.667,-4.998 7.764,-7.273 l 0,0 3.161,9.49 c 0.188,-0.109 0.37,-0.218 0.544,-0.328 l 0,0 c 0.177,-0.107 0.349,-0.215 0.517,-0.323 l 0,0 c 0.166,-0.11 0.33,-0.218 0.488,-0.325 l 0,0 c 0.159,-0.109 0.312,-0.218 0.464,-0.327 l 0,0 c 0.642,-0.464 1.216,-0.933 1.716,-1.41 l 0,0 c 0.502,-0.478 0.931,-0.961 1.291,-1.453 l 0,0 c 0.36,-0.494 0.645,-0.997 0.857,-1.509 l 0,0 c 0.215,-0.513 0.354,-1.037 0.419,-1.575 l 0,0 c 0.117,-0.942 -0.026,-1.906 -0.419,-2.889 l 0,0 c -0.398,-0.991 -1.05,-1.999 -1.953,-3.015 l 0,0 c -0.908,-1.026 -2.07,-2.062 -3.478,-3.097 l 0,0 c -1.42,-1.046 -3.092,-2.091 -5.008,-3.131 l 0,0 c -2.894,-1.581 -6.332,-3.15 -10.252,-4.691 l 0,0 c -3.977,-1.568 -8.449,-3.108 -13.353,-4.607 l 0,0 c -4.981,-1.521 -10.405,-3.001 -16.204,-4.423 l 0,0 c -5.887,-1.443 -12.16,-2.826 -18.738,-4.131 l 0,0 c -6.676,-1.325 -13.663,-2.573 -20.88,-3.726 l 0,0 c -7.321,-1.169 -14.868,-2.238 -22.544,-3.191 l 0,0 c -7.779,-0.963 -15.681,-1.807 -23.6,-2.513 l 0,0 c -8.015,-0.712 -16.035,-1.282 -23.939,-1.688 l 0,0 c -0.01,0 -0.018,0 -0.027,-0.001 l 0,0 -0.026,0 -0.027,0 c -0.008,-0.003 -0.018,-0.003 -0.025,-0.003 l 0,0 C 258.609,38.17 247.421,37.88 236.209,37.858 l 0,0 c -11.342,-0.026 -22.676,0.225 -33.861,0.736 l 0,0 c -11.277,0.514 -22.366,1.286 -33.117,2.31 l 0,0 c -10.808,1.028 -21.239,2.301 -31.146,3.799 l 0,0 c -4.966,0.752 -9.794,1.556 -14.463,2.416 l 0,0 c -4.669,0.858 -9.179,1.764 -13.511,2.722 l 0,0 c -4.327,0.955 -8.472,1.955 -12.421,3.001 l 0,0 c -3.943,1.044 -7.684,2.125 -11.21,3.248 l 0,0 c -3.52,1.118 -6.82,2.271 -9.893,3.458 l 0,0 c -3.063,1.181 -5.896,2.394 -8.493,3.631 l 0,0 c -2.588,1.234 -4.937,2.495 -7.044,3.78 l 0,0 c -2.098,1.275 -3.952,2.575 -5.56,3.894 l 0,0 c -0.937,0.768 -1.783,1.515 -2.541,2.244 l 0,0 c -0.758,0.724 -1.426,1.428 -2.009,2.11 l 0,0 c -0.581,0.681 -1.077,1.342 -1.49,1.98 l 0,0 c -0.414,0.636 -0.746,1.251 -0.997,1.846 l 0,0 c -0.308,0.729 -0.504,1.429 -0.587,2.098 l 0,0 c -0.086,0.665 -0.062,1.301 0.07,1.912 l 0,0 c 0.131,0.608 0.369,1.193 0.707,1.754 l 0,0 c 0.339,0.561 0.78,1.098 1.32,1.62 l 0,0 c 0.802,0.772 1.849,1.52 3.164,2.24 l 0,0 c 1.309,0.716 2.882,1.401 4.743,2.056 l 0,0 c 1.849,0.651 3.985,1.271 6.427,1.856 l 0,0 c 2.427,0.579 5.159,1.127 8.215,1.635 l 0,0 c 3.025,0.504 6.355,0.963 9.99,1.377 l 0,0 c 3.611,0.41 7.516,0.91 11.731,1.089 l 0,0 c 1.63,0.068 1.618,0.068 1.577,0.067 l 0,0 c -0.048,-10e-4 -0.136,-10e-4 2.452,0.116 l 0,0 0,6.486 c -6.506,-0.32 -12.99,-0.742 -18.596,-1.267 l 0,0 c -5.659,-0.532 -10.862,-1.174 -15.617,-1.928 l 0,0 C 59.251,99.383 54.91,98.502 51.023,97.495 l 0,0 c -1.951,-0.506 -3.783,-1.051 -5.49,-1.628 l 0,0 c -1.715,-0.582 -3.304,-1.198 -4.758,-1.849 l 0,0 c -1.461,-0.656 -2.787,-1.346 -3.967,-2.071 l 0,0 C 35.622,91.217 34.582,90.452 33.7,89.649 l 0,0 C 32.805,88.845 32.076,88.01 31.51,87.144 l 0,0 c -0.571,-0.868 -0.977,-1.763 -1.223,-2.685 l 0,0 c -0.249,-0.925 -0.335,-1.875 -0.261,-2.843 l 0,0 c 0.072,-0.975 0.304,-1.97 0.695,-2.98 l 0,0 c 0.316,-0.825 0.734,-1.659 1.248,-2.505 l 0,0 c 0.516,-0.851 1.129,-1.713 1.839,-2.583 l 0,0 c 0.712,-0.877 1.52,-1.764 2.422,-2.662 l 0,0 c 0.905,-0.903 1.904,-1.816 2.995,-2.742 l 0,0 c 2,-1.695 4.301,-3.351 6.886,-4.961 l 0,0 c 2.6,-1.622 5.482,-3.198 8.625,-4.723 l 0,0 c 3.158,-1.534 6.577,-3.017 10.23,-4.446 l 0,0 c 3.668,-1.433 7.571,-2.812 11.682,-4.131 l 0,0 c 6.2,-1.989 12.863,-3.843 19.938,-5.562 l 0,0 c 7.09,-1.724 14.576,-3.307 22.398,-4.743 l 0,0 c 7.823,-1.433 15.967,-2.722 24.371,-3.858 l 0,0 c 8.386,-1.132 17.014,-2.112 25.826,-2.937 l 0,0 c 8.774,-0.815 17.716,-1.475 26.764,-1.969 l 0,0 c 8.992,-0.495 18.074,-0.824 27.186,-0.989 l 0,0 c 9.039,-0.162 18.089,-0.16 27.094,0.006 l 0,0 c 8.92,0.167 17.782,0.499 26.528,0.995 l 0,0 c 12.74,0.726 25.615,1.846 38.258,3.291 l 0,0 c 12.386,1.416 24.508,3.137 36.048,5.101 l 0,0 c 11.278,1.922 21.977,4.069 31.821,6.383 l 0,0 c 9.614,2.265 18.406,4.685 26.142,7.215 l 0,0 c 3.797,1.248 7.336,2.519 10.596,3.816 l 0,0 c 3.221,1.279 6.168,2.581 8.809,3.905 l 0,0 c 2.613,1.307 4.929,2.638 6.922,3.986 l 0,0 c 1.973,1.334 3.63,2.687 4.944,4.058 l 0,0 c 0.651,0.68 1.217,1.367 1.696,2.06 l 0,0 c 0.475,0.688 0.86,1.384 1.15,2.086 l 0,0 c 0.29,0.699 0.483,1.405 0.577,2.119 l 0,0 c 0.094,0.71 0.087,1.431 -0.026,2.158 l 0,0 c -0.111,0.722 -0.329,1.457 -0.669,2.2 l 0,0 c -0.338,0.742 -0.792,1.494 -1.371,2.252 l 0,0 c -0.577,0.756 -1.276,1.519 -2.104,2.285 l 0,0 c -0.827,0.764 -1.782,1.532 -2.873,2.303 l 0,0 c -0.516,0.365 -1.059,0.73 -1.631,1.093 l 0,0 c -0.572,0.363 -1.172,0.724 -1.801,1.085 l 0,0 c -0.626,0.36 -1.279,0.718 -1.961,1.075 l 0,0 c -0.678,0.355 -1.384,0.708 -2.117,1.058 l 0,0 21.162,2.427 c -4.91,0.632 -10.347,1.479 -16.074,2.479 l 0,0 c -5.73,1 -11.742,2.154 -17.797,3.396 l 0,0 c -6.052,1.239 -12.141,2.566 -18.033,3.915 l 0,0 c -5.881,1.348 -11.562,2.717 -16.81,4.046 l 0,0 c 3.474,-2.065 7.091,-4.323 10.696,-6.686"
         id="path18"
         inkscape:connector-curvature="0" /></clipPath><linearGradient
       x1="0"
       y1="0"
       x2="1"
       y2="0"
       id="linearGradient24"
       gradientUnits="userSpaceOnUse"
       gradientTransform="matrix(420.3252,0,0,-420.3252,30.000004,68.161629)"
       spreadMethod="pad"><stop
         id="stop26"
         style="stop-color:#b64138;stop-opacity:1"
         offset="0" /><stop
         id="stop28"
         style="stop-color:#ffffff;stop-opacity:1"
         offset="1" /></linearGradient><clipPath
       id="clipPath36"><path
         d="M 0,246 820,246 820,0 0,0 0,246 z"
         id="path38"
         inkscape:connector-curvature="0" /></clipPath><linearGradient
       x1="30.000368"
       y1="68.161491"
       x2="450.32501"
       y2="68.161491"
       id="linearGradient4027"
       xlink:href="#linearGradient24"
       gradientUnits="userSpaceOnUse" /><linearGradient
       x1="30.000368"
       y1="68.161491"
       x2="450.32501"
       y2="68.161491"
       id="linearGradient3814"
       xlink:href="#linearGradient24"
       gradientUnits="userSpaceOnUse" /><linearGradient
       x1="30.000368"
       y1="68.161491"
       x2="450.32501"
       y2="68.161491"
       id="linearGradient3042"
       xlink:href="#linearGradient24"
       gradientUnits="userSpaceOnUse" /><linearGradient
       x1="30.000368"
       y1="68.161491"
       x2="450.32501"
       y2="68.161491"
       id="linearGradient3044"
       xlink:href="#linearGradient24"
       gradientUnits="userSpaceOnUse" /><linearGradient
       x1="30.000368"
       y1="68.161491"
       x2="450.32501"
       y2="68.161491"
       id="linearGradient3046"
       xlink:href="#linearGradient24"
       gradientUnits="userSpaceOnUse" /><linearGradient
       x1="30.000368"
       y1="68.161491"
       x2="450.32501"
       y2="68.161491"
       id="linearGradient3048"
       xlink:href="#linearGradient24"
       gradientUnits="userSpaceOnUse" /><linearGradient
       x1="30.000368"
       y1="68.161491"
       x2="450.32501"
       y2="68.161491"
       id="linearGradient3050"
       xlink:href="#linearGradient24"
       gradientUnits="userSpaceOnUse" /><linearGradient
       x1="30.000368"
       y1="68.161491"
       x2="450.32501"
       y2="68.161491"
       id="linearGradient3052"
       xlink:href="#linearGradient24"
       gradientUnits="userSpaceOnUse" /><linearGradient
       x1="30.000368"
       y1="68.161491"
       x2="450.32501"
       y2="68.161491"
       id="linearGradient3054"
       xlink:href="#linearGradient24"
       gradientUnits="userSpaceOnUse" /><linearGradient
       x1="30.000368"
       y1="68.161491"
       x2="450.32501"
       y2="68.161491"
       id="linearGradient3056"
       xlink:href="#linearGradient24"
       gradientUnits="userSpaceOnUse" /><linearGradient
       x1="30.000368"
       y1="68.161491"
       x2="450.32501"
       y2="68.161491"
       id="linearGradient3881"
       xlink:href="#linearGradient24"
       gradientUnits="userSpaceOnUse" /><linearGradient
       x1="30.000368"
       y1="68.161491"
       x2="450.32501"
       y2="68.161491"
       id="linearGradient3934"
       xlink:href="#linearGradient24"
       gradientUnits="userSpaceOnUse" /><linearGradient
       x1="30.000368"
       y1="68.161491"
       x2="450.32501"
       y2="68.161491"
       id="linearGradient3936"
       xlink:href="#linearGradient24"
       gradientUnits="userSpaceOnUse" /><linearGradient
       x1="30.000368"
       y1="68.161491"
       x2="450.32501"
       y2="68.161491"
       id="linearGradient3938"
       xlink:href="#linearGradient24"
       gradientUnits="userSpaceOnUse" /><linearGradient
       x1="30.000368"
       y1="68.161491"
       x2="450.32501"
       y2="68.161491"
       id="linearGradient3940"
       xlink:href="#linearGradient24"
       gradientUnits="userSpaceOnUse" /><linearGradient
       x1="30.000368"
       y1="68.161491"
       x2="450.32501"
       y2="68.161491"
       id="linearGradient3942"
       xlink:href="#linearGradient24"
       gradientUnits="userSpaceOnUse" /><linearGradient
       x1="30.000368"
       y1="68.161491"
       x2="450.32501"
       y2="68.161491"
       id="linearGradient3944"
       xlink:href="#linearGradient24"
       gradientUnits="userSpaceOnUse" /><linearGradient
       inkscape:collect="always"
       xlink:href="#linearGradient24"
       id="linearGradient3900"
       gradientUnits="userSpaceOnUse"
       x1="30.000368"
       y1="68.161491"
       x2="450.32501"
       y2="68.161491" /><linearGradient
       inkscape:collect="always"
       xlink:href="#linearGradient24"
       id="linearGradient3902"
       gradientUnits="userSpaceOnUse"
       x1="30.000368"
       y1="68.161491"
       x2="450.32501"
       y2="68.161491" /><linearGradient
       inkscape:collect="always"
       xlink:href="#linearGradient24"
       id="linearGradient3904"
       gradientUnits="userSpaceOnUse"
       x1="30.000368"
       y1="68.161491"
       x2="450.32501"
       y2="68.161491" /><linearGradient
       inkscape:collect="always"
       xlink:href="#linearGradient24"
       id="linearGradient3906"
       gradientUnits="userSpaceOnUse"
       x1="30.000368"
       y1="68.161491"
       x2="450.32501"
       y2="68.161491" /><linearGradient
       inkscape:collect="always"
       xlink:href="#linearGradient24"
       id="linearGradient3908"
       gradientUnits="userSpaceOnUse"
       x1="30.000368"
       y1="68.161491"
       x2="450.32501"
       y2="68.161491" /><linearGradient
       inkscape:collect="always"
       xlink:href="#linearGradient24"
       id="linearGradient3910"
       gradientUnits="userSpaceOnUse"
       x1="30.000368"
       y1="68.161491"
       x2="450.32501"
       y2="68.161491" /></defs><g
     transform="matrix(1.25,0,0,-1.25,-48.859759,418.07605)"
     id="g10"><g
       style="fill:#ffffff;fill-opacity:1"
       id="g40"
       transform="translate(68.358807,223.10834)"><path
         inkscape:connector-curvature="0"
         style="fill:#ffffff;fill-opacity:1;stroke:none"
         id="path42"
         d="M 0,0 5.812,0 C 16.711,0 22.16,5.69 22.16,17.072 22.16,28.454 16.711,34.146 5.812,34.146 L 0,34.146 0,0 z m -28.771,-55.874 0,99.175 42.648,0 c 11.091,0 19.955,-2.338 26.592,-7.012 6.635,-4.674 9.953,-10.935 9.953,-18.78 0,-12.013 -7.119,-19.836 -21.361,-23.468 7.313,-2.713 12.048,-5.692 14.205,-8.937 2.154,-3.245 3.62,-9.543 4.394,-18.889 0.92,-11.142 2.785,-18.505 5.596,-22.089 l -31.242,0 c -1.987,4.601 -2.979,10.341 -2.979,17.22 l -0.144,5.884 -0.146,7.412 c 0,11.431 -4.602,17.145 -13.806,17.145 l -4.939,0 0,-47.661 -28.771,0 z" /></g><g
       style="fill:#ffffff;fill-opacity:1"
       id="g44"
       transform="translate(68.358807,223.10834)"><path
         inkscape:connector-curvature="0"
         style="fill:#ffffff;fill-opacity:1;stroke:#b64138;stroke-width:1;stroke-linecap:butt;stroke-linejoin:miter;stroke-miterlimit:4;stroke-opacity:1;stroke-dasharray:none"
         id="path46"
         d="M 0,0 5.812,0 C 16.711,0 22.16,5.69 22.16,17.072 22.16,28.454 16.711,34.146 5.812,34.146 L 0,34.146 0,0 z m -28.771,-55.874 0,99.175 42.648,0 c 11.091,0 19.955,-2.338 26.592,-7.012 6.635,-4.674 9.953,-10.935 9.953,-18.78 0,-12.013 -7.119,-19.836 -21.361,-23.468 7.313,-2.713 12.048,-5.692 14.205,-8.937 2.154,-3.245 3.62,-9.543 4.394,-18.889 0.92,-11.142 2.785,-18.505 5.596,-22.089 l -31.242,0 c -1.987,4.601 -2.979,10.341 -2.979,17.22 l -0.144,5.884 -0.146,7.412 c 0,11.431 -4.602,17.145 -13.806,17.145 l -4.939,0 0,-47.661 -28.771,0 z" /></g><g
       style="fill:#ffffff;fill-opacity:1"
       id="g48"
       transform="translate(196.30111,266.40904)"><path
         inkscape:connector-curvature="0"
         style="fill:#ffffff;fill-opacity:1;stroke:none"
         id="path50"
         d="m 0,0 0,-9.954 -24.338,0 0,-89.221 -30.514,0 0,89.221 -24.485,0 0,9.954 L 0,0 z" /></g><g
       style="fill:#ffffff;fill-opacity:1"
       id="g52"
       transform="translate(196.30111,266.40904)"><path
         inkscape:connector-curvature="0"
         style="fill:#ffffff;fill-opacity:1;stroke:#b64138;stroke-width:1;stroke-linecap:butt;stroke-linejoin:miter;stroke-miterlimit:4;stroke-opacity:1;stroke-dasharray:none"
         id="path54"
         d="m 0,0 0,-9.954 -24.338,0 0,-89.221 -30.514,0 0,89.221 -24.485,0 0,9.954 L 0,0 z" /></g><g
       style="fill:#ffffff;fill-opacity:1"
       id="g56"
       transform="translate(330.68591,333.96084)"><path
         inkscape:connector-curvature="0"
         style="fill:#ffffff;fill-opacity:1;stroke:none"
         id="path58"
         d="m 0,0 -74.08,-109.982 31.603,-56.745 -31.968,0 -19.035,34.876 -21.141,-34.876 -12.934,0 27.971,45.336 -29.932,53.839 31.895,0 17.728,-32.332 L -28.375,-9.97 0,0 z" /></g><g
       style="fill:#ffffff;fill-opacity:1"
       id="g60"
       transform="translate(330.68591,333.96084)"><path
         inkscape:connector-curvature="0"
         style="fill:#ffffff;fill-opacity:1;stroke:#b64138;stroke-width:1;stroke-linecap:butt;stroke-linejoin:miter;stroke-miterlimit:4;stroke-opacity:1;stroke-dasharray:none"
         id="path62"
         d="m 0,0 -74.08,-109.982 31.603,-56.745 -31.968,0 -19.035,34.876 -21.141,-34.876 -12.934,0 27.971,45.336 -29.932,53.839 31.895,0 17.728,-32.332 L -28.375,-9.97 0,0 z" /></g><path
       inkscape:connector-curvature="0"
       style="fill:#ffffff;fill-opacity:1;stroke:#b64138;stroke-width:1;stroke-linecap:butt;stroke-linejoin:miter;stroke-miterlimit:4;stroke-opacity:1;stroke-dasharray:none"
       id="path64"
       d="m 322.45591,167.23384 -28.771,0 0,99.175 28.771,0 0,-99.175 z" /><g
       transform="matrix(0.84296552,0,0,-0.84296552,-7.3974945,235.78463)"
       style="font-size:40px;font-style:normal;font-weight:normal;line-height:125%;letter-spacing:0px;word-spacing:0px;fill:#ffffff;fill-opacity:1;stroke:#b64138;stroke-opacity:1;font-family:Sans"
       id="flowRoot3061"><path
         d="m 439.79883,65.332608 45.43945,0 0,10.957031 -61.10156,0 0,-10.957031 c 4.94139,-5.113265 11.66599,-11.966774 20.17383,-20.560547 8.55074,-8.636678 13.92183,-14.201126 16.11328,-16.693359 4.16792,-4.683541 7.0683,-8.636662 8.70117,-11.859375 1.67572,-3.265562 2.51361,-6.4667306 2.51367,-9.6035159 -6e-5,-5.1132064 -1.80474,-9.281171 -5.41406,-12.5039062 -3.56646,-3.2225709 -8.22856,-4.8338969 -13.98633,-4.8339839 -4.08206,8.7e-5 -8.40042,0.70907 -12.95508,2.1269526 -4.51174,1.4180523 -9.34572,3.5664876 -14.50195,6.4453125 l 0,-13.1484371 c 5.24217,-2.105375 10.1406,-3.695218 14.69531,-4.769532 4.55466,-1.074121 8.72263,-1.61123 12.50391,-1.611328 9.9687,9.8e-5 17.91791,2.492283 23.84765,7.476563 5.92963,4.9844603 8.89447,11.6446099 8.89454,19.9804685 -7e-5,3.9531916 -0.75203,7.7129535 -2.25586,11.2792965 -1.46101,3.523494 -4.14655,7.691458 -8.05664,12.503907 -1.07428,1.246139 -4.49029,4.85551 -10.24805,10.828125 -5.75786,5.929717 -13.87894,14.244162 -24.36328,24.943359"
         style="font-size:132px;letter-spacing:-10px;fill:#ffffff;fill-opacity:1;stroke:#b64138;stroke-opacity:1"
         id="path3846"
         inkscape:connector-curvature="0" /><path
         d="m 502.63086,59.918546 13.59961,0 0,16.371093 -13.59961,0 0,-16.371093"
         style="font-size:132px;letter-spacing:-10px;fill:#ffffff;fill-opacity:1;stroke:#b64138;stroke-opacity:1"
         id="path3848"
         inkscape:connector-curvature="0" /><path
         d="m 562.49805,-11.366611 c -6.70316,8.8e-5 -11.75199,3.3086784 -15.14649,9.9257815 -3.35158,6.5742899 -5.02736,16.4785765 -5.02734,29.7128905 -2e-5,13.191441 1.67576,23.095728 5.02734,29.712891 3.3945,6.57423 8.44333,9.861336 15.14649,9.861328 6.74604,8e-6 11.79486,-3.287098 15.14648,-9.861328 3.39447,-6.617163 5.09174,-16.52145 5.0918,-29.712891 -6e-5,-13.234314 -1.69733,-23.1386006 -5.0918,-29.7128905 -3.35162,-6.6171031 -8.40044,-9.9256935 -15.14648,-9.9257815 m 0,-10.3125 c 10.7851,9.8e-5 19.01361,4.275485 24.68554,12.8261721 5.71478,8.50788917 8.57219,20.8828769 8.57227,37.1249999 -8e-5,16.199251 -2.85749,28.574238 -8.57227,37.125 -5.67193,8.507815 -13.90044,12.761717 -24.68554,12.761719 -10.78519,-2e-6 -19.03518,-4.253904 -24.75,-12.761719 -5.67189,-8.550762 -8.50782,-20.925749 -8.50782,-37.125 0,-16.242123 2.83593,-28.61711073 8.50782,-37.1249999 5.71482,-8.5506871 13.96481,-12.8260741 24.75,-12.8261721"
         style="font-size:132px;letter-spacing:-10px;fill:#ffffff;fill-opacity:1;stroke:#b64138;stroke-opacity:1"
         id="path3850"
         inkscape:connector-curvature="0" /></g><g
       transform="matrix(0.8,0,0,-0.8,64.902349,249.41974)"
       style="font-size:108px;font-style:normal;font-weight:normal;line-height:125%;letter-spacing:0px;word-spacing:0px;fill:#ffd912;fill-opacity:1;stroke:none;font-family:Sans"
       id="flowRoot3069"><path
         d="m 55.560547,180.1411 c 2.285106,0.77347 4.499947,2.42581 6.644531,4.95703 2.179631,2.53128 4.359316,6.01174 6.539063,10.4414 l 10.810546,21.51563 -11.443359,0 -10.072266,-20.19727 c -2.60161,-5.27341 -5.132857,-8.77145 -7.59375,-10.49414 -2.425821,-1.72262 -5.748083,-2.58395 -9.966796,-2.58398 l -11.601563,0 0,33.27539 -10.652344,0 0,-78.73242 24.046875,0 c 8.999957,8e-5 15.714794,1.88093 20.144532,5.64258 4.429628,3.76178 6.644469,9.43951 6.644531,17.0332 -6.2e-5,4.95708 -1.160217,9.07036 -3.480469,12.33984 -2.285212,3.26957 -5.625052,5.53715 -10.019531,6.80274 m -26.683594,-33.06446 0,27.94922 13.394531,0 c 5.132773,4e-5 8.999957,-1.17769 11.601563,-3.5332 2.63667,-2.39058 3.955028,-5.88862 3.955078,-10.49414 -5e-5,-4.60541 -1.318408,-8.0683 -3.955078,-10.38867 -2.601606,-2.3554 -6.46879,-3.53314 -11.601563,-3.53321 l -13.394531,0"
         style="fill:#ffd912;fill-opacity:1;stroke:none"
         id="path3853"
         inkscape:connector-curvature="0" /><path
         d="m 138.56445,185.09813 0,4.74609 -44.613278,0 c 0.421858,6.67971 2.425763,11.77736 6.011719,15.29297 3.621069,3.48048 8.648409,5.22071 15.082029,5.2207 3.72652,1e-5 7.33004,-0.45702 10.81055,-1.37109 3.51557,-0.91405 6.99604,-2.28515 10.4414,-4.11328 l 0,9.17578 c -3.48052,1.47656 -7.04887,2.60156 -10.70507,3.375 -3.6563,0.77344 -7.36528,1.16015 -11.12696,1.16016 -9.4219,-1e-5 -16.892594,-2.74219 -22.412106,-8.22657 -5.484383,-5.48436 -8.226568,-12.90232 -8.226562,-22.2539 -6e-6,-9.66793 2.601554,-17.33199 7.804687,-22.99219 5.238263,-5.69525 12.287081,-8.54291 21.146481,-8.54297 7.94527,6e-5 14.22066,2.56647 18.82618,7.69922 4.64056,5.0977 6.96087,12.04106 6.96093,20.83008 m -9.70312,-2.84766 c -0.0704,-5.30855 -1.5645,-9.54488 -4.48242,-12.70898 -2.88286,-3.16401 -6.71489,-4.74604 -11.4961,-4.7461 -5.41409,6e-5 -9.75588,1.52935 -13.025388,4.58789 -3.234394,3.05864 -5.097673,7.36528 -5.589844,12.91993 l 34.593752,-0.0527"
         style="fill:#ffd912;fill-opacity:1;stroke:none"
         id="path3855"
         inkscape:connector-curvature="0" /><path
         d="m 154.49023,135.00047 9.70313,0 0,82.05469 -9.70313,0 0,-82.05469"
         style="fill:#ffd912;fill-opacity:1;stroke:none"
         id="path3857"
         inkscape:connector-curvature="0" /><path
         d="m 234.96289,185.09813 0,4.74609 -44.61328,0 c 0.42186,6.67971 2.42576,11.77736 6.01172,15.29297 3.62107,3.48048 8.6484,5.22071 15.08203,5.2207 3.72652,1e-5 7.33003,-0.45702 10.81055,-1.37109 3.51557,-0.91405 6.99604,-2.28515 10.4414,-4.11328 l 0,9.17578 c -3.48052,1.47656 -7.04888,2.60156 -10.70508,3.375 -3.65629,0.77344 -7.36527,1.16015 -11.12695,1.16016 -9.4219,-1e-5 -16.8926,-2.74219 -22.41211,-8.22657 -5.48438,-5.48436 -8.22657,-12.90232 -8.22656,-22.2539 -1e-5,-9.66793 2.60155,-17.33199 7.80469,-22.99219 5.23826,-5.69525 12.28708,-8.54291 21.14648,-8.54297 7.94527,6e-5 14.22066,2.56647 18.82617,7.69922 4.64057,5.0977 6.96088,12.04106 6.96094,20.83008 m -9.70312,-2.84766 c -0.0704,-5.30855 -1.56451,-9.54488 -4.48243,-12.70898 -2.88285,-3.16401 -6.71488,-4.74604 -11.49609,-4.7461 -5.41409,6e-5 -9.75588,1.52935 -13.02539,4.58789 -3.23439,3.05864 -5.09767,7.36528 -5.58984,12.91993 l 34.59375,-0.0527"
         style="fill:#ffd912;fill-opacity:1;stroke:none"
         id="path3859"
         inkscape:connector-curvature="0" /><path
         d="m 277.73047,187.36571 c -7.83987,3e-5 -13.27151,0.89651 -16.29492,2.68945 -3.02346,1.79299 -4.53518,4.85158 -4.53516,9.17578 -2e-5,3.44533 1.12498,6.18751 3.375,8.22656 2.28514,2.00392 5.37888,3.00587 9.28125,3.00586 5.37887,1e-5 9.68551,-1.89843 12.91992,-5.69531 3.26949,-3.83202 4.90425,-8.91209 4.9043,-15.24023 l 0,-2.16211 -9.65039,0 m 19.35351,-4.00782 0,33.69727 -9.70312,0 0,-8.96484 c -2.21489,3.58594 -4.97465,6.24023 -8.2793,7.96289 -3.30472,1.6875 -7.34768,2.53124 -12.1289,2.53125 -6.0469,-1e-5 -10.8633,-1.6875 -14.44922,-5.0625 -3.55079,-3.41015 -5.32618,-7.96288 -5.32617,-13.65821 -1e-5,-6.6445 2.21483,-11.65426 6.64453,-15.02929 4.46482,-3.37497 11.10935,-5.06247 19.93359,-5.0625 l 13.60547,0 0,-0.94922 c -5e-5,-4.4648 -1.47661,-7.91011 -4.42969,-10.33594 -2.91801,-2.46089 -7.03128,-3.69135 -12.33984,-3.69141 -3.37503,6e-5 -6.66213,0.40435 -9.86133,1.21289 -3.19924,0.80865 -6.2754,2.02154 -9.22852,3.63868 l 0,-8.96485 c 3.55077,-1.37103 6.99608,-2.39056 10.33594,-3.05859 3.33982,-0.70307 6.59177,-1.05463 9.75586,-1.05469 8.54293,6e-5 14.92378,2.2149 19.14258,6.64453 4.2187,4.42974 6.32807,11.14458 6.32812,20.14453"
         style="fill:#ffd912;fill-opacity:1;stroke:none"
         id="path3861"
         inkscape:connector-curvature="0" /><path
         d="m 354.77539,159.73289 0,9.17579 c -2.74223,-1.40621 -5.58989,-2.46089 -8.54297,-3.16407 -2.95316,-0.70307 -6.01175,-1.05463 -9.17578,-1.05468 -4.81643,5e-5 -8.43752,0.73833 -10.86328,2.21484 -2.39064,1.47661 -3.58595,3.69145 -3.58594,6.64453 -10e-6,2.25004 0.86131,4.02543 2.58399,5.32617 1.72263,1.26566 5.18552,2.47855 10.38867,3.63867 l 3.32226,0.73829 c 6.89059,1.47659 11.7773,3.56838 14.66016,6.27539 2.91792,2.6719 4.3769,6.41603 4.37695,11.23242 -5e-5,5.48438 -2.17973,9.82618 -6.53906,13.02539 -4.32426,3.19922 -10.28324,4.79882 -17.87695,4.79883 -3.16409,-1e-5 -6.46877,-0.31641 -9.91407,-0.94922 -3.41016,-0.59766 -7.01368,-1.51172 -10.81054,-2.74219 l 0,-10.01953 c 3.58593,1.86329 7.11913,3.26954 10.59961,4.21875 3.48045,0.91407 6.92576,1.3711 10.33593,1.37109 4.57029,1e-5 8.08591,-0.77343 10.54688,-2.32031 2.4609,-1.58202 3.69137,-3.79686 3.69141,-6.64453 -4e-5,-2.6367 -0.89653,-4.65818 -2.68946,-6.06445 -1.75785,-1.40623 -5.64261,-2.75975 -11.65429,-4.06055 l -3.375,-0.79102 c -6.01174,-1.26559 -10.35353,-3.19919 -13.02539,-5.80078 -2.67189,-2.63668 -4.00782,-6.24019 -4.00782,-10.81054 0,-5.55464 1.96874,-9.8437 5.90625,-12.86719 3.93749,-3.02338 9.52733,-4.5351 16.76953,-4.53516 3.58591,6e-5 6.96091,0.26373 10.125,0.79102 3.16402,0.5274 6.08199,1.31841 8.75391,2.37304"
         style="fill:#ffd912;fill-opacity:1;stroke:none"
         id="path3863"
         inkscape:connector-curvature="0" /><path
         d="m 423.96289,185.09813 0,4.74609 -44.61328,0 c 0.42186,6.67971 2.42576,11.77736 6.01172,15.29297 3.62107,3.48048 8.6484,5.22071 15.08203,5.2207 3.72652,1e-5 7.33003,-0.45702 10.81055,-1.37109 3.51557,-0.91405 6.99604,-2.28515 10.4414,-4.11328 l 0,9.17578 c -3.48052,1.47656 -7.04888,2.60156 -10.70508,3.375 -3.65629,0.77344 -7.36527,1.16015 -11.12695,1.16016 -9.4219,-1e-5 -16.8926,-2.74219 -22.41211,-8.22657 -5.48438,-5.48436 -8.22657,-12.90232 -8.22656,-22.2539 -10e-6,-9.66793 2.60155,-17.33199 7.80469,-22.99219 5.23826,-5.69525 12.28708,-8.54291 21.14648,-8.54297 7.94527,6e-5 14.22066,2.56647 18.82617,7.69922 4.64057,5.0977 6.96088,12.04106 6.96094,20.83008 m -9.70312,-2.84766 c -0.0704,-5.30855 -1.56451,-9.54488 -4.48243,-12.70898 -2.88285,-3.16401 -6.71488,-4.74604 -11.49609,-4.7461 -5.41409,6e-5 -9.75588,1.52935 -13.02539,4.58789 -3.23439,3.05864 -5.09767,7.36528 -5.58984,12.91993 l 34.59375,-0.0527"
         style="fill:#ffd912;fill-opacity:1;stroke:none"
         id="path3865"
         inkscape:connector-curvature="0" /><path
         d="m 478.75391,166.9575 0,-31.95703 9.70312,0 0,82.05469 -9.70312,0 0,-8.85938 c -2.03911,3.51563 -4.6231,6.13477 -7.75196,7.85743 -3.09379,1.6875 -6.82034,2.53124 -11.17968,2.53125 -7.13675,-1e-5 -12.9551,-2.84766 -17.45508,-8.54297 -4.46485,-5.6953 -6.69727,-13.18358 -6.69727,-22.46485 0,-9.28121 2.23242,-16.76948 6.69727,-22.46484 4.49998,-5.69525 10.31833,-8.54291 17.45508,-8.54297 4.35934,6e-5 8.08589,0.86139 11.17968,2.58399 3.12886,1.68755 5.71285,4.28911 7.75196,7.80468 m -33.06446,20.61914 c -1e-5,7.13674 1.45897,12.74416 4.37696,16.82227 2.9531,4.04298 6.99606,6.06446 12.1289,6.06445 5.13278,1e-5 9.17574,-2.02147 12.12891,-6.06445 2.95308,-4.07811 4.42964,-9.68553 4.42969,-16.82227 -5e-5,-7.13668 -1.47661,-12.72652 -4.42969,-16.76953 -2.95317,-4.07807 -6.99613,-6.11713 -12.12891,-6.11718 -5.13284,5e-5 -9.1758,2.03911 -12.1289,6.11718 -2.91799,4.04301 -4.37697,9.63285 -4.37696,16.76953"
         style="fill:#ffd912;fill-opacity:1;stroke:none"
         id="path3867"
         inkscape:connector-curvature="0" /></g></g></svg>