<?xml version="1.0" encoding="UTF-8" standalone="no"?>
<!-- Created with Inkscape (http://www.inkscape.org/) -->

<svg
   xmlns:dc="http://purl.org/dc/elements/1.1/"
   xmlns:cc="http://creativecommons.org/ns#"
   xmlns:rdf="http://www.w3.org/1999/02/22-rdf-syntax-ns#"
   xmlns:svg="http://www.w3.org/2000/svg"
   xmlns="http://www.w3.org/2000/svg"
   version="1.2"
   width="516.25543"
   height="421.84067"
   id="svg2"
   xml:space="preserve"><metadata
     id="metadata8"><rdf:RDF><cc:Work
         rdf:about=""><dc:format>image/svg+xml</dc:format><dc:type
           rdf:resource="http://purl.org/dc/dcmitype/StillImage" /><dc:title></dc:title></cc:Work></rdf:RDF></metadata><defs
     id="defs6"><clipPath
       id="clipPath16"><path
         d="m 392.307,99.932 c 3.649,-2.391 7.289,-4.894 10.753,-7.416 l 0,0 c 3.511,-2.559 6.843,-5.138 9.822,-7.641 l 0,0 c 3.015,-2.538 5.667,-4.998 7.764,-7.273 l 0,0 3.161,9.49 c 0.188,-0.109 0.37,-0.218 0.544,-0.328 l 0,0 c 0.177,-0.107 0.349,-0.215 0.517,-0.323 l 0,0 c 0.166,-0.11 0.33,-0.218 0.488,-0.325 l 0,0 c 0.159,-0.109 0.312,-0.218 0.464,-0.327 l 0,0 c 0.642,-0.464 1.216,-0.933 1.716,-1.41 l 0,0 c 0.502,-0.478 0.931,-0.961 1.291,-1.453 l 0,0 c 0.36,-0.494 0.645,-0.997 0.857,-1.509 l 0,0 c 0.215,-0.513 0.354,-1.037 0.419,-1.575 l 0,0 c 0.117,-0.942 -0.026,-1.906 -0.419,-2.889 l 0,0 c -0.398,-0.991 -1.05,-1.999 -1.953,-3.015 l 0,0 c -0.908,-1.026 -2.07,-2.062 -3.478,-3.097 l 0,0 c -1.42,-1.046 -3.092,-2.091 -5.008,-3.131 l 0,0 c -2.894,-1.581 -6.332,-3.15 -10.252,-4.691 l 0,0 c -3.977,-1.568 -8.449,-3.108 -13.353,-4.607 l 0,0 c -4.981,-1.521 -10.405,-3.001 -16.204,-4.423 l 0,0 c -5.887,-1.443 -12.16,-2.826 -18.738,-4.131 l 0,0 c -6.676,-1.325 -13.663,-2.573 -20.88,-3.726 l 0,0 c -7.321,-1.169 -14.868,-2.238 -22.544,-3.191 l 0,0 c -7.779,-0.963 -15.681,-1.807 -23.6,-2.513 l 0,0 c -8.015,-0.712 -16.035,-1.282 -23.939,-1.688 l 0,0 c -0.01,0 -0.018,0 -0.027,-0.001 l 0,0 -0.026,0 -0.027,0 c -0.008,-0.003 -0.018,-0.003 -0.025,-0.003 l 0,0 C 258.609,38.17 247.421,37.88 236.209,37.858 l 0,0 c -11.342,-0.026 -22.676,0.225 -33.861,0.736 l 0,0 c -11.277,0.514 -22.366,1.286 -33.117,2.31 l 0,0 c -10.808,1.028 -21.239,2.301 -31.146,3.799 l 0,0 c -4.966,0.752 -9.794,1.556 -14.463,2.416 l 0,0 c -4.669,0.858 -9.179,1.764 -13.511,2.722 l 0,0 c -4.327,0.955 -8.472,1.955 -12.421,3.001 l 0,0 c -3.943,1.044 -7.684,2.125 -11.21,3.248 l 0,0 c -3.52,1.118 -6.82,2.271 -9.893,3.458 l 0,0 c -3.063,1.181 -5.896,2.394 -8.493,3.631 l 0,0 c -2.588,1.234 -4.937,2.495 -7.044,3.78 l 0,0 c -2.098,1.275 -3.952,2.575 -5.56,3.894 l 0,0 c -0.937,0.768 -1.783,1.515 -2.541,2.244 l 0,0 c -0.758,0.724 -1.426,1.428 -2.009,2.11 l 0,0 c -0.581,0.681 -1.077,1.342 -1.49,1.98 l 0,0 c -0.414,0.636 -0.746,1.251 -0.997,1.846 l 0,0 c -0.308,0.729 -0.504,1.429 -0.587,2.098 l 0,0 c -0.086,0.665 -0.062,1.301 0.07,1.912 l 0,0 c 0.131,0.608 0.369,1.193 0.707,1.754 l 0,0 c 0.339,0.561 0.78,1.098 1.32,1.62 l 0,0 c 0.802,0.772 1.849,1.52 3.164,2.24 l 0,0 c 1.309,0.716 2.882,1.401 4.743,2.056 l 0,0 c 1.849,0.651 3.985,1.271 6.427,1.856 l 0,0 c 2.427,0.579 5.159,1.127 8.215,1.635 l 0,0 c 3.025,0.504 6.355,0.963 9.99,1.377 l 0,0 c 3.611,0.41 7.516,0.91 11.731,1.089 l 0,0 c 1.63,0.068 1.618,0.068 1.577,0.067 l 0,0 c -0.048,-10e-4 -0.136,-10e-4 2.452,0.116 l 0,0 0,6.486 c -6.506,-0.32 -12.99,-0.742 -18.596,-1.267 l 0,0 c -5.659,-0.532 -10.862,-1.174 -15.617,-1.928 l 0,0 C 59.251,99.383 54.91,98.502 51.023,97.495 l 0,0 c -1.951,-0.506 -3.783,-1.051 -5.49,-1.628 l 0,0 c -1.715,-0.582 -3.304,-1.198 -4.758,-1.849 l 0,0 c -1.461,-0.656 -2.787,-1.346 -3.967,-2.071 l 0,0 C 35.622,91.217 34.582,90.452 33.7,89.649 l 0,0 C 32.805,88.845 32.076,88.01 31.51,87.144 l 0,0 c -0.571,-0.868 -0.977,-1.763 -1.223,-2.685 l 0,0 c -0.249,-0.925 -0.335,-1.875 -0.261,-2.843 l 0,0 c 0.072,-0.975 0.304,-1.97 0.695,-2.98 l 0,0 c 0.316,-0.825 0.734,-1.659 1.248,-2.505 l 0,0 c 0.516,-0.851 1.129,-1.713 1.839,-2.583 l 0,0 c 0.712,-0.877 1.52,-1.764 2.422,-2.662 l 0,0 c 0.905,-0.903 1.904,-1.816 2.995,-2.742 l 0,0 c 2,-1.695 4.301,-3.351 6.886,-4.961 l 0,0 c 2.6,-1.622 5.482,-3.198 8.625,-4.723 l 0,0 c 3.158,-1.534 6.577,-3.017 10.23,-4.446 l 0,0 c 3.668,-1.433 7.571,-2.812 11.682,-4.131 l 0,0 c 6.2,-1.989 12.863,-3.843 19.938,-5.562 l 0,0 c 7.09,-1.724 14.576,-3.307 22.398,-4.743 l 0,0 c 7.823,-1.433 15.967,-2.722 24.371,-3.858 l 0,0 c 8.386,-1.132 17.014,-2.112 25.826,-2.937 l 0,0 c 8.774,-0.815 17.716,-1.475 26.764,-1.969 l 0,0 c 8.992,-0.495 18.074,-0.824 27.186,-0.989 l 0,0 c 9.039,-0.162 18.089,-0.16 27.094,0.006 l 0,0 c 8.92,0.167 17.782,0.499 26.528,0.995 l 0,0 c 12.74,0.726 25.615,1.846 38.258,3.291 l 0,0 c 12.386,1.416 24.508,3.137 36.048,5.101 l 0,0 c 11.278,1.922 21.977,4.069 31.821,6.383 l 0,0 c 9.614,2.265 18.406,4.685 26.142,7.215 l 0,0 c 3.797,1.248 7.336,2.519 10.596,3.816 l 0,0 c 3.221,1.279 6.168,2.581 8.809,3.905 l 0,0 c 2.613,1.307 4.929,2.638 6.922,3.986 l 0,0 c 1.973,1.334 3.63,2.687 4.944,4.058 l 0,0 c 0.651,0.68 1.217,1.367 1.696,2.06 l 0,0 c 0.475,0.688 0.86,1.384 1.15,2.086 l 0,0 c 0.29,0.699 0.483,1.405 0.577,2.119 l 0,0 c 0.094,0.71 0.087,1.431 -0.026,2.158 l 0,0 c -0.111,0.722 -0.329,1.457 -0.669,2.2 l 0,0 c -0.338,0.742 -0.792,1.494 -1.371,2.252 l 0,0 c -0.577,0.756 -1.276,1.519 -2.104,2.285 l 0,0 c -0.827,0.764 -1.782,1.532 -2.873,2.303 l 0,0 c -0.516,0.365 -1.059,0.73 -1.631,1.093 l 0,0 c -0.572,0.363 -1.172,0.724 -1.801,1.085 l 0,0 c -0.626,0.36 -1.279,0.718 -1.961,1.075 l 0,0 c -0.678,0.355 -1.384,0.708 -2.117,1.058 l 0,0 21.162,2.427 c -4.91,0.632 -10.347,1.479 -16.074,2.479 l 0,0 c -5.73,1 -11.742,2.154 -17.797,3.396 l 0,0 c -6.052,1.239 -12.141,2.566 -18.033,3.915 l 0,0 c -5.881,1.348 -11.562,2.717 -16.81,4.046 l 0,0 c 3.474,-2.065 7.091,-4.323 10.696,-6.686"
         id="path18" /></clipPath><linearGradient
       x1="0"
       y1="0"
       x2="1"
       y2="0"
       id="linearGradient24"
       gradientUnits="userSpaceOnUse"
       gradientTransform="matrix(420.3252,0,0,-420.3252,30.000004,68.161629)"
       spreadMethod="pad"><stop
         id="stop26"
         style="stop-color:#f4e6df;stop-opacity:1"
         offset="0" /><stop
         id="stop28"
         style="stop-color:#b64138;stop-opacity:1"
         offset="1" /></linearGradient><clipPath
       id="clipPath36"><path
         d="M 0,246 820,246 820,0 0,0 0,246 z"
         id="path38" /></clipPath></defs><g
     transform="matrix(1.25,0,0,-1.25,-263.25778,381.98382)"
     id="g10"
     style="display:inline"><g
       id="g3063"
       style="display:inline"><g
         transform="matrix(1.0030727,0,0,1.0030727,172.32896,65.375725)"
         id="g32"><g
           clip-path="url(#clipPath36)"
           id="g34"
           style="fill:#ffffff"><g
             transform="translate(127.2559,120.1475)"
             id="g40"
             style="fill:#ffffff"><path
               d="M 0,0 5.812,0 C 16.711,0 22.16,5.69 22.16,17.072 22.16,28.454 16.711,34.146 5.812,34.146 L 0,34.146 0,0 z m -28.771,-55.874 0,99.175 42.648,0 c 11.091,0 19.955,-2.338 26.592,-7.012 6.635,-4.674 9.953,-10.935 9.953,-18.78 0,-12.013 -7.119,-19.836 -21.361,-23.468 7.313,-2.713 12.048,-5.692 14.205,-8.937 2.154,-3.245 3.62,-9.543 4.394,-18.889 0.92,-11.142 2.785,-18.505 5.596,-22.089 l -31.242,0 c -1.987,4.601 -2.979,10.341 -2.979,17.22 l -0.144,5.884 -0.146,7.412 c 0,11.431 -4.602,17.145 -13.806,17.145 l -4.939,0 0,-47.661 -28.771,0 z"
               id="path42"
               style="fill:#ffffff;fill-opacity:1;fill-rule:nonzero;stroke:none" /></g><g
             transform="translate(127.2559,120.1475)"
             id="g44"
             style="fill:#ffffff"><path
               d="M 0,0 5.812,0 C 16.711,0 22.16,5.69 22.16,17.072 22.16,28.454 16.711,34.146 5.812,34.146 L 0,34.146 0,0 z m -28.771,-55.874 0,99.175 42.648,0 c 11.091,0 19.955,-2.338 26.592,-7.012 6.635,-4.674 9.953,-10.935 9.953,-18.78 0,-12.013 -7.119,-19.836 -21.361,-23.468 7.313,-2.713 12.048,-5.692 14.205,-8.937 2.154,-3.245 3.62,-9.543 4.394,-18.889 0.92,-11.142 2.785,-18.505 5.596,-22.089 l -31.242,0 c -1.987,4.601 -2.979,10.341 -2.979,17.22 l -0.144,5.884 -0.146,7.412 c 0,11.431 -4.602,17.145 -13.806,17.145 l -4.939,0 0,-47.661 -28.771,0 z"
               id="path46"
               style="fill:#ffffff;stroke:#b64138;stroke-width:1;stroke-linecap:butt;stroke-linejoin:miter;stroke-miterlimit:4;stroke-opacity:1;stroke-dasharray:none" /></g><g
             transform="translate(255.1982,163.4482)"
             id="g48"
             style="fill:#ffffff"><path
               d="m 0,0 0,-9.954 -24.338,0 0,-89.221 -30.514,0 0,89.221 -24.485,0 0,9.954 L 0,0 z"
               id="path50"
               style="fill:#ffffff;fill-opacity:1;fill-rule:nonzero;stroke:none" /></g><g
             transform="translate(255.1982,163.4482)"
             id="g52"
             style="fill:#ffffff"><path
               d="m 0,0 0,-9.954 -24.338,0 0,-89.221 -30.514,0 0,89.221 -24.485,0 0,9.954 L 0,0 z"
               id="path54"
               style="fill:#ffffff;stroke:#b64138;stroke-width:1;stroke-linecap:butt;stroke-linejoin:miter;stroke-miterlimit:4;stroke-opacity:1;stroke-dasharray:none" /></g><g
             transform="translate(389.583,231)"
             id="g56"
             style="fill:#ffffff"><path
               d="m 0,0 -74.08,-109.982 31.603,-56.745 -31.968,0 -19.035,34.876 -21.141,-34.876 -12.934,0 27.971,45.336 -29.932,53.839 31.895,0 17.728,-32.332 L -28.375,-9.97 0,0 z"
               id="path58"
               style="fill:#ffffff;fill-opacity:1;fill-rule:nonzero;stroke:none" /></g><g
             transform="translate(389.583,231)"
             id="g60"
             style="fill:#ffffff"><path
               d="m 0,0 -74.08,-109.982 31.603,-56.745 -31.968,0 -19.035,34.876 -21.141,-34.876 -12.934,0 27.971,45.336 -29.932,53.839 31.895,0 17.728,-32.332 L -28.375,-9.97 0,0 z"
               id="path62"
               style="fill:#ffffff;stroke:#b64138;stroke-width:1;stroke-linecap:butt;stroke-linejoin:miter;stroke-miterlimit:4;stroke-opacity:1;stroke-dasharray:none" /></g><path
             d="m 381.353,64.273 -28.771,0 0,99.175 28.771,0 0,-99.175 z"
             id="path64"
             style="fill:#ffffff;fill-opacity:1;fill-rule:nonzero;stroke:#b64138;stroke-width:1;stroke-linecap:butt;stroke-linejoin:miter;stroke-miterlimit:4;stroke-opacity:1;stroke-dasharray:none" /></g></g><g
         id="layer1"
         style="display:inline" /><g
         transform="matrix(0.79293715,0,0,-0.8891124,259.49916,345.6022)"
         id="flowRoot3053"
         style="font-size:140px;font-style:italic;font-variant:normal;font-weight:bold;font-stretch:normal;line-height:125%;letter-spacing:0px;word-spacing:0px;fill:#ffcc00;fill-opacity:1;stroke:none;font-family:Cantarell;-inkscape-font-specification:Cantarell Bold Italic"><path
           d="m 33.8875,281.06386 c 8.819991,-3.5 17.36001,-7.42 27.16,-7.42 12.319988,0 15.959998,4.90001 14.42,12.74 -2.519997,12.31999 -20.580017,26.32001 -37.52,41.02 -8.679991,7.55999 -15.680006,12.6 -21.84,17.5 l -2.1,10.78 66.78,0 3.08,-15.12 -39.06,0 c 21.979978,-18.75998 44.240004,-36.12002 48.16,-55.3 3.079997,-15.81998 -5.180023,-28 -28.56,-28 -13.159987,0 -25.200007,5.32 -32.62,8.82 l 2.1,14.98"
           id="path3104"
           style="fill:#ffcc00;font-family:Cantarell;-inkscape-font-specification:Cantarell Bold Italic" /><path
           d="m 156.82937,273.36386 c 10.21999,0 23.66,7.42002 18.48,33.04 -5.31999,27.01997 -21.98001,34.72 -32.05999,34.72 -10.21999,0 -23.8,-7.70003 -18.34001,-35.14 5.04,-25.19998 21.84002,-32.62 31.92,-32.62 m 3.22,-16.1 c -17.91998,0 -44.8,11.06004 -52.36,48.72 -7.839987,39.33996 14.14002,51.1 32.34001,51.1 18.05998,0 44.66,-11.48004 52.63999,-50.96 7.56,-37.79996 -14.56001,-48.86 -32.62,-48.86"
           id="path3106"
           style="fill:#ffcc00;font-family:Cantarell;-inkscape-font-specification:Cantarell Bold Italic" /><path
           d="m 247.15125,258.52386 -28.84,11.9 2.66,13.44 22.68,-8.54 -13.16,65.94 -24.5,0 -2.94,14.42 64.4,0 2.94,-14.42 -22.68,0 16.52,-82.74 -17.08,0"
           id="path3108"
           style="fill:#ffcc00;font-family:Cantarell;-inkscape-font-specification:Cantarell Bold Italic" /><path
           d="m 313.53312,258.52386 -10.5,52.22 c 13.99999,-1.68 21.28001,-2.1 25.90001,-2.1 19.31998,0 21.83999,9.38001 20.57999,15.68 -1.39999,6.57999 -6.30002,16.66 -27.3,16.66 -8.67999,0 -15.96,-1.96 -24.36,-4.76 l -7.56,15.4 c 10.07999,3.64 17.78002,5.46 28.14001,5.46 34.85996,0 46.2,-20.30001 48.44,-31.5 2.93999,-14.83999 -1.40003,-32.62 -30.80001,-32.62 -4.61999,0 -9.24,0.28 -12.74,0.56 l 3.78001,-19.18 43.26,0 3.21999,-15.82 -60.06,0"
           id="path3110"
           style="fill:#ffcc00;font-family:Cantarell;-inkscape-font-specification:Cantarell Bold Italic" /></g></g></g></svg>